G04*
G04 #@! TF.GenerationSoftware,Altium Limited,Altium Designer,24.5.2 (23)*
G04*
G04 Layer_Color=255*
%FSLAX25Y25*%
%MOIN*%
G70*
G04*
G04 #@! TF.SameCoordinates,AE978B62-B8FB-41D0-B00F-23312ADA98A8*
G04*
G04*
G04 #@! TF.FilePolarity,Positive*
G04*
G01*
G75*
%ADD13R,0.03150X0.03150*%
%ADD22C,0.06000*%
%ADD23C,0.05906*%
%ADD24R,0.05906X0.05906*%
%ADD25C,0.05906*%
%ADD26R,0.05906X0.05906*%
D13*
X121274Y71305D02*
D03*
Y77211D02*
D03*
X68474Y71305D02*
D03*
Y77211D02*
D03*
X121274Y95970D02*
D03*
Y90065D02*
D03*
X68474Y95970D02*
D03*
Y90065D02*
D03*
X108074Y71305D02*
D03*
Y77211D02*
D03*
X55274Y71305D02*
D03*
Y77211D02*
D03*
Y95970D02*
D03*
Y90065D02*
D03*
X94874Y71305D02*
D03*
Y77211D02*
D03*
X42074Y71305D02*
D03*
Y77211D02*
D03*
X94874Y95970D02*
D03*
Y90065D02*
D03*
X42074Y95970D02*
D03*
Y90065D02*
D03*
X81674Y71305D02*
D03*
Y77211D02*
D03*
X28874Y71305D02*
D03*
Y77211D02*
D03*
Y95970D02*
D03*
Y90065D02*
D03*
X81674Y95970D02*
D03*
Y90065D02*
D03*
X108074Y95970D02*
D03*
Y90065D02*
D03*
D22*
X46233Y24612D02*
D03*
X28516D02*
D03*
X46233Y42329D02*
D03*
X28516D02*
D03*
X117733Y24612D02*
D03*
X100016D02*
D03*
X117733Y42329D02*
D03*
X100016D02*
D03*
D23*
X226874Y90470D02*
D03*
Y80471D02*
D03*
X216874Y90470D02*
D03*
Y80471D02*
D03*
X206874Y90470D02*
D03*
Y80471D02*
D03*
X196874Y90470D02*
D03*
Y80471D02*
D03*
X186874Y90470D02*
D03*
Y80471D02*
D03*
X176874Y90470D02*
D03*
Y80471D02*
D03*
X166874Y90470D02*
D03*
Y80471D02*
D03*
X156874Y90470D02*
D03*
X226874Y48471D02*
D03*
X216874D02*
D03*
X206874D02*
D03*
X196874D02*
D03*
X186874D02*
D03*
X176874D02*
D03*
X226874Y18471D02*
D03*
D24*
X156874Y80471D02*
D03*
D25*
X216874Y18471D02*
D03*
X206874D02*
D03*
X196874D02*
D03*
X186874D02*
D03*
D26*
X176874D02*
D03*
M02*
