G04*
G04 #@! TF.GenerationSoftware,Altium Limited,Altium Designer,24.5.2 (23)*
G04*
G04 Layer_Color=16711935*
%FSLAX25Y25*%
%MOIN*%
G70*
G04*
G04 #@! TF.SameCoordinates,AE978B62-B8FB-41D0-B00F-23312ADA98A8*
G04*
G04*
G04 #@! TF.FilePolarity,Negative*
G04*
G01*
G75*
%ADD15C,0.06800*%
%ADD16C,0.06706*%
%ADD17R,0.06706X0.06706*%
%ADD18C,0.06706*%
%ADD19R,0.06706X0.06706*%
%ADD20C,0.03800*%
%ADD30R,0.04737X0.05131*%
%ADD31R,0.05131X0.04737*%
D15*
X46233Y24612D02*
D03*
X28516D02*
D03*
X46233Y42329D02*
D03*
X28516D02*
D03*
X117733Y24612D02*
D03*
X100016D02*
D03*
X117733Y42329D02*
D03*
X100016D02*
D03*
D16*
X226874Y90470D02*
D03*
Y80471D02*
D03*
X216874Y90470D02*
D03*
Y80471D02*
D03*
X206874Y90470D02*
D03*
Y80471D02*
D03*
X196874Y90470D02*
D03*
Y80471D02*
D03*
X186874Y90470D02*
D03*
Y80471D02*
D03*
X176874Y90470D02*
D03*
Y80471D02*
D03*
X166874Y90470D02*
D03*
Y80471D02*
D03*
X156874Y90470D02*
D03*
X226874Y48471D02*
D03*
X216874D02*
D03*
X206874D02*
D03*
X196874D02*
D03*
X186874D02*
D03*
X176874D02*
D03*
X226874Y18471D02*
D03*
D17*
X156874Y80471D02*
D03*
D18*
X216874Y18471D02*
D03*
X206874D02*
D03*
X196874D02*
D03*
X186874D02*
D03*
D19*
X176874D02*
D03*
D20*
X121274Y83470D02*
D03*
X107874D02*
D03*
X94874Y83638D02*
D03*
X81674D02*
D03*
X68474D02*
D03*
X55274Y83470D02*
D03*
X42074Y83638D02*
D03*
X28874D02*
D03*
D30*
X186874Y63124D02*
D03*
Y69817D02*
D03*
X176874Y63124D02*
D03*
Y69817D02*
D03*
X166874Y63124D02*
D03*
Y69817D02*
D03*
X156874Y63124D02*
D03*
Y69817D02*
D03*
D31*
X34028Y32970D02*
D03*
X40721D02*
D03*
X106028Y33470D02*
D03*
X112721D02*
D03*
M02*
