G04*
G04 #@! TF.GenerationSoftware,Altium Limited,Altium Designer,24.5.2 (23)*
G04*
G04 Layer_Color=65535*
%FSLAX25Y25*%
%MOIN*%
G70*
G04*
G04 #@! TF.SameCoordinates,AE978B62-B8FB-41D0-B00F-23312ADA98A8*
G04*
G04*
G04 #@! TF.FilePolarity,Positive*
G04*
G01*
G75*
%ADD10C,0.01000*%
%ADD11C,0.00787*%
%ADD12C,0.00800*%
D10*
X42689Y33470D02*
G03*
X42689Y33470I-5315J0D01*
G01*
X114190D02*
G03*
X114190Y33470I-5315J0D01*
G01*
X26374Y22470D02*
Y43971D01*
Y22470D02*
X48874D01*
Y43971D01*
X26374D02*
X48874D01*
X97874Y22470D02*
Y43971D01*
Y22470D02*
X120374D01*
Y43971D01*
X97874D02*
X120374D01*
D11*
X168685Y30970D02*
G03*
X168685Y35971I0J2500D01*
G01*
X118125Y75636D02*
Y80360D01*
X124424Y75636D02*
Y80360D01*
X118125D02*
X124424D01*
X119700Y66974D02*
X122849D01*
X118125Y68943D02*
Y72880D01*
X122849Y66974D02*
X124424Y68943D01*
X118125D02*
X119700Y66974D01*
X124424Y68943D02*
Y72880D01*
X65325Y75636D02*
Y80360D01*
X71624Y75636D02*
Y80360D01*
X65325D02*
X71624D01*
X66900Y66974D02*
X70049D01*
X65325Y68943D02*
Y72880D01*
X70049Y66974D02*
X71624Y68943D01*
X65325D02*
X66900Y66974D01*
X71624Y68943D02*
Y72880D01*
X124424Y86915D02*
Y91640D01*
X118125Y86915D02*
Y91640D01*
Y86915D02*
X124424D01*
X119700Y100301D02*
X122849D01*
X124424Y94396D02*
Y98333D01*
X118125D02*
X119700Y100301D01*
X122849D02*
X124424Y98333D01*
X118125Y94396D02*
Y98333D01*
X71624Y86915D02*
Y91640D01*
X65325Y86915D02*
Y91640D01*
Y86915D02*
X71624D01*
X66900Y100301D02*
X70049D01*
X71624Y94396D02*
Y98333D01*
X65325D02*
X66900Y100301D01*
X70049D02*
X71624Y98333D01*
X65325Y94396D02*
Y98333D01*
X104925Y75636D02*
Y80360D01*
X111224Y75636D02*
Y80360D01*
X104925D02*
X111224D01*
X106500Y66974D02*
X109649D01*
X104925Y68943D02*
Y72880D01*
X109649Y66974D02*
X111224Y68943D01*
X104925D02*
X106500Y66974D01*
X111224Y68943D02*
Y72880D01*
X52125Y75636D02*
Y80360D01*
X58424Y75636D02*
Y80360D01*
X52125D02*
X58424D01*
X53700Y66974D02*
X56849D01*
X52125Y68943D02*
Y72880D01*
X56849Y66974D02*
X58424Y68943D01*
X52125D02*
X53700Y66974D01*
X58424Y68943D02*
Y72880D01*
Y86915D02*
Y91640D01*
X52125Y86915D02*
Y91640D01*
Y86915D02*
X58424D01*
X53700Y100301D02*
X56849D01*
X58424Y94396D02*
Y98333D01*
X52125D02*
X53700Y100301D01*
X56849D02*
X58424Y98333D01*
X52125Y94396D02*
Y98333D01*
X91725Y75636D02*
Y80360D01*
X98024Y75636D02*
Y80360D01*
X91725D02*
X98024D01*
X93300Y66974D02*
X96449D01*
X91725Y68943D02*
Y72880D01*
X96449Y66974D02*
X98024Y68943D01*
X91725D02*
X93300Y66974D01*
X98024Y68943D02*
Y72880D01*
X38925Y75636D02*
Y80360D01*
X45224Y75636D02*
Y80360D01*
X38925D02*
X45224D01*
X40500Y66974D02*
X43649D01*
X38925Y68943D02*
Y72880D01*
X43649Y66974D02*
X45224Y68943D01*
X38925D02*
X40500Y66974D01*
X45224Y68943D02*
Y72880D01*
X98024Y86915D02*
Y91640D01*
X91725Y86915D02*
Y91640D01*
Y86915D02*
X98024D01*
X93300Y100301D02*
X96449D01*
X98024Y94396D02*
Y98333D01*
X91725D02*
X93300Y100301D01*
X96449D02*
X98024Y98333D01*
X91725Y94396D02*
Y98333D01*
X45224Y86915D02*
Y91640D01*
X38925Y86915D02*
Y91640D01*
Y86915D02*
X45224D01*
X40500Y100301D02*
X43649D01*
X45224Y94396D02*
Y98333D01*
X38925D02*
X40500Y100301D01*
X43649D02*
X45224Y98333D01*
X38925Y94396D02*
Y98333D01*
X78525Y75636D02*
Y80360D01*
X84824Y75636D02*
Y80360D01*
X78525D02*
X84824D01*
X80100Y66974D02*
X83249D01*
X78525Y68943D02*
Y72880D01*
X83249Y66974D02*
X84824Y68943D01*
X78525D02*
X80100Y66974D01*
X84824Y68943D02*
Y72880D01*
X25725Y75636D02*
Y80360D01*
X32024Y75636D02*
Y80360D01*
X25725D02*
X32024D01*
X27300Y66974D02*
X30449D01*
X25725Y68943D02*
Y72880D01*
X30449Y66974D02*
X32024Y68943D01*
X25725D02*
X27300Y66974D01*
X32024Y68943D02*
Y72880D01*
Y86915D02*
Y91640D01*
X25725Y86915D02*
Y91640D01*
Y86915D02*
X32024D01*
X27300Y100301D02*
X30449D01*
X32024Y94396D02*
Y98333D01*
X25725D02*
X27300Y100301D01*
X30449D02*
X32024Y98333D01*
X25725Y94396D02*
Y98333D01*
X84824Y86915D02*
Y91640D01*
X78525Y86915D02*
Y91640D01*
Y86915D02*
X84824D01*
X80100Y100301D02*
X83249D01*
X84824Y94396D02*
Y98333D01*
X78525D02*
X80100Y100301D01*
X83249D02*
X84824Y98333D01*
X78525Y94396D02*
Y98333D01*
X111224Y86915D02*
Y91640D01*
X104925Y86915D02*
Y91640D01*
Y86915D02*
X111224D01*
X106500Y100301D02*
X109649D01*
X111224Y94396D02*
Y98333D01*
X104925D02*
X106500Y100301D01*
X109649D02*
X111224Y98333D01*
X104925Y94396D02*
Y98333D01*
X151874Y95470D02*
X231874D01*
X151874Y75471D02*
X231874D01*
X151874D02*
Y95470D01*
X231874Y75471D02*
Y95470D01*
X168685Y43904D02*
X234985D01*
X168685Y23037D02*
X234985D01*
Y43904D01*
X168685Y35971D02*
Y43904D01*
Y23037D02*
Y30970D01*
D12*
X146874Y76970D02*
X148874D01*
X147874D01*
Y82968D01*
X146874Y81969D01*
X165874Y8970D02*
Y12269D01*
X167524D01*
X168074Y11720D01*
Y10620D01*
X167524Y10070D01*
X165874D01*
X169173Y8970D02*
Y12269D01*
X170823D01*
X171373Y11720D01*
Y10620D01*
X170823Y10070D01*
X169173D01*
X170273D02*
X171373Y8970D01*
X174122Y12269D02*
X173022D01*
X172472Y11720D01*
Y9520D01*
X173022Y8970D01*
X174122D01*
X174672Y9520D01*
Y11720D01*
X174122Y12269D01*
X175771D02*
X177971D01*
X176871D01*
Y8970D01*
X179070D02*
Y9520D01*
X179620D01*
Y8970D01*
X179070D01*
X185118D02*
Y11170D01*
X186218Y12269D01*
X187318Y11170D01*
Y8970D01*
Y10620D01*
X185118D01*
X190067Y8970D02*
Y12269D01*
X188417Y10620D01*
X190616D01*
X195015Y8970D02*
Y11170D01*
X196115Y12269D01*
X197214Y11170D01*
Y8970D01*
Y10620D01*
X195015D01*
X198314Y11720D02*
X198864Y12269D01*
X199963D01*
X200513Y11720D01*
Y11170D01*
X199963Y10620D01*
X199414D01*
X199963D01*
X200513Y10070D01*
Y9520D01*
X199963Y8970D01*
X198864D01*
X198314Y9520D01*
X204912Y8970D02*
Y11170D01*
X206011Y12269D01*
X207111Y11170D01*
Y8970D01*
Y10620D01*
X204912D01*
X210410Y8970D02*
X208211D01*
X210410Y11170D01*
Y11720D01*
X209860Y12269D01*
X208760D01*
X208211Y11720D01*
X214809Y8970D02*
Y11170D01*
X215908Y12269D01*
X217008Y11170D01*
Y8970D01*
Y10620D01*
X214809D01*
X218108Y8970D02*
X219207D01*
X218657D01*
Y12269D01*
X218108Y11720D01*
X224155Y8970D02*
Y11170D01*
X225255Y12269D01*
X226355Y11170D01*
Y8970D01*
Y10620D01*
X224155D01*
X227454Y11720D02*
X228004Y12269D01*
X229104D01*
X229654Y11720D01*
Y9520D01*
X229104Y8970D01*
X228004D01*
X227454Y9520D01*
Y11720D01*
X188874Y54470D02*
Y56670D01*
X189974Y57769D01*
X191074Y56670D01*
Y54470D01*
Y56120D01*
X188874D01*
X192173Y57769D02*
Y54470D01*
X193823D01*
X194373Y55020D01*
Y57220D01*
X193823Y57769D01*
X192173D01*
X195472D02*
Y54470D01*
X197122D01*
X197672Y55020D01*
Y57220D01*
X197122Y57769D01*
X195472D01*
X198771Y54470D02*
Y57769D01*
X200421D01*
X200971Y57220D01*
Y56120D01*
X200421Y55570D01*
X198771D01*
X199871D02*
X200971Y54470D01*
X204270Y57769D02*
X202070D01*
Y54470D01*
X204270D01*
X202070Y56120D02*
X203170D01*
X207568Y57220D02*
X207019Y57769D01*
X205919D01*
X205369Y57220D01*
Y56670D01*
X205919Y56120D01*
X207019D01*
X207568Y55570D01*
Y55020D01*
X207019Y54470D01*
X205919D01*
X205369Y55020D01*
X210867Y57220D02*
X210317Y57769D01*
X209218D01*
X208668Y57220D01*
Y56670D01*
X209218Y56120D01*
X210317D01*
X210867Y55570D01*
Y55020D01*
X210317Y54470D01*
X209218D01*
X208668Y55020D01*
X123374Y31971D02*
Y35269D01*
X125574Y31971D01*
Y35269D01*
X128873D02*
X126673D01*
Y31971D01*
X128873D01*
X126673Y33620D02*
X127773D01*
X129972Y35269D02*
X132172Y31971D01*
Y35269D02*
X129972Y31971D01*
X133271Y35269D02*
X135470D01*
X134371D01*
Y31971D01*
X54574Y35269D02*
X52374D01*
Y33620D01*
X53474D01*
X52374D01*
Y31971D01*
X55673Y35269D02*
Y32520D01*
X56223Y31971D01*
X57323D01*
X57873Y32520D01*
Y35269D01*
X58972Y31971D02*
Y35269D01*
X61172Y31971D01*
Y35269D01*
X64470Y34720D02*
X63921Y35269D01*
X62821D01*
X62271Y34720D01*
Y32520D01*
X62821Y31971D01*
X63921D01*
X64470Y32520D01*
X65570Y31971D02*
Y32520D01*
X66120D01*
Y31971D01*
X65570D01*
X24499Y62999D02*
X24000Y63499D01*
X23000D01*
X22500Y62999D01*
Y61000D01*
X23000Y60500D01*
X24000D01*
X24499Y61000D01*
X25499Y63499D02*
Y60500D01*
Y61999D01*
X27498D01*
Y63499D01*
Y60500D01*
X28498Y62999D02*
X28998Y63499D01*
X29998D01*
X30497Y62999D01*
Y62499D01*
X29998Y61999D01*
X30497Y61500D01*
Y61000D01*
X29998Y60500D01*
X28998D01*
X28498Y61000D01*
Y61500D01*
X28998Y61999D01*
X28498Y62499D01*
Y62999D01*
X28998Y61999D02*
X29998D01*
X36496Y62999D02*
X35996Y63499D01*
X34996D01*
X34496Y62999D01*
Y61000D01*
X34996Y60500D01*
X35996D01*
X36496Y61000D01*
X37495Y63499D02*
Y60500D01*
Y61999D01*
X39494D01*
Y63499D01*
Y60500D01*
X40494Y61000D02*
X40994Y60500D01*
X41994D01*
X42494Y61000D01*
Y62999D01*
X41994Y63499D01*
X40994D01*
X40494Y62999D01*
Y62499D01*
X40994Y61999D01*
X42494D01*
X48492Y62999D02*
X47992Y63499D01*
X46992D01*
X46492Y62999D01*
Y61000D01*
X46992Y60500D01*
X47992D01*
X48492Y61000D01*
X49491Y63499D02*
Y60500D01*
Y61999D01*
X51491D01*
Y63499D01*
Y60500D01*
X52490D02*
X53490D01*
X52990D01*
Y63499D01*
X52490Y62999D01*
X54989D02*
X55489Y63499D01*
X56489D01*
X56989Y62999D01*
Y61000D01*
X56489Y60500D01*
X55489D01*
X54989Y61000D01*
Y62999D01*
X62987D02*
X62487Y63499D01*
X61487D01*
X60988Y62999D01*
Y61000D01*
X61487Y60500D01*
X62487D01*
X62987Y61000D01*
X63987Y63499D02*
Y60500D01*
Y61999D01*
X65986D01*
Y63499D01*
Y60500D01*
X66986D02*
X67985D01*
X67485D01*
Y63499D01*
X66986Y62999D01*
X69485Y60500D02*
X70485D01*
X69985D01*
Y63499D01*
X69485Y62999D01*
X76982D02*
X76482Y63499D01*
X75483D01*
X74983Y62999D01*
Y61000D01*
X75483Y60500D01*
X76482D01*
X76982Y61000D01*
X77982Y63499D02*
Y60500D01*
Y61999D01*
X79981D01*
Y63499D01*
Y60500D01*
X80981D02*
X81981D01*
X81481D01*
Y63499D01*
X80981Y62999D01*
X85480Y60500D02*
X83480D01*
X85480Y62499D01*
Y62999D01*
X84980Y63499D01*
X83980D01*
X83480Y62999D01*
X91478D02*
X90978Y63499D01*
X89978D01*
X89478Y62999D01*
Y61000D01*
X89978Y60500D01*
X90978D01*
X91478Y61000D01*
X92477Y63499D02*
Y60500D01*
Y61999D01*
X94477D01*
Y63499D01*
Y60500D01*
X95476D02*
X96476D01*
X95976D01*
Y63499D01*
X95476Y62999D01*
X97976D02*
X98475Y63499D01*
X99475D01*
X99975Y62999D01*
Y62499D01*
X99475Y61999D01*
X98975D01*
X99475D01*
X99975Y61500D01*
Y61000D01*
X99475Y60500D01*
X98475D01*
X97976Y61000D01*
X105973Y62999D02*
X105473Y63499D01*
X104473D01*
X103974Y62999D01*
Y61000D01*
X104473Y60500D01*
X105473D01*
X105973Y61000D01*
X106973Y63499D02*
Y60500D01*
Y61999D01*
X108972D01*
Y63499D01*
Y60500D01*
X109972D02*
X110971D01*
X110471D01*
Y63499D01*
X109972Y62999D01*
X113970Y60500D02*
Y63499D01*
X112471Y61999D01*
X114470D01*
X120468Y62999D02*
X119968Y63499D01*
X118969D01*
X118469Y62999D01*
Y61000D01*
X118969Y60500D01*
X119968D01*
X120468Y61000D01*
X121468Y63499D02*
Y60500D01*
Y61999D01*
X123467D01*
Y63499D01*
Y60500D01*
X124467D02*
X125467D01*
X124967D01*
Y63499D01*
X124467Y62999D01*
X128966Y63499D02*
X126966D01*
Y61999D01*
X127966Y62499D01*
X128466D01*
X128966Y61999D01*
Y61000D01*
X128466Y60500D01*
X127466D01*
X126966Y61000D01*
X27574Y105720D02*
X27024Y106269D01*
X25924D01*
X25374Y105720D01*
Y103520D01*
X25924Y102971D01*
X27024D01*
X27574Y103520D01*
X28673Y106269D02*
Y102971D01*
Y104620D01*
X30873D01*
Y106269D01*
Y102971D01*
X31972Y105720D02*
X32522Y106269D01*
X33622D01*
X34172Y105720D01*
Y103520D01*
X33622Y102971D01*
X32522D01*
X31972Y103520D01*
Y105720D01*
X40769D02*
X40220Y106269D01*
X39120D01*
X38570Y105720D01*
Y103520D01*
X39120Y102971D01*
X40220D01*
X40769Y103520D01*
X41869Y106269D02*
Y102971D01*
Y104620D01*
X44068D01*
Y106269D01*
Y102971D01*
X45168D02*
X46268D01*
X45718D01*
Y106269D01*
X45168Y105720D01*
X53415D02*
X52865Y106269D01*
X51766D01*
X51216Y105720D01*
Y103520D01*
X51766Y102971D01*
X52865D01*
X53415Y103520D01*
X54515Y106269D02*
Y102971D01*
Y104620D01*
X56714D01*
Y106269D01*
Y102971D01*
X60013D02*
X57814D01*
X60013Y105170D01*
Y105720D01*
X59463Y106269D01*
X58364D01*
X57814Y105720D01*
X66611D02*
X66061Y106269D01*
X64962D01*
X64412Y105720D01*
Y103520D01*
X64962Y102971D01*
X66061D01*
X66611Y103520D01*
X67711Y106269D02*
Y102971D01*
Y104620D01*
X69910D01*
Y106269D01*
Y102971D01*
X71010Y105720D02*
X71560Y106269D01*
X72659D01*
X73209Y105720D01*
Y105170D01*
X72659Y104620D01*
X72109D01*
X72659D01*
X73209Y104070D01*
Y103520D01*
X72659Y102971D01*
X71560D01*
X71010Y103520D01*
X79807Y105720D02*
X79257Y106269D01*
X78157D01*
X77608Y105720D01*
Y103520D01*
X78157Y102971D01*
X79257D01*
X79807Y103520D01*
X80906Y106269D02*
Y102971D01*
Y104620D01*
X83106D01*
Y106269D01*
Y102971D01*
X85855D02*
Y106269D01*
X84205Y104620D01*
X86405D01*
X93002Y105720D02*
X92453Y106269D01*
X91353D01*
X90803Y105720D01*
Y103520D01*
X91353Y102971D01*
X92453D01*
X93002Y103520D01*
X94102Y106269D02*
Y102971D01*
Y104620D01*
X96301D01*
Y106269D01*
Y102971D01*
X99600Y106269D02*
X97401D01*
Y104620D01*
X98501Y105170D01*
X99050D01*
X99600Y104620D01*
Y103520D01*
X99050Y102971D01*
X97951D01*
X97401Y103520D01*
X106198Y105720D02*
X105648Y106269D01*
X104549D01*
X103999Y105720D01*
Y103520D01*
X104549Y102971D01*
X105648D01*
X106198Y103520D01*
X107298Y106269D02*
Y102971D01*
Y104620D01*
X109497D01*
Y106269D01*
Y102971D01*
X112796Y106269D02*
X111696Y105720D01*
X110597Y104620D01*
Y103520D01*
X111147Y102971D01*
X112246D01*
X112796Y103520D01*
Y104070D01*
X112246Y104620D01*
X110597D01*
X119394Y105720D02*
X118844Y106269D01*
X117745D01*
X117195Y105720D01*
Y103520D01*
X117745Y102971D01*
X118844D01*
X119394Y103520D01*
X120494Y106269D02*
Y102971D01*
Y104620D01*
X122693D01*
Y106269D01*
Y102971D01*
X123793Y106269D02*
X125992D01*
Y105720D01*
X123793Y103520D01*
Y102971D01*
M02*
