M48
;Layer_Color=9474304
;FILE_FORMAT=2:4
INCH
;TYPE=PLATED
T01F00S00C0.0100
T02F00S00C0.0300
T03F00S00C0.0354
%
T01
X018237Y019614
X019557
X020877Y019597
X022197Y019614
X023517
X024837
X026137Y019597
X027477
T02
X018202Y013711
X019973
Y015483
X018202
X025352
Y013711
X027123
Y015483
T03
X033037Y013097
X034037
X035037
X036037
X037037
X038037
Y016097
X037037
X036037
X035037
X034037
X033037
X033037Y019297
X034037
X035037
X036037
X037037
X038037
Y020297
X037037
X036037
X035037
X034037
X033037
X032037
Y019297
X031037
Y020297
M30
