G04*
G04 #@! TF.GenerationSoftware,Altium Limited,Altium Designer,24.5.2 (23)*
G04*
G04 Layer_Color=128*
%FSLAX25Y25*%
%MOIN*%
G70*
G04*
G04 #@! TF.SameCoordinates,AE978B62-B8FB-41D0-B00F-23312ADA98A8*
G04*
G04*
G04 #@! TF.FilePolarity,Positive*
G04*
G01*
G75*
%ADD33C,0.00500*%
D33*
X44733Y24612D02*
X47733D01*
X46233Y23112D02*
Y26112D01*
X27016Y24612D02*
X30016D01*
X28516Y23112D02*
Y26112D01*
X44733Y42329D02*
X47733D01*
X46233Y40829D02*
Y43829D01*
X27016Y42329D02*
X30016D01*
X28516Y40829D02*
Y43829D01*
X116233Y24612D02*
X119233D01*
X117733Y23112D02*
Y26112D01*
X98516Y24612D02*
X101516D01*
X100016Y23112D02*
Y26112D01*
X116233Y42329D02*
X119233D01*
X117733Y40829D02*
Y43829D01*
X98516Y42329D02*
X101516D01*
X100016Y40829D02*
Y43829D01*
X225103Y90470D02*
X228646D01*
X226874Y88699D02*
Y92242D01*
X225103Y80471D02*
X228646D01*
X226874Y78699D02*
Y82242D01*
X215103Y90470D02*
X218646D01*
X216874Y88699D02*
Y92242D01*
X215103Y80471D02*
X218646D01*
X216874Y78699D02*
Y82242D01*
X205103Y90470D02*
X208646D01*
X206874Y88699D02*
Y92242D01*
X205103Y80471D02*
X208646D01*
X206874Y78699D02*
Y82242D01*
X195103Y90470D02*
X198646D01*
X196874Y88699D02*
Y92242D01*
X195103Y80471D02*
X198646D01*
X196874Y78699D02*
Y82242D01*
X185103Y90470D02*
X188646D01*
X186874Y88699D02*
Y92242D01*
X185103Y80471D02*
X188646D01*
X186874Y78699D02*
Y82242D01*
X175103Y90470D02*
X178646D01*
X176874Y88699D02*
Y92242D01*
X175103Y80471D02*
X178646D01*
X176874Y78699D02*
Y82242D01*
X165103Y90470D02*
X168646D01*
X166874Y88699D02*
Y92242D01*
X165103Y80471D02*
X168646D01*
X166874Y78699D02*
Y82242D01*
X155103Y90470D02*
X158646D01*
X156874Y88699D02*
Y92242D01*
X155103Y80471D02*
X158646D01*
X156874Y78699D02*
Y82242D01*
X225103Y48471D02*
X228646D01*
X226874Y46699D02*
Y50242D01*
X215103Y48471D02*
X218646D01*
X216874Y46699D02*
Y50242D01*
X205103Y48471D02*
X208646D01*
X206874Y46699D02*
Y50242D01*
X195103Y48471D02*
X198646D01*
X196874Y46699D02*
Y50242D01*
X185103Y48471D02*
X188646D01*
X186874Y46699D02*
Y50242D01*
X175103Y48471D02*
X178646D01*
X176874Y46699D02*
Y50242D01*
X225103Y18471D02*
X228646D01*
X226874Y16699D02*
Y20242D01*
X215103Y18471D02*
X218646D01*
X216874Y16699D02*
Y20242D01*
X205103Y18471D02*
X208646D01*
X206874Y16699D02*
Y20242D01*
X195103Y18471D02*
X198646D01*
X196874Y16699D02*
Y20242D01*
X185103Y18471D02*
X188646D01*
X186874Y16699D02*
Y20242D01*
X175103Y18471D02*
X178646D01*
X176874Y16699D02*
Y20242D01*
X120774Y83470D02*
X121774D01*
X121274Y82970D02*
Y83970D01*
X107374Y83470D02*
X108374D01*
X107874Y82970D02*
Y83970D01*
X94374Y83638D02*
X95374D01*
X94874Y83138D02*
Y84138D01*
X81174Y83638D02*
X82174D01*
X81674Y83138D02*
Y84138D01*
X67974Y83638D02*
X68974D01*
X68474Y83138D02*
Y84138D01*
X54774Y83470D02*
X55774D01*
X55274Y82970D02*
Y83970D01*
X41574Y83638D02*
X42574D01*
X42074Y83138D02*
Y84138D01*
X28374Y83638D02*
X29374D01*
X28874Y83138D02*
Y84138D01*
M02*
