G04*
G04 #@! TF.GenerationSoftware,Altium Limited,Altium Designer,24.5.2 (23)*
G04*
G04 Layer_Color=16711935*
%FSLAX25Y25*%
%MOIN*%
G70*
G04*
G04 #@! TF.SameCoordinates,AE978B62-B8FB-41D0-B00F-23312ADA98A8*
G04*
G04*
G04 #@! TF.FilePolarity,Positive*
G04*
G01*
G75*
%ADD32C,0.00394*%
D32*
X120487Y74258D02*
X122062D01*
X121274Y73470D02*
Y75045D01*
X67687Y74258D02*
X69262D01*
X68474Y73470D02*
Y75045D01*
X120487Y93018D02*
X122062D01*
X121274Y92230D02*
Y93805D01*
X67687Y93018D02*
X69262D01*
X68474Y92230D02*
Y93805D01*
X107287Y74258D02*
X108862D01*
X108074Y73470D02*
Y75045D01*
X54487Y74258D02*
X56062D01*
X55274Y73470D02*
Y75045D01*
X54487Y93018D02*
X56062D01*
X55274Y92230D02*
Y93805D01*
X94087Y74258D02*
X95662D01*
X94874Y73470D02*
Y75045D01*
X41287Y74258D02*
X42862D01*
X42074Y73470D02*
Y75045D01*
X94087Y93018D02*
X95662D01*
X94874Y92230D02*
Y93805D01*
X41287Y93018D02*
X42862D01*
X42074Y92230D02*
Y93805D01*
X80887Y74258D02*
X82462D01*
X81674Y73470D02*
Y75045D01*
X28087Y74258D02*
X29662D01*
X28874Y73470D02*
Y75045D01*
X28087Y93018D02*
X29662D01*
X28874Y92230D02*
Y93805D01*
X80887Y93018D02*
X82462D01*
X81674Y92230D02*
Y93805D01*
X107287Y93018D02*
X108862D01*
X108074Y92230D02*
Y93805D01*
M02*
