G04*
G04 #@! TF.GenerationSoftware,Altium Limited,Altium Designer,24.5.2 (23)*
G04*
G04 Layer_Physical_Order=2*
G04 Layer_Color=16711680*
%FSLAX25Y25*%
%MOIN*%
G70*
G04*
G04 #@! TF.SameCoordinates,AE978B62-B8FB-41D0-B00F-23312ADA98A8*
G04*
G04*
G04 #@! TF.FilePolarity,Positive*
G04*
G01*
G75*
%ADD10C,0.01000*%
%ADD21C,0.02000*%
%ADD22C,0.06000*%
%ADD23C,0.05906*%
%ADD24R,0.05906X0.05906*%
%ADD25C,0.05906*%
%ADD26R,0.05906X0.05906*%
%ADD27C,0.03000*%
%ADD28R,0.03937X0.04331*%
%ADD29R,0.04331X0.03937*%
D10*
X100211Y33470D02*
Y48134D01*
Y27470D02*
Y33470D01*
X106028D01*
X28516Y32970D02*
Y42329D01*
Y24612D02*
Y32970D01*
X34028D01*
X15374Y55471D02*
X28516Y42329D01*
X15374Y55471D02*
Y98971D01*
X94874Y53470D02*
X100211Y48134D01*
X166874Y90470D02*
Y91970D01*
X152874Y105971D02*
X166874Y91970D01*
X22374Y105971D02*
X152874D01*
X15374Y98971D02*
X22374Y105971D01*
X23874Y103471D02*
X143874D01*
X18374Y97970D02*
X23874Y103471D01*
X18374Y66970D02*
Y97970D01*
Y66970D02*
X31874Y53470D01*
X94874D01*
X143874Y103471D02*
X156874Y90470D01*
X176874Y13971D02*
Y18471D01*
Y13971D02*
X179874Y10971D01*
X230874D01*
X239374Y19470D01*
Y90470D01*
X231874Y97970D02*
X239374Y90470D01*
X183374Y97970D02*
X231874D01*
X176874Y91470D02*
X183374Y97970D01*
X176874Y90470D02*
Y91470D01*
X186874Y18471D02*
X191874Y23471D01*
Y85470D01*
X186874Y90470D02*
X191874Y85470D01*
X196874Y18471D02*
X201874Y23471D01*
Y85470D01*
X196874Y90470D02*
X201874Y85470D01*
X206874Y18471D02*
X212374Y23970D01*
Y84970D01*
X206874Y90470D02*
X212374Y84970D01*
X216874Y18471D02*
X221874Y23471D01*
Y85470D01*
X216874Y90470D02*
X221874Y85470D01*
X226874Y18471D02*
X234374Y25971D01*
Y82970D01*
X226874Y90470D02*
X234374Y82970D01*
X176874Y59970D02*
Y63124D01*
X107874Y83470D02*
Y84970D01*
X109874Y86971D01*
X122283D01*
X186874Y58470D02*
Y63124D01*
X156721Y62971D02*
X156874Y63124D01*
X186874Y69817D02*
Y80471D01*
X176874Y69817D02*
Y80471D01*
X166874Y69817D02*
Y80471D01*
X156874Y69817D02*
Y80471D01*
X102074Y77671D02*
X107874Y83470D01*
X45574Y88670D02*
X71674D01*
X42074Y83638D02*
Y85171D01*
X45574Y88670D01*
X28874Y83638D02*
Y85970D01*
X183374Y54971D02*
X186874Y58470D01*
X123940Y90970D02*
X151940Y62971D01*
X156721D01*
X166874Y62927D02*
Y63124D01*
X152283Y56971D02*
X173874D01*
X176874Y59970D01*
X100207Y88971D02*
X123112D01*
X122283Y86971D02*
X152283Y56971D01*
X89007Y90970D02*
X123940D01*
X94874Y83638D02*
X100207Y88971D01*
X81674Y83638D02*
X89007Y90970D01*
X162918Y58970D02*
X166874Y62927D01*
X153112Y58970D02*
X162918D01*
X123112Y88971D02*
X153112Y58970D01*
X121274Y83470D02*
X121657Y83088D01*
X122757D02*
X150874Y54971D01*
X183374D01*
X121657Y83088D02*
X122757D01*
X33574Y90671D02*
X74642D01*
X58442Y86638D02*
X69717D01*
X78684Y77671D01*
X71674Y88670D02*
X80374Y79971D01*
X78684Y77671D02*
X102074D01*
X55274Y83470D02*
X58442Y86638D01*
X74642Y90671D02*
X81674Y83638D01*
X80374Y79971D02*
X91207D01*
X94874Y83638D01*
X28874Y85970D02*
X33574Y90671D01*
X76642Y75471D02*
X113274D01*
X68474Y83638D02*
X76642Y75471D01*
X113274D02*
X121274Y83470D01*
D21*
X117733Y32970D02*
Y42329D01*
Y24612D02*
Y32970D01*
X117233Y33470D02*
X117733Y32970D01*
X112721Y33470D02*
X117233D01*
X46233Y32970D02*
Y42329D01*
Y24612D02*
Y32970D01*
X40721D02*
X46233D01*
D22*
Y24612D02*
D03*
X28516D02*
D03*
X46233Y42329D02*
D03*
X28516D02*
D03*
X117733Y24612D02*
D03*
X100016D02*
D03*
X117733Y42329D02*
D03*
X100016D02*
D03*
D23*
X226874Y90470D02*
D03*
Y80471D02*
D03*
X216874Y90470D02*
D03*
Y80471D02*
D03*
X206874Y90470D02*
D03*
Y80471D02*
D03*
X196874Y90470D02*
D03*
Y80471D02*
D03*
X186874Y90470D02*
D03*
Y80471D02*
D03*
X176874Y90470D02*
D03*
Y80471D02*
D03*
X166874Y90470D02*
D03*
Y80471D02*
D03*
X156874Y90470D02*
D03*
X226874Y48471D02*
D03*
X216874D02*
D03*
X206874D02*
D03*
X196874D02*
D03*
X186874D02*
D03*
X176874D02*
D03*
X226874Y18471D02*
D03*
D24*
X156874Y80471D02*
D03*
D25*
X216874Y18471D02*
D03*
X206874D02*
D03*
X196874D02*
D03*
X186874D02*
D03*
D26*
X176874D02*
D03*
D27*
X121274Y83470D02*
D03*
X107874D02*
D03*
X94874Y83638D02*
D03*
X81674D02*
D03*
X68474D02*
D03*
X55274Y83470D02*
D03*
X42074Y83638D02*
D03*
X28874D02*
D03*
D28*
X186874Y63124D02*
D03*
Y69817D02*
D03*
X176874Y63124D02*
D03*
Y69817D02*
D03*
X166874Y63124D02*
D03*
Y69817D02*
D03*
X156874Y63124D02*
D03*
Y69817D02*
D03*
D29*
X34028Y32970D02*
D03*
X40721D02*
D03*
X106028Y33470D02*
D03*
X112721D02*
D03*
M02*
