%FSDAX24Y24*%
%MOIN*%
%SFA1B1*%

%IPPOS*%
%ADD10R,0.043300X0.039400*%
%ADD11R,0.051200X0.059100*%
%ADD12R,0.031500X0.031500*%
%ADD13R,0.023600X0.019700*%
%ADD14R,0.039400X0.043300*%
%ADD15R,0.059100X0.051200*%
%ADD16O,0.023600X0.086600*%
%ADD17R,0.019700X0.023600*%
%ADD18O,0.011800X0.070900*%
%ADD19O,0.070900X0.011800*%
%ADD20R,0.043300X0.025600*%
%ADD21R,0.059100X0.023600*%
%LNde-140824-1*%
%LPD*%
G54D10*
X024235Y057400D03*
X023565D03*
X021965D03*
X022635D03*
X019165D03*
X019835D03*
X016415D03*
X017085D03*
X019215Y045150D03*
X019885D03*
X024585D03*
X023915D03*
X012815Y029600D03*
X013485D03*
X012815Y030250D03*
X013485D03*
X025985Y024050D03*
X025315D03*
X022165Y029100D03*
X022835D03*
X027015Y028100D03*
X027685D03*
X031565Y038000D03*
X032235D03*
X012435Y023100D03*
X011765D03*
X012435Y023700D03*
X011765D03*
X014331Y023100D03*
X015000D03*
X014365Y023700D03*
X015035D03*
X034835Y039050D03*
X034165D03*
X032515D03*
X033185D03*
X031565Y036000D03*
X032235D03*
X019635Y028400D03*
X018965D03*
X019635Y027800D03*
X018965D03*
X028565Y026000D03*
X029235D03*
X016465Y045150D03*
X017135D03*
X021915D03*
X022585D03*
G54D11*
X012176Y050350D03*
X012924D03*
X016976D03*
X017724D03*
X032676D03*
X033424D03*
X031226D03*
X031974D03*
X029726D03*
X030474D03*
X022126Y029800D03*
X022874D03*
X026976Y027400D03*
X027724D03*
X012500Y022400D03*
X011752D03*
X011474Y062650D03*
X010726D03*
X012974D03*
X012226D03*
X014474D03*
X013726D03*
X010676Y050350D03*
X011424D03*
X013726D03*
X014474D03*
X017824Y062650D03*
X017076D03*
X019274D03*
X018526D03*
X020824D03*
X020076D03*
X024124D03*
X023376D03*
X025674D03*
X024926D03*
X027174D03*
X026426D03*
X019224Y050350D03*
X018476D03*
X020774D03*
X020026D03*
X030474Y062650D03*
X029726D03*
X031974D03*
X031226D03*
X033474D03*
X032726D03*
X026526Y050350D03*
X027274D03*
X025774D03*
X025026D03*
X023426D03*
X024174D03*
G54D12*
X019430Y074833D03*
Y075424D03*
X014150Y074833D03*
Y075424D03*
Y077300D03*
Y076709D03*
X020750Y074833D03*
Y075424D03*
X015470Y074833D03*
Y075424D03*
X020750Y077300D03*
Y076709D03*
X015470Y077300D03*
Y076709D03*
X022070Y074833D03*
Y075424D03*
X016790Y074833D03*
Y075424D03*
Y077300D03*
Y076709D03*
X023390Y074833D03*
Y075424D03*
X018110Y074833D03*
Y075424D03*
X023390Y077300D03*
Y076709D03*
X018110Y077300D03*
Y076709D03*
X019430Y077300D03*
Y076709D03*
X022070Y077300D03*
Y076709D03*
G54D13*
X015453Y030950D03*
X015847D03*
X027153Y028600D03*
X027547D03*
G54D14*
X016200Y029515D03*
Y030185D03*
X014700Y029565D03*
Y030235D03*
X014100Y030250D03*
Y029581D03*
X018000Y027135D03*
Y026465D03*
X032200Y037335D03*
Y036665D03*
X031546D03*
Y037335D03*
X013700Y023800D03*
Y023131D03*
G54D15*
X015450Y029476D03*
Y030224D03*
G54D16*
X014669Y033045D03*
X014169D03*
X013669D03*
X013169D03*
X014669Y031155D03*
X014169D03*
X013669D03*
X013169D03*
X032950Y036055D03*
X033450D03*
X033950D03*
X034450D03*
X032950Y037945D03*
X033450D03*
X033950D03*
X034450D03*
X014750Y022245D03*
X014250D03*
X013750D03*
X013250D03*
X014750Y020355D03*
X014250D03*
X013750D03*
X013250D03*
G54D17*
X013100Y023597D03*
Y023203D03*
G54D18*
X025133Y024956D03*
X024936D03*
X024739D03*
X024542D03*
X024345D03*
X024148D03*
X023952D03*
X023755D03*
X023558D03*
X023361D03*
X023164D03*
X022967D03*
Y028144D03*
X023164D03*
X023361D03*
X023558D03*
X023755D03*
X023952D03*
X024148D03*
X024345D03*
X024542D03*
X024739D03*
X024936D03*
X025133D03*
G54D19*
X022456Y025467D03*
Y025664D03*
Y025861D03*
Y026058D03*
Y026255D03*
Y026452D03*
Y026648D03*
Y026845D03*
Y027042D03*
Y027239D03*
Y027436D03*
Y027633D03*
X025644D03*
Y027436D03*
Y027239D03*
Y027042D03*
Y026845D03*
Y026648D03*
Y026452D03*
Y026255D03*
Y026058D03*
Y025861D03*
Y025664D03*
Y025467D03*
G54D20*
X019645Y026400D03*
Y026774D03*
Y027148D03*
X018700D03*
Y026400D03*
G54D21*
X028626Y027374D03*
Y026626D03*
X029374Y027000D03*
M02*