%FSDAX24Y24*%
%MOIN*%
%SFA1B1*%

%IPPOS*%
%ADD91C,0.002000*%
%LNde-140824-1*%
%LPD*%
G54D91*
X035492Y068803D02*
X035689D01*
X035591Y068705D02*
Y068902D01*
X035492Y069406D02*
X035689D01*
X035591Y069307D02*
Y069504D01*
X035492Y069104D02*
X035689D01*
X035591Y069006D02*
Y069203D01*
X035502Y069707D02*
X035698D01*
X035600Y069608D02*
Y069805D01*
X035502Y070309D02*
X035698D01*
X035600Y070210D02*
Y070407D01*
X035502Y070008D02*
X035698D01*
X035600Y069909D02*
Y070106D01*
X035502Y070610D02*
X035698D01*
X035600Y070511D02*
Y070708D01*
X035502Y071212D02*
X035698D01*
X035600Y071114D02*
Y071310D01*
X035502Y070911D02*
X035698D01*
X035600Y070812D02*
Y071009D01*
X035492Y071513D02*
X035689D01*
X035591Y071415D02*
Y071611D01*
X035492Y072115D02*
X035689D01*
X035591Y072017D02*
Y072214D01*
X035492Y071814D02*
X035689D01*
X035591Y071716D02*
Y071913D01*
X035502Y072416D02*
X035698D01*
X035600Y072318D02*
Y072515D01*
X035502Y073018D02*
X035698D01*
X035600Y072920D02*
Y073117D01*
X035502Y072717D02*
X035698D01*
X035600Y072619D02*
Y072816D01*
X035492Y073320D02*
X035689D01*
X035591Y073221D02*
Y073418D01*
X035492Y073922D02*
X035689D01*
X035591Y073823D02*
Y074020D01*
X035492Y073621D02*
X035689D01*
X035591Y073522D02*
Y073719D01*
X035502Y074223D02*
X035698D01*
X035600Y074124D02*
Y074321D01*
X035502Y074825D02*
X035698D01*
X035600Y074726D02*
Y074923D01*
X035502Y074524D02*
X035698D01*
X035600Y074425D02*
Y074622D01*
X035502Y075126D02*
X035698D01*
X035600Y075028D02*
Y075224D01*
X035502Y075728D02*
X035698D01*
X035600Y075630D02*
Y075827D01*
X035502Y075427D02*
X035698D01*
X035600Y075329D02*
Y075525D01*
X035502Y076029D02*
X035698D01*
X035600Y075931D02*
Y076128D01*
X035502Y076631D02*
X035698D01*
X035600Y076533D02*
Y076730D01*
X035502Y076330D02*
X035698D01*
X035600Y076232D02*
Y076429D01*
X035502Y076932D02*
X035698D01*
X035600Y076834D02*
Y077031D01*
X035502Y077535D02*
X035698D01*
X035600Y077436D02*
Y077633D01*
X035502Y077234D02*
X035698D01*
X035600Y077135D02*
Y077332D01*
X035502Y077836D02*
X035698D01*
X035600Y077737D02*
Y077934D01*
X035502Y078438D02*
X035698D01*
X035600Y078339D02*
Y078536D01*
X035502Y078137D02*
X035698D01*
X035600Y078038D02*
Y078235D01*
X035411Y043465D02*
X035608D01*
X035510Y043366D02*
Y043563D01*
X035758Y043465D02*
X035955D01*
X035856Y043366D02*
Y043563D01*
X036105Y043465D02*
X036302D01*
X036203Y043366D02*
Y043563D01*
X036451Y043465D02*
X036648D01*
X036550Y043366D02*
Y043563D01*
X034718Y043465D02*
X034915D01*
X034816Y043366D02*
Y043563D01*
X034371Y043465D02*
X034568D01*
X034470Y043366D02*
Y043563D01*
X034025Y043465D02*
X034221D01*
X034123Y043366D02*
Y043563D01*
X023623Y043465D02*
X023820D01*
X023722Y043366D02*
Y043563D01*
X024663Y043465D02*
X024860D01*
X024762Y043366D02*
Y043563D01*
X024317Y043465D02*
X024513D01*
X024415Y043366D02*
Y043563D01*
X023970Y043465D02*
X024167D01*
X024068Y043366D02*
Y043563D01*
X025010Y043465D02*
X025207D01*
X025108Y043366D02*
Y043563D01*
X032291Y043465D02*
X032488D01*
X032389Y043366D02*
Y043563D01*
X032638Y043465D02*
X032835D01*
X032736Y043366D02*
Y043563D01*
X032984Y043465D02*
X033181D01*
X033083Y043366D02*
Y043563D01*
X033678Y043465D02*
X033875D01*
X033776Y043366D02*
Y043563D01*
X033331Y043465D02*
X033528D01*
X033430Y043366D02*
Y043563D01*
X030904Y043465D02*
X031101D01*
X031003Y043366D02*
Y043563D01*
X030557Y043465D02*
X030754D01*
X030656Y043366D02*
Y043563D01*
X030211Y043465D02*
X030408D01*
X030309Y043366D02*
Y043563D01*
X031944Y043465D02*
X032141D01*
X032043Y043366D02*
Y043563D01*
X031598Y043465D02*
X031794D01*
X031696Y043366D02*
Y043563D01*
X031251Y043465D02*
X031448D01*
X031349Y043366D02*
Y043563D01*
X019809Y043465D02*
X020006D01*
X019908Y043366D02*
Y043563D01*
X020156Y043465D02*
X020353D01*
X020255Y043366D02*
Y043563D01*
X020503Y043465D02*
X020700D01*
X020601Y043366D02*
Y043563D01*
X019116Y043465D02*
X019313D01*
X019214Y043366D02*
Y043563D01*
X019463Y043465D02*
X019660D01*
X019561Y043366D02*
Y043563D01*
X010102Y043465D02*
X010298D01*
X010200Y043366D02*
Y043563D01*
X010448Y043465D02*
X010645D01*
X010547Y043366D02*
Y043563D01*
X010795Y043465D02*
X010992D01*
X010893Y043366D02*
Y043563D01*
X011835Y043465D02*
X012032D01*
X011934Y043366D02*
Y043563D01*
X011488Y043465D02*
X011685D01*
X011587Y043366D02*
Y043563D01*
X011142Y043465D02*
X011339D01*
X011240Y043366D02*
Y043563D01*
X012875Y043465D02*
X013072D01*
X012974Y043366D02*
Y043563D01*
X012529Y043465D02*
X012725D01*
X012627Y043366D02*
Y043563D01*
X012182Y043465D02*
X012379D01*
X012280Y043366D02*
Y043563D01*
X014609Y043465D02*
X014806D01*
X014707Y043366D02*
Y043563D01*
X014956Y043465D02*
X015152D01*
X015054Y043366D02*
Y043563D01*
X014262Y043465D02*
X014459D01*
X014361Y043366D02*
Y043563D01*
X013915Y043465D02*
X014112D01*
X014014Y043366D02*
Y043563D01*
X013569Y043465D02*
X013766D01*
X013667Y043366D02*
Y043563D01*
X013222Y043465D02*
X013419D01*
X013320Y043366D02*
Y043563D01*
X017382Y043465D02*
X017579D01*
X017481Y043366D02*
Y043563D01*
X017729Y043465D02*
X017926D01*
X017828Y043366D02*
Y043563D01*
X016342Y043465D02*
X016539D01*
X016441Y043366D02*
Y043563D01*
X016689Y043465D02*
X016886D01*
X016787Y043366D02*
Y043563D01*
X017036Y043465D02*
X017233D01*
X017134Y043366D02*
Y043563D01*
X015996Y043465D02*
X016192D01*
X016094Y043366D02*
Y043563D01*
X015649Y043465D02*
X015846D01*
X015747Y043366D02*
Y043563D01*
X015302Y043465D02*
X015499D01*
X015401Y043366D02*
Y043563D01*
X022930Y043465D02*
X023127D01*
X023028Y043366D02*
Y043563D01*
X023277Y043465D02*
X023473D01*
X023375Y043366D02*
Y043563D01*
X025703Y043465D02*
X025900D01*
X025802Y043366D02*
Y043563D01*
X025357Y043465D02*
X025554D01*
X025455Y043366D02*
Y043563D01*
X021543Y043465D02*
X021740D01*
X021641Y043366D02*
Y043563D01*
X021196Y043465D02*
X021393D01*
X021295Y043366D02*
Y043563D01*
X020850Y043465D02*
X021046D01*
X020948Y043366D02*
Y043563D01*
X022583Y043465D02*
X022780D01*
X022682Y043366D02*
Y043563D01*
X022236Y043465D02*
X022433D01*
X022335Y043366D02*
Y043563D01*
X021890Y043465D02*
X022087D01*
X021988Y043366D02*
Y043563D01*
X018769Y043465D02*
X018966D01*
X018868Y043366D02*
Y043563D01*
X018076Y043465D02*
X018273D01*
X018174Y043366D02*
Y043563D01*
X018423Y043465D02*
X018619D01*
X018521Y043366D02*
Y043563D01*
X029171Y043465D02*
X029367D01*
X029269Y043366D02*
Y043563D01*
X029517Y043465D02*
X029714D01*
X029616Y043366D02*
Y043563D01*
X029864Y043465D02*
X030061D01*
X029962Y043366D02*
Y043563D01*
X028130Y043465D02*
X028327D01*
X028229Y043366D02*
Y043563D01*
X028477Y043465D02*
X028674D01*
X028576Y043366D02*
Y043563D01*
X028824Y043465D02*
X029021D01*
X028922Y043366D02*
Y043563D01*
X027090Y043465D02*
X027287D01*
X027189Y043366D02*
Y043563D01*
X027437Y043465D02*
X027634D01*
X027535Y043366D02*
Y043563D01*
X027784Y043465D02*
X027981D01*
X027882Y043366D02*
Y043563D01*
X026744Y043465D02*
X026940D01*
X026842Y043366D02*
Y043563D01*
X026397Y043465D02*
X026594D01*
X026495Y043366D02*
Y043563D01*
X026050Y043465D02*
X026247D01*
X026149Y043366D02*
Y043563D01*
X034785Y055669D02*
X034982D01*
X034884Y055571D02*
Y055768D01*
X035102Y055669D02*
X035298D01*
X035200Y055571D02*
Y055768D01*
X036452Y055669D02*
X036648D01*
X036550Y055571D02*
Y055768D01*
X036142Y055669D02*
X036338D01*
X036240Y055571D02*
Y055768D01*
X035832Y055669D02*
X036028D01*
X035930Y055571D02*
Y055768D01*
X027190Y055669D02*
X027387D01*
X027289Y055571D02*
Y055768D01*
X027507Y055669D02*
X027703D01*
X027605Y055571D02*
Y055768D01*
X027823Y055669D02*
X028020D01*
X027922Y055571D02*
Y055768D01*
X028772Y055669D02*
X028969D01*
X028871Y055571D02*
Y055768D01*
X028456Y055669D02*
X028653D01*
X028554Y055571D02*
Y055768D01*
X028140Y055669D02*
X028336D01*
X028238Y055571D02*
Y055768D01*
X029722Y055669D02*
X029919D01*
X029820Y055571D02*
Y055768D01*
X029405Y055669D02*
X029602D01*
X029504Y055571D02*
Y055768D01*
X029089Y055669D02*
X029286D01*
X029187Y055571D02*
Y055768D01*
X031937Y055669D02*
X032134D01*
X032035Y055571D02*
Y055768D01*
X032253Y055669D02*
X032450D01*
X032352Y055571D02*
Y055768D01*
X032570Y055669D02*
X032767D01*
X032668Y055571D02*
Y055768D01*
X030988Y055669D02*
X031184D01*
X031086Y055571D02*
Y055768D01*
X031304Y055669D02*
X031501D01*
X031403Y055571D02*
Y055768D01*
X031621Y055669D02*
X031817D01*
X031719Y055571D02*
Y055768D01*
X030671Y055669D02*
X030868D01*
X030770Y055571D02*
Y055768D01*
X030355Y055669D02*
X030552D01*
X030453Y055571D02*
Y055768D01*
X030038Y055669D02*
X030235D01*
X030137Y055571D02*
Y055768D01*
X033836Y055669D02*
X034033D01*
X033934Y055571D02*
Y055768D01*
X034152Y055669D02*
X034349D01*
X034251Y055571D02*
Y055768D01*
X034469Y055669D02*
X034665D01*
X034567Y055571D02*
Y055768D01*
X033519Y055669D02*
X033716D01*
X033618Y055571D02*
Y055768D01*
X033203Y055669D02*
X033400D01*
X033301Y055571D02*
Y055768D01*
X032886Y055669D02*
X033083D01*
X032985Y055571D02*
Y055768D01*
X018646Y055669D02*
X018843D01*
X018744Y055571D02*
Y055768D01*
X018962Y055669D02*
X019159D01*
X019061Y055571D02*
Y055768D01*
X019279Y055669D02*
X019476D01*
X019377Y055571D02*
Y055768D01*
X020228Y055669D02*
X020425D01*
X020327Y055571D02*
Y055768D01*
X019912Y055669D02*
X020109D01*
X020010Y055571D02*
Y055768D01*
X019595Y055669D02*
X019792D01*
X019694Y055571D02*
Y055768D01*
X021178Y055669D02*
X021374D01*
X021276Y055571D02*
Y055768D01*
X020861Y055669D02*
X021058D01*
X020959Y055571D02*
Y055768D01*
X020545Y055669D02*
X020741D01*
X020643Y055571D02*
Y055768D01*
X023393Y055669D02*
X023590D01*
X023491Y055571D02*
Y055768D01*
X023709Y055669D02*
X023906D01*
X023808Y055571D02*
Y055768D01*
X024026Y055669D02*
X024222D01*
X024124Y055571D02*
Y055768D01*
X022443Y055669D02*
X022640D01*
X022542Y055571D02*
Y055768D01*
X022760Y055669D02*
X022957D01*
X022858Y055571D02*
Y055768D01*
X023076Y055669D02*
X023273D01*
X023175Y055571D02*
Y055768D01*
X022127Y055669D02*
X022324D01*
X022225Y055571D02*
Y055768D01*
X021810Y055669D02*
X022007D01*
X021909Y055571D02*
Y055768D01*
X021494Y055669D02*
X021691D01*
X021592Y055571D02*
Y055768D01*
X026241Y055669D02*
X026438D01*
X026339Y055571D02*
Y055768D01*
X026557Y055669D02*
X026754D01*
X026656Y055571D02*
Y055768D01*
X026874Y055669D02*
X027071D01*
X026972Y055571D02*
Y055768D01*
X025291Y055669D02*
X025488D01*
X025390Y055571D02*
Y055768D01*
X025608Y055669D02*
X025805D01*
X025706Y055571D02*
Y055768D01*
X025924Y055669D02*
X026121D01*
X026023Y055571D02*
Y055768D01*
X024975Y055669D02*
X025172D01*
X025073Y055571D02*
Y055768D01*
X024659Y055669D02*
X024855D01*
X024757Y055571D02*
Y055768D01*
X024342Y055669D02*
X024539D01*
X024441Y055571D02*
Y055768D01*
X015798Y055669D02*
X015995D01*
X015896Y055571D02*
Y055768D01*
X016114Y055669D02*
X016311D01*
X016213Y055571D02*
Y055768D01*
X016431Y055669D02*
X016628D01*
X016529Y055571D02*
Y055768D01*
X017380Y055669D02*
X017577D01*
X017478Y055571D02*
Y055768D01*
X017064Y055669D02*
X017260D01*
X017162Y055571D02*
Y055768D01*
X016747Y055669D02*
X016944D01*
X016846Y055571D02*
Y055768D01*
X018329Y055669D02*
X018526D01*
X018428Y055571D02*
Y055768D01*
X018013Y055669D02*
X018210D01*
X018111Y055571D02*
Y055768D01*
X017697Y055669D02*
X017893D01*
X017795Y055571D02*
Y055768D01*
X012950Y055669D02*
X013147D01*
X013048Y055571D02*
Y055768D01*
X013266Y055669D02*
X013463D01*
X013365Y055571D02*
Y055768D01*
X013583Y055669D02*
X013779D01*
X013681Y055571D02*
Y055768D01*
X014532Y055669D02*
X014729D01*
X014630Y055571D02*
Y055768D01*
X014216Y055669D02*
X014412D01*
X014314Y055571D02*
Y055768D01*
X013899Y055669D02*
X014096D01*
X013997Y055571D02*
Y055768D01*
X015481Y055669D02*
X015678D01*
X015580Y055571D02*
Y055768D01*
X015165Y055669D02*
X015362D01*
X015263Y055571D02*
Y055768D01*
X014848Y055669D02*
X015045D01*
X014947Y055571D02*
Y055768D01*
X012000Y055669D02*
X012197D01*
X012099Y055571D02*
Y055768D01*
X012317Y055669D02*
X012514D01*
X012415Y055571D02*
Y055768D01*
X012633Y055669D02*
X012830D01*
X012732Y055571D02*
Y055768D01*
X011051Y055669D02*
X011248D01*
X011149Y055571D02*
Y055768D01*
X011367Y055669D02*
X011564D01*
X011466Y055571D02*
Y055768D01*
X011684Y055669D02*
X011881D01*
X011782Y055571D02*
Y055768D01*
X010735Y055669D02*
X010931D01*
X010833Y055571D02*
Y055768D01*
X010418Y055669D02*
X010615D01*
X010516Y055571D02*
Y055768D01*
X010102Y055669D02*
X010298D01*
X010200Y055571D02*
Y055768D01*
X035152Y067874D02*
X035348D01*
X035250Y067776D02*
Y067972D01*
X036452Y067874D02*
X036648D01*
X036550Y067776D02*
Y067972D01*
X036152Y067874D02*
X036348D01*
X036250Y067776D02*
Y067972D01*
X035852Y067874D02*
X036048D01*
X035950Y067776D02*
Y067972D01*
X026802Y067874D02*
X026998D01*
X026900Y067776D02*
Y067972D01*
X027111Y067874D02*
X027308D01*
X027209Y067776D02*
Y067972D01*
X027420Y067874D02*
X027617D01*
X027518Y067776D02*
Y067972D01*
X028348Y067874D02*
X028545D01*
X028446Y067776D02*
Y067972D01*
X028039Y067874D02*
X028235D01*
X028137Y067776D02*
Y067972D01*
X027729Y067874D02*
X027926D01*
X027828Y067776D02*
Y067972D01*
X029276Y067874D02*
X029472D01*
X029374Y067776D02*
Y067972D01*
X028966Y067874D02*
X029163D01*
X029065Y067776D02*
Y067972D01*
X028657Y067874D02*
X028854D01*
X028756Y067776D02*
Y067972D01*
X031440Y067874D02*
X031637D01*
X031539Y067776D02*
Y067972D01*
X031750Y067874D02*
X031947D01*
X031848Y067776D02*
Y067972D01*
X032059Y067874D02*
X032256D01*
X032157Y067776D02*
Y067972D01*
X030513Y067874D02*
X030709D01*
X030611Y067776D02*
Y067972D01*
X030822Y067874D02*
X031019D01*
X030920Y067776D02*
Y067972D01*
X031131Y067874D02*
X031328D01*
X031230Y067776D02*
Y067972D01*
X030203Y067874D02*
X030400D01*
X030302Y067776D02*
Y067972D01*
X029894Y067874D02*
X030091D01*
X029993Y067776D02*
Y067972D01*
X029585Y067874D02*
X029782D01*
X029683Y067776D02*
Y067972D01*
X034224Y067874D02*
X034421D01*
X034322Y067776D02*
Y067972D01*
X034533Y067874D02*
X034730D01*
X034631Y067776D02*
Y067972D01*
X034842Y067874D02*
X035039D01*
X034941Y067776D02*
Y067972D01*
X033296Y067874D02*
X033493D01*
X033394Y067776D02*
Y067972D01*
X033605Y067874D02*
X033802D01*
X033704Y067776D02*
Y067972D01*
X033914Y067874D02*
X034111D01*
X034013Y067776D02*
Y067972D01*
X032987Y067874D02*
X033184D01*
X033085Y067776D02*
Y067972D01*
X032677Y067874D02*
X032874D01*
X032776Y067776D02*
Y067972D01*
X032368Y067874D02*
X032565D01*
X032467Y067776D02*
Y067972D01*
X018452Y067874D02*
X018648D01*
X018550Y067776D02*
Y067972D01*
X018761Y067874D02*
X018958D01*
X018859Y067776D02*
Y067972D01*
X019070Y067874D02*
X019267D01*
X019169Y067776D02*
Y067972D01*
X019998Y067874D02*
X020195D01*
X020096Y067776D02*
Y067972D01*
X019689Y067874D02*
X019885D01*
X019787Y067776D02*
Y067972D01*
X019379Y067874D02*
X019576D01*
X019478Y067776D02*
Y067972D01*
X020926Y067874D02*
X021122D01*
X021024Y067776D02*
Y067972D01*
X020616Y067874D02*
X020813D01*
X020715Y067776D02*
Y067972D01*
X020307Y067874D02*
X020504D01*
X020406Y067776D02*
Y067972D01*
X023090Y067874D02*
X023287D01*
X023189Y067776D02*
Y067972D01*
X023400Y067874D02*
X023597D01*
X023498Y067776D02*
Y067972D01*
X023709Y067874D02*
X023906D01*
X023807Y067776D02*
Y067972D01*
X022163Y067874D02*
X022360D01*
X022261Y067776D02*
Y067972D01*
X022472Y067874D02*
X022669D01*
X022570Y067776D02*
Y067972D01*
X022781Y067874D02*
X022978D01*
X022880Y067776D02*
Y067972D01*
X021853Y067874D02*
X022050D01*
X021952Y067776D02*
Y067972D01*
X021544Y067874D02*
X021741D01*
X021643Y067776D02*
Y067972D01*
X021235Y067874D02*
X021432D01*
X021333Y067776D02*
Y067972D01*
X025874Y067874D02*
X026071D01*
X025972Y067776D02*
Y067972D01*
X026183Y067874D02*
X026380D01*
X026281Y067776D02*
Y067972D01*
X026492Y067874D02*
X026689D01*
X026591Y067776D02*
Y067972D01*
X024946Y067874D02*
X025143D01*
X025044Y067776D02*
Y067972D01*
X025255Y067874D02*
X025452D01*
X025354Y067776D02*
Y067972D01*
X025565Y067874D02*
X025761D01*
X025663Y067776D02*
Y067972D01*
X024637Y067874D02*
X024834D01*
X024735Y067776D02*
Y067972D01*
X024327Y067874D02*
X024524D01*
X024426Y067776D02*
Y067972D01*
X024018Y067874D02*
X024215D01*
X024117Y067776D02*
Y067972D01*
X015668Y067874D02*
X015865D01*
X015767Y067776D02*
Y067972D01*
X015978Y067874D02*
X016174D01*
X016076Y067776D02*
Y067972D01*
X016287Y067874D02*
X016484D01*
X016385Y067776D02*
Y067972D01*
X017215Y067874D02*
X017411D01*
X017313Y067776D02*
Y067972D01*
X016905Y067874D02*
X017102D01*
X017004Y067776D02*
Y067972D01*
X016596Y067874D02*
X016793D01*
X016694Y067776D02*
Y067972D01*
X018142Y067874D02*
X018339D01*
X018241Y067776D02*
Y067972D01*
X017833Y067874D02*
X018030D01*
X017931Y067776D02*
Y067972D01*
X017524Y067874D02*
X017721D01*
X017622Y067776D02*
Y067972D01*
X012885Y067874D02*
X013082D01*
X012983Y067776D02*
Y067972D01*
X013194Y067874D02*
X013391D01*
X013293Y067776D02*
Y067972D01*
X013503Y067874D02*
X013700D01*
X013602Y067776D02*
Y067972D01*
X014431Y067874D02*
X014628D01*
X014530Y067776D02*
Y067972D01*
X014122Y067874D02*
X014319D01*
X014220Y067776D02*
Y067972D01*
X013813Y067874D02*
X014010D01*
X013911Y067776D02*
Y067972D01*
X015359Y067874D02*
X015556D01*
X015457Y067776D02*
Y067972D01*
X015050Y067874D02*
X015247D01*
X015148Y067776D02*
Y067972D01*
X014740Y067874D02*
X014937D01*
X014839Y067776D02*
Y067972D01*
X011957Y067874D02*
X012154D01*
X012056Y067776D02*
Y067972D01*
X012266Y067874D02*
X012463D01*
X012365Y067776D02*
Y067972D01*
X012576Y067874D02*
X012773D01*
X012674Y067776D02*
Y067972D01*
X011029Y067874D02*
X011226D01*
X011128Y067776D02*
Y067972D01*
X011339Y067874D02*
X011535D01*
X011437Y067776D02*
Y067972D01*
X011648Y067874D02*
X011845D01*
X011746Y067776D02*
Y067972D01*
X010720Y067874D02*
X010917D01*
X010819Y067776D02*
Y067972D01*
X010411Y067874D02*
X010608D01*
X010509Y067776D02*
Y067972D01*
X010102Y067874D02*
X010298D01*
X010200Y067776D02*
Y067972D01*
X035492Y068201D02*
X035689D01*
X035591Y068103D02*
Y068300D01*
X035492Y068502D02*
X035689D01*
X035591Y068404D02*
Y068601D01*
X035492Y060072D02*
X035689D01*
X035591Y059974D02*
Y060171D01*
X035492Y060373D02*
X035689D01*
X035591Y060275D02*
Y060472D01*
X035492Y060674D02*
X035689D01*
X035591Y060576D02*
Y060773D01*
X035492Y061578D02*
X035689D01*
X035591Y061479D02*
Y061676D01*
X035492Y061276D02*
X035689D01*
X035591Y061178D02*
Y061375D01*
X035492Y060975D02*
X035689D01*
X035591Y060877D02*
Y061074D01*
X035492Y062481D02*
X035689D01*
X035591Y062382D02*
Y062579D01*
X035492Y062180D02*
X035689D01*
X035591Y062081D02*
Y062278D01*
X035492Y061879D02*
X035689D01*
X035591Y061780D02*
Y061977D01*
X035492Y064588D02*
X035689D01*
X035591Y064490D02*
Y064687D01*
X035492Y064889D02*
X035689D01*
X035591Y064791D02*
Y064988D01*
X035492Y065190D02*
X035689D01*
X035591Y065092D02*
Y065289D01*
X035492Y063685D02*
X035689D01*
X035591Y063587D02*
Y063784D01*
X035492Y063986D02*
X035689D01*
X035591Y063888D02*
Y064085D01*
X035492Y064287D02*
X035689D01*
X035591Y064189D02*
Y064386D01*
X035492Y063384D02*
X035689D01*
X035591Y063286D02*
Y063482D01*
X035492Y063083D02*
X035689D01*
X035591Y062985D02*
Y063181D01*
X035492Y062782D02*
X035689D01*
X035591Y062683D02*
Y062880D01*
X035492Y067298D02*
X035689D01*
X035591Y067200D02*
Y067396D01*
X035492Y067599D02*
X035689D01*
X035591Y067501D02*
Y067698D01*
X035492Y067900D02*
X035689D01*
X035591Y067802D02*
Y067999D01*
X035492Y066395D02*
X035689D01*
X035591Y066296D02*
Y066493D01*
X035492Y066696D02*
X035689D01*
X035591Y066597D02*
Y066794D01*
X035492Y066997D02*
X035689D01*
X035591Y066898D02*
Y067095D01*
X035492Y066094D02*
X035689D01*
X035591Y065995D02*
Y066192D01*
X035492Y065793D02*
X035689D01*
X035591Y065694D02*
Y065891D01*
X035492Y065492D02*
X035689D01*
X035591Y065393D02*
Y065590D01*
X035492Y057362D02*
X035689D01*
X035591Y057264D02*
Y057461D01*
X035492Y057664D02*
X035689D01*
X035591Y057565D02*
Y057762D01*
X035492Y057965D02*
X035689D01*
X035591Y057866D02*
Y058063D01*
X035492Y058868D02*
X035689D01*
X035591Y058769D02*
Y058966D01*
X035492Y058567D02*
X035689D01*
X035591Y058468D02*
Y058665D01*
X035492Y058266D02*
X035689D01*
X035591Y058167D02*
Y058364D01*
X035492Y059771D02*
X035689D01*
X035591Y059673D02*
Y059870D01*
X035492Y059470D02*
X035689D01*
X035591Y059372D02*
Y059568D01*
X035492Y059169D02*
X035689D01*
X035591Y059071D02*
Y059267D01*
X035492Y055255D02*
X035689D01*
X035591Y055157D02*
Y055353D01*
X035492Y056158D02*
X035689D01*
X035591Y056060D02*
Y056257D01*
X035492Y055857D02*
X035689D01*
X035591Y055759D02*
Y055956D01*
X035492Y055556D02*
X035689D01*
X035591Y055458D02*
Y055654D01*
X035492Y057061D02*
X035689D01*
X035591Y056963D02*
Y057160D01*
X035492Y056760D02*
X035689D01*
X035591Y056662D02*
Y056859D01*
X035492Y056459D02*
X035689D01*
X035591Y056361D02*
Y056558D01*
X035492Y053750D02*
X035689D01*
X035591Y053651D02*
Y053848D01*
X035492Y054051D02*
X035689D01*
X035591Y053952D02*
Y054149D01*
X035492Y054352D02*
X035689D01*
X035591Y054253D02*
Y054450D01*
X035492Y052846D02*
X035689D01*
X035591Y052748D02*
Y052945D01*
X035492Y053147D02*
X035689D01*
X035591Y053049D02*
Y053246D01*
X035492Y053449D02*
X035689D01*
X035591Y053350D02*
Y053547D01*
X035492Y052545D02*
X035689D01*
X035591Y052447D02*
Y052644D01*
X035492Y052244D02*
X035689D01*
X035591Y052146D02*
Y052343D01*
X035492Y051943D02*
X035689D01*
X035591Y051845D02*
Y052042D01*
X035492Y045319D02*
X035689D01*
X035591Y045221D02*
Y045418D01*
X035492Y045621D02*
X035689D01*
X035591Y045522D02*
Y045719D01*
X035492Y045922D02*
X035689D01*
X035591Y045823D02*
Y046020D01*
X035492Y046825D02*
X035689D01*
X035591Y046726D02*
Y046923D01*
X035492Y046524D02*
X035689D01*
X035591Y046425D02*
Y046622D01*
X035492Y046223D02*
X035689D01*
X035591Y046124D02*
Y046321D01*
X035492Y047728D02*
X035689D01*
X035591Y047630D02*
Y047826D01*
X035492Y047427D02*
X035689D01*
X035591Y047329D02*
Y047525D01*
X035492Y047126D02*
X035689D01*
X035591Y047027D02*
Y047224D01*
X035492Y049836D02*
X035689D01*
X035591Y049737D02*
Y049934D01*
X035492Y050137D02*
X035689D01*
X035591Y050038D02*
Y050235D01*
X035492Y050438D02*
X035689D01*
X035591Y050339D02*
Y050536D01*
X035492Y048932D02*
X035689D01*
X035591Y048834D02*
Y049031D01*
X035492Y049233D02*
X035689D01*
X035591Y049135D02*
Y049332D01*
X035492Y049535D02*
X035689D01*
X035591Y049436D02*
Y049633D01*
X035492Y048631D02*
X035689D01*
X035591Y048533D02*
Y048730D01*
X035492Y048330D02*
X035689D01*
X035591Y048232D02*
Y048429D01*
X035492Y048029D02*
X035689D01*
X035591Y047931D02*
Y048128D01*
X035492Y051642D02*
X035689D01*
X035591Y051544D02*
Y051740D01*
X035492Y051341D02*
X035689D01*
X035591Y051243D02*
Y051439D01*
X035492Y051040D02*
X035689D01*
X035591Y050941D02*
Y051138D01*
X035492Y050739D02*
X035689D01*
X035591Y050640D02*
Y050837D01*
X035492Y044416D02*
X035689D01*
X035591Y044318D02*
Y044515D01*
X035492Y044717D02*
X035689D01*
X035591Y044619D02*
Y044816D01*
X035492Y045018D02*
X035689D01*
X035591Y044920D02*
Y045117D01*
X035102Y043465D02*
X035298D01*
X035200Y043366D02*
Y043563D01*
X035492Y043814D02*
X035689D01*
X035591Y043716D02*
Y043912D01*
X035492Y044115D02*
X035689D01*
X035591Y044017D02*
Y044214D01*
X035492Y079040D02*
X035689D01*
X035591Y078942D02*
Y079138D01*
X035492Y079341D02*
X035689D01*
X035591Y079243D02*
Y079439D01*
X035492Y078739D02*
X035689D01*
X035591Y078640D02*
Y078837D01*
X012582Y049100D02*
X012818D01*
X012700Y048982D02*
Y049218D01*
X011582Y049100D02*
X011818D01*
X011700Y048982D02*
Y049218D01*
X010582Y049100D02*
X010818D01*
X010700Y048982D02*
Y049218D01*
X012582Y046100D02*
X012818D01*
X012700Y045982D02*
Y046218D01*
X011582Y046100D02*
X011818D01*
X011700Y045982D02*
Y046218D01*
X010582Y046100D02*
X010818D01*
X010700Y045982D02*
Y046218D01*
X011003Y051450D02*
X011397D01*
X011200Y051253D02*
Y051647D01*
X012003Y051450D02*
X012397D01*
X012200Y051253D02*
Y051647D01*
X013003Y051450D02*
X013397D01*
X013200Y051253D02*
Y051647D01*
X015753Y049100D02*
X015990D01*
X015871Y048982D02*
Y049218D01*
X014753Y049100D02*
X014990D01*
X014871Y048982D02*
Y049218D01*
X013753Y049100D02*
X013990D01*
X013871Y048982D02*
Y049218D01*
X015753Y046100D02*
X015990D01*
X015871Y045982D02*
Y046218D01*
X014753Y046100D02*
X014990D01*
X014871Y045982D02*
Y046218D01*
X013753Y046100D02*
X013990D01*
X013871Y045982D02*
Y046218D01*
X011003Y054000D02*
X011397D01*
X011200Y053803D02*
Y054197D01*
X012003Y054000D02*
X012397D01*
X012200Y053803D02*
Y054197D01*
X013003Y054000D02*
X013397D01*
X013200Y053803D02*
Y054197D01*
X018925Y049100D02*
X019161D01*
X019043Y048982D02*
Y049218D01*
X017925Y049100D02*
X018161D01*
X018043Y048982D02*
Y049218D01*
X016925Y049100D02*
X017161D01*
X017043Y048982D02*
Y049218D01*
X018925Y046100D02*
X019161D01*
X019043Y045982D02*
Y046218D01*
X017925Y046100D02*
X018161D01*
X018043Y045982D02*
Y046218D01*
X016925Y046100D02*
X017161D01*
X017043Y045982D02*
Y046218D01*
X015194Y054000D02*
X015588D01*
X015391Y053803D02*
Y054197D01*
X016194Y054000D02*
X016588D01*
X016391Y053803D02*
Y054197D01*
X017194Y054000D02*
X017588D01*
X017391Y053803D02*
Y054197D01*
X018723Y044250D02*
X019077D01*
X018900Y044073D02*
Y044427D01*
X025723Y044250D02*
X026077D01*
X025900Y044073D02*
Y044427D01*
X024723Y044250D02*
X025077D01*
X024900Y044073D02*
Y044427D01*
X023723Y044250D02*
X024077D01*
X023900Y044073D02*
Y044427D01*
X022723Y044250D02*
X023077D01*
X022900Y044073D02*
Y044427D01*
X021723Y044250D02*
X022077D01*
X021900Y044073D02*
Y044427D01*
X020723Y044250D02*
X021077D01*
X020900Y044073D02*
Y044427D01*
X019723Y044250D02*
X020077D01*
X019900Y044073D02*
Y044427D01*
X017723Y044250D02*
X018077D01*
X017900Y044073D02*
Y044427D01*
X022096Y049100D02*
X022332D01*
X022214Y048982D02*
Y049218D01*
X021096Y049100D02*
X021332D01*
X021214Y048982D02*
Y049218D01*
X020096Y049100D02*
X020332D01*
X020214Y048982D02*
Y049218D01*
X022096Y046100D02*
X022332D01*
X022214Y045982D02*
Y046218D01*
X021096Y046100D02*
X021332D01*
X021214Y045982D02*
Y046218D01*
X020096Y046100D02*
X020332D01*
X020214Y045982D02*
Y046218D01*
X019385Y054000D02*
X019778D01*
X019582Y053803D02*
Y054197D01*
X020385Y054000D02*
X020778D01*
X020582Y053803D02*
Y054197D01*
X021385Y054000D02*
X021778D01*
X021582Y053803D02*
Y054197D01*
X025268Y049100D02*
X025504D01*
X025386Y048982D02*
Y049218D01*
X024268Y049100D02*
X024504D01*
X024386Y048982D02*
Y049218D01*
X023268Y049100D02*
X023504D01*
X023386Y048982D02*
Y049218D01*
X025268Y046100D02*
X025504D01*
X025386Y045982D02*
Y046218D01*
X024268Y046100D02*
X024504D01*
X024386Y045982D02*
Y046218D01*
X023268Y046100D02*
X023504D01*
X023386Y045982D02*
Y046218D01*
X025822Y053831D02*
X026215D01*
X026018Y053634D02*
Y054028D01*
X024822Y053831D02*
X025215D01*
X025018Y053634D02*
Y054028D01*
X023822Y053831D02*
X024215D01*
X024018Y053634D02*
Y054028D01*
X028439Y049100D02*
X028675D01*
X028557Y048982D02*
Y049218D01*
X027439Y049100D02*
X027675D01*
X027557Y048982D02*
Y049218D01*
X026439Y049100D02*
X026675D01*
X026557Y048982D02*
Y049218D01*
X028439Y046100D02*
X028675D01*
X028557Y045982D02*
Y046218D01*
X027439Y046100D02*
X027675D01*
X027557Y045982D02*
Y046218D01*
X026439Y046100D02*
X026675D01*
X026557Y045982D02*
Y046218D01*
X030012Y053831D02*
X030406D01*
X030209Y053634D02*
Y054028D01*
X029012Y053831D02*
X029406D01*
X029209Y053634D02*
Y054028D01*
X028012Y053831D02*
X028406D01*
X028209Y053634D02*
Y054028D01*
X031610Y049100D02*
X031847D01*
X031729Y048982D02*
Y049218D01*
X030610Y049100D02*
X030847D01*
X030729Y048982D02*
Y049218D01*
X029610Y049100D02*
X029847D01*
X029729Y048982D02*
Y049218D01*
X031610Y046100D02*
X031847D01*
X031729Y045982D02*
Y046218D01*
X030610Y046100D02*
X030847D01*
X030729Y045982D02*
Y046218D01*
X029610Y046100D02*
X029847D01*
X029729Y045982D02*
Y046218D01*
X034203Y053831D02*
X034597D01*
X034400Y053634D02*
Y054028D01*
X033203Y053831D02*
X033597D01*
X033400Y053634D02*
Y054028D01*
X032203Y053831D02*
X032597D01*
X032400Y053634D02*
Y054028D01*
X034782Y049100D02*
X035018D01*
X034900Y048982D02*
Y049218D01*
X033782Y049100D02*
X034018D01*
X033900Y048982D02*
Y049218D01*
X032782Y049100D02*
X033018D01*
X032900Y048982D02*
Y049218D01*
X034782Y046100D02*
X035018D01*
X034900Y045982D02*
Y046218D01*
X033782Y046100D02*
X034018D01*
X033900Y045982D02*
Y046218D01*
X032782Y046100D02*
X033018D01*
X032900Y045982D02*
Y046218D01*
X034203Y051550D02*
X034597D01*
X034400Y051353D02*
Y051747D01*
X033203Y051550D02*
X033597D01*
X033400Y051353D02*
Y051747D01*
X032203Y051550D02*
X032597D01*
X032400Y051353D02*
Y051747D01*
X022886Y070164D02*
X023186D01*
X023036Y070014D02*
Y070314D01*
X021114Y070164D02*
X021414D01*
X021264Y070014D02*
Y070314D01*
X022886Y071936D02*
X023186D01*
X023036Y071786D02*
Y072086D01*
X021114Y071936D02*
X021414D01*
X021264Y071786D02*
Y072086D01*
X015736Y070164D02*
X016036D01*
X015886Y070014D02*
Y070314D01*
X013964Y070164D02*
X014264D01*
X014114Y070014D02*
Y070314D01*
X015736Y071936D02*
X016036D01*
X015886Y071786D02*
Y072086D01*
X013964Y071936D02*
X014264D01*
X014114Y071786D02*
Y072086D01*
X018773Y033200D02*
X019127D01*
X018950Y033023D02*
Y033377D01*
X025773Y033200D02*
X026127D01*
X025950Y033023D02*
Y033377D01*
X024773Y033200D02*
X025127D01*
X024950Y033023D02*
Y033377D01*
X023773Y033200D02*
X024127D01*
X023950Y033023D02*
Y033377D01*
X022773Y033200D02*
X023127D01*
X022950Y033023D02*
Y033377D01*
X021773Y033200D02*
X022127D01*
X021950Y033023D02*
Y033377D01*
X020773Y033200D02*
X021127D01*
X020950Y033023D02*
Y033377D01*
X019773Y033200D02*
X020127D01*
X019950Y033023D02*
Y033377D01*
X017773Y033200D02*
X018127D01*
X017950Y033023D02*
Y033377D01*
X027723Y020250D02*
X028077D01*
X027900Y020073D02*
Y020427D01*
X020723Y020250D02*
X021077D01*
X020900Y020073D02*
Y020427D01*
X021723Y020250D02*
X022077D01*
X021900Y020073D02*
Y020427D01*
X022723Y020250D02*
X023077D01*
X022900Y020073D02*
Y020427D01*
X023723Y020250D02*
X024077D01*
X023900Y020073D02*
Y020427D01*
X024723Y020250D02*
X025077D01*
X024900Y020073D02*
Y020427D01*
X025723Y020250D02*
X026077D01*
X025900Y020073D02*
Y020427D01*
X026723Y020250D02*
X027077D01*
X026900Y020073D02*
Y020427D01*
X028723Y020250D02*
X029077D01*
X028900Y020073D02*
Y020427D01*
X016203Y041100D02*
X016597D01*
X016400Y040903D02*
Y041297D01*
X014203Y041100D02*
X014597D01*
X014400Y040903D02*
Y041297D01*
X012203Y041100D02*
X012597D01*
X012400Y040903D02*
Y041297D01*
X022103Y041100D02*
X022497D01*
X022300Y040903D02*
Y041297D01*
X020103Y041100D02*
X020497D01*
X020300Y040903D02*
Y041297D01*
X018103Y041100D02*
X018497D01*
X018300Y040903D02*
Y041297D01*
X028003Y041100D02*
X028397D01*
X028200Y040903D02*
Y041297D01*
X026003Y041100D02*
X026397D01*
X026200Y040903D02*
Y041297D01*
X024003Y041100D02*
X024397D01*
X024200Y040903D02*
Y041297D01*
X030249Y020800D02*
X030564D01*
X030406Y020643D02*
Y020957D01*
X031036Y020800D02*
X031351D01*
X031194Y020643D02*
Y020957D01*
X033389Y021900D02*
X033743D01*
X033566Y021723D02*
Y022077D01*
X035357Y021900D02*
X035711D01*
X035534Y021723D02*
Y022077D01*
X033373Y026200D02*
X033727D01*
X033550Y026023D02*
Y026377D01*
X035341Y026200D02*
X035696D01*
X035519Y026023D02*
Y026377D01*
X013003Y063800D02*
X013397D01*
X013200Y063603D02*
Y063997D01*
X012003Y063800D02*
X012397D01*
X012200Y063603D02*
Y063997D01*
X011003Y063800D02*
X011397D01*
X011200Y063603D02*
Y063997D01*
X013003Y066200D02*
X013397D01*
X013200Y066003D02*
Y066397D01*
X012003Y066200D02*
X012397D01*
X012200Y066003D02*
Y066397D01*
X011003Y066200D02*
X011397D01*
X011200Y066003D02*
Y066397D01*
X017194Y066200D02*
X017588D01*
X017391Y066003D02*
Y066397D01*
X016194Y066200D02*
X016588D01*
X016391Y066003D02*
Y066397D01*
X015194Y066200D02*
X015588D01*
X015391Y066003D02*
Y066397D01*
X021385Y066200D02*
X021778D01*
X021582Y066003D02*
Y066397D01*
X020385Y066200D02*
X020778D01*
X020582Y066003D02*
Y066397D01*
X019385Y066200D02*
X019778D01*
X019582Y066003D02*
Y066397D01*
X023822Y066031D02*
X024215D01*
X024018Y065834D02*
Y066228D01*
X024822Y066031D02*
X025215D01*
X025018Y065834D02*
Y066228D01*
X025822Y066031D02*
X026215D01*
X026018Y065834D02*
Y066228D01*
X028012Y066031D02*
X028406D01*
X028209Y065834D02*
Y066228D01*
X029012Y066031D02*
X029406D01*
X029209Y065834D02*
Y066228D01*
X030012Y066031D02*
X030406D01*
X030209Y065834D02*
Y066228D01*
X032203Y066031D02*
X032597D01*
X032400Y065834D02*
Y066228D01*
X033203Y066031D02*
X033597D01*
X033400Y065834D02*
Y066228D01*
X034203Y066031D02*
X034597D01*
X034400Y065834D02*
Y066228D01*
X032203Y063631D02*
X032597D01*
X032400Y063434D02*
Y063828D01*
X033203Y063631D02*
X033597D01*
X033400Y063434D02*
Y063828D01*
X034203Y063631D02*
X034597D01*
X034400Y063434D02*
Y063828D01*
X034287Y041100D02*
X034681D01*
X034484Y040903D02*
Y041297D01*
X032319Y041100D02*
X032713D01*
X032516Y040903D02*
Y041297D01*
X021173Y023300D02*
X021527D01*
X021350Y023123D02*
Y023477D01*
X020173Y023300D02*
X020527D01*
X020350Y023123D02*
Y023477D01*
X019173Y023300D02*
X019527D01*
X019350Y023123D02*
Y023477D01*
X017723Y017100D02*
X018077D01*
X017900Y016923D02*
Y017277D01*
X018723Y017100D02*
X019077D01*
X018900Y016923D02*
Y017277D01*
X019723Y017100D02*
X020077D01*
X019900Y016923D02*
Y017277D01*
X020723Y017100D02*
X021077D01*
X020900Y016923D02*
Y017277D01*
X021723Y017100D02*
X022077D01*
X021900Y016923D02*
Y017277D01*
X022723Y017100D02*
X023077D01*
X022900Y016923D02*
Y017277D01*
X023723Y017100D02*
X024077D01*
X023900Y016923D02*
Y017277D01*
X024723Y017100D02*
X025077D01*
X024900Y016923D02*
Y017277D01*
X025723Y017100D02*
X026077D01*
X025900Y016923D02*
Y017277D01*
X026723Y017100D02*
X027077D01*
X026900Y016923D02*
Y017277D01*
X027723Y017100D02*
X028077D01*
X027900Y016923D02*
Y017277D01*
X028723Y017100D02*
X029077D01*
X028900Y016923D02*
Y017277D01*
X028723Y036350D02*
X029077D01*
X028900Y036173D02*
Y036527D01*
X027723Y036350D02*
X028077D01*
X027900Y036173D02*
Y036527D01*
X026723Y036350D02*
X027077D01*
X026900Y036173D02*
Y036527D01*
X025723Y036350D02*
X026077D01*
X025900Y036173D02*
Y036527D01*
X024723Y036350D02*
X025077D01*
X024900Y036173D02*
Y036527D01*
X023723Y036350D02*
X024077D01*
X023900Y036173D02*
Y036527D01*
X022723Y036350D02*
X023077D01*
X022900Y036173D02*
Y036527D01*
X021723Y036350D02*
X022077D01*
X021900Y036173D02*
Y036527D01*
X020723Y036350D02*
X021077D01*
X020900Y036173D02*
Y036527D01*
X019723Y036350D02*
X020077D01*
X019900Y036173D02*
Y036527D01*
X018723Y036350D02*
X019077D01*
X018900Y036173D02*
Y036527D01*
X017723Y036350D02*
X018077D01*
X017900Y036173D02*
Y036527D01*
X028003Y012400D02*
X028397D01*
X028200Y012203D02*
Y012597D01*
X026003Y012400D02*
X026397D01*
X026200Y012203D02*
Y012597D01*
X024003Y012400D02*
X024397D01*
X024200Y012203D02*
Y012597D01*
X022103Y012400D02*
X022497D01*
X022300Y012203D02*
Y012597D01*
X020103Y012400D02*
X020497D01*
X020300Y012203D02*
Y012597D01*
X018103Y012400D02*
X018497D01*
X018300Y012203D02*
Y012597D01*
X016203Y012400D02*
X016597D01*
X016400Y012203D02*
Y012597D01*
X014203Y012400D02*
X014597D01*
X014400Y012203D02*
Y012597D01*
X012203Y012400D02*
X012597D01*
X012400Y012203D02*
Y012597D01*
X032303Y012400D02*
X032697D01*
X032500Y012203D02*
Y012597D01*
X034272Y012400D02*
X034665D01*
X034469Y012203D02*
Y012597D01*
X034773Y031450D02*
X035127D01*
X034950Y031273D02*
Y031627D01*
X034773Y030450D02*
X035127D01*
X034950Y030273D02*
Y030627D01*
X033773Y031450D02*
X034127D01*
X033950Y031273D02*
Y031627D01*
X033773Y030450D02*
X034127D01*
X033950Y030273D02*
Y030627D01*
X032773Y031450D02*
X033127D01*
X032950Y031273D02*
Y031627D01*
X032773Y030450D02*
X033127D01*
X032950Y030273D02*
Y030627D01*
X031773Y031450D02*
X032127D01*
X031950Y031273D02*
Y031627D01*
X031773Y030450D02*
X032127D01*
X031950Y030273D02*
Y030627D01*
X030773Y031450D02*
X031127D01*
X030950Y031273D02*
Y031627D01*
X030773Y030450D02*
X031127D01*
X030950Y030273D02*
Y030627D01*
X029773Y031450D02*
X030127D01*
X029950Y031273D02*
Y031627D01*
X029773Y030450D02*
X030127D01*
X029950Y030273D02*
Y030627D01*
X028773Y031450D02*
X029127D01*
X028950Y031273D02*
Y031627D01*
X028773Y030450D02*
X029127D01*
X028950Y030273D02*
Y030627D01*
X027773Y031450D02*
X028127D01*
X027950Y031273D02*
Y031627D01*
X027773Y030450D02*
X028127D01*
X027950Y030273D02*
Y030627D01*
X018723Y056450D02*
X019077D01*
X018900Y056273D02*
Y056627D01*
X025723Y056450D02*
X026077D01*
X025900Y056273D02*
Y056627D01*
X024723Y056450D02*
X025077D01*
X024900Y056273D02*
Y056627D01*
X023723Y056450D02*
X024077D01*
X023900Y056273D02*
Y056627D01*
X022723Y056450D02*
X023077D01*
X022900Y056273D02*
Y056627D01*
X021723Y056450D02*
X022077D01*
X021900Y056273D02*
Y056627D01*
X020723Y056450D02*
X021077D01*
X020900Y056273D02*
Y056627D01*
X019723Y056450D02*
X020077D01*
X019900Y056273D02*
Y056627D01*
X017723Y056450D02*
X018077D01*
X017900Y056273D02*
Y056627D01*
X028723Y063900D02*
X029077D01*
X028900Y063723D02*
Y064077D01*
X027723Y063900D02*
X028077D01*
X027900Y063723D02*
Y064077D01*
X026723Y063900D02*
X027077D01*
X026900Y063723D02*
Y064077D01*
X025723Y063900D02*
X026077D01*
X025900Y063723D02*
Y064077D01*
X024723Y063900D02*
X025077D01*
X024900Y063723D02*
Y064077D01*
X023723Y063900D02*
X024077D01*
X023900Y063723D02*
Y064077D01*
X022723Y063900D02*
X023077D01*
X022900Y063723D02*
Y064077D01*
X021723Y063900D02*
X022077D01*
X021900Y063723D02*
Y064077D01*
X020723Y063900D02*
X021077D01*
X020900Y063723D02*
Y064077D01*
X019723Y063900D02*
X020077D01*
X019900Y063723D02*
Y064077D01*
X018723Y063900D02*
X019077D01*
X018900Y063723D02*
Y064077D01*
X017723Y063900D02*
X018077D01*
X017900Y063723D02*
Y064077D01*
X028723Y051700D02*
X029077D01*
X028900Y051523D02*
Y051877D01*
X027723Y051700D02*
X028077D01*
X027900Y051523D02*
Y051877D01*
X026723Y051700D02*
X027077D01*
X026900Y051523D02*
Y051877D01*
X025723Y051700D02*
X026077D01*
X025900Y051523D02*
Y051877D01*
X024723Y051700D02*
X025077D01*
X024900Y051523D02*
Y051877D01*
X023723Y051700D02*
X024077D01*
X023900Y051523D02*
Y051877D01*
X022723Y051700D02*
X023077D01*
X022900Y051523D02*
Y051877D01*
X021723Y051700D02*
X022077D01*
X021900Y051523D02*
Y051877D01*
X020723Y051700D02*
X021077D01*
X020900Y051523D02*
Y051877D01*
X019723Y051700D02*
X020077D01*
X019900Y051523D02*
Y051877D01*
X018723Y051700D02*
X019077D01*
X018900Y051523D02*
Y051877D01*
X017723Y051700D02*
X018077D01*
X017900Y051523D02*
Y051877D01*
X033773Y076750D02*
X034127D01*
X033950Y076573D02*
Y076927D01*
X033773Y075750D02*
X034127D01*
X033950Y075573D02*
Y075927D01*
X032773Y076750D02*
X033127D01*
X032950Y076573D02*
Y076927D01*
X032773Y075750D02*
X033127D01*
X032950Y075573D02*
Y075927D01*
X031773Y076750D02*
X032127D01*
X031950Y076573D02*
Y076927D01*
X031773Y075750D02*
X032127D01*
X031950Y075573D02*
Y075927D01*
X030773Y076750D02*
X031127D01*
X030950Y076573D02*
Y076927D01*
X030773Y075750D02*
X031127D01*
X030950Y075573D02*
Y075927D01*
X029773Y076750D02*
X030127D01*
X029950Y076573D02*
Y076927D01*
X029773Y075750D02*
X030127D01*
X029950Y075573D02*
Y075927D01*
X028773Y076750D02*
X029127D01*
X028950Y076573D02*
Y076927D01*
X028773Y075750D02*
X029127D01*
X028950Y075573D02*
Y075927D01*
X027773Y076750D02*
X028127D01*
X027950Y076573D02*
Y076927D01*
X027773Y075750D02*
X028127D01*
X027950Y075573D02*
Y075927D01*
X026773Y076750D02*
X027127D01*
X026950Y076573D02*
Y076927D01*
X026773Y075750D02*
X027127D01*
X026950Y075573D02*
Y075927D01*
X033773Y072550D02*
X034127D01*
X033950Y072373D02*
Y072727D01*
X032773Y072550D02*
X033127D01*
X032950Y072373D02*
Y072727D01*
X031773Y072550D02*
X032127D01*
X031950Y072373D02*
Y072727D01*
X030773Y072550D02*
X031127D01*
X030950Y072373D02*
Y072727D01*
X029773Y072550D02*
X030127D01*
X029950Y072373D02*
Y072727D01*
X028773Y072550D02*
X029127D01*
X028950Y072373D02*
Y072727D01*
X033773Y069550D02*
X034127D01*
X033950Y069373D02*
Y069727D01*
X032773Y069550D02*
X033127D01*
X032950Y069373D02*
Y069727D01*
X031773Y069550D02*
X032127D01*
X031950Y069373D02*
Y069727D01*
X030773Y069550D02*
X031127D01*
X030950Y069373D02*
Y069727D01*
X029773Y069550D02*
X030127D01*
X029950Y069373D02*
Y069727D01*
X028773Y069550D02*
X029127D01*
X028950Y069373D02*
Y069727D01*
X028883Y023200D02*
X029317D01*
X029100Y022983D02*
Y023417D01*
X029883Y023200D02*
X030317D01*
X030100Y022983D02*
Y023417D01*
X030883Y023200D02*
X031317D01*
X031100Y022983D02*
Y023417D01*
X010582Y058400D02*
X010818D01*
X010700Y058282D02*
Y058518D01*
X011582Y058400D02*
X011818D01*
X011700Y058282D02*
Y058518D01*
X012582Y058400D02*
X012818D01*
X012700Y058282D02*
Y058518D01*
X010582Y061400D02*
X010818D01*
X010700Y061282D02*
Y061518D01*
X011582Y061400D02*
X011818D01*
X011700Y061282D02*
Y061518D01*
X012582Y061400D02*
X012818D01*
X012700Y061282D02*
Y061518D01*
X013753Y058400D02*
X013990D01*
X013871Y058282D02*
Y058518D01*
X014753Y058400D02*
X014990D01*
X014871Y058282D02*
Y058518D01*
X015753Y058400D02*
X015990D01*
X015871Y058282D02*
Y058518D01*
X013753Y061400D02*
X013990D01*
X013871Y061282D02*
Y061518D01*
X014753Y061400D02*
X014990D01*
X014871Y061282D02*
Y061518D01*
X015753Y061400D02*
X015990D01*
X015871Y061282D02*
Y061518D01*
X016925Y058400D02*
X017161D01*
X017043Y058282D02*
Y058518D01*
X017925Y058400D02*
X018161D01*
X018043Y058282D02*
Y058518D01*
X018925Y058400D02*
X019161D01*
X019043Y058282D02*
Y058518D01*
X016925Y061400D02*
X017161D01*
X017043Y061282D02*
Y061518D01*
X017925Y061400D02*
X018161D01*
X018043Y061282D02*
Y061518D01*
X018925Y061400D02*
X019161D01*
X019043Y061282D02*
Y061518D01*
X020096Y058400D02*
X020332D01*
X020214Y058282D02*
Y058518D01*
X021096Y058400D02*
X021332D01*
X021214Y058282D02*
Y058518D01*
X022096Y058400D02*
X022332D01*
X022214Y058282D02*
Y058518D01*
X020096Y061400D02*
X020332D01*
X020214Y061282D02*
Y061518D01*
X021096Y061400D02*
X021332D01*
X021214Y061282D02*
Y061518D01*
X022096Y061400D02*
X022332D01*
X022214Y061282D02*
Y061518D01*
X023268Y058400D02*
X023504D01*
X023386Y058282D02*
Y058518D01*
X024268Y058400D02*
X024504D01*
X024386Y058282D02*
Y058518D01*
X025268Y058400D02*
X025504D01*
X025386Y058282D02*
Y058518D01*
X023268Y061400D02*
X023504D01*
X023386Y061282D02*
Y061518D01*
X024268Y061400D02*
X024504D01*
X024386Y061282D02*
Y061518D01*
X025268Y061400D02*
X025504D01*
X025386Y061282D02*
Y061518D01*
X026439Y058400D02*
X026675D01*
X026557Y058282D02*
Y058518D01*
X027439Y058400D02*
X027675D01*
X027557Y058282D02*
Y058518D01*
X028439Y058400D02*
X028675D01*
X028557Y058282D02*
Y058518D01*
X026439Y061400D02*
X026675D01*
X026557Y061282D02*
Y061518D01*
X027439Y061400D02*
X027675D01*
X027557Y061282D02*
Y061518D01*
X028439Y061400D02*
X028675D01*
X028557Y061282D02*
Y061518D01*
X029610Y058400D02*
X029847D01*
X029729Y058282D02*
Y058518D01*
X030610Y058400D02*
X030847D01*
X030729Y058282D02*
Y058518D01*
X031610Y058400D02*
X031847D01*
X031729Y058282D02*
Y058518D01*
X029610Y061400D02*
X029847D01*
X029729Y061282D02*
Y061518D01*
X030610Y061400D02*
X030847D01*
X030729Y061282D02*
Y061518D01*
X031610Y061400D02*
X031847D01*
X031729Y061282D02*
Y061518D01*
X032782Y058400D02*
X033018D01*
X032900Y058282D02*
Y058518D01*
X033782Y058400D02*
X034018D01*
X033900Y058282D02*
Y058518D01*
X034782Y058400D02*
X035018D01*
X034900Y058282D02*
Y058518D01*
X032782Y061400D02*
X033018D01*
X032900Y061282D02*
Y061518D01*
X033782Y061400D02*
X034018D01*
X033900Y061282D02*
Y061518D01*
X034782Y061400D02*
X035018D01*
X034900Y061282D02*
Y061518D01*
X035492Y054653D02*
X035689D01*
X035591Y054554D02*
Y054751D01*
X035492Y054954D02*
X035689D01*
X035591Y054855D02*
Y055052D01*
X014100Y076067D02*
X014200D01*
X014150Y076017D02*
Y076117D01*
X015420Y076067D02*
X015520D01*
X015470Y076017D02*
Y076117D01*
X016740Y076050D02*
X016840D01*
X016790Y076000D02*
Y076100D01*
X018060Y076067D02*
X018160D01*
X018110Y076017D02*
Y076117D01*
X019380Y076067D02*
X019480D01*
X019430Y076017D02*
Y076117D01*
X020700Y076067D02*
X020800D01*
X020750Y076017D02*
Y076117D01*
X022000Y076050D02*
X022100D01*
X022050Y076000D02*
Y076100D01*
X023340Y076050D02*
X023440D01*
X023390Y076000D02*
Y076100D01*
X031485Y017500D02*
X031765D01*
X031625Y017360D02*
Y017640D01*
X031485Y016650D02*
X031765D01*
X031625Y016510D02*
Y016790D01*
X030760Y018350D02*
X031040D01*
X030900Y018210D02*
Y018490D01*
X030760Y017500D02*
X031040D01*
X030900Y017360D02*
Y017640D01*
X030760Y016650D02*
X031040D01*
X030900Y016510D02*
Y016790D01*
X013360Y019350D02*
X013640D01*
X013500Y019210D02*
Y019490D01*
X012860Y019350D02*
X013140D01*
X013000Y019210D02*
Y019490D01*
X012310Y019350D02*
X012590D01*
X012450Y019210D02*
Y019490D01*
X035210Y016600D02*
X035490D01*
X035350Y016460D02*
Y016740D01*
X032210Y018350D02*
X032490D01*
X032350Y018210D02*
Y018490D01*
X032210Y017500D02*
X032490D01*
X032350Y017360D02*
Y017640D01*
X032210Y016650D02*
X032490D01*
X032350Y016510D02*
Y016790D01*
X022260Y062650D02*
X022540D01*
X022400Y062510D02*
Y062790D01*
X022260Y050350D02*
X022540D01*
X022400Y050210D02*
Y050490D01*
X020150Y027150D02*
X020250D01*
X020200Y027100D02*
Y027200D01*
X020150Y026100D02*
X020250D01*
X020200Y026050D02*
Y026150D01*
X028300Y032450D02*
X028400D01*
X028350Y032400D02*
Y032500D01*
X029175Y032300D02*
X029275D01*
X029225Y032250D02*
Y032350D01*
X031500Y035250D02*
X031600D01*
X031550Y035200D02*
Y035300D01*
X034400Y035250D02*
X034500D01*
X034450Y035200D02*
Y035300D01*
X033400Y035250D02*
X033500D01*
X033450Y035200D02*
Y035300D01*
X030050Y032300D02*
X030150D01*
X030100Y032250D02*
Y032350D01*
X024400Y027350D02*
X024500D01*
X024450Y027300D02*
Y027400D01*
X024800Y027050D02*
X024900D01*
X024850Y027000D02*
Y027100D01*
X014050Y029050D02*
X014150D01*
X014100Y029000D02*
Y029100D01*
X022076Y030450D02*
X022176D01*
X022126Y030400D02*
Y030500D01*
X022824Y030450D02*
X022924D01*
X022874Y030400D02*
Y030500D01*
X023260Y025800D02*
X023540D01*
X023400Y025660D02*
Y025940D01*
X023860Y025800D02*
X024140D01*
X024000Y025660D02*
Y025940D01*
X017350Y027150D02*
X017450D01*
X017400Y027100D02*
Y027200D01*
X017350Y026400D02*
X017450D01*
X017400Y026350D02*
Y026450D01*
X016150Y030700D02*
X016250D01*
X016200Y030650D02*
Y030750D01*
X016635Y029565D02*
X016735D01*
X016685Y029515D02*
Y029615D01*
X012400Y024250D02*
X012500D01*
X012450Y024200D02*
Y024300D01*
X011700Y024250D02*
X011800D01*
X011750Y024200D02*
Y024300D01*
X013650D02*
X013750D01*
X013700Y024250D02*
Y024350D01*
X026450Y024050D02*
X026550D01*
X026500Y024000D02*
Y024100D01*
X028100Y028600D02*
X028200D01*
X028150Y028550D02*
Y028650D01*
X032185Y038485D02*
X032285D01*
X032235Y038435D02*
Y038535D01*
X031515Y038485D02*
X031615D01*
X031565Y038435D02*
Y038535D01*
X031485Y018350D02*
X031765D01*
X031625Y018210D02*
Y018490D01*
M02*