%FSDAX24Y24*%
%MOIN*%
%SFA1B1*%

%IPPOS*%
%ADD22C,0.010000*%
%ADD23C,0.020000*%
%ADD30O,0.047200X0.098400*%
%ADD32C,0.063000*%
%ADD34C,0.059100*%
%ADD36C,0.060000*%
%ADD37C,0.098400*%
%ADD38C,0.053100*%
%ADD42C,0.066900*%
%ADD44C,0.030000*%
%ADD45C,0.050000*%
%ADD47C,0.080000*%
%ADD93C,0.005000*%
%ADD94C,0.040000*%
%ADD95C,0.160000*%
%ADD96C,0.320000*%
%LNde-140824-1*%
%LPD*%
G54D93*
X036406Y043289D02*
X036442Y043265D01*
X036452Y043260*
X036462Y043254*
X036474Y043251*
X036484Y043247*
X036527Y043239*
X036537*
X036550Y043236*
X036562Y043239*
X036560*
X036594Y043211*
Y010178*
X030175*
Y018710*
X029660Y019225*
X019560*
X017110Y021675*
X011160*
X010675Y022160*
Y031239*
X011110Y031675*
X016725*
Y033889*
X016960Y034125*
X029760*
X031028Y035392*
Y043241*
X031014Y043239*
X031024*
X031068Y043248*
X031077Y043252*
X031089Y043254*
X031099Y043260*
X031109Y043264*
X031146Y043289*
X031143Y043287*
X031208*
X031205Y043289*
X031241Y043265*
X031251Y043260*
X031263Y043254*
X031274Y043252*
X031283Y043248*
X031326Y043239*
X031336*
X031349Y043236*
X031361Y043239*
X031371*
X031415Y043248*
X031424Y043252*
X031436Y043254*
X031446Y043260*
X031456Y043265*
X031492Y043289*
X031490Y043287*
X031552*
X031549Y043290*
X031588Y043265*
X031598Y043260*
X031610Y043254*
X031620Y043252*
X031630Y043247*
X031673Y043239*
X031683*
X031696Y043236*
X031708Y043239*
X031718*
X031761Y043247*
X031771Y043252*
X031781Y043254*
X031793Y043260*
X031803Y043265*
X031842Y043290*
X031839Y043287*
X031901*
X031899Y043289*
X031935Y043265*
X031945Y043260*
X031955Y043254*
X031967Y043252*
X031976Y043248*
X032020Y043239*
X032030*
X032043Y043236*
X032055Y043239*
X032065*
X032108Y043248*
X032117Y043252*
X032129Y043254*
X032139Y043260*
X032149Y043264*
X032186Y043289*
X032183Y043287*
X032248*
X032245Y043289*
X032282Y043264*
X032292Y043260*
X032302Y043254*
X032314Y043252*
X032323Y043248*
X032366Y043239*
X032377*
X032388Y043236*
X032401Y043239*
X032411*
X032455Y043248*
X032464Y043252*
X032476Y043254*
X032486Y043260*
X032496Y043265*
X032532Y043289*
X032530Y043287*
X032592*
X032589Y043290*
X032628Y043265*
X032638Y043260*
X032650Y043254*
X032661Y043252*
X032670Y043248*
X032713Y043239*
X032723*
X032736Y043236*
X032748Y043239*
X032758*
X032801Y043247*
X032811Y043251*
X032823Y043254*
X032833Y043260*
X032843Y043265*
X032882Y043290*
X032879Y043287*
X032941*
X032939Y043289*
X032975Y043265*
X032985Y043260*
X032995Y043254*
X033007Y043252*
X033016Y043248*
X033060Y043239*
X033070*
X033083Y043236*
X033095Y043239*
X033105*
X033148Y043248*
X033157Y043252*
X033168Y043254*
X033180Y043260*
X033190Y043265*
X033226Y043289*
X033223Y043287*
X033288*
X033285Y043289*
X033322Y043264*
X033332Y043260*
X033342Y043254*
X033354Y043252*
X033363Y043248*
X033407Y043239*
X033417*
X033430Y043236*
X033441Y043239*
X033451*
X033495Y043248*
X033504Y043252*
X033516Y043254*
X033526Y043260*
X033536Y043264*
X033573Y043289*
X033570Y043287*
X033635*
X033632Y043289*
X033668Y043265*
X033678Y043260*
X033690Y043254*
X033701Y043252*
X033710Y043248*
X033753Y043239*
X033763*
X033776Y043236*
X033788Y043239*
X033798*
X033842Y043248*
X033851Y043252*
X033863Y043254*
X033873Y043260*
X033883Y043265*
X033919Y043289*
X033917Y043287*
X033979*
X033976Y043290*
X034015Y043265*
X034025Y043260*
X034037Y043254*
X034047Y043252*
X034057Y043247*
X034100Y043239*
X034110*
X034123Y043236*
X034135Y043239*
X034145*
X034188Y043248*
X034197Y043252*
X034208Y043254*
X034220Y043260*
X034230Y043265*
X034269Y043290*
X034266Y043287*
X034328*
X034326Y043289*
X034362Y043265*
X034372Y043260*
X034382Y043254*
X034394Y043252*
X034403Y043248*
X034447Y043239*
X034457*
X034470Y043236*
X034481Y043239*
X034492*
X034535Y043248*
X034544Y043252*
X034556Y043254*
X034566Y043260*
X034576Y043264*
X034613Y043289*
X034610Y043287*
X034675*
X034672Y043289*
X034709Y043264*
X034719Y043260*
X034729Y043254*
X034741Y043252*
X034750Y043248*
X034793Y043239*
X034803*
X034816Y043236*
X034828Y043239*
X034838*
X034882Y043248*
X034891Y043252*
X034903Y043254*
X034913Y043260*
X034923Y043265*
X034959Y043289*
X034957Y043287*
X035056*
X035053Y043290*
X035092Y043265*
X035102Y043260*
X035114Y043254*
X035124Y043252*
X035134Y043247*
X035177Y043239*
X035187*
X035200Y043236*
X035212Y043239*
X035222*
X035265Y043247*
X035275Y043252*
X035285Y043254*
X035297Y043260*
X035307Y043265*
X035343Y043289*
X035340Y043286*
X035369*
X035366Y043289*
X035402Y043265*
X035412Y043260*
X035422Y043254*
X035434Y043252*
X035443Y043248*
X035487Y043239*
X035497*
X035510Y043236*
X035522Y043239*
X035532*
X035575Y043248*
X035584Y043252*
X035595Y043254*
X035607Y043260*
X035617Y043265*
X035653Y043289*
X035650Y043287*
X035715*
X035712Y043289*
X035749Y043264*
X035759Y043260*
X035769Y043254*
X035781Y043252*
X035790Y043248*
X035834Y043239*
X035844*
X035855Y043236*
X035868Y043239*
X035878*
X035922Y043248*
X035931Y043252*
X035943Y043254*
X035953Y043260*
X035963Y043264*
X036000Y043289*
X035997Y043287*
X036062*
X036059Y043289*
X036095Y043265*
X036105Y043260*
X036117Y043254*
X036128Y043252*
X036137Y043248*
X036180Y043239*
X036190*
X036203Y043236*
X036215Y043239*
X036225*
X036268Y043247*
X036278Y043251*
X036290Y043254*
X036300Y043260*
X036310Y043265*
X036346Y043289*
X036344Y043287*
X036408*
X036406Y043289*
X010690Y022150D02*
Y031250D01*
X010740Y022100D02*
Y031300D01*
X010790Y022050D02*
Y031350D01*
X010840Y022000D02*
Y031400D01*
X010890Y021950D02*
Y031450D01*
X010940Y021900D02*
Y031500D01*
X010990Y021850D02*
Y031550D01*
X011040Y021800D02*
Y031600D01*
X011090Y021750D02*
Y031650D01*
X011140Y021700D02*
Y031660D01*
X011190Y021680D02*
Y031660D01*
X011240Y021680D02*
Y031660D01*
X011290Y021680D02*
Y031660D01*
X011340Y021680D02*
Y031660D01*
X011390Y021680D02*
Y031660D01*
X011440Y021680D02*
Y031660D01*
X011490Y021680D02*
Y031660D01*
X011540Y021680D02*
Y031660D01*
X011590Y021680D02*
Y031660D01*
X011640Y021680D02*
Y031660D01*
X011690Y021680D02*
Y031660D01*
X011740Y021680D02*
Y031660D01*
X011790Y021680D02*
Y031660D01*
X011840Y021680D02*
Y031660D01*
X011890Y021680D02*
Y031660D01*
X011940Y021680D02*
Y031660D01*
X011990Y021680D02*
Y031660D01*
X012040Y021680D02*
Y031660D01*
X012090Y021680D02*
Y031660D01*
X012140Y021680D02*
Y031660D01*
X012190Y021680D02*
Y031660D01*
X012240Y021680D02*
Y031660D01*
X012290Y021680D02*
Y031660D01*
X012340Y021680D02*
Y031660D01*
X012390Y021680D02*
Y031660D01*
X012440Y021680D02*
Y031660D01*
X012490Y021680D02*
Y031660D01*
X012540Y021680D02*
Y031660D01*
X012590Y021680D02*
Y031660D01*
X012640Y021680D02*
Y031660D01*
X012690Y021680D02*
Y031660D01*
X012740Y021680D02*
Y031660D01*
X012790Y021680D02*
Y031660D01*
X012840Y021680D02*
Y031660D01*
X012890Y021680D02*
Y031660D01*
X012940Y021680D02*
Y031660D01*
X012990Y021680D02*
Y031660D01*
X013040Y021680D02*
Y031660D01*
X013090Y021680D02*
Y031660D01*
X013140Y021680D02*
Y031660D01*
X013190Y021680D02*
Y031660D01*
X013240Y021680D02*
Y031660D01*
X013290Y021680D02*
Y031660D01*
X013340Y021680D02*
Y031660D01*
X013390Y021680D02*
Y031660D01*
X013440Y021680D02*
Y031660D01*
X013490Y021680D02*
Y031660D01*
X013540Y021680D02*
Y031660D01*
X013590Y021680D02*
Y031660D01*
X013640Y021680D02*
Y031660D01*
X013690Y021680D02*
Y031660D01*
X013740Y021680D02*
Y031660D01*
X013790Y021680D02*
Y031660D01*
X013840Y021680D02*
Y031660D01*
X013890Y021680D02*
Y031660D01*
X013940Y021680D02*
Y031660D01*
X013990Y021680D02*
Y031660D01*
X014040Y021680D02*
Y031660D01*
X014090Y021680D02*
Y031660D01*
X014140Y021680D02*
Y031660D01*
X014190Y021680D02*
Y031660D01*
X014240Y021680D02*
Y031660D01*
X014290Y021680D02*
Y031660D01*
X014340Y021680D02*
Y031660D01*
X014390Y021680D02*
Y031660D01*
X014440Y021680D02*
Y031660D01*
X014490Y021680D02*
Y031660D01*
X014540Y021680D02*
Y031660D01*
X014590Y021680D02*
Y031660D01*
X014640Y021680D02*
Y031660D01*
X014690Y021680D02*
Y031660D01*
X014740Y021680D02*
Y031660D01*
X014790Y021680D02*
Y031660D01*
X014840Y021680D02*
Y031660D01*
X014890Y021680D02*
Y031660D01*
X014940Y021680D02*
Y031660D01*
X014990Y021680D02*
Y031660D01*
X015040Y021680D02*
Y031660D01*
X015090Y021680D02*
Y031660D01*
X015140Y021680D02*
Y031660D01*
X015190Y021680D02*
Y031660D01*
X015240Y021680D02*
Y031660D01*
X015290Y021680D02*
Y031660D01*
X015340Y021680D02*
Y031660D01*
X015390Y021680D02*
Y031660D01*
X015440Y021680D02*
Y031660D01*
X015490Y021680D02*
Y031660D01*
X015540Y021680D02*
Y031660D01*
X015590Y021680D02*
Y031660D01*
X015640Y021680D02*
Y031660D01*
X015690Y021680D02*
Y031660D01*
X015740Y021680D02*
Y031660D01*
X015790Y021680D02*
Y031660D01*
X015840Y021680D02*
Y031660D01*
X015890Y021680D02*
Y031660D01*
X015940Y021680D02*
Y031660D01*
X015990Y021680D02*
Y031660D01*
X016040Y021680D02*
Y031660D01*
X016090Y021680D02*
Y031660D01*
X016140Y021680D02*
Y031660D01*
X016190Y021680D02*
Y031660D01*
X016240Y021680D02*
Y031660D01*
X016290Y021680D02*
Y031660D01*
X016340Y021680D02*
Y031660D01*
X016390Y021680D02*
Y031660D01*
X016440Y021680D02*
Y031660D01*
X016490Y021680D02*
Y031660D01*
X016540Y021680D02*
Y031660D01*
X016590Y021680D02*
Y031660D01*
X016640Y021680D02*
Y031660D01*
X016690Y021680D02*
Y031660D01*
X016740Y021680D02*
Y033900D01*
X016790Y021680D02*
Y033950D01*
X016840Y021680D02*
Y034000D01*
X016890Y021680D02*
Y034050D01*
X016940Y021680D02*
Y034100D01*
X016990Y021680D02*
Y034110D01*
X017040Y021680D02*
Y034110D01*
X017090Y021680D02*
Y034110D01*
X017140Y021650D02*
Y034110D01*
X017190Y021600D02*
Y034110D01*
X017240Y021550D02*
Y034110D01*
X017290Y021500D02*
Y034110D01*
X017340Y021450D02*
Y034110D01*
X017390Y021400D02*
Y034110D01*
X017440Y021350D02*
Y034110D01*
X017490Y021300D02*
Y034110D01*
X017540Y021250D02*
Y034110D01*
X017590Y021200D02*
Y034110D01*
X017640Y021150D02*
Y034110D01*
X017690Y021100D02*
Y034110D01*
X017740Y021050D02*
Y034110D01*
X017790Y021000D02*
Y034110D01*
X017840Y020950D02*
Y034110D01*
X017890Y020900D02*
Y034110D01*
X017940Y020850D02*
Y034110D01*
X017990Y020800D02*
Y034110D01*
X018040Y020750D02*
Y034110D01*
X018090Y020700D02*
Y034110D01*
X018140Y020650D02*
Y034110D01*
X018190Y020600D02*
Y034110D01*
X018240Y020550D02*
Y034110D01*
X018290Y020500D02*
Y034110D01*
X018340Y020450D02*
Y034110D01*
X018390Y020400D02*
Y034110D01*
X018440Y020350D02*
Y034110D01*
X018490Y020300D02*
Y034110D01*
X018540Y020250D02*
Y034110D01*
X018590Y020200D02*
Y034110D01*
X018640Y020150D02*
Y034110D01*
X018690Y020100D02*
Y034110D01*
X018740Y020050D02*
Y034110D01*
X018790Y020000D02*
Y034110D01*
X018840Y019950D02*
Y034110D01*
X018890Y019900D02*
Y034110D01*
X018940Y019850D02*
Y034110D01*
X018990Y019800D02*
Y034110D01*
X019040Y019750D02*
Y034110D01*
X019090Y019700D02*
Y034110D01*
X019140Y019650D02*
Y034110D01*
X019190Y019600D02*
Y034110D01*
X019240Y019550D02*
Y034110D01*
X019290Y019500D02*
Y034110D01*
X019340Y019450D02*
Y034110D01*
X019390Y019400D02*
Y034110D01*
X019440Y019350D02*
Y034110D01*
X019490Y019300D02*
Y034110D01*
X019540Y019250D02*
Y034110D01*
X019590Y019230D02*
Y034110D01*
X019640Y019230D02*
Y034110D01*
X019690Y019230D02*
Y034110D01*
X019740Y019230D02*
Y034110D01*
X019790Y019230D02*
Y034110D01*
X019840Y019230D02*
Y034110D01*
X019890Y019230D02*
Y034110D01*
X019940Y019230D02*
Y034110D01*
X019990Y019230D02*
Y034110D01*
X020040Y019230D02*
Y034110D01*
X020090Y019230D02*
Y034110D01*
X020140Y019230D02*
Y034110D01*
X020190Y019230D02*
Y034110D01*
X020240Y019230D02*
Y034110D01*
X020290Y019230D02*
Y034110D01*
X020340Y019230D02*
Y034110D01*
X020390Y019230D02*
Y034110D01*
X020440Y019230D02*
Y034110D01*
X020490Y019230D02*
Y034110D01*
X020540Y019230D02*
Y034110D01*
X020590Y019230D02*
Y034110D01*
X020640Y019230D02*
Y034110D01*
X020690Y019230D02*
Y034110D01*
X020740Y019230D02*
Y034110D01*
X020790Y019230D02*
Y034110D01*
X020840Y019230D02*
Y034110D01*
X020890Y019230D02*
Y034110D01*
X020940Y019230D02*
Y034110D01*
X020990Y019230D02*
Y034110D01*
X021040Y019230D02*
Y034110D01*
X021090Y019230D02*
Y034110D01*
X021140Y019230D02*
Y034110D01*
X021190Y019230D02*
Y034110D01*
X021240Y019230D02*
Y034110D01*
X021290Y019230D02*
Y034110D01*
X021340Y019230D02*
Y034110D01*
X021390Y019230D02*
Y034110D01*
X021440Y019230D02*
Y034110D01*
X021490Y019230D02*
Y034110D01*
X021540Y019230D02*
Y034110D01*
X021590Y019230D02*
Y034110D01*
X021640Y019230D02*
Y034110D01*
X021690Y019230D02*
Y034110D01*
X021740Y019230D02*
Y034110D01*
X021790Y019230D02*
Y034110D01*
X021840Y019230D02*
Y034110D01*
X021890Y019230D02*
Y034110D01*
X021940Y019230D02*
Y034110D01*
X021990Y019230D02*
Y034110D01*
X022040Y019230D02*
Y034110D01*
X022090Y019230D02*
Y034110D01*
X022140Y019230D02*
Y034110D01*
X022190Y019230D02*
Y034110D01*
X022240Y019230D02*
Y034110D01*
X022290Y019230D02*
Y034110D01*
X022340Y019230D02*
Y034110D01*
X022390Y019230D02*
Y034110D01*
X022440Y019230D02*
Y034110D01*
X022490Y019230D02*
Y034110D01*
X022540Y019230D02*
Y034110D01*
X022590Y019230D02*
Y034110D01*
X022640Y019230D02*
Y034110D01*
X022690Y019230D02*
Y034110D01*
X022740Y019230D02*
Y034110D01*
X022790Y019230D02*
Y034110D01*
X022840Y019230D02*
Y034110D01*
X022890Y019230D02*
Y034110D01*
X022940Y019230D02*
Y034110D01*
X022990Y019230D02*
Y034110D01*
X023040Y019230D02*
Y034110D01*
X023090Y019230D02*
Y034110D01*
X023140Y019230D02*
Y034110D01*
X023190Y019230D02*
Y034110D01*
X023240Y019230D02*
Y034110D01*
X023290Y019230D02*
Y034110D01*
X023340Y019230D02*
Y034110D01*
X023390Y019230D02*
Y034110D01*
X023440Y019230D02*
Y034110D01*
X023490Y019230D02*
Y034110D01*
X023540Y019230D02*
Y034110D01*
X023590Y019230D02*
Y034110D01*
X023640Y019230D02*
Y034110D01*
X023690Y019230D02*
Y034110D01*
X023740Y019230D02*
Y034110D01*
X023790Y019230D02*
Y034110D01*
X023840Y019230D02*
Y034110D01*
X023890Y019230D02*
Y034110D01*
X023940Y019230D02*
Y034110D01*
X023990Y019230D02*
Y034110D01*
X024040Y019230D02*
Y034110D01*
X024090Y019230D02*
Y034110D01*
X024140Y019230D02*
Y034110D01*
X024190Y019230D02*
Y034110D01*
X024240Y019230D02*
Y034110D01*
X024290Y019230D02*
Y034110D01*
X024340Y019230D02*
Y034110D01*
X024390Y019230D02*
Y034110D01*
X024440Y019230D02*
Y034110D01*
X024490Y019230D02*
Y034110D01*
X024540Y019230D02*
Y034110D01*
X024590Y019230D02*
Y034110D01*
X024640Y019230D02*
Y034110D01*
X024690Y019230D02*
Y034110D01*
X024740Y019230D02*
Y034110D01*
X024790Y019230D02*
Y034110D01*
X024840Y019230D02*
Y034110D01*
X024890Y019230D02*
Y034110D01*
X024940Y019230D02*
Y034110D01*
X024990Y019230D02*
Y034110D01*
X025040Y019230D02*
Y034110D01*
X025090Y019230D02*
Y034110D01*
X025140Y019230D02*
Y034110D01*
X025190Y019230D02*
Y034110D01*
X025240Y019230D02*
Y034110D01*
X025290Y019230D02*
Y034110D01*
X025340Y019230D02*
Y034110D01*
X025390Y019230D02*
Y034110D01*
X025440Y019230D02*
Y034110D01*
X025490Y019230D02*
Y034110D01*
X025540Y019230D02*
Y034110D01*
X025590Y019230D02*
Y034110D01*
X025640Y019230D02*
Y034110D01*
X025690Y019230D02*
Y034110D01*
X025740Y019230D02*
Y034110D01*
X025790Y019230D02*
Y034110D01*
X025840Y019230D02*
Y034110D01*
X025890Y019230D02*
Y034110D01*
X025940Y019230D02*
Y034110D01*
X025990Y019230D02*
Y034110D01*
X026040Y019230D02*
Y034110D01*
X026090Y019230D02*
Y034110D01*
X026140Y019230D02*
Y034110D01*
X026190Y019230D02*
Y034110D01*
X026240Y019230D02*
Y034110D01*
X026290Y019230D02*
Y034110D01*
X026340Y019230D02*
Y034110D01*
X026390Y019230D02*
Y034110D01*
X026440Y019230D02*
Y034110D01*
X026490Y019230D02*
Y034110D01*
X026540Y019230D02*
Y034110D01*
X026590Y019230D02*
Y034110D01*
X026640Y019230D02*
Y034110D01*
X026690Y019230D02*
Y034110D01*
X026740Y019230D02*
Y034110D01*
X026790Y019230D02*
Y034110D01*
X026840Y019230D02*
Y034110D01*
X026890Y019230D02*
Y034110D01*
X026940Y019230D02*
Y034110D01*
X026990Y019230D02*
Y034110D01*
X027040Y019230D02*
Y034110D01*
X027090Y019230D02*
Y034110D01*
X027140Y019230D02*
Y034110D01*
X027190Y019230D02*
Y034110D01*
X027240Y019230D02*
Y034110D01*
X027290Y019230D02*
Y034110D01*
X027340Y019230D02*
Y034110D01*
X027390Y019230D02*
Y034110D01*
X027440Y019230D02*
Y034110D01*
X027490Y019230D02*
Y034110D01*
X027540Y019230D02*
Y034110D01*
X027590Y019230D02*
Y034110D01*
X027640Y019230D02*
Y034110D01*
X027690Y019230D02*
Y034110D01*
X027740Y019230D02*
Y034110D01*
X027790Y019230D02*
Y034110D01*
X027840Y019230D02*
Y034110D01*
X027890Y019230D02*
Y034110D01*
X027940Y019230D02*
Y034110D01*
X027990Y019230D02*
Y034110D01*
X028040Y019230D02*
Y034110D01*
X028090Y019230D02*
Y034110D01*
X028140Y019230D02*
Y034110D01*
X028190Y019230D02*
Y034110D01*
X028240Y019230D02*
Y034110D01*
X028290Y019230D02*
Y034110D01*
X028340Y019230D02*
Y034110D01*
X028390Y019230D02*
Y034110D01*
X028440Y019230D02*
Y034110D01*
X028490Y019230D02*
Y034110D01*
X028540Y019230D02*
Y034110D01*
X028590Y019230D02*
Y034110D01*
X028640Y019230D02*
Y034110D01*
X028690Y019230D02*
Y034110D01*
X028740Y019230D02*
Y034110D01*
X028790Y019230D02*
Y034110D01*
X028840Y019230D02*
Y034110D01*
X028890Y019230D02*
Y034110D01*
X028940Y019230D02*
Y034110D01*
X028990Y019230D02*
Y034110D01*
X029040Y019230D02*
Y034110D01*
X029090Y019230D02*
Y034110D01*
X029140Y019230D02*
Y034110D01*
X029190Y019230D02*
Y034110D01*
X029240Y019230D02*
Y034110D01*
X029290Y019230D02*
Y034110D01*
X029340Y019230D02*
Y034110D01*
X029390Y019230D02*
Y034110D01*
X029440Y019230D02*
Y034110D01*
X029490Y019230D02*
Y034110D01*
X029540Y019230D02*
Y034110D01*
X029590Y019230D02*
Y034110D01*
X029640Y019230D02*
Y034110D01*
X029690Y019200D02*
Y034110D01*
X029740Y019150D02*
Y034110D01*
X029790Y019100D02*
Y034150D01*
X029840Y019050D02*
Y034200D01*
X029890Y019000D02*
Y034250D01*
X029940Y018950D02*
Y034300D01*
X029990Y018900D02*
Y034350D01*
X030040Y018850D02*
Y034400D01*
X030090Y018800D02*
Y034450D01*
X030140Y018750D02*
Y034500D01*
X030190Y010190D02*
Y034550D01*
X030240Y010190D02*
Y034600D01*
X030290Y010190D02*
Y034650D01*
X030340Y010190D02*
Y034700D01*
X030390Y010190D02*
Y034750D01*
X030440Y010190D02*
Y034800D01*
X030490Y010190D02*
Y034850D01*
X030540Y010190D02*
Y034900D01*
X030590Y010190D02*
Y034950D01*
X030640Y010190D02*
Y035000D01*
X030690Y010190D02*
Y035050D01*
X030740Y010190D02*
Y035100D01*
X030790Y010190D02*
Y035150D01*
X030840Y010190D02*
Y035200D01*
X030890Y010190D02*
Y035250D01*
X030940Y010190D02*
Y035300D01*
X030990Y010190D02*
Y035350D01*
X031040Y010190D02*
Y043240D01*
X031090Y010190D02*
Y043250D01*
X031140Y010190D02*
Y043290D01*
X031190Y010190D02*
Y043290D01*
X031240Y010190D02*
Y043260D01*
X031290Y010190D02*
Y043240D01*
X031340Y010190D02*
Y043230D01*
X031390Y010190D02*
Y043240D01*
X031440Y010190D02*
Y043250D01*
X031490Y010190D02*
Y043290D01*
X031540Y010190D02*
Y043290D01*
X031590Y010190D02*
Y043260D01*
X031640Y010190D02*
Y043240D01*
X031690Y010190D02*
Y043230D01*
X031740Y010190D02*
Y043240D01*
X031790Y010190D02*
Y043260D01*
X031840Y010190D02*
Y043290D01*
X031890Y010190D02*
Y043290D01*
X031940Y010190D02*
Y043260D01*
X031990Y010190D02*
Y043240D01*
X032040Y010190D02*
Y043230D01*
X032090Y010190D02*
Y043240D01*
X032140Y010190D02*
Y043250D01*
X032190Y010190D02*
Y043290D01*
X032240Y010190D02*
Y043290D01*
X032290Y010190D02*
Y043250D01*
X032340Y010190D02*
Y043240D01*
X032390Y010190D02*
Y043230D01*
X032440Y010190D02*
Y043240D01*
X032490Y010190D02*
Y043260D01*
X032540Y010190D02*
Y043290D01*
X032590Y010190D02*
Y043290D01*
X032640Y010190D02*
Y043250D01*
X032690Y010190D02*
Y043240D01*
X032740Y010190D02*
Y043230D01*
X032790Y010190D02*
Y043240D01*
X032840Y010190D02*
Y043270D01*
X032890Y010190D02*
Y043290D01*
X032940Y010190D02*
Y043290D01*
X032990Y010190D02*
Y043250D01*
X033040Y010190D02*
Y043240D01*
X033090Y010190D02*
Y043230D01*
X033140Y010190D02*
Y043240D01*
X033190Y010190D02*
Y043270D01*
X033240Y010190D02*
Y043290D01*
X033290Y010190D02*
Y043290D01*
X033340Y010190D02*
Y043240D01*
X033390Y010190D02*
Y043240D01*
X033440Y010190D02*
Y043230D01*
X033490Y010190D02*
Y043240D01*
X033540Y010190D02*
Y043260D01*
X033590Y010190D02*
Y043290D01*
X033640Y010190D02*
Y043290D01*
X033690Y010190D02*
Y043240D01*
X033740Y010190D02*
Y043240D01*
X033790Y010190D02*
Y043230D01*
X033840Y010190D02*
Y043240D01*
X033890Y010190D02*
Y043270D01*
X033940Y010190D02*
Y043290D01*
X033990Y010190D02*
Y043290D01*
X034040Y010190D02*
Y043240D01*
X034090Y010190D02*
Y043240D01*
X034140Y010190D02*
Y043230D01*
X034190Y010190D02*
Y043240D01*
X034240Y010190D02*
Y043270D01*
X034290Y010190D02*
Y043290D01*
X034340Y010190D02*
Y043290D01*
X034390Y010190D02*
Y043240D01*
X034440Y010190D02*
Y043240D01*
X034490Y010190D02*
Y043240D01*
X034540Y010190D02*
Y043240D01*
X034590Y010190D02*
Y043270D01*
X034640Y010190D02*
Y043290D01*
X034690Y010190D02*
Y043270D01*
X034740Y010190D02*
Y043240D01*
X034790Y010190D02*
Y043230D01*
X034840Y010190D02*
Y043240D01*
X034890Y010190D02*
Y043240D01*
X034940Y010190D02*
Y043290D01*
X034990Y010190D02*
Y043290D01*
X035040Y010190D02*
Y043290D01*
X035090Y010190D02*
Y043260D01*
X035140Y010190D02*
Y043240D01*
X035190Y010190D02*
Y043230D01*
X035240Y010190D02*
Y043240D01*
X035290Y010190D02*
Y043250D01*
X035340Y010190D02*
Y043290D01*
X035390Y010190D02*
Y043270D01*
X035440Y010190D02*
Y043240D01*
X035490Y010190D02*
Y043230D01*
X035540Y010190D02*
Y043240D01*
X035590Y010190D02*
Y043240D01*
X035640Y010190D02*
Y043290D01*
X035690Y010190D02*
Y043290D01*
X035740Y010190D02*
Y043260D01*
X035790Y010190D02*
Y043240D01*
X035840Y010190D02*
Y043230D01*
X035890Y010190D02*
Y043240D01*
X035940Y010190D02*
Y043250D01*
X035990Y010190D02*
Y043290D01*
X036040Y010190D02*
Y043290D01*
X036090Y010190D02*
Y043270D01*
X036140Y010190D02*
Y043240D01*
X036190Y010190D02*
Y043230D01*
X036240Y010190D02*
Y043240D01*
X036290Y010190D02*
Y043250D01*
X036340Y010190D02*
Y043290D01*
X036390Y010190D02*
Y043290D01*
X036440Y010190D02*
Y043260D01*
X036490Y010190D02*
Y043240D01*
X036540Y010190D02*
Y043230D01*
X034775Y068775D02*
X011275D01*
Y078675*
X034775*
Y068775*
G54D22*
X034725Y068825D02*
X011325D01*
Y078625*
X034725*
Y068825*
G54D23*
X034625Y068925D02*
X011425D01*
Y078525*
X034625*
Y068925*
G54D94*
X034425Y069125D02*
X011625D01*
Y078325*
X034425*
Y069125*
G54D47*
X034025Y069525D02*
X012025D01*
Y077925*
X034025*
Y069525*
G54D95*
X033225Y070325D02*
X012825D01*
Y077125*
X033225*
Y070325*
G54D96*
X031625Y071925D02*
X014425D01*
Y075525*
X031625*
Y071925*
%LNde-140824-2*%
%LPC*%
G36*
X024450Y027605D02*
X024352Y027585D01*
X024270Y027530*
X024214Y027448*
X024195Y027350*
X024214Y027252*
X024270Y027170*
X024352Y027115*
X024450Y027095*
X024548Y027115*
X024558Y027122*
X024603Y027092*
X024595Y027050*
X024615Y026952*
X024670Y026870*
X024752Y026814*
X024850Y026795*
X024948Y026814*
X025030Y026870*
X025085Y026952*
X025105Y027050*
X025085Y027148*
X025030Y027230*
X024948Y027285*
X024850Y027305*
X024752Y027285*
X024742Y027278*
X024697Y027308*
X024705Y027350*
X024685Y027448*
X024630Y027530*
X024548Y027585*
X024450Y027605*
G37*
G36*
X017400Y027405D02*
X017302Y027385D01*
X017220Y027330*
X017164Y027248*
X017145Y027150*
X017164Y027052*
X017220Y026970*
X017302Y026915*
X017400Y026895*
X017498Y026915*
X017580Y026970*
X017636Y027052*
X017655Y027150*
X017636Y027248*
X017580Y027330*
X017498Y027385*
X017400Y027405*
G37*
G36*
X017450Y026645D02*
Y026450D01*
X017645*
X017636Y026498*
X017580Y026580*
X017498Y026635*
X017450Y026645*
G37*
G36*
X035568Y026592D02*
Y026250D01*
X035911*
X035904Y026303*
X035864Y026399*
X035800Y026482*
X035718Y026545*
X035622Y026585*
X035568Y026592*
G37*
G36*
X017350Y026645D02*
X017302Y026635D01*
X017220Y026580*
X017164Y026498*
X017155Y026450*
X017350*
Y026645*
G37*
G36*
X020200Y027405D02*
X020102Y027385D01*
X020020Y027330*
X019964Y027248*
X019945Y027150*
X019964Y027052*
X020020Y026970*
X020102Y026915*
X020200Y026895*
X020298Y026915*
X020380Y026970*
X020436Y027052*
X020455Y027150*
X020436Y027248*
X020380Y027330*
X020298Y027385*
X020200Y027405*
G37*
G36*
X016930Y029515D02*
X016735D01*
Y029320*
X016782Y029330*
X016865Y029385*
X016920Y029468*
X016930Y029515*
G37*
G36*
X016635Y029810D02*
X016587Y029801D01*
X016504Y029746*
X016449Y029663*
X016440Y029615*
X016635*
Y029810*
G37*
G36*
Y029515D02*
X016440D01*
X016449Y029468*
X016504Y029385*
X016587Y029330*
X016635Y029320*
Y029515*
G37*
G36*
X028150Y028855D02*
X028052Y028835D01*
X027970Y028780*
X027915Y028698*
X027895Y028600*
X027915Y028502*
X027970Y028420*
X028052Y028365*
X028150Y028345*
X028248Y028365*
X028330Y028420*
X028386Y028502*
X028405Y028600*
X028386Y028698*
X028330Y028780*
X028248Y028835*
X028150Y028855*
G37*
G36*
X014100Y029305D02*
X014002Y029286D01*
X013920Y029230*
X013865Y029148*
X013845Y029050*
X013865Y028952*
X013920Y028870*
X014002Y028814*
X014100Y028795*
X014198Y028814*
X014280Y028870*
X014336Y028952*
X014355Y029050*
X014336Y029148*
X014280Y029230*
X014198Y029286*
X014100Y029305*
G37*
G36*
X035468Y026592D02*
X035415Y026585D01*
X035319Y026545*
X035237Y026482*
X035173Y026399*
X035133Y026303*
X035126Y026250*
X035468*
Y026592*
G37*
G36*
Y026150D02*
X035126D01*
X035133Y026097*
X035173Y026001*
X035237Y025918*
X035319Y025855*
X035415Y025815*
X035468Y025808*
Y026150*
G37*
G36*
X035911D02*
X035568D01*
Y025808*
X035622Y025815*
X035718Y025855*
X035800Y025918*
X035864Y026001*
X035904Y026097*
X035911Y026150*
G37*
G36*
X033845Y026597D02*
X033255D01*
X033216Y026589*
X033183Y026567*
X033161Y026534*
X033153Y026495*
Y025905*
X033161Y025866*
X033183Y025833*
X033216Y025811*
X033255Y025803*
X033845*
X033884Y025811*
X033917Y025833*
X033939Y025866*
X033947Y025905*
Y026495*
X033939Y026534*
X033917Y026567*
X033884Y026589*
X033845Y026597*
G37*
G36*
X023350Y025750D02*
X023054D01*
X023059Y025709*
X023094Y025623*
X023150Y025550*
X023223Y025494*
X023309Y025459*
X023350Y025454*
Y025750*
G37*
G36*
X024346D02*
X024050D01*
Y025454*
X024091Y025459*
X024177Y025494*
X024250Y025550*
X024306Y025623*
X024341Y025709*
X024346Y025750*
G37*
G36*
X020200Y026355D02*
X020102Y026335D01*
X020020Y026280*
X019964Y026198*
X019945Y026100*
X019964Y026002*
X020020Y025920*
X020102Y025865*
X020200Y025845*
X020298Y025865*
X020380Y025920*
X020436Y026002*
X020455Y026100*
X020436Y026198*
X020380Y026280*
X020298Y026335*
X020200Y026355*
G37*
G36*
X017350Y026350D02*
X017155D01*
X017164Y026302*
X017220Y026220*
X017302Y026165*
X017350Y026155*
Y026350*
G37*
G36*
X017645D02*
X017450D01*
Y026155*
X017498Y026165*
X017580Y026220*
X017636Y026302*
X017645Y026350*
G37*
G36*
X023950Y026146D02*
X023909Y026141D01*
X023823Y026106*
X023750Y026050*
X023725Y026017*
X023675*
X023650Y026050*
X023577Y026106*
X023491Y026141*
X023450Y026146*
Y025800*
Y025454*
X023491Y025459*
X023577Y025494*
X023650Y025550*
X023675Y025583*
X023725*
X023750Y025550*
X023823Y025494*
X023909Y025459*
X023950Y025454*
Y025800*
Y026146*
G37*
G36*
X023350D02*
X023309Y026141D01*
X023223Y026106*
X023150Y026050*
X023094Y025977*
X023059Y025891*
X023054Y025850*
X023350*
Y026146*
G37*
G36*
X024050D02*
Y025850D01*
X024346*
X024341Y025891*
X024306Y025977*
X024250Y026050*
X024177Y026106*
X024091Y026141*
X024050Y026146*
G37*
G36*
X016735Y029810D02*
Y029615D01*
X016930*
X016920Y029663*
X016865Y029746*
X016782Y029801*
X016735Y029810*
G37*
G36*
X022924Y030695D02*
Y030500D01*
X023119*
X023110Y030548*
X023054Y030630*
X022972Y030686*
X022924Y030695*
G37*
G36*
X027950Y031849D02*
X027847Y031835D01*
X027751Y031795*
X027668Y031732*
X027605Y031649*
X027565Y031553*
X027551Y031450*
X027565Y031347*
X027605Y031251*
X027668Y031168*
X027751Y031105*
X027847Y031065*
X027950Y031051*
X028053Y031065*
X028149Y031105*
X028232Y031168*
X028295Y031251*
X028335Y031347*
X028349Y031450*
X028335Y031553*
X028295Y031649*
X028232Y031732*
X028149Y031795*
X028053Y031835*
X027950Y031849*
G37*
G36*
X022824Y030695D02*
X022776Y030686D01*
X022694Y030630*
X022639Y030548*
X022629Y030500*
X022824*
Y030695*
G37*
G36*
X023119Y030400D02*
X022924D01*
Y030205*
X022972Y030215*
X023054Y030270*
X023110Y030352*
X023119Y030400*
G37*
G36*
X016200Y030955D02*
X016102Y030935D01*
X016020Y030880*
X015964Y030798*
X015945Y030700*
X015964Y030602*
X016020Y030520*
X016102Y030464*
X016200Y030445*
X016298Y030464*
X016380Y030520*
X016436Y030602*
X016455Y030700*
X016436Y030798*
X016380Y030880*
X016298Y030935*
X016200Y030955*
G37*
G36*
X028950Y031849D02*
X028847Y031835D01*
X028751Y031795*
X028668Y031732*
X028605Y031649*
X028565Y031553*
X028551Y031450*
X028565Y031347*
X028605Y031251*
X028668Y031168*
X028751Y031105*
X028847Y031065*
X028950Y031051*
X029053Y031065*
X029149Y031105*
X029232Y031168*
X029295Y031251*
X029335Y031347*
X029349Y031450*
X029335Y031553*
X029295Y031649*
X029232Y031732*
X029149Y031795*
X029053Y031835*
X028950Y031849*
G37*
G36*
X032950D02*
X032847Y031835D01*
X032751Y031795*
X032668Y031732*
X032605Y031649*
X032565Y031553*
X032551Y031450*
X032565Y031347*
X032605Y031251*
X032668Y031168*
X032751Y031105*
X032847Y031065*
X032950Y031051*
X033053Y031065*
X033149Y031105*
X033232Y031168*
X033295Y031251*
X033335Y031347*
X033349Y031450*
X033335Y031553*
X033295Y031649*
X033232Y031732*
X033149Y031795*
X033053Y031835*
X032950Y031849*
G37*
G36*
X033950D02*
X033847Y031835D01*
X033751Y031795*
X033668Y031732*
X033605Y031649*
X033565Y031553*
X033551Y031450*
X033565Y031347*
X033605Y031251*
X033668Y031168*
X033751Y031105*
X033847Y031065*
X033950Y031051*
X034053Y031065*
X034149Y031105*
X034232Y031168*
X034295Y031251*
X034335Y031347*
X034349Y031450*
X034335Y031553*
X034295Y031649*
X034232Y031732*
X034149Y031795*
X034053Y031835*
X033950Y031849*
G37*
G36*
X031950D02*
X031847Y031835D01*
X031751Y031795*
X031668Y031732*
X031605Y031649*
X031565Y031553*
X031551Y031450*
X031565Y031347*
X031605Y031251*
X031668Y031168*
X031751Y031105*
X031847Y031065*
X031950Y031051*
X032053Y031065*
X032149Y031105*
X032232Y031168*
X032295Y031251*
X032335Y031347*
X032349Y031450*
X032335Y031553*
X032295Y031649*
X032232Y031732*
X032149Y031795*
X032053Y031835*
X031950Y031849*
G37*
G36*
X029950D02*
X029847Y031835D01*
X029751Y031795*
X029668Y031732*
X029605Y031649*
X029565Y031553*
X029551Y031450*
X029565Y031347*
X029605Y031251*
X029668Y031168*
X029751Y031105*
X029847Y031065*
X029950Y031051*
X030053Y031065*
X030149Y031105*
X030232Y031168*
X030295Y031251*
X030335Y031347*
X030349Y031450*
X030335Y031553*
X030295Y031649*
X030232Y031732*
X030149Y031795*
X030053Y031835*
X029950Y031849*
G37*
G36*
X030950D02*
X030847Y031835D01*
X030751Y031795*
X030668Y031732*
X030605Y031649*
X030565Y031553*
X030551Y031450*
X030565Y031347*
X030605Y031251*
X030668Y031168*
X030751Y031105*
X030847Y031065*
X030950Y031051*
X031053Y031065*
X031149Y031105*
X031232Y031168*
X031295Y031251*
X031335Y031347*
X031349Y031450*
X031335Y031553*
X031295Y031649*
X031232Y031732*
X031149Y031795*
X031053Y031835*
X030950Y031849*
G37*
G36*
X022824Y030400D02*
X022629D01*
X022639Y030352*
X022694Y030270*
X022776Y030215*
X022824Y030205*
Y030400*
G37*
G36*
X029950Y030849D02*
X029847Y030835D01*
X029751Y030795*
X029668Y030732*
X029605Y030649*
X029565Y030553*
X029551Y030450*
X029565Y030347*
X029605Y030251*
X029668Y030168*
X029751Y030105*
X029847Y030065*
X029950Y030051*
X030053Y030065*
X030149Y030105*
X030232Y030168*
X030295Y030251*
X030335Y030347*
X030349Y030450*
X030335Y030553*
X030295Y030649*
X030232Y030732*
X030149Y030795*
X030053Y030835*
X029950Y030849*
G37*
G36*
X030950D02*
X030847Y030835D01*
X030751Y030795*
X030668Y030732*
X030605Y030649*
X030565Y030553*
X030551Y030450*
X030565Y030347*
X030605Y030251*
X030668Y030168*
X030751Y030105*
X030847Y030065*
X030950Y030051*
X031053Y030065*
X031149Y030105*
X031232Y030168*
X031295Y030251*
X031335Y030347*
X031349Y030450*
X031335Y030553*
X031295Y030649*
X031232Y030732*
X031149Y030795*
X031053Y030835*
X030950Y030849*
G37*
G36*
X028950D02*
X028847Y030835D01*
X028751Y030795*
X028668Y030732*
X028605Y030649*
X028565Y030553*
X028551Y030450*
X028565Y030347*
X028605Y030251*
X028668Y030168*
X028751Y030105*
X028847Y030065*
X028950Y030051*
X029053Y030065*
X029149Y030105*
X029232Y030168*
X029295Y030251*
X029335Y030347*
X029349Y030450*
X029335Y030553*
X029295Y030649*
X029232Y030732*
X029149Y030795*
X029053Y030835*
X028950Y030849*
G37*
G36*
X029225Y032555D02*
X029127Y032536D01*
X029045Y032480*
X028990Y032398*
X028970Y032300*
X028990Y032202*
X029045Y032120*
X029127Y032064*
X029225Y032045*
X029323Y032064*
X029405Y032120*
X029460Y032202*
X029480Y032300*
X029460Y032398*
X029405Y032480*
X029323Y032536*
X029225Y032555*
G37*
G36*
X034950Y031849D02*
X034847Y031835D01*
X034751Y031795*
X034668Y031732*
X034605Y031649*
X034565Y031553*
X034551Y031450*
X034565Y031347*
X034605Y031251*
X034668Y031168*
X034751Y031105*
X034847Y031065*
X034950Y031051*
X035053Y031065*
X035149Y031105*
X035232Y031168*
X035295Y031251*
X035335Y031347*
X035349Y031450*
X035335Y031553*
X035295Y031649*
X035232Y031732*
X035149Y031795*
X035053Y031835*
X034950Y031849*
G37*
G36*
X031950Y030849D02*
X031847Y030835D01*
X031751Y030795*
X031668Y030732*
X031605Y030649*
X031565Y030553*
X031551Y030450*
X031565Y030347*
X031605Y030251*
X031668Y030168*
X031751Y030105*
X031847Y030065*
X031950Y030051*
X032053Y030065*
X032149Y030105*
X032232Y030168*
X032295Y030251*
X032335Y030347*
X032349Y030450*
X032335Y030553*
X032295Y030649*
X032232Y030732*
X032149Y030795*
X032053Y030835*
X031950Y030849*
G37*
G36*
X028245Y030847D02*
X027655D01*
X027616Y030839*
X027583Y030817*
X027561Y030784*
X027553Y030745*
Y030155*
X027561Y030116*
X027583Y030083*
X027616Y030061*
X027655Y030053*
X028245*
X028284Y030061*
X028317Y030083*
X028339Y030116*
X028347Y030155*
Y030745*
X028339Y030784*
X028317Y030817*
X028284Y030839*
X028245Y030847*
G37*
G36*
X022126Y030705D02*
X022028Y030686D01*
X021946Y030630*
X021890Y030548*
X021871Y030450*
X021890Y030352*
X021946Y030270*
X022028Y030215*
X022126Y030195*
X022224Y030215*
X022306Y030270*
X022361Y030352*
X022381Y030450*
X022361Y030548*
X022306Y030630*
X022224Y030686*
X022126Y030705*
G37*
G36*
X034950Y030849D02*
X034847Y030835D01*
X034751Y030795*
X034668Y030732*
X034605Y030649*
X034565Y030553*
X034551Y030450*
X034565Y030347*
X034605Y030251*
X034668Y030168*
X034751Y030105*
X034847Y030065*
X034950Y030051*
X035053Y030065*
X035149Y030105*
X035232Y030168*
X035295Y030251*
X035335Y030347*
X035349Y030450*
X035335Y030553*
X035295Y030649*
X035232Y030732*
X035149Y030795*
X035053Y030835*
X034950Y030849*
G37*
G36*
X032950D02*
X032847Y030835D01*
X032751Y030795*
X032668Y030732*
X032605Y030649*
X032565Y030553*
X032551Y030450*
X032565Y030347*
X032605Y030251*
X032668Y030168*
X032751Y030105*
X032847Y030065*
X032950Y030051*
X033053Y030065*
X033149Y030105*
X033232Y030168*
X033295Y030251*
X033335Y030347*
X033349Y030450*
X033335Y030553*
X033295Y030649*
X033232Y030732*
X033149Y030795*
X033053Y030835*
X032950Y030849*
G37*
G36*
X033950D02*
X033847Y030835D01*
X033751Y030795*
X033668Y030732*
X033605Y030649*
X033565Y030553*
X033551Y030450*
X033565Y030347*
X033605Y030251*
X033668Y030168*
X033751Y030105*
X033847Y030065*
X033950Y030051*
X034053Y030065*
X034149Y030105*
X034232Y030168*
X034295Y030251*
X034335Y030347*
X034349Y030450*
X034335Y030553*
X034295Y030649*
X034232Y030732*
X034149Y030795*
X034053Y030835*
X033950Y030849*
G37*
G36*
X011800Y024495D02*
Y024300D01*
X011995*
X011985Y024348*
X011930Y024430*
X011848Y024485*
X011800Y024495*
G37*
G36*
X027900Y020649D02*
X027797Y020635D01*
X027701Y020595*
X027618Y020532*
X027555Y020449*
X027515Y020353*
X027501Y020250*
X027515Y020147*
X027555Y020051*
X027618Y019968*
X027701Y019905*
X027797Y019865*
X027900Y019851*
X028003Y019865*
X028099Y019905*
X028182Y019968*
X028245Y020051*
X028285Y020147*
X028299Y020250*
X028285Y020353*
X028245Y020449*
X028182Y020532*
X028099Y020595*
X028003Y020635*
X027900Y020649*
G37*
G36*
X029195Y020647D02*
X028605D01*
X028566Y020639*
X028533Y020617*
X028511Y020584*
X028503Y020545*
Y019955*
X028511Y019916*
X028533Y019883*
X028566Y019861*
X028605Y019853*
X029195*
X029234Y019861*
X029267Y019883*
X029289Y019916*
X029297Y019955*
Y020545*
X029289Y020584*
X029267Y020617*
X029234Y020639*
X029195Y020647*
G37*
G36*
X020850Y020200D02*
X020508D01*
X020515Y020147*
X020555Y020051*
X020618Y019968*
X020701Y019905*
X020797Y019865*
X020850Y019858*
Y020200*
G37*
G36*
X024900Y020649D02*
X024797Y020635D01*
X024701Y020595*
X024618Y020532*
X024555Y020449*
X024515Y020353*
X024501Y020250*
X024515Y020147*
X024555Y020051*
X024618Y019968*
X024701Y019905*
X024797Y019865*
X024900Y019851*
X025003Y019865*
X025099Y019905*
X025182Y019968*
X025245Y020051*
X025285Y020147*
X025299Y020250*
X025285Y020353*
X025245Y020449*
X025182Y020532*
X025099Y020595*
X025003Y020635*
X024900Y020649*
G37*
G36*
X025900D02*
X025797Y020635D01*
X025701Y020595*
X025618Y020532*
X025555Y020449*
X025515Y020353*
X025501Y020250*
X025515Y020147*
X025555Y020051*
X025618Y019968*
X025701Y019905*
X025797Y019865*
X025900Y019851*
X026003Y019865*
X026099Y019905*
X026182Y019968*
X026245Y020051*
X026285Y020147*
X026299Y020250*
X026285Y020353*
X026245Y020449*
X026182Y020532*
X026099Y020595*
X026003Y020635*
X025900Y020649*
G37*
G36*
X026900D02*
X026797Y020635D01*
X026701Y020595*
X026618Y020532*
X026555Y020449*
X026515Y020353*
X026501Y020250*
X026515Y020147*
X026555Y020051*
X026618Y019968*
X026701Y019905*
X026797Y019865*
X026900Y019851*
X027003Y019865*
X027099Y019905*
X027182Y019968*
X027245Y020051*
X027285Y020147*
X027299Y020250*
X027285Y020353*
X027245Y020449*
X027182Y020532*
X027099Y020595*
X027003Y020635*
X026900Y020649*
G37*
G36*
X031459Y021168D02*
X030928D01*
X030889Y021160*
X030856Y021138*
X030834Y021105*
X030826Y021066*
Y020534*
X030834Y020495*
X030856Y020462*
X030889Y020440*
X030928Y020432*
X031459*
X031498Y020440*
X031532Y020462*
X031554Y020495*
X031561Y020534*
Y021066*
X031554Y021105*
X031532Y021138*
X031498Y021160*
X031459Y021168*
G37*
G36*
X030356Y020750D02*
X030044D01*
X030050Y020705*
X030087Y020616*
X030145Y020539*
X030222Y020481*
X030311Y020444*
X030356Y020438*
Y020750*
G37*
G36*
X030769D02*
X030456D01*
Y020438*
X030502Y020444*
X030591Y020481*
X030667Y020539*
X030726Y020616*
X030763Y020705*
X030769Y020750*
G37*
G36*
X021292Y020200D02*
X020950D01*
Y019858*
X021003Y019865*
X021099Y019905*
X021182Y019968*
X021245Y020051*
X021285Y020147*
X021292Y020200*
G37*
G36*
X020850Y020642D02*
X020797Y020635D01*
X020701Y020595*
X020618Y020532*
X020555Y020449*
X020515Y020353*
X020508Y020300*
X020850*
Y020642*
G37*
G36*
X020950D02*
Y020300D01*
X021292*
X021285Y020353*
X021245Y020449*
X021182Y020532*
X021099Y020595*
X021003Y020635*
X020950Y020642*
G37*
G36*
X034418Y012990D02*
X034352Y012984D01*
X034241Y012950*
X034138Y012895*
X034048Y012821*
X033974Y012731*
X033919Y012628*
X033885Y012516*
X033878Y012450*
X034418*
Y012990*
G37*
G36*
X034518D02*
Y012450D01*
X035059*
X035052Y012516*
X035018Y012628*
X034963Y012731*
X034889Y012821*
X034799Y012895*
X034696Y012950*
X034585Y012984*
X034518Y012990*
G37*
G36*
X035350Y016953D02*
X035259Y016941D01*
X035173Y016906*
X035100Y016850*
X035044Y016777*
X035009Y016691*
X034997Y016600*
X035009Y016509*
X035044Y016423*
X035100Y016350*
X035173Y016294*
X035259Y016259*
X035350Y016247*
X035441Y016259*
X035527Y016294*
X035600Y016350*
X035656Y016423*
X035691Y016509*
X035703Y016600*
X035691Y016691*
X035656Y016777*
X035600Y016850*
X035527Y016906*
X035441Y016941*
X035350Y016953*
G37*
G36*
X032500Y012995D02*
X032384Y012984D01*
X032272Y012950*
X032169Y012895*
X032079Y012821*
X032005Y012731*
X031950Y012628*
X031916Y012516*
X031905Y012400*
X031916Y012284*
X031950Y012172*
X032005Y012069*
X032079Y011979*
X032169Y011905*
X032272Y011850*
X032384Y011816*
X032500Y011805*
X032616Y011816*
X032728Y011850*
X032831Y011905*
X032921Y011979*
X032995Y012069*
X033050Y012172*
X033084Y012284*
X033095Y012400*
X033084Y012516*
X033050Y012628*
X032995Y012731*
X032921Y012821*
X032831Y012895*
X032728Y012950*
X032616Y012984*
X032500Y012995*
G37*
G36*
X034418Y012350D02*
X033878D01*
X033885Y012284*
X033919Y012172*
X033974Y012069*
X034048Y011979*
X034138Y011905*
X034241Y011850*
X034352Y011816*
X034418Y011810*
Y012350*
G37*
G36*
X035059D02*
X034518D01*
Y011810*
X034585Y011816*
X034696Y011850*
X034799Y011905*
X034889Y011979*
X034963Y012069*
X035018Y012172*
X035052Y012284*
X035059Y012350*
G37*
G36*
X021900Y020649D02*
X021797Y020635D01*
X021701Y020595*
X021618Y020532*
X021555Y020449*
X021515Y020353*
X021501Y020250*
X021515Y020147*
X021555Y020051*
X021618Y019968*
X021701Y019905*
X021797Y019865*
X021900Y019851*
X022003Y019865*
X022099Y019905*
X022182Y019968*
X022245Y020051*
X022285Y020147*
X022299Y020250*
X022285Y020353*
X022245Y020449*
X022182Y020532*
X022099Y020595*
X022003Y020635*
X021900Y020649*
G37*
G36*
X022900D02*
X022797Y020635D01*
X022701Y020595*
X022618Y020532*
X022555Y020449*
X022515Y020353*
X022501Y020250*
X022515Y020147*
X022555Y020051*
X022618Y019968*
X022701Y019905*
X022797Y019865*
X022900Y019851*
X023003Y019865*
X023099Y019905*
X023182Y019968*
X023245Y020051*
X023285Y020147*
X023299Y020250*
X023285Y020353*
X023245Y020449*
X023182Y020532*
X023099Y020595*
X023003Y020635*
X022900Y020649*
G37*
G36*
X023900D02*
X023797Y020635D01*
X023701Y020595*
X023618Y020532*
X023555Y020449*
X023515Y020353*
X023501Y020250*
X023515Y020147*
X023555Y020051*
X023618Y019968*
X023701Y019905*
X023797Y019865*
X023900Y019851*
X024003Y019865*
X024099Y019905*
X024182Y019968*
X024245Y020051*
X024285Y020147*
X024299Y020250*
X024285Y020353*
X024245Y020449*
X024182Y020532*
X024099Y020595*
X024003Y020635*
X023900Y020649*
G37*
G36*
X032350Y017003D02*
X032259Y016991D01*
X032173Y016956*
X032100Y016900*
X032044Y016827*
X032013Y016752*
X032001Y016749*
X031974*
X031962Y016752*
X031931Y016827*
X031875Y016900*
X031802Y016956*
X031716Y016991*
X031625Y017003*
X031534Y016991*
X031448Y016956*
X031375Y016900*
X031319Y016827*
X031288Y016752*
X031276Y016749*
X031249*
X031237Y016752*
X031206Y016827*
X031150Y016900*
X031077Y016956*
X030991Y016991*
X030900Y017003*
X030809Y016991*
X030723Y016956*
X030650Y016900*
X030594Y016827*
X030559Y016741*
X030547Y016650*
X030559Y016559*
X030594Y016473*
X030650Y016400*
X030723Y016344*
X030809Y016309*
X030900Y016297*
X030991Y016309*
X031077Y016344*
X031150Y016400*
X031206Y016473*
X031237Y016548*
X031249Y016551*
X031276*
X031288Y016548*
X031319Y016473*
X031375Y016400*
X031448Y016344*
X031534Y016309*
X031625Y016297*
X031716Y016309*
X031802Y016344*
X031875Y016400*
X031931Y016473*
X031962Y016548*
X031974Y016551*
X032001*
X032013Y016548*
X032044Y016473*
X032100Y016400*
X032173Y016344*
X032259Y016309*
X032350Y016297*
X032441Y016309*
X032527Y016344*
X032600Y016400*
X032656Y016473*
X032691Y016559*
X032703Y016650*
X032691Y016741*
X032656Y016827*
X032600Y016900*
X032527Y016956*
X032441Y016991*
X032350Y017003*
G37*
G36*
Y017853D02*
X032259Y017841D01*
X032173Y017806*
X032100Y017750*
X032044Y017677*
X032013Y017602*
X032001Y017599*
X031974*
X031962Y017602*
X031931Y017677*
X031875Y017750*
X031802Y017806*
X031716Y017841*
X031625Y017853*
X031534Y017841*
X031448Y017806*
X031375Y017750*
X031319Y017677*
X031288Y017602*
X031276Y017599*
X031249*
X031237Y017602*
X031206Y017677*
X031150Y017750*
X031077Y017806*
X030991Y017841*
X030900Y017853*
X030809Y017841*
X030723Y017806*
X030650Y017750*
X030594Y017677*
X030559Y017591*
X030547Y017500*
X030559Y017409*
X030594Y017323*
X030650Y017250*
X030723Y017194*
X030809Y017159*
X030900Y017147*
X030991Y017159*
X031077Y017194*
X031150Y017250*
X031206Y017323*
X031237Y017398*
X031249Y017401*
X031276*
X031288Y017398*
X031319Y017323*
X031375Y017250*
X031448Y017194*
X031534Y017159*
X031625Y017147*
X031716Y017159*
X031802Y017194*
X031875Y017250*
X031931Y017323*
X031962Y017398*
X031974Y017401*
X032001*
X032013Y017398*
X032044Y017323*
X032100Y017250*
X032173Y017194*
X032259Y017159*
X032350Y017147*
X032441Y017159*
X032527Y017194*
X032600Y017250*
X032656Y017323*
X032691Y017409*
X032703Y017500*
X032691Y017591*
X032656Y017677*
X032600Y017750*
X032527Y017806*
X032441Y017841*
X032350Y017853*
G37*
G36*
Y018703D02*
X032259Y018691D01*
X032173Y018656*
X032100Y018600*
X032044Y018527*
X032013Y018452*
X032001Y018449*
X031974*
X031962Y018452*
X031931Y018527*
X031875Y018600*
X031802Y018656*
X031716Y018691*
X031625Y018703*
X031534Y018691*
X031448Y018656*
X031375Y018600*
X031319Y018527*
X031288Y018452*
X031276Y018449*
X031249*
X031237Y018452*
X031206Y018527*
X031150Y018600*
X031077Y018656*
X030991Y018691*
X030900Y018703*
X030809Y018691*
X030723Y018656*
X030650Y018600*
X030594Y018527*
X030559Y018441*
X030547Y018350*
X030559Y018259*
X030594Y018173*
X030650Y018100*
X030723Y018044*
X030809Y018009*
X030900Y017997*
X030991Y018009*
X031077Y018044*
X031150Y018100*
X031206Y018173*
X031237Y018248*
X031249Y018251*
X031276*
X031288Y018248*
X031319Y018173*
X031375Y018100*
X031448Y018044*
X031534Y018009*
X031625Y017997*
X031716Y018009*
X031802Y018044*
X031875Y018100*
X031931Y018173*
X031962Y018248*
X031974Y018251*
X032001*
X032013Y018248*
X032044Y018173*
X032100Y018100*
X032173Y018044*
X032259Y018009*
X032350Y017997*
X032441Y018009*
X032527Y018044*
X032600Y018100*
X032656Y018173*
X032691Y018259*
X032703Y018350*
X032691Y018441*
X032656Y018527*
X032600Y018600*
X032527Y018656*
X032441Y018691*
X032350Y018703*
G37*
G36*
X030356Y021162D02*
X030311Y021156D01*
X030222Y021119*
X030145Y021061*
X030087Y020984*
X030050Y020895*
X030044Y020850*
X030356*
Y021162*
G37*
G36*
X030150Y023632D02*
Y023250D01*
X030532*
X030523Y023313*
X030480Y023419*
X030410Y023510*
X030319Y023580*
X030213Y023623*
X030150Y023632*
G37*
G36*
X020300Y023692D02*
X020247Y023685D01*
X020151Y023645*
X020068Y023582*
X020005Y023499*
X019965Y023403*
X019958Y023350*
X020300*
Y023692*
G37*
G36*
X020400D02*
Y023350D01*
X020742*
X020735Y023403*
X020695Y023499*
X020632Y023582*
X020549Y023645*
X020453Y023685*
X020400Y023692*
G37*
G36*
X020300Y023250D02*
X019958D01*
X019965Y023197*
X020005Y023101*
X020068Y023018*
X020151Y022955*
X020247Y022915*
X020300Y022908*
Y023250*
G37*
G36*
X020742D02*
X020400D01*
Y022908*
X020453Y022915*
X020549Y022955*
X020632Y023018*
X020695Y023101*
X020735Y023197*
X020742Y023250*
G37*
G36*
X030050Y023632D02*
X029987Y023623D01*
X029881Y023580*
X029790Y023510*
X029720Y023419*
X029677Y023313*
X029668Y023250*
X030050*
Y023632*
G37*
G36*
X011995Y024200D02*
X011800D01*
Y024005*
X011848Y024014*
X011930Y024070*
X011985Y024152*
X011995Y024200*
G37*
G36*
X013700Y024555D02*
X013602Y024536D01*
X013520Y024480*
X013464Y024398*
X013445Y024300*
X013464Y024202*
X013520Y024120*
X013602Y024065*
X013700Y024045*
X013798Y024065*
X013880Y024120*
X013936Y024202*
X013955Y024300*
X013936Y024398*
X013880Y024480*
X013798Y024536*
X013700Y024555*
G37*
G36*
X011700Y024495D02*
X011652Y024485D01*
X011570Y024430*
X011515Y024348*
X011505Y024300*
X011700*
Y024495*
G37*
G36*
X026500Y024305D02*
X026402Y024286D01*
X026320Y024230*
X026265Y024148*
X026245Y024050*
X026265Y023952*
X026320Y023870*
X026402Y023814*
X026500Y023795*
X026598Y023814*
X026680Y023870*
X026735Y023952*
X026755Y024050*
X026735Y024148*
X026680Y024230*
X026598Y024286*
X026500Y024305*
G37*
G36*
X012450Y024505D02*
X012352Y024485D01*
X012270Y024430*
X012214Y024348*
X012195Y024250*
X012214Y024152*
X012270Y024070*
X012352Y024014*
X012450Y023995*
X012548Y024014*
X012630Y024070*
X012686Y024152*
X012705Y024250*
X012686Y024348*
X012630Y024430*
X012548Y024485*
X012450Y024505*
G37*
G36*
X011700Y024200D02*
X011505D01*
X011515Y024152*
X011570Y024070*
X011652Y024014*
X011700Y024005*
Y024200*
G37*
G36*
X035926Y021850D02*
X035584D01*
Y021508*
X035637Y021515*
X035734Y021555*
X035816Y021618*
X035880Y021701*
X035919Y021797*
X035926Y021850*
G37*
G36*
X035484Y022292D02*
X035431Y022285D01*
X035335Y022245*
X035252Y022182*
X035189Y022099*
X035149Y022003*
X035142Y021950*
X035484*
Y022292*
G37*
G36*
X035584D02*
Y021950D01*
X035926*
X035919Y022003*
X035880Y022099*
X035816Y022182*
X035734Y022245*
X035637Y022285*
X035584Y022292*
G37*
G36*
X030456Y021162D02*
Y020850D01*
X030769*
X030763Y020895*
X030726Y020984*
X030667Y021061*
X030591Y021119*
X030502Y021156*
X030456Y021162*
G37*
G36*
X033861Y022297D02*
X033270D01*
X033231Y022289*
X033198Y022267*
X033176Y022234*
X033169Y022195*
Y021605*
X033176Y021566*
X033198Y021533*
X033231Y021511*
X033270Y021503*
X033861*
X033900Y021511*
X033933Y021533*
X033955Y021566*
X033963Y021605*
Y022195*
X033955Y022234*
X033933Y022267*
X033900Y022289*
X033861Y022297*
G37*
G36*
X035484Y021850D02*
X035142D01*
X035149Y021797*
X035189Y021701*
X035252Y021618*
X035335Y021555*
X035431Y021515*
X035484Y021508*
Y021850*
G37*
G36*
X030532Y023150D02*
X030150D01*
Y022768*
X030213Y022777*
X030319Y022820*
X030410Y022890*
X030480Y022981*
X030523Y023087*
X030532Y023150*
G37*
G36*
X019350Y023699D02*
X019247Y023685D01*
X019151Y023645*
X019068Y023582*
X019005Y023499*
X018965Y023403*
X018951Y023300*
X018965Y023197*
X019005Y023101*
X019068Y023018*
X019151Y022955*
X019247Y022915*
X019350Y022901*
X019453Y022915*
X019549Y022955*
X019632Y023018*
X019695Y023101*
X019735Y023197*
X019749Y023300*
X019735Y023403*
X019695Y023499*
X019632Y023582*
X019549Y023645*
X019453Y023685*
X019350Y023699*
G37*
G36*
X021645Y023697D02*
X021055D01*
X021016Y023689*
X020983Y023667*
X020961Y023634*
X020953Y023595*
Y023005*
X020961Y022966*
X020983Y022933*
X021016Y022911*
X021055Y022903*
X021645*
X021684Y022911*
X021717Y022933*
X021739Y022966*
X021747Y023005*
Y023595*
X021739Y023634*
X021717Y023667*
X021684Y023689*
X021645Y023697*
G37*
G36*
X029100Y023638D02*
X028987Y023623D01*
X028881Y023580*
X028790Y023510*
X028720Y023419*
X028677Y023313*
X028662Y023200*
X028677Y023087*
X028720Y022981*
X028790Y022890*
X028881Y022820*
X028987Y022777*
X029100Y022762*
X029213Y022777*
X029319Y022820*
X029410Y022890*
X029480Y022981*
X029523Y023087*
X029538Y023200*
X029523Y023313*
X029480Y023419*
X029410Y023510*
X029319Y023580*
X029213Y023623*
X029100Y023638*
G37*
G36*
X031435Y023637D02*
X030765D01*
X030726Y023629*
X030693Y023607*
X030671Y023574*
X030663Y023535*
Y022865*
X030671Y022826*
X030693Y022793*
X030726Y022771*
X030765Y022763*
X031435*
X031474Y022771*
X031507Y022793*
X031529Y022826*
X031537Y022865*
Y023535*
X031529Y023574*
X031507Y023607*
X031474Y023629*
X031435Y023637*
G37*
G36*
X030050Y023150D02*
X029668D01*
X029677Y023087*
X029720Y022981*
X029790Y022890*
X029881Y022820*
X029987Y022777*
X030050Y022768*
Y023150*
G37*
G36*
X030100Y032555D02*
X030002Y032536D01*
X029920Y032480*
X029864Y032398*
X029845Y032300*
X029864Y032202*
X029920Y032120*
X030002Y032064*
X030100Y032045*
X030198Y032064*
X030280Y032120*
X030336Y032202*
X030355Y032300*
X030336Y032398*
X030280Y032480*
X030198Y032536*
X030100Y032555*
G37*
G36*
X034450Y035505D02*
X034352Y035485D01*
X034270Y035430*
X034214Y035348*
X034195Y035250*
X034214Y035152*
X034270Y035070*
X034352Y035015*
X034450Y034995*
X034548Y035015*
X034630Y035070*
X034685Y035152*
X034705Y035250*
X034685Y035348*
X034630Y035430*
X034548Y035485*
X034450Y035505*
G37*
G36*
X032235Y038740D02*
X032137Y038720D01*
X032054Y038665*
X031999Y038582*
X031980Y038485*
X031999Y038387*
X032054Y038304*
X032137Y038249*
X032235Y038230*
X032332Y038249*
X032415Y038304*
X032470Y038387*
X032490Y038485*
X032470Y038582*
X032415Y038665*
X032332Y038720*
X032235Y038740*
G37*
G36*
X031515Y038435D02*
X031320D01*
X031330Y038387*
X031385Y038304*
X031468Y038249*
X031515Y038240*
Y038435*
G37*
G36*
X026000Y033592D02*
Y033250D01*
X026342*
X026335Y033303*
X026295Y033399*
X026232Y033482*
X026149Y033545*
X026053Y033585*
X026000Y033592*
G37*
G36*
X031550Y035505D02*
X031452Y035485D01*
X031370Y035430*
X031314Y035348*
X031295Y035250*
X031314Y035152*
X031370Y035070*
X031452Y035015*
X031550Y034995*
X031648Y035015*
X031730Y035070*
X031786Y035152*
X031805Y035250*
X031786Y035348*
X031730Y035430*
X031648Y035485*
X031550Y035505*
G37*
G36*
X033450D02*
X033352Y035485D01*
X033270Y035430*
X033214Y035348*
X033195Y035250*
X033214Y035152*
X033270Y035070*
X033352Y035015*
X033450Y034995*
X033548Y035015*
X033630Y035070*
X033686Y035152*
X033705Y035250*
X033686Y035348*
X033630Y035430*
X033548Y035485*
X033450Y035505*
G37*
G36*
X032516Y041695D02*
X032400Y041684D01*
X032288Y041650*
X032185Y041595*
X032095Y041521*
X032021Y041431*
X031966Y041328*
X031932Y041216*
X031921Y041100*
X031932Y040984*
X031966Y040872*
X032021Y040769*
X032095Y040679*
X032185Y040605*
X032288Y040550*
X032400Y040516*
X032516Y040505*
X032632Y040516*
X032743Y040550*
X032846Y040605*
X032936Y040679*
X033010Y040769*
X033065Y040872*
X033099Y040984*
X033111Y041100*
X033099Y041216*
X033065Y041328*
X033010Y041431*
X032936Y041521*
X032846Y041595*
X032743Y041650*
X032632Y041684*
X032516Y041695*
G37*
G36*
X034484D02*
X034368Y041684D01*
X034257Y041650*
X034154Y041595*
X034064Y041521*
X033990Y041431*
X033935Y041328*
X033901Y041216*
X033889Y041100*
X033901Y040984*
X033935Y040872*
X033990Y040769*
X034064Y040679*
X034154Y040605*
X034257Y040550*
X034368Y040516*
X034484Y040505*
X034600Y040516*
X034712Y040550*
X034815Y040605*
X034905Y040679*
X034979Y040769*
X035034Y040872*
X035068Y040984*
X035079Y041100*
X035068Y041216*
X035034Y041328*
X034979Y041431*
X034905Y041521*
X034815Y041595*
X034712Y041650*
X034600Y041684*
X034484Y041695*
G37*
G36*
X031810Y038435D02*
X031615D01*
Y038240*
X031663Y038249*
X031746Y038304*
X031801Y038387*
X031810Y038435*
G37*
G36*
X031515Y038730D02*
X031468Y038720D01*
X031385Y038665*
X031330Y038582*
X031320Y038535*
X031515*
Y038730*
G37*
G36*
X031615D02*
Y038535D01*
X031810*
X031801Y038582*
X031746Y038665*
X031663Y038720*
X031615Y038730*
G37*
G36*
X020950Y033599D02*
X020847Y033585D01*
X020751Y033545*
X020668Y033482*
X020605Y033399*
X020565Y033303*
X020551Y033200*
X020565Y033097*
X020605Y033001*
X020668Y032918*
X020751Y032855*
X020847Y032815*
X020950Y032801*
X021053Y032815*
X021149Y032855*
X021232Y032918*
X021295Y033001*
X021335Y033097*
X021349Y033200*
X021335Y033303*
X021295Y033399*
X021232Y033482*
X021149Y033545*
X021053Y033585*
X020950Y033599*
G37*
G36*
X021950D02*
X021847Y033585D01*
X021751Y033545*
X021668Y033482*
X021605Y033399*
X021565Y033303*
X021551Y033200*
X021565Y033097*
X021605Y033001*
X021668Y032918*
X021751Y032855*
X021847Y032815*
X021950Y032801*
X022053Y032815*
X022149Y032855*
X022232Y032918*
X022295Y033001*
X022335Y033097*
X022349Y033200*
X022335Y033303*
X022295Y033399*
X022232Y033482*
X022149Y033545*
X022053Y033585*
X021950Y033599*
G37*
G36*
X022950D02*
X022847Y033585D01*
X022751Y033545*
X022668Y033482*
X022605Y033399*
X022565Y033303*
X022551Y033200*
X022565Y033097*
X022605Y033001*
X022668Y032918*
X022751Y032855*
X022847Y032815*
X022950Y032801*
X023053Y032815*
X023149Y032855*
X023232Y032918*
X023295Y033001*
X023335Y033097*
X023349Y033200*
X023335Y033303*
X023295Y033399*
X023232Y033482*
X023149Y033545*
X023053Y033585*
X022950Y033599*
G37*
G36*
X028350Y032705D02*
X028252Y032685D01*
X028170Y032630*
X028115Y032548*
X028095Y032450*
X028115Y032352*
X028170Y032270*
X028252Y032215*
X028350Y032195*
X028448Y032215*
X028530Y032270*
X028586Y032352*
X028605Y032450*
X028586Y032548*
X028530Y032630*
X028448Y032685*
X028350Y032705*
G37*
G36*
X018950Y033599D02*
X018847Y033585D01*
X018751Y033545*
X018668Y033482*
X018605Y033399*
X018565Y033303*
X018551Y033200*
X018565Y033097*
X018605Y033001*
X018668Y032918*
X018751Y032855*
X018847Y032815*
X018950Y032801*
X019053Y032815*
X019149Y032855*
X019232Y032918*
X019295Y033001*
X019335Y033097*
X019349Y033200*
X019335Y033303*
X019295Y033399*
X019232Y033482*
X019149Y033545*
X019053Y033585*
X018950Y033599*
G37*
G36*
X019950D02*
X019847Y033585D01*
X019751Y033545*
X019668Y033482*
X019605Y033399*
X019565Y033303*
X019551Y033200*
X019565Y033097*
X019605Y033001*
X019668Y032918*
X019751Y032855*
X019847Y032815*
X019950Y032801*
X020053Y032815*
X020149Y032855*
X020232Y032918*
X020295Y033001*
X020335Y033097*
X020349Y033200*
X020335Y033303*
X020295Y033399*
X020232Y033482*
X020149Y033545*
X020053Y033585*
X019950Y033599*
G37*
G36*
X025900Y033150D02*
X025558D01*
X025565Y033097*
X025605Y033001*
X025668Y032918*
X025751Y032855*
X025847Y032815*
X025900Y032808*
Y033150*
G37*
G36*
X026342D02*
X026000D01*
Y032808*
X026053Y032815*
X026149Y032855*
X026232Y032918*
X026295Y033001*
X026335Y033097*
X026342Y033150*
G37*
G36*
X025900Y033592D02*
X025847Y033585D01*
X025751Y033545*
X025668Y033482*
X025605Y033399*
X025565Y033303*
X025558Y033250*
X025900*
Y033592*
G37*
G36*
X023950Y033599D02*
X023847Y033585D01*
X023751Y033545*
X023668Y033482*
X023605Y033399*
X023565Y033303*
X023551Y033200*
X023565Y033097*
X023605Y033001*
X023668Y032918*
X023751Y032855*
X023847Y032815*
X023950Y032801*
X024053Y032815*
X024149Y032855*
X024232Y032918*
X024295Y033001*
X024335Y033097*
X024349Y033200*
X024335Y033303*
X024295Y033399*
X024232Y033482*
X024149Y033545*
X024053Y033585*
X023950Y033599*
G37*
G36*
X024950D02*
X024847Y033585D01*
X024751Y033545*
X024668Y033482*
X024605Y033399*
X024565Y033303*
X024551Y033200*
X024565Y033097*
X024605Y033001*
X024668Y032918*
X024751Y032855*
X024847Y032815*
X024950Y032801*
X025053Y032815*
X025149Y032855*
X025232Y032918*
X025295Y033001*
X025335Y033097*
X025349Y033200*
X025335Y033303*
X025295Y033399*
X025232Y033482*
X025149Y033545*
X025053Y033585*
X024950Y033599*
G37*
G36*
X018245Y033597D02*
X017655D01*
X017616Y033589*
X017583Y033567*
X017561Y033534*
X017553Y033495*
Y032905*
X017561Y032866*
X017583Y032833*
X017616Y032811*
X017655Y032803*
X018245*
X018284Y032811*
X018317Y032833*
X018339Y032866*
X018347Y032905*
Y033495*
X018339Y033534*
X018317Y033567*
X018284Y033589*
X018245Y033597*
G37*
G36*
X031900Y072942D02*
X031847Y072935D01*
X031751Y072895*
X031668Y072832*
X031605Y072749*
X031565Y072653*
X031558Y072600*
X031900*
Y072942*
G37*
G36*
X032900D02*
X032847Y072935D01*
X032751Y072895*
X032668Y072832*
X032605Y072749*
X032565Y072653*
X032558Y072600*
X032900*
Y072942*
G37*
G36*
X033900D02*
X033847Y072935D01*
X033751Y072895*
X033668Y072832*
X033605Y072749*
X033565Y072653*
X033558Y072600*
X033900*
Y072942*
G37*
G36*
X028900D02*
X028847Y072935D01*
X028751Y072895*
X028668Y072832*
X028605Y072749*
X028565Y072653*
X028558Y072600*
X028900*
Y072942*
G37*
G36*
X029900D02*
X029847Y072935D01*
X029751Y072895*
X029668Y072832*
X029605Y072749*
X029565Y072653*
X029558Y072600*
X029900*
Y072942*
G37*
G36*
X030900D02*
X030847Y072935D01*
X030751Y072895*
X030668Y072832*
X030605Y072749*
X030565Y072653*
X030558Y072600*
X030900*
Y072942*
G37*
G36*
X032000D02*
Y072600D01*
X032342*
X032335Y072653*
X032295Y072749*
X032232Y072832*
X032149Y072895*
X032053Y072935*
X032000Y072942*
G37*
G36*
X033000D02*
Y072600D01*
X033342*
X033335Y072653*
X033295Y072749*
X033232Y072832*
X033149Y072895*
X033053Y072935*
X033000Y072942*
G37*
G36*
X034000D02*
Y072600D01*
X034342*
X034335Y072653*
X034295Y072749*
X034232Y072832*
X034149Y072895*
X034053Y072935*
X034000Y072942*
G37*
G36*
X029000D02*
Y072600D01*
X029342*
X029335Y072653*
X029295Y072749*
X029232Y072832*
X029149Y072895*
X029053Y072935*
X029000Y072942*
G37*
G36*
X030000D02*
Y072600D01*
X030342*
X030335Y072653*
X030295Y072749*
X030232Y072832*
X030149Y072895*
X030053Y072935*
X030000Y072942*
G37*
G36*
X031000D02*
Y072600D01*
X031342*
X031335Y072653*
X031295Y072749*
X031232Y072832*
X031149Y072895*
X031053Y072935*
X031000Y072942*
G37*
G36*
X031900Y072500D02*
X031558D01*
X031565Y072447*
X031605Y072351*
X031668Y072268*
X031751Y072205*
X031847Y072165*
X031900Y072158*
Y072500*
G37*
G36*
X032900D02*
X032558D01*
X032565Y072447*
X032605Y072351*
X032668Y072268*
X032751Y072205*
X032847Y072165*
X032900Y072158*
Y072500*
G37*
G36*
X033900D02*
X033558D01*
X033565Y072447*
X033605Y072351*
X033668Y072268*
X033751Y072205*
X033847Y072165*
X033900Y072158*
Y072500*
G37*
G36*
X028900D02*
X028558D01*
X028565Y072447*
X028605Y072351*
X028668Y072268*
X028751Y072205*
X028847Y072165*
X028900Y072158*
Y072500*
G37*
G36*
X029900D02*
X029558D01*
X029565Y072447*
X029605Y072351*
X029668Y072268*
X029751Y072205*
X029847Y072165*
X029900Y072158*
Y072500*
G37*
G36*
X030900D02*
X030558D01*
X030565Y072447*
X030605Y072351*
X030668Y072268*
X030751Y072205*
X030847Y072165*
X030900Y072158*
Y072500*
G37*
G36*
X032342D02*
X032000D01*
Y072158*
X032053Y072165*
X032149Y072205*
X032232Y072268*
X032295Y072351*
X032335Y072447*
X032342Y072500*
G37*
G36*
X033342D02*
X033000D01*
Y072158*
X033053Y072165*
X033149Y072205*
X033232Y072268*
X033295Y072351*
X033335Y072447*
X033342Y072500*
G37*
G36*
X034342D02*
X034000D01*
Y072158*
X034053Y072165*
X034149Y072205*
X034232Y072268*
X034295Y072351*
X034335Y072447*
X034342Y072500*
G37*
G36*
X029342D02*
X029000D01*
Y072158*
X029053Y072165*
X029149Y072205*
X029232Y072268*
X029295Y072351*
X029335Y072447*
X029342Y072500*
G37*
G36*
X030342D02*
X030000D01*
Y072158*
X030053Y072165*
X030149Y072205*
X030232Y072268*
X030295Y072351*
X030335Y072447*
X030342Y072500*
G37*
G36*
X031342D02*
X031000D01*
Y072158*
X031053Y072165*
X031149Y072205*
X031232Y072268*
X031295Y072351*
X031335Y072447*
X031342Y072500*
G37*
G36*
X020750Y076322D02*
X020652Y076302D01*
X020570Y076247*
X020515Y076164*
X020495Y076067*
X020515Y075969*
X020570Y075886*
X020652Y075831*
X020750Y075812*
X020848Y075831*
X020930Y075886*
X020986Y075969*
X021005Y076067*
X020986Y076164*
X020930Y076247*
X020848Y076302*
X020750Y076322*
G37*
G36*
X026950Y077149D02*
X026847Y077135D01*
X026751Y077095*
X026668Y077032*
X026605Y076949*
X026565Y076853*
X026551Y076750*
X026565Y076647*
X026605Y076551*
X026668Y076468*
X026751Y076405*
X026847Y076365*
X026950Y076351*
X027053Y076365*
X027149Y076405*
X027232Y076468*
X027295Y076551*
X027335Y076647*
X027349Y076750*
X027335Y076853*
X027295Y076949*
X027232Y077032*
X027149Y077095*
X027053Y077135*
X026950Y077149*
G37*
G36*
X027950D02*
X027847Y077135D01*
X027751Y077095*
X027668Y077032*
X027605Y076949*
X027565Y076853*
X027551Y076750*
X027565Y076647*
X027605Y076551*
X027668Y076468*
X027751Y076405*
X027847Y076365*
X027950Y076351*
X028053Y076365*
X028149Y076405*
X028232Y076468*
X028295Y076551*
X028335Y076647*
X028349Y076750*
X028335Y076853*
X028295Y076949*
X028232Y077032*
X028149Y077095*
X028053Y077135*
X027950Y077149*
G37*
G36*
X015470Y076322D02*
X015372Y076302D01*
X015290Y076247*
X015235Y076164*
X015215Y076067*
X015235Y075969*
X015290Y075886*
X015372Y075831*
X015470Y075812*
X015568Y075831*
X015650Y075886*
X015705Y075969*
X015725Y076067*
X015705Y076164*
X015650Y076247*
X015568Y076302*
X015470Y076322*
G37*
G36*
X018110D02*
X018012Y076302D01*
X017930Y076247*
X017874Y076164*
X017855Y076067*
X017874Y075969*
X017930Y075886*
X018012Y075831*
X018110Y075812*
X018208Y075831*
X018290Y075886*
X018346Y075969*
X018365Y076067*
X018346Y076164*
X018290Y076247*
X018208Y076302*
X018110Y076322*
G37*
G36*
X019430D02*
X019332Y076302D01*
X019250Y076247*
X019195Y076164*
X019175Y076067*
X019195Y075969*
X019250Y075886*
X019332Y075831*
X019430Y075812*
X019528Y075831*
X019610Y075886*
X019665Y075969*
X019685Y076067*
X019665Y076164*
X019610Y076247*
X019528Y076302*
X019430Y076322*
G37*
G36*
X031950Y077149D02*
X031847Y077135D01*
X031751Y077095*
X031668Y077032*
X031605Y076949*
X031565Y076853*
X031551Y076750*
X031565Y076647*
X031605Y076551*
X031668Y076468*
X031751Y076405*
X031847Y076365*
X031950Y076351*
X032053Y076365*
X032149Y076405*
X032232Y076468*
X032295Y076551*
X032335Y076647*
X032349Y076750*
X032335Y076853*
X032295Y076949*
X032232Y077032*
X032149Y077095*
X032053Y077135*
X031950Y077149*
G37*
G36*
X032950D02*
X032847Y077135D01*
X032751Y077095*
X032668Y077032*
X032605Y076949*
X032565Y076853*
X032551Y076750*
X032565Y076647*
X032605Y076551*
X032668Y076468*
X032751Y076405*
X032847Y076365*
X032950Y076351*
X033053Y076365*
X033149Y076405*
X033232Y076468*
X033295Y076551*
X033335Y076647*
X033349Y076750*
X033335Y076853*
X033295Y076949*
X033232Y077032*
X033149Y077095*
X033053Y077135*
X032950Y077149*
G37*
G36*
X033950D02*
X033847Y077135D01*
X033751Y077095*
X033668Y077032*
X033605Y076949*
X033565Y076853*
X033551Y076750*
X033565Y076647*
X033605Y076551*
X033668Y076468*
X033751Y076405*
X033847Y076365*
X033950Y076351*
X034053Y076365*
X034149Y076405*
X034232Y076468*
X034295Y076551*
X034335Y076647*
X034349Y076750*
X034335Y076853*
X034295Y076949*
X034232Y077032*
X034149Y077095*
X034053Y077135*
X033950Y077149*
G37*
G36*
X028950D02*
X028847Y077135D01*
X028751Y077095*
X028668Y077032*
X028605Y076949*
X028565Y076853*
X028551Y076750*
X028565Y076647*
X028605Y076551*
X028668Y076468*
X028751Y076405*
X028847Y076365*
X028950Y076351*
X029053Y076365*
X029149Y076405*
X029232Y076468*
X029295Y076551*
X029335Y076647*
X029349Y076750*
X029335Y076853*
X029295Y076949*
X029232Y077032*
X029149Y077095*
X029053Y077135*
X028950Y077149*
G37*
G36*
X029950D02*
X029847Y077135D01*
X029751Y077095*
X029668Y077032*
X029605Y076949*
X029565Y076853*
X029551Y076750*
X029565Y076647*
X029605Y076551*
X029668Y076468*
X029751Y076405*
X029847Y076365*
X029950Y076351*
X030053Y076365*
X030149Y076405*
X030232Y076468*
X030295Y076551*
X030335Y076647*
X030349Y076750*
X030335Y076853*
X030295Y076949*
X030232Y077032*
X030149Y077095*
X030053Y077135*
X029950Y077149*
G37*
G36*
X030950D02*
X030847Y077135D01*
X030751Y077095*
X030668Y077032*
X030605Y076949*
X030565Y076853*
X030551Y076750*
X030565Y076647*
X030605Y076551*
X030668Y076468*
X030751Y076405*
X030847Y076365*
X030950Y076351*
X031053Y076365*
X031149Y076405*
X031232Y076468*
X031295Y076551*
X031335Y076647*
X031349Y076750*
X031335Y076853*
X031295Y076949*
X031232Y077032*
X031149Y077095*
X031053Y077135*
X030950Y077149*
G37*
G36*
Y076149D02*
X030847Y076135D01*
X030751Y076095*
X030668Y076032*
X030605Y075949*
X030565Y075853*
X030551Y075750*
X030565Y075647*
X030605Y075551*
X030668Y075468*
X030751Y075405*
X030847Y075365*
X030950Y075351*
X031053Y075365*
X031149Y075405*
X031232Y075468*
X031295Y075551*
X031335Y075647*
X031349Y075750*
X031335Y075853*
X031295Y075949*
X031232Y076032*
X031149Y076095*
X031053Y076135*
X030950Y076149*
G37*
G36*
X031950D02*
X031847Y076135D01*
X031751Y076095*
X031668Y076032*
X031605Y075949*
X031565Y075853*
X031551Y075750*
X031565Y075647*
X031605Y075551*
X031668Y075468*
X031751Y075405*
X031847Y075365*
X031950Y075351*
X032053Y075365*
X032149Y075405*
X032232Y075468*
X032295Y075551*
X032335Y075647*
X032349Y075750*
X032335Y075853*
X032295Y075949*
X032232Y076032*
X032149Y076095*
X032053Y076135*
X031950Y076149*
G37*
G36*
X032950D02*
X032847Y076135D01*
X032751Y076095*
X032668Y076032*
X032605Y075949*
X032565Y075853*
X032551Y075750*
X032565Y075647*
X032605Y075551*
X032668Y075468*
X032751Y075405*
X032847Y075365*
X032950Y075351*
X033053Y075365*
X033149Y075405*
X033232Y075468*
X033295Y075551*
X033335Y075647*
X033349Y075750*
X033335Y075853*
X033295Y075949*
X033232Y076032*
X033149Y076095*
X033053Y076135*
X032950Y076149*
G37*
G36*
X027950D02*
X027847Y076135D01*
X027751Y076095*
X027668Y076032*
X027605Y075949*
X027565Y075853*
X027551Y075750*
X027565Y075647*
X027605Y075551*
X027668Y075468*
X027751Y075405*
X027847Y075365*
X027950Y075351*
X028053Y075365*
X028149Y075405*
X028232Y075468*
X028295Y075551*
X028335Y075647*
X028349Y075750*
X028335Y075853*
X028295Y075949*
X028232Y076032*
X028149Y076095*
X028053Y076135*
X027950Y076149*
G37*
G36*
X028950D02*
X028847Y076135D01*
X028751Y076095*
X028668Y076032*
X028605Y075949*
X028565Y075853*
X028551Y075750*
X028565Y075647*
X028605Y075551*
X028668Y075468*
X028751Y075405*
X028847Y075365*
X028950Y075351*
X029053Y075365*
X029149Y075405*
X029232Y075468*
X029295Y075551*
X029335Y075647*
X029349Y075750*
X029335Y075853*
X029295Y075949*
X029232Y076032*
X029149Y076095*
X029053Y076135*
X028950Y076149*
G37*
G36*
X029950D02*
X029847Y076135D01*
X029751Y076095*
X029668Y076032*
X029605Y075949*
X029565Y075853*
X029551Y075750*
X029565Y075647*
X029605Y075551*
X029668Y075468*
X029751Y075405*
X029847Y075365*
X029950Y075351*
X030053Y075365*
X030149Y075405*
X030232Y075468*
X030295Y075551*
X030335Y075647*
X030349Y075750*
X030335Y075853*
X030295Y075949*
X030232Y076032*
X030149Y076095*
X030053Y076135*
X029950Y076149*
G37*
G36*
X022050Y076305D02*
X021952Y076286D01*
X021870Y076230*
X021814Y076148*
X021795Y076050*
X021814Y075952*
X021870Y075870*
X021952Y075814*
X022050Y075795*
X022148Y075814*
X022230Y075870*
X022285Y075952*
X022305Y076050*
X022285Y076148*
X022230Y076230*
X022148Y076286*
X022050Y076305*
G37*
G36*
X023390D02*
X023292Y076286D01*
X023210Y076230*
X023154Y076148*
X023135Y076050*
X023154Y075952*
X023210Y075870*
X023292Y075814*
X023390Y075795*
X023488Y075814*
X023570Y075870*
X023626Y075952*
X023645Y076050*
X023626Y076148*
X023570Y076230*
X023488Y076286*
X023390Y076305*
G37*
G36*
X014150Y076322D02*
X014052Y076302D01*
X013970Y076247*
X013915Y076164*
X013895Y076067*
X013915Y075969*
X013970Y075886*
X014052Y075831*
X014150Y075812*
X014248Y075831*
X014330Y075886*
X014385Y075969*
X014405Y076067*
X014385Y076164*
X014330Y076247*
X014248Y076302*
X014150Y076322*
G37*
G36*
X033950Y076149D02*
X033847Y076135D01*
X033751Y076095*
X033668Y076032*
X033605Y075949*
X033565Y075853*
X033551Y075750*
X033565Y075647*
X033605Y075551*
X033668Y075468*
X033751Y075405*
X033847Y075365*
X033950Y075351*
X034053Y075365*
X034149Y075405*
X034232Y075468*
X034295Y075551*
X034335Y075647*
X034349Y075750*
X034335Y075853*
X034295Y075949*
X034232Y076032*
X034149Y076095*
X034053Y076135*
X033950Y076149*
G37*
G36*
X027245Y076147D02*
X026655D01*
X026616Y076139*
X026583Y076117*
X026561Y076084*
X026553Y076045*
Y075455*
X026561Y075416*
X026583Y075383*
X026616Y075361*
X026655Y075353*
X027245*
X027284Y075361*
X027317Y075383*
X027339Y075416*
X027347Y075455*
Y076045*
X027339Y076084*
X027317Y076117*
X027284Y076139*
X027245Y076147*
G37*
G36*
X016790Y076305D02*
X016692Y076286D01*
X016610Y076230*
X016554Y076148*
X016535Y076050*
X016554Y075952*
X016610Y075870*
X016692Y075814*
X016790Y075795*
X016888Y075814*
X016970Y075870*
X017026Y075952*
X017045Y076050*
X017026Y076148*
X016970Y076230*
X016888Y076286*
X016790Y076305*
G37*
G36*
X023086Y072333D02*
Y071986D01*
X023433*
X023426Y072040*
X023385Y072138*
X023321Y072221*
X023238Y072285*
X023140Y072326*
X023086Y072333*
G37*
G36*
X029950Y069949D02*
X029847Y069935D01*
X029751Y069895*
X029668Y069832*
X029605Y069749*
X029565Y069653*
X029551Y069550*
X029565Y069447*
X029605Y069351*
X029668Y069268*
X029751Y069205*
X029847Y069165*
X029950Y069151*
X030053Y069165*
X030149Y069205*
X030232Y069268*
X030295Y069351*
X030335Y069447*
X030349Y069550*
X030335Y069653*
X030295Y069749*
X030232Y069832*
X030149Y069895*
X030053Y069935*
X029950Y069949*
G37*
G36*
X014114Y072339D02*
X014010Y072326D01*
X013912Y072285*
X013829Y072221*
X013765Y072138*
X013724Y072040*
X013711Y071936*
X013724Y071831*
X013765Y071734*
X013829Y071651*
X013912Y071586*
X014010Y071546*
X014114Y071532*
X014219Y071546*
X014316Y071586*
X014399Y071651*
X014464Y071734*
X014504Y071831*
X014518Y071936*
X014504Y072040*
X014464Y072138*
X014399Y072221*
X014316Y072285*
X014219Y072326*
X014114Y072339*
G37*
G36*
X021264D02*
X021160Y072326D01*
X021062Y072285*
X020979Y072221*
X020915Y072138*
X020874Y072040*
X020861Y071936*
X020874Y071831*
X020915Y071734*
X020979Y071651*
X021062Y071586*
X021160Y071546*
X021264Y071532*
X021369Y071546*
X021466Y071586*
X021549Y071651*
X021614Y071734*
X021654Y071831*
X021668Y071936*
X021654Y072040*
X021614Y072138*
X021549Y072221*
X021466Y072285*
X021369Y072326*
X021264Y072339*
G37*
G36*
X015836Y071886D02*
X015489D01*
X015496Y071831*
X015536Y071734*
X015601Y071651*
X015684Y071586*
X015781Y071546*
X015836Y071539*
Y071886*
G37*
G36*
X015936Y070561D02*
Y070214D01*
X016283*
X016276Y070269*
X016235Y070366*
X016171Y070449*
X016088Y070514*
X015990Y070554*
X015936Y070561*
G37*
G36*
X022986D02*
X022931Y070554D01*
X022834Y070514*
X022751Y070449*
X022686Y070366*
X022646Y070269*
X022639Y070214*
X022986*
Y070561*
G37*
G36*
X023086D02*
Y070214D01*
X023433*
X023426Y070269*
X023385Y070366*
X023321Y070449*
X023238Y070514*
X023140Y070554*
X023086Y070561*
G37*
G36*
X015836Y072333D02*
X015781Y072326D01*
X015684Y072285*
X015601Y072221*
X015536Y072138*
X015496Y072040*
X015489Y071986*
X015836*
Y072333*
G37*
G36*
X015936D02*
Y071986D01*
X016283*
X016276Y072040*
X016235Y072138*
X016171Y072221*
X016088Y072285*
X015990Y072326*
X015936Y072333*
G37*
G36*
X022986D02*
X022931Y072326D01*
X022834Y072285*
X022751Y072221*
X022686Y072138*
X022646Y072040*
X022639Y071986*
X022986*
Y072333*
G37*
G36*
X016283Y071886D02*
X015936D01*
Y071539*
X015990Y071546*
X016088Y071586*
X016171Y071651*
X016235Y071734*
X016276Y071831*
X016283Y071886*
G37*
G36*
X022986D02*
X022639D01*
X022646Y071831*
X022686Y071734*
X022751Y071651*
X022834Y071586*
X022931Y071546*
X022986Y071539*
Y071886*
G37*
G36*
X023433D02*
X023086D01*
Y071539*
X023140Y071546*
X023238Y071586*
X023321Y071651*
X023385Y071734*
X023426Y071831*
X023433Y071886*
G37*
G36*
X033950Y069949D02*
X033847Y069935D01*
X033751Y069895*
X033668Y069832*
X033605Y069749*
X033565Y069653*
X033551Y069550*
X033565Y069447*
X033605Y069351*
X033668Y069268*
X033751Y069205*
X033847Y069165*
X033950Y069151*
X034053Y069165*
X034149Y069205*
X034232Y069268*
X034295Y069351*
X034335Y069447*
X034349Y069550*
X034335Y069653*
X034295Y069749*
X034232Y069832*
X034149Y069895*
X034053Y069935*
X033950Y069949*
G37*
G36*
X029245Y069947D02*
X028655D01*
X028616Y069939*
X028583Y069917*
X028561Y069884*
X028553Y069845*
Y069255*
X028561Y069216*
X028583Y069183*
X028616Y069161*
X028655Y069153*
X029245*
X029284Y069161*
X029317Y069183*
X029339Y069216*
X029347Y069255*
Y069845*
X029339Y069884*
X029317Y069917*
X029284Y069939*
X029245Y069947*
G37*
G36*
X014114Y070568D02*
X014010Y070554D01*
X013912Y070514*
X013829Y070449*
X013765Y070366*
X013724Y070269*
X013711Y070164*
X013724Y070060*
X013765Y069962*
X013829Y069879*
X013912Y069815*
X014010Y069774*
X014114Y069761*
X014219Y069774*
X014316Y069815*
X014399Y069879*
X014464Y069962*
X014504Y070060*
X014518Y070164*
X014504Y070269*
X014464Y070366*
X014399Y070449*
X014316Y070514*
X014219Y070554*
X014114Y070568*
G37*
G36*
X030950Y069949D02*
X030847Y069935D01*
X030751Y069895*
X030668Y069832*
X030605Y069749*
X030565Y069653*
X030551Y069550*
X030565Y069447*
X030605Y069351*
X030668Y069268*
X030751Y069205*
X030847Y069165*
X030950Y069151*
X031053Y069165*
X031149Y069205*
X031232Y069268*
X031295Y069351*
X031335Y069447*
X031349Y069550*
X031335Y069653*
X031295Y069749*
X031232Y069832*
X031149Y069895*
X031053Y069935*
X030950Y069949*
G37*
G36*
X031950D02*
X031847Y069935D01*
X031751Y069895*
X031668Y069832*
X031605Y069749*
X031565Y069653*
X031551Y069550*
X031565Y069447*
X031605Y069351*
X031668Y069268*
X031751Y069205*
X031847Y069165*
X031950Y069151*
X032053Y069165*
X032149Y069205*
X032232Y069268*
X032295Y069351*
X032335Y069447*
X032349Y069550*
X032335Y069653*
X032295Y069749*
X032232Y069832*
X032149Y069895*
X032053Y069935*
X031950Y069949*
G37*
G36*
X032950D02*
X032847Y069935D01*
X032751Y069895*
X032668Y069832*
X032605Y069749*
X032565Y069653*
X032551Y069550*
X032565Y069447*
X032605Y069351*
X032668Y069268*
X032751Y069205*
X032847Y069165*
X032950Y069151*
X033053Y069165*
X033149Y069205*
X033232Y069268*
X033295Y069351*
X033335Y069447*
X033349Y069550*
X033335Y069653*
X033295Y069749*
X033232Y069832*
X033149Y069895*
X033053Y069935*
X032950Y069949*
G37*
G36*
X022986Y070114D02*
X022639D01*
X022646Y070060*
X022686Y069962*
X022751Y069879*
X022834Y069815*
X022931Y069774*
X022986Y069767*
Y070114*
G37*
G36*
X023433D02*
X023086D01*
Y069767*
X023140Y069774*
X023238Y069815*
X023321Y069879*
X023385Y069962*
X023426Y070060*
X023433Y070114*
G37*
G36*
X015836Y070561D02*
X015781Y070554D01*
X015684Y070514*
X015601Y070449*
X015536Y070366*
X015496Y070269*
X015489Y070214*
X015836*
Y070561*
G37*
G36*
X021264Y070568D02*
X021160Y070554D01*
X021062Y070514*
X020979Y070449*
X020915Y070366*
X020874Y070269*
X020861Y070164*
X020874Y070060*
X020915Y069962*
X020979Y069879*
X021062Y069815*
X021160Y069774*
X021264Y069761*
X021369Y069774*
X021466Y069815*
X021549Y069879*
X021614Y069962*
X021654Y070060*
X021668Y070164*
X021654Y070269*
X021614Y070366*
X021549Y070449*
X021466Y070514*
X021369Y070554*
X021264Y070568*
G37*
G36*
X015836Y070114D02*
X015489D01*
X015496Y070060*
X015536Y069962*
X015601Y069879*
X015684Y069815*
X015781Y069774*
X015836Y069767*
Y070114*
G37*
G36*
X016283D02*
X015936D01*
Y069767*
X015990Y069774*
X016088Y069815*
X016171Y069879*
X016235Y069962*
X016276Y070060*
X016283Y070114*
G37*
%LNde-140824-3*%
%LPD*%
G54D23*
X031729Y061400D02*
Y062471D01*
X031400Y062800D02*
X031729Y062471D01*
X031400Y062800D02*
Y064300D01*
X032000Y064900*
X034000*
X034400Y065300*
Y066031*
X025386Y061400D02*
Y062186D01*
X026050Y062850*
X028557Y061400D02*
X030209Y063052D01*
Y066031*
X026050Y062850D02*
X029100D01*
X029700Y063450*
Y064500*
X029150Y065050D02*
X029700Y064500D01*
X026350Y065050D02*
X029150D01*
X026018Y065382D02*
X026350Y065050D01*
X026018Y065382D02*
Y066031D01*
X019582Y065532D02*
Y066200D01*
X019043Y061400D02*
Y062007D01*
X011200Y065600D02*
Y066200D01*
Y065600D02*
X011800Y065000D01*
X018850Y064800D02*
X019582Y065532D01*
X018600Y062450D02*
X019043Y062007D01*
X011800Y065000D02*
X013400D01*
X015871Y062529*
Y061400D02*
Y062529D01*
X016800Y063400D02*
Y064350D01*
X017250Y064800*
X018850*
X016800Y063400D02*
X017150Y063050D01*
X015391Y063959D02*
Y066200D01*
Y063959D02*
X016900Y062450D01*
X018600*
X017150Y063050D02*
X020950D01*
X022214Y061786*
Y061400D02*
Y061786D01*
X026018Y053831D02*
X027199Y052650D01*
X029450*
X029800Y052300*
Y051050D02*
Y052300D01*
X029450Y050700D02*
X029800Y051050D01*
X025800Y050700D02*
X029450D01*
X025386Y050286D02*
X025800Y050700D01*
X025386Y049100D02*
Y050286D01*
X030209Y053831D02*
X030550Y053490D01*
Y050700D02*
Y053490D01*
X030000Y050150D02*
X030550Y050700D01*
X028850Y050150D02*
X030000D01*
X028557Y049857D02*
X028850Y050150D01*
X028557Y049100D02*
Y049857D01*
X033169Y052600D02*
X034400Y053831D01*
X031650Y052600D02*
X033169D01*
X031250Y052200D02*
X031650Y052600D01*
X031250Y050850D02*
Y052200D01*
Y050850D02*
X031729Y050371D01*
Y049100D02*
Y050371D01*
X019582Y053382D02*
Y054000D01*
X018750Y052550D02*
X019582Y053382D01*
X017300Y052550D02*
X018750D01*
X017000Y052250D02*
X017300Y052550D01*
X017000Y051150D02*
Y052250D01*
Y051150D02*
X017400Y050750D01*
X021150*
X022214Y049686*
Y049100D02*
Y049686D01*
X018550Y050100D02*
X019043Y049607D01*
Y049100D02*
Y049607D01*
X011200Y053200D02*
Y054000D01*
Y053200D02*
X011800Y052600D01*
X013550*
X015871Y050279*
Y049100D02*
Y050279D01*
X015391Y051859D02*
Y054000D01*
Y051859D02*
X017150Y050100D01*
X018550*
G54D30*
X015871Y049100D03*
X019043D03*
X022214D03*
X025386D03*
X028557D03*
X031729D03*
X015871Y061400D03*
X019043D03*
X022214D03*
X025386D03*
X028557D03*
X031729D03*
G54D32*
X011200Y054000D03*
X015391D03*
X019582D03*
X026018Y053831D03*
X030209D03*
X034400D03*
X011200Y066200D03*
X015391D03*
X019582D03*
X026018Y066031D03*
X030209D03*
X034400D03*
G54D34*
X025950Y033200D03*
X020900Y020250D03*
X035534Y021900D03*
X035519Y026200D03*
X020350Y023300D03*
X033950Y072550D03*
X032950D03*
X031950D03*
X030950D03*
X029950D03*
X028950D03*
G54D36*
X023036Y070164D03*
Y071936D03*
X015886Y070164D03*
Y071936D03*
G54D37*
X034469Y012400D03*
G54D38*
X030406Y020800D03*
G54D42*
X030100Y023200D03*
G54D44*
X022874Y030450D03*
X017400Y026400D03*
X016685Y029565D03*
X011750Y024250D03*
X031565Y038485D03*
G54D45*
X013500Y019350D03*
X013000D03*
X023400Y025800D03*
X024000D03*
M02*