%FSDAX24Y24*%
%MOIN*%
%SFA1B1*%

%IPPOS*%
%ADD22C,0.010000*%
%ADD52C,0.007900*%
%ADD53C,0.009800*%
%ADD54C,0.023600*%
%ADD55C,0.008000*%
%ADD56C,0.001000*%
%LNde-140824-1*%
%LPD*%
G54D22*
X022682Y071050D02*
D01*
X022680Y071087*
X022676Y071124*
X022670Y071160*
X022661Y071196*
X022649Y071231*
X022636Y071266*
X022619Y071299*
X022601Y071331*
X022580Y071362*
X022557Y071391*
X022532Y071419*
X022505Y071445*
X022477Y071469*
X022447Y071491*
X022416Y071510*
X022383Y071528*
X022349Y071543*
X022314Y071555*
X022278Y071566*
X022242Y071573*
X022205Y071579*
X022168Y071581*
X022131*
X022094Y071579*
X022057Y071573*
X022021Y071566*
X021985Y071555*
X021950Y071543*
X021916Y071528*
X021884Y071510*
X021852Y071491*
X021822Y071469*
X021794Y071445*
X021767Y071419*
X021742Y071391*
X021719Y071362*
X021698Y071331*
X021680Y071299*
X021663Y071266*
X021650Y071231*
X021638Y071196*
X021629Y071160*
X021623Y071124*
X021619Y071087*
X021618Y071050*
X021619Y071012*
X021623Y070975*
X021629Y070939*
X021638Y070903*
X021650Y070868*
X021663Y070833*
X021680Y070800*
X021698Y070768*
X021719Y070737*
X021742Y070708*
X021767Y070680*
X021794Y070654*
X021822Y070630*
X021852Y070608*
X021884Y070589*
X021916Y070571*
X021950Y070556*
X021985Y070544*
X022021Y070533*
X022057Y070526*
X022094Y070520*
X022131Y070518*
X022168*
X022205Y070520*
X022242Y070526*
X022278Y070533*
X022314Y070544*
X022349Y070556*
X022383Y070571*
X022416Y070589*
X022447Y070608*
X022477Y070630*
X022505Y070654*
X022532Y070680*
X022557Y070708*
X022580Y070737*
X022601Y070768*
X022619Y070800*
X022636Y070833*
X022649Y070868*
X022661Y070903*
X022670Y070939*
X022676Y070975*
X022680Y071012*
X022682Y071050*
X015532D02*
D01*
X015530Y071087*
X015526Y071124*
X015520Y071160*
X015511Y071196*
X015499Y071231*
X015486Y071266*
X015469Y071299*
X015451Y071331*
X015430Y071362*
X015407Y071391*
X015382Y071419*
X015355Y071445*
X015327Y071469*
X015297Y071491*
X015266Y071510*
X015233Y071528*
X015199Y071543*
X015164Y071555*
X015128Y071566*
X015092Y071573*
X015055Y071579*
X015018Y071581*
X014981*
X014944Y071579*
X014907Y071573*
X014871Y071566*
X014835Y071555*
X014800Y071543*
X014766Y071528*
X014734Y071510*
X014702Y071491*
X014672Y071469*
X014644Y071445*
X014617Y071419*
X014592Y071391*
X014569Y071362*
X014548Y071331*
X014530Y071299*
X014513Y071266*
X014500Y071231*
X014488Y071196*
X014479Y071160*
X014473Y071124*
X014469Y071087*
X014468Y071050*
X014469Y071012*
X014473Y070975*
X014479Y070939*
X014488Y070903*
X014500Y070868*
X014513Y070833*
X014530Y070800*
X014548Y070768*
X014569Y070737*
X014592Y070708*
X014617Y070680*
X014644Y070654*
X014672Y070630*
X014702Y070608*
X014734Y070589*
X014766Y070571*
X014800Y070556*
X014835Y070544*
X014871Y070533*
X014907Y070526*
X014944Y070520*
X014981Y070518*
X015018*
X015055Y070520*
X015092Y070526*
X015128Y070533*
X015164Y070544*
X015199Y070556*
X015233Y070571*
X015266Y070589*
X015297Y070608*
X015327Y070630*
X015355Y070654*
X015382Y070680*
X015407Y070708*
X015430Y070737*
X015451Y070768*
X015469Y070800*
X015486Y070833*
X015499Y070868*
X015511Y070903*
X015520Y070939*
X015526Y070975*
X015530Y071012*
X015532Y071050*
X021050Y069950D02*
Y072100D01*
Y069950D02*
X023300D01*
Y072100*
X021050D02*
X023300D01*
X013900Y069950D02*
Y072100D01*
Y069950D02*
X016150D01*
Y072100*
X013900D02*
X016150D01*
X011447Y042675D02*
X017353D01*
X011447Y039525D02*
X017353D01*
Y042675*
X011447Y039525D02*
Y042675D01*
X017347D02*
X023253D01*
X017347Y039525D02*
X023253D01*
Y042675*
X017347Y039525D02*
Y042675D01*
X023247D02*
X029153D01*
X023247Y039525D02*
X029153D01*
Y042675*
X023247Y039525D02*
Y042675D01*
X031532D02*
X035468D01*
X031532Y039475D02*
Y042675D01*
X035468Y039475D02*
Y042675D01*
X031532Y039475D02*
X035468D01*
X029153Y010825D02*
Y013975D01*
X023247Y010825D02*
Y013975D01*
X029153*
X023247Y010825D02*
X029153D01*
X023253D02*
Y013975D01*
X017347Y010825D02*
Y013975D01*
X023253*
X017347Y010825D02*
X023253D01*
X017353D02*
Y013975D01*
X011447Y010825D02*
Y013975D01*
X017353*
X011447Y010825D02*
X017353D01*
X031516D02*
X035453D01*
Y014025*
X031516Y010825D02*
Y014025D01*
X035453*
X022550Y014900D02*
X022450Y015000D01*
X022250*
X022150Y014900*
Y014800*
X022250Y014700*
X022450*
X022550Y014600*
Y014500*
X022450Y014400*
X022250*
X022150Y014500*
X022850Y014800D02*
X023050D01*
X023150Y014700*
Y014400*
X022850*
X022750Y014500*
X022850Y014600*
X023150*
X023350Y014800D02*
Y014400D01*
Y014600*
X023450Y014700*
X023550Y014800*
X023650*
X024049D02*
X024249D01*
X024349Y014700*
Y014400*
X024049*
X023949Y014500*
X024049Y014600*
X024349*
X024549Y014200D02*
X024649D01*
X024749Y014300*
Y014800*
X025449Y014400D02*
X025249D01*
X025149Y014500*
Y014700*
X025249Y014800*
X025449*
X025549Y014700*
Y014600*
X025149*
X025749Y014800D02*
X025949Y014400D01*
X026149Y014800*
X026449Y014400D02*
X026649D01*
X026749Y014500*
Y014700*
X026649Y014800*
X026449*
X026349Y014700*
Y014500*
X026449Y014400*
X027548Y015000D02*
Y014400D01*
X027848*
X027948Y014500*
Y014600*
X027848Y014700*
X027548*
X027848*
X027948Y014800*
Y014900*
X027848Y015000*
X027548*
X028148Y014400D02*
X028348D01*
X028248*
Y014800*
X028148*
X028648Y015000D02*
Y014400D01*
Y014700*
X029048*
Y015000*
Y014400*
X011450Y037150D02*
Y037550D01*
X011650Y037750*
X011850Y037550*
Y037150*
Y037450*
X011450*
X012050Y037750D02*
Y037250D01*
X012150Y037150*
X012350*
X012450Y037250*
Y037750*
X013049Y037650D02*
X012950Y037750D01*
X012750*
X012650Y037650*
Y037250*
X012750Y037150*
X012950*
X013049Y037250*
Y037450*
X012850*
X013249Y037150D02*
Y037250D01*
X013349*
Y037150*
X013249*
X014749D02*
X014349D01*
X014749Y037550*
Y037650*
X014649Y037750*
X014449*
X014349Y037650*
X014949D02*
X015049Y037750D01*
X015249*
X015349Y037650*
Y037250*
X015249Y037150*
X015049*
X014949Y037250*
Y037650*
X015949Y037150D02*
X015549D01*
X015949Y037550*
Y037650*
X015849Y037750*
X015649*
X015549Y037650*
X016448Y037150D02*
Y037750D01*
X016148Y037450*
X016548*
X016748Y037150D02*
Y037250D01*
X016848*
Y037150*
X016748*
X011450Y038700D02*
Y038100D01*
X011750*
X011850Y038200*
Y038600*
X011750Y038700*
X011450*
X012450D02*
X012050D01*
Y038100*
X012450*
X012050Y038400D02*
X012250D01*
X012650D02*
X013049D01*
X013249Y038100D02*
X013449D01*
X013349*
Y038700*
X013249Y038600*
X014049Y038100D02*
Y038700D01*
X013749Y038400*
X014149*
X014349Y038600D02*
X014449Y038700D01*
X014649*
X014749Y038600*
Y038200*
X014649Y038100*
X014449*
X014349Y038200*
Y038600*
X014949D02*
X015049Y038700D01*
X015249*
X015349Y038600*
Y038500*
X015249Y038400*
X015349Y038300*
Y038200*
X015249Y038100*
X015049*
X014949Y038200*
Y038300*
X015049Y038400*
X014949Y038500*
Y038600*
X015049Y038400D02*
X015249D01*
X015949Y038100D02*
X015549D01*
X015949Y038500*
Y038600*
X015849Y038700*
X015649*
X015549Y038600*
X016448Y038100D02*
Y038700D01*
X016148Y038400*
X016548*
X011350Y014850D02*
Y014550D01*
X011450Y014450*
X011550Y014550*
X011650Y014450*
X011750Y014550*
Y014850*
X011950D02*
Y014550D01*
X012050Y014450*
X012150Y014550*
X012250Y014450*
X012350Y014550*
Y014850*
X012550D02*
Y014550D01*
X012650Y014450*
X012750Y014550*
X012850Y014450*
X012949Y014550*
Y014850*
X013149Y014450D02*
Y014550D01*
X013249*
Y014450*
X013149*
X013649D02*
X013849D01*
X013749*
Y014850*
X013649*
X014149Y014450D02*
Y014850D01*
X014249*
X014349Y014750*
Y014450*
Y014750*
X014449Y014850*
X014549Y014750*
Y014450*
X015049D02*
X014849D01*
X014749Y014550*
Y014750*
X014849Y014850*
X015049*
X015149Y014750*
Y014650*
X014749*
X015749Y015050D02*
Y014450D01*
X015449*
X015349Y014550*
Y014750*
X015449Y014850*
X015749*
X015949Y014450D02*
X016148D01*
X016048*
Y014850*
X015949*
X016548D02*
X016748D01*
X016848Y014750*
Y014450*
X016548*
X016448Y014550*
X016548Y014650*
X016848*
X017048Y014450D02*
Y014550D01*
X017148*
Y014450*
X017048*
X017548Y015050D02*
Y014450D01*
X017848*
X017948Y014550*
Y014650*
Y014750*
X017848Y014850*
X017548*
X018248D02*
X018448D01*
X018548Y014750*
Y014450*
X018248*
X018148Y014550*
X018248Y014650*
X018548*
X024000Y015300D02*
X024200D01*
X024100*
Y015700*
X024000*
X024500Y015300D02*
Y015900D01*
X024700Y015700*
X024900Y015900*
Y015300*
X025500Y015900D02*
X025100D01*
Y015300*
X025500*
X025100Y015600D02*
X025300D01*
X025699Y015900D02*
Y015300D01*
X025999*
X026099Y015400*
Y015800*
X025999Y015900*
X025699*
X026299D02*
X026499D01*
X026399*
Y015300*
X026299*
X026499*
X026799D02*
Y015700D01*
X026999Y015900*
X027199Y015700*
Y015300*
Y015600*
X026799*
G54D52*
X010200Y047350D02*
D01*
X010217Y047350*
X010234Y047352*
X010251Y047355*
X010268Y047359*
X010285Y047365*
X010301Y047371*
X010317Y047379*
X010332Y047387*
X010346Y047397*
X010360Y047408*
X010373Y047420*
X010385Y047432*
X010397Y047446*
X010407Y047460*
X010416Y047475*
X010424Y047490*
X010431Y047506*
X010437Y047522*
X010442Y047539*
X010446Y047556*
X010448Y047573*
X010449Y047591*
Y047608*
X010448Y047626*
X010446Y047643*
X010442Y047660*
X010437Y047677*
X010431Y047693*
X010424Y047709*
X010416Y047725*
X010407Y047739*
X010397Y047753*
X010385Y047767*
X010373Y047779*
X010360Y047791*
X010346Y047802*
X010332Y047812*
X010317Y047820*
X010301Y047828*
X010285Y047834*
X010268Y047840*
X010251Y047844*
X010234Y047847*
X010217Y047849*
X010200Y047850*
X013371Y047350D02*
D01*
X013388Y047350*
X013405Y047352*
X013422Y047355*
X013439Y047359*
X013456Y047365*
X013472Y047371*
X013488Y047379*
X013503Y047387*
X013517Y047397*
X013531Y047408*
X013544Y047420*
X013556Y047432*
X013568Y047446*
X013578Y047460*
X013587Y047475*
X013595Y047490*
X013602Y047506*
X013608Y047522*
X013613Y047539*
X013617Y047556*
X013619Y047573*
X013620Y047591*
Y047608*
X013619Y047626*
X013617Y047643*
X013613Y047660*
X013608Y047677*
X013602Y047693*
X013595Y047709*
X013587Y047725*
X013578Y047739*
X013568Y047753*
X013556Y047767*
X013544Y047779*
X013531Y047791*
X013517Y047802*
X013503Y047812*
X013488Y047820*
X013472Y047828*
X013456Y047834*
X013439Y047840*
X013422Y047844*
X013405Y047847*
X013388Y047849*
X013371Y047850*
X016543Y047350D02*
D01*
X016560Y047350*
X016577Y047352*
X016594Y047355*
X016611Y047359*
X016628Y047365*
X016644Y047371*
X016660Y047379*
X016675Y047387*
X016689Y047397*
X016703Y047408*
X016716Y047420*
X016728Y047432*
X016740Y047446*
X016750Y047460*
X016759Y047475*
X016767Y047490*
X016774Y047506*
X016780Y047522*
X016785Y047539*
X016789Y047556*
X016791Y047573*
X016792Y047591*
Y047608*
X016791Y047626*
X016789Y047643*
X016785Y047660*
X016780Y047677*
X016774Y047693*
X016767Y047709*
X016759Y047725*
X016750Y047739*
X016740Y047753*
X016728Y047767*
X016716Y047779*
X016703Y047791*
X016689Y047802*
X016675Y047812*
X016660Y047820*
X016644Y047828*
X016628Y047834*
X016611Y047840*
X016594Y047844*
X016577Y047847*
X016560Y047849*
X016543Y047850*
X019714Y047350D02*
D01*
X019731Y047350*
X019748Y047352*
X019765Y047355*
X019782Y047359*
X019799Y047365*
X019815Y047371*
X019831Y047379*
X019846Y047387*
X019860Y047397*
X019874Y047408*
X019887Y047420*
X019899Y047432*
X019911Y047446*
X019921Y047460*
X019930Y047475*
X019938Y047490*
X019945Y047506*
X019951Y047522*
X019956Y047539*
X019960Y047556*
X019962Y047573*
X019963Y047591*
Y047608*
X019962Y047626*
X019960Y047643*
X019956Y047660*
X019951Y047677*
X019945Y047693*
X019938Y047709*
X019930Y047725*
X019921Y047739*
X019911Y047753*
X019899Y047767*
X019887Y047779*
X019874Y047791*
X019860Y047802*
X019846Y047812*
X019831Y047820*
X019815Y047828*
X019799Y047834*
X019782Y047840*
X019765Y047844*
X019748Y047847*
X019731Y047849*
X019714Y047850*
X022886Y047350D02*
D01*
X022903Y047350*
X022920Y047352*
X022937Y047355*
X022954Y047359*
X022971Y047365*
X022987Y047371*
X023003Y047379*
X023018Y047387*
X023032Y047397*
X023046Y047408*
X023059Y047420*
X023071Y047432*
X023083Y047446*
X023093Y047460*
X023102Y047475*
X023110Y047490*
X023117Y047506*
X023123Y047522*
X023128Y047539*
X023132Y047556*
X023134Y047573*
X023135Y047591*
Y047608*
X023134Y047626*
X023132Y047643*
X023128Y047660*
X023123Y047677*
X023117Y047693*
X023110Y047709*
X023102Y047725*
X023093Y047739*
X023083Y047753*
X023071Y047767*
X023059Y047779*
X023046Y047791*
X023032Y047802*
X023018Y047812*
X023003Y047820*
X022987Y047828*
X022971Y047834*
X022954Y047840*
X022937Y047844*
X022920Y047847*
X022903Y047849*
X022886Y047850*
X026057Y047350D02*
D01*
X026074Y047350*
X026091Y047352*
X026108Y047355*
X026125Y047359*
X026142Y047365*
X026158Y047371*
X026174Y047379*
X026189Y047387*
X026203Y047397*
X026217Y047408*
X026230Y047420*
X026242Y047432*
X026254Y047446*
X026264Y047460*
X026273Y047475*
X026281Y047490*
X026288Y047506*
X026294Y047522*
X026299Y047539*
X026303Y047556*
X026305Y047573*
X026306Y047591*
Y047608*
X026305Y047626*
X026303Y047643*
X026299Y047660*
X026294Y047677*
X026288Y047693*
X026281Y047709*
X026273Y047725*
X026264Y047739*
X026254Y047753*
X026242Y047767*
X026230Y047779*
X026217Y047791*
X026203Y047802*
X026189Y047812*
X026174Y047820*
X026158Y047828*
X026142Y047834*
X026125Y047840*
X026108Y047844*
X026091Y047847*
X026074Y047849*
X026057Y047850*
X029229Y047350D02*
D01*
X029246Y047350*
X029263Y047352*
X029280Y047355*
X029297Y047359*
X029314Y047365*
X029330Y047371*
X029346Y047379*
X029361Y047387*
X029375Y047397*
X029389Y047408*
X029402Y047420*
X029414Y047432*
X029426Y047446*
X029436Y047460*
X029445Y047475*
X029453Y047490*
X029460Y047506*
X029466Y047522*
X029471Y047539*
X029475Y047556*
X029477Y047573*
X029478Y047591*
Y047608*
X029477Y047626*
X029475Y047643*
X029471Y047660*
X029466Y047677*
X029460Y047693*
X029453Y047709*
X029445Y047725*
X029436Y047739*
X029426Y047753*
X029414Y047767*
X029402Y047779*
X029389Y047791*
X029375Y047802*
X029361Y047812*
X029346Y047820*
X029330Y047828*
X029314Y047834*
X029297Y047840*
X029280Y047844*
X029263Y047847*
X029246Y047849*
X029229Y047850*
X032400Y047350D02*
D01*
X032417Y047350*
X032434Y047352*
X032451Y047355*
X032468Y047359*
X032485Y047365*
X032501Y047371*
X032517Y047379*
X032532Y047387*
X032546Y047397*
X032560Y047408*
X032573Y047420*
X032585Y047432*
X032597Y047446*
X032607Y047460*
X032616Y047475*
X032624Y047490*
X032631Y047506*
X032637Y047522*
X032642Y047539*
X032646Y047556*
X032648Y047573*
X032649Y047591*
Y047608*
X032648Y047626*
X032646Y047643*
X032642Y047660*
X032637Y047677*
X032631Y047693*
X032624Y047709*
X032616Y047725*
X032607Y047739*
X032597Y047753*
X032585Y047767*
X032573Y047779*
X032560Y047791*
X032546Y047802*
X032532Y047812*
X032517Y047820*
X032501Y047828*
X032485Y047834*
X032468Y047840*
X032451Y047844*
X032434Y047847*
X032417Y047849*
X032400Y047850*
X031784Y020800D02*
D01*
X031781Y020868*
X031774Y020936*
X031762Y021004*
X031745Y021071*
X031724Y021136*
X031698Y021200*
X031668Y021261*
X031634Y021321*
X031596Y021378*
X031553Y021432*
X031507Y021483*
X031458Y021531*
X031405Y021575*
X031350Y021615*
X031292Y021652*
X031231Y021684*
X031168Y021712*
X031104Y021735*
X031038Y021754*
X030970Y021769*
X030902Y021778*
X030834Y021783*
X030765*
X030697Y021778*
X030629Y021769*
X030561Y021754*
X030495Y021735*
X030431Y021712*
X030368Y021684*
X030308Y021652*
X030249Y021615*
X030194Y021575*
X030141Y021531*
X030092Y021483*
X030046Y021432*
X030003Y021378*
X029965Y021321*
X029931Y021261*
X029901Y021200*
X029875Y021136*
X029854Y021071*
X029837Y021004*
X029825Y020936*
X029818Y020868*
X029816Y020800*
X029818Y020731*
X029825Y020663*
X029837Y020595*
X029854Y020528*
X029875Y020463*
X029901Y020399*
X029931Y020338*
X029965Y020278*
X030003Y020221*
X030046Y020167*
X030092Y020116*
X030141Y020068*
X030194Y020024*
X030249Y019984*
X030308Y019947*
X030368Y019915*
X030431Y019887*
X030495Y019864*
X030561Y019845*
X030629Y019830*
X030697Y019821*
X030765Y019816*
X030834*
X030902Y019821*
X030970Y019830*
X031038Y019845*
X031104Y019864*
X031168Y019887*
X031231Y019915*
X031292Y019947*
X031350Y019984*
X031405Y020024*
X031458Y020068*
X031507Y020116*
X031553Y020167*
X031596Y020221*
X031634Y020278*
X031668Y020338*
X031698Y020399*
X031724Y020463*
X031745Y020528*
X031762Y020595*
X031774Y020663*
X031781Y020731*
X031784Y020800*
X036518Y021900D02*
D01*
X036513Y022037*
X036498Y022174*
X036474Y022309*
X036441Y022442*
X036399Y022573*
X036347Y022700*
X036287Y022824*
X036218Y022943*
X036141Y023057*
X036057Y023165*
X035965Y023267*
X035866Y023363*
X035761Y023451*
X035650Y023532*
X035533Y023605*
X035412Y023669*
X035286Y023725*
X035157Y023772*
X035025Y023810*
X034890Y023839*
X034754Y023858*
X034617Y023867*
X034480*
X034343Y023858*
X034207Y023839*
X034072Y023810*
X033940Y023772*
X033811Y023725*
X033685Y023669*
X033564Y023605*
X033447Y023532*
X033336Y023451*
X033231Y023363*
X033132Y023267*
X033040Y023165*
X032956Y023057*
X032879Y022943*
X032810Y022824*
X032750Y022700*
X032698Y022573*
X032656Y022442*
X032623Y022309*
X032599Y022174*
X032584Y022037*
X032580Y021900*
X032584Y021762*
X032599Y021625*
X032623Y021490*
X032656Y021357*
X032698Y021226*
X032750Y021099*
X032810Y020975*
X032879Y020856*
X032956Y020742*
X033040Y020634*
X033132Y020532*
X033231Y020436*
X033336Y020348*
X033447Y020267*
X033564Y020194*
X033685Y020130*
X033811Y020074*
X033940Y020027*
X034072Y019989*
X034207Y019960*
X034343Y019941*
X034480Y019932*
X034617*
X034754Y019941*
X034890Y019960*
X035025Y019989*
X035157Y020027*
X035286Y020074*
X035412Y020130*
X035533Y020194*
X035650Y020267*
X035761Y020348*
X035866Y020436*
X035965Y020532*
X036057Y020634*
X036141Y020742*
X036218Y020856*
X036287Y020975*
X036347Y021099*
X036399Y021226*
X036441Y021357*
X036474Y021490*
X036498Y021625*
X036513Y021762*
X036518Y021900*
X036503Y026200D02*
D01*
X036498Y026337*
X036483Y026474*
X036459Y026609*
X036426Y026742*
X036384Y026873*
X036332Y027000*
X036272Y027124*
X036203Y027243*
X036126Y027357*
X036042Y027465*
X035950Y027567*
X035851Y027663*
X035746Y027751*
X035635Y027832*
X035518Y027905*
X035397Y027969*
X035271Y028025*
X035142Y028072*
X035010Y028110*
X034875Y028139*
X034739Y028158*
X034602Y028167*
X034465*
X034328Y028158*
X034192Y028139*
X034057Y028110*
X033925Y028072*
X033796Y028025*
X033670Y027969*
X033549Y027905*
X033432Y027832*
X033321Y027751*
X033216Y027663*
X033117Y027567*
X033025Y027465*
X032941Y027357*
X032864Y027243*
X032795Y027124*
X032735Y027000*
X032683Y026873*
X032641Y026742*
X032608Y026609*
X032584Y026474*
X032569Y026337*
X032565Y026200*
X032569Y026062*
X032584Y025925*
X032608Y025790*
X032641Y025657*
X032683Y025526*
X032735Y025399*
X032795Y025275*
X032864Y025156*
X032941Y025042*
X033025Y024934*
X033117Y024832*
X033216Y024736*
X033321Y024648*
X033432Y024567*
X033549Y024494*
X033670Y024430*
X033796Y024374*
X033925Y024327*
X034057Y024289*
X034192Y024260*
X034328Y024241*
X034465Y024232*
X034602*
X034739Y024241*
X034875Y024260*
X035010Y024289*
X035142Y024327*
X035271Y024374*
X035397Y024430*
X035518Y024494*
X035635Y024567*
X035746Y024648*
X035851Y024736*
X035950Y024832*
X036042Y024934*
X036126Y025042*
X036203Y025156*
X036272Y025275*
X036332Y025399*
X036384Y025526*
X036426Y025657*
X036459Y025790*
X036483Y025925*
X036498Y026062*
X036503Y026200*
X028131Y070800D02*
D01*
X028148Y070800*
X028165Y070802*
X028182Y070805*
X028199Y070809*
X028216Y070815*
X028232Y070821*
X028248Y070829*
X028263Y070837*
X028277Y070847*
X028291Y070858*
X028304Y070870*
X028316Y070882*
X028328Y070896*
X028338Y070910*
X028347Y070925*
X028355Y070940*
X028362Y070956*
X028368Y070972*
X028373Y070989*
X028377Y071006*
X028379Y071023*
X028380Y071041*
Y071058*
X028379Y071076*
X028377Y071093*
X028373Y071110*
X028368Y071127*
X028362Y071143*
X028355Y071159*
X028347Y071175*
X028338Y071189*
X028328Y071203*
X028316Y071217*
X028304Y071229*
X028291Y071241*
X028277Y071252*
X028263Y071262*
X028248Y071270*
X028232Y071278*
X028216Y071284*
X028199Y071290*
X028182Y071294*
X028165Y071297*
X028148Y071299*
X028131Y071300*
X010200Y059650D02*
D01*
X010217Y059650*
X010234Y059652*
X010251Y059655*
X010268Y059659*
X010285Y059665*
X010301Y059671*
X010317Y059679*
X010332Y059687*
X010346Y059697*
X010360Y059708*
X010373Y059720*
X010385Y059732*
X010397Y059746*
X010407Y059760*
X010416Y059775*
X010424Y059790*
X010431Y059806*
X010437Y059822*
X010442Y059839*
X010446Y059856*
X010448Y059873*
X010449Y059891*
Y059908*
X010448Y059926*
X010446Y059943*
X010442Y059960*
X010437Y059977*
X010431Y059993*
X010424Y060009*
X010416Y060025*
X010407Y060039*
X010397Y060053*
X010385Y060067*
X010373Y060079*
X010360Y060091*
X010346Y060102*
X010332Y060112*
X010317Y060120*
X010301Y060128*
X010285Y060134*
X010268Y060140*
X010251Y060144*
X010234Y060147*
X010217Y060149*
X010200Y060150*
X013371Y059650D02*
D01*
X013388Y059650*
X013405Y059652*
X013422Y059655*
X013439Y059659*
X013456Y059665*
X013472Y059671*
X013488Y059679*
X013503Y059687*
X013517Y059697*
X013531Y059708*
X013544Y059720*
X013556Y059732*
X013568Y059746*
X013578Y059760*
X013587Y059775*
X013595Y059790*
X013602Y059806*
X013608Y059822*
X013613Y059839*
X013617Y059856*
X013619Y059873*
X013620Y059891*
Y059908*
X013619Y059926*
X013617Y059943*
X013613Y059960*
X013608Y059977*
X013602Y059993*
X013595Y060009*
X013587Y060025*
X013578Y060039*
X013568Y060053*
X013556Y060067*
X013544Y060079*
X013531Y060091*
X013517Y060102*
X013503Y060112*
X013488Y060120*
X013472Y060128*
X013456Y060134*
X013439Y060140*
X013422Y060144*
X013405Y060147*
X013388Y060149*
X013371Y060150*
X016543Y059650D02*
D01*
X016560Y059650*
X016577Y059652*
X016594Y059655*
X016611Y059659*
X016628Y059665*
X016644Y059671*
X016660Y059679*
X016675Y059687*
X016689Y059697*
X016703Y059708*
X016716Y059720*
X016728Y059732*
X016740Y059746*
X016750Y059760*
X016759Y059775*
X016767Y059790*
X016774Y059806*
X016780Y059822*
X016785Y059839*
X016789Y059856*
X016791Y059873*
X016792Y059891*
Y059908*
X016791Y059926*
X016789Y059943*
X016785Y059960*
X016780Y059977*
X016774Y059993*
X016767Y060009*
X016759Y060025*
X016750Y060039*
X016740Y060053*
X016728Y060067*
X016716Y060079*
X016703Y060091*
X016689Y060102*
X016675Y060112*
X016660Y060120*
X016644Y060128*
X016628Y060134*
X016611Y060140*
X016594Y060144*
X016577Y060147*
X016560Y060149*
X016543Y060150*
X019714Y059650D02*
D01*
X019731Y059650*
X019748Y059652*
X019765Y059655*
X019782Y059659*
X019799Y059665*
X019815Y059671*
X019831Y059679*
X019846Y059687*
X019860Y059697*
X019874Y059708*
X019887Y059720*
X019899Y059732*
X019911Y059746*
X019921Y059760*
X019930Y059775*
X019938Y059790*
X019945Y059806*
X019951Y059822*
X019956Y059839*
X019960Y059856*
X019962Y059873*
X019963Y059891*
Y059908*
X019962Y059926*
X019960Y059943*
X019956Y059960*
X019951Y059977*
X019945Y059993*
X019938Y060009*
X019930Y060025*
X019921Y060039*
X019911Y060053*
X019899Y060067*
X019887Y060079*
X019874Y060091*
X019860Y060102*
X019846Y060112*
X019831Y060120*
X019815Y060128*
X019799Y060134*
X019782Y060140*
X019765Y060144*
X019748Y060147*
X019731Y060149*
X019714Y060150*
X022886Y059650D02*
D01*
X022903Y059650*
X022920Y059652*
X022937Y059655*
X022954Y059659*
X022971Y059665*
X022987Y059671*
X023003Y059679*
X023018Y059687*
X023032Y059697*
X023046Y059708*
X023059Y059720*
X023071Y059732*
X023083Y059746*
X023093Y059760*
X023102Y059775*
X023110Y059790*
X023117Y059806*
X023123Y059822*
X023128Y059839*
X023132Y059856*
X023134Y059873*
X023135Y059891*
Y059908*
X023134Y059926*
X023132Y059943*
X023128Y059960*
X023123Y059977*
X023117Y059993*
X023110Y060009*
X023102Y060025*
X023093Y060039*
X023083Y060053*
X023071Y060067*
X023059Y060079*
X023046Y060091*
X023032Y060102*
X023018Y060112*
X023003Y060120*
X022987Y060128*
X022971Y060134*
X022954Y060140*
X022937Y060144*
X022920Y060147*
X022903Y060149*
X022886Y060150*
X026057Y059650D02*
D01*
X026074Y059650*
X026091Y059652*
X026108Y059655*
X026125Y059659*
X026142Y059665*
X026158Y059671*
X026174Y059679*
X026189Y059687*
X026203Y059697*
X026217Y059708*
X026230Y059720*
X026242Y059732*
X026254Y059746*
X026264Y059760*
X026273Y059775*
X026281Y059790*
X026288Y059806*
X026294Y059822*
X026299Y059839*
X026303Y059856*
X026305Y059873*
X026306Y059891*
Y059908*
X026305Y059926*
X026303Y059943*
X026299Y059960*
X026294Y059977*
X026288Y059993*
X026281Y060009*
X026273Y060025*
X026264Y060039*
X026254Y060053*
X026242Y060067*
X026230Y060079*
X026217Y060091*
X026203Y060102*
X026189Y060112*
X026174Y060120*
X026158Y060128*
X026142Y060134*
X026125Y060140*
X026108Y060144*
X026091Y060147*
X026074Y060149*
X026057Y060150*
X029229Y059650D02*
D01*
X029246Y059650*
X029263Y059652*
X029280Y059655*
X029297Y059659*
X029314Y059665*
X029330Y059671*
X029346Y059679*
X029361Y059687*
X029375Y059697*
X029389Y059708*
X029402Y059720*
X029414Y059732*
X029426Y059746*
X029436Y059760*
X029445Y059775*
X029453Y059790*
X029460Y059806*
X029466Y059822*
X029471Y059839*
X029475Y059856*
X029477Y059873*
X029478Y059891*
Y059908*
X029477Y059926*
X029475Y059943*
X029471Y059960*
X029466Y059977*
X029460Y059993*
X029453Y060009*
X029445Y060025*
X029436Y060039*
X029426Y060053*
X029414Y060067*
X029402Y060079*
X029389Y060091*
X029375Y060102*
X029361Y060112*
X029346Y060120*
X029330Y060128*
X029314Y060134*
X029297Y060140*
X029280Y060144*
X029263Y060147*
X029246Y060149*
X029229Y060150*
X032400Y059650D02*
D01*
X032417Y059650*
X032434Y059652*
X032451Y059655*
X032468Y059659*
X032485Y059665*
X032501Y059671*
X032517Y059679*
X032532Y059687*
X032546Y059697*
X032560Y059708*
X032573Y059720*
X032585Y059732*
X032597Y059746*
X032607Y059760*
X032616Y059775*
X032624Y059790*
X032631Y059806*
X032637Y059822*
X032642Y059839*
X032646Y059856*
X032648Y059873*
X032649Y059891*
Y059908*
X032648Y059926*
X032646Y059943*
X032642Y059960*
X032637Y059977*
X032631Y059993*
X032624Y060009*
X032616Y060025*
X032607Y060039*
X032597Y060053*
X032585Y060067*
X032573Y060079*
X032560Y060091*
X032546Y060102*
X032532Y060112*
X032517Y060120*
X032501Y060128*
X032485Y060134*
X032468Y060140*
X032451Y060144*
X032434Y060147*
X032417Y060149*
X032400Y060150*
X010200Y046921D02*
X013200D01*
Y048279*
X010200D02*
X013200D01*
X010200Y047850D02*
Y048279D01*
Y046921D02*
Y047350D01*
X010172Y050598D02*
X014228D01*
X010172Y050401D02*
X014228D01*
X010172Y052330D02*
X014228D01*
X010172Y050401D02*
Y052330D01*
X014228Y050401D02*
Y052330D01*
X013371Y046921D02*
X016371D01*
Y048279*
X013371D02*
X016371D01*
X013371Y047850D02*
Y048279D01*
Y046921D02*
Y047350D01*
X010172Y053148D02*
X014228D01*
X010172Y052951D02*
X014228D01*
X010172Y054880D02*
X014228D01*
X010172Y052951D02*
Y054880D01*
X014228Y052951D02*
Y054880D01*
X016543Y046921D02*
X019543D01*
Y048279*
X016543D02*
X019543D01*
X016543Y047850D02*
Y048279D01*
Y046921D02*
Y047350D01*
X014363Y053148D02*
X018418D01*
X014363Y052951D02*
X018418D01*
X014363Y054880D02*
X018418D01*
X014363Y052951D02*
Y054880D01*
X018418Y052951D02*
Y054880D01*
X017400Y044750D02*
X026400D01*
X017400Y043750D02*
Y044750D01*
Y043750D02*
X026400D01*
Y044750*
X019714Y046921D02*
X022714D01*
Y048279*
X019714D02*
X022714D01*
X019714Y047850D02*
Y048279D01*
Y046921D02*
Y047350D01*
X018554Y053148D02*
X022609D01*
X018554Y052951D02*
X022609D01*
X018554Y054880D02*
X022609D01*
X018554Y052951D02*
Y054880D01*
X022609Y052951D02*
Y054880D01*
X022886Y046921D02*
X025886D01*
Y048279*
X022886D02*
X025886D01*
X022886Y047850D02*
Y048279D01*
Y046921D02*
Y047350D01*
X022991Y054683D02*
X027046D01*
X022991Y054880D02*
X027046D01*
X022991Y052951D02*
X027046D01*
Y054880*
X022991Y052951D02*
Y054880D01*
X026057Y046921D02*
X029057D01*
Y048279*
X026057D02*
X029057D01*
X026057Y047850D02*
Y048279D01*
Y046921D02*
Y047350D01*
X027182Y054683D02*
X031237D01*
X027182Y054880D02*
X031237D01*
X027182Y052951D02*
X031237D01*
Y054880*
X027182Y052951D02*
Y054880D01*
X029229Y046921D02*
X032229D01*
Y048279*
X029229D02*
X032229D01*
X029229Y047850D02*
Y048279D01*
Y046921D02*
Y047350D01*
X031372Y054683D02*
X035428D01*
X031372Y054880D02*
X035428D01*
X031372Y052951D02*
X035428D01*
Y054880*
X031372Y052951D02*
Y054880D01*
X032400Y046921D02*
X035400D01*
Y048279*
X032400D02*
X035400D01*
X032400Y047850D02*
Y048279D01*
Y046921D02*
Y047350D01*
X031372Y052402D02*
X035428D01*
X031372Y052599D02*
X035428D01*
X031372Y050670D02*
X035428D01*
Y052599*
X031372Y050670D02*
Y052599D01*
X019115Y075267D02*
Y075739D01*
X019745Y075267D02*
Y075739D01*
X019115D02*
X019745D01*
X019273Y074400D02*
X019587D01*
X019115Y074597D02*
Y074991D01*
X019587Y074400D02*
X019745Y074597D01*
X019115D02*
X019273Y074400D01*
X019745Y074597D02*
Y074991D01*
X013835Y075267D02*
Y075739D01*
X014465Y075267D02*
Y075739D01*
X013835D02*
X014465D01*
X013993Y074400D02*
X014307D01*
X013835Y074597D02*
Y074991D01*
X014307Y074400D02*
X014465Y074597D01*
X013835D02*
X013993Y074400D01*
X014465Y074597D02*
Y074991D01*
Y076394D02*
Y076867D01*
X013835Y076394D02*
Y076867D01*
Y076394D02*
X014465D01*
X013993Y077733D02*
X014307D01*
X014465Y077143D02*
Y077536D01*
X013835D02*
X013993Y077733D01*
X014307D02*
X014465Y077536D01*
X013835Y077143D02*
Y077536D01*
X020435Y075267D02*
Y075739D01*
X021065Y075267D02*
Y075739D01*
X020435D02*
X021065D01*
X020593Y074400D02*
X020907D01*
X020435Y074597D02*
Y074991D01*
X020907Y074400D02*
X021065Y074597D01*
X020435D02*
X020593Y074400D01*
X021065Y074597D02*
Y074991D01*
X015155Y075267D02*
Y075739D01*
X015785Y075267D02*
Y075739D01*
X015155D02*
X015785D01*
X015313Y074400D02*
X015627D01*
X015155Y074597D02*
Y074991D01*
X015627Y074400D02*
X015785Y074597D01*
X015155D02*
X015313Y074400D01*
X015785Y074597D02*
Y074991D01*
X021065Y076394D02*
Y076867D01*
X020435Y076394D02*
Y076867D01*
Y076394D02*
X021065D01*
X020593Y077733D02*
X020907D01*
X021065Y077143D02*
Y077536D01*
X020435D02*
X020593Y077733D01*
X020907D02*
X021065Y077536D01*
X020435Y077143D02*
Y077536D01*
X015785Y076394D02*
Y076867D01*
X015155Y076394D02*
Y076867D01*
Y076394D02*
X015785D01*
X015313Y077733D02*
X015627D01*
X015785Y077143D02*
Y077536D01*
X015155D02*
X015313Y077733D01*
X015627D02*
X015785Y077536D01*
X015155Y077143D02*
Y077536D01*
X021755Y075267D02*
Y075739D01*
X022385Y075267D02*
Y075739D01*
X021755D02*
X022385D01*
X021913Y074400D02*
X022227D01*
X021755Y074597D02*
Y074991D01*
X022227Y074400D02*
X022385Y074597D01*
X021755D02*
X021913Y074400D01*
X022385Y074597D02*
Y074991D01*
X016475Y075267D02*
Y075739D01*
X017105Y075267D02*
Y075739D01*
X016475D02*
X017105D01*
X016633Y074400D02*
X016947D01*
X016475Y074597D02*
Y074991D01*
X016947Y074400D02*
X017105Y074597D01*
X016475D02*
X016633Y074400D01*
X017105Y074597D02*
Y074991D01*
Y076394D02*
Y076867D01*
X016475Y076394D02*
Y076867D01*
Y076394D02*
X017105D01*
X016633Y077733D02*
X016947D01*
X017105Y077143D02*
Y077536D01*
X016475D02*
X016633Y077733D01*
X016947D02*
X017105Y077536D01*
X016475Y077143D02*
Y077536D01*
X023075Y075267D02*
Y075739D01*
X023705Y075267D02*
Y075739D01*
X023075D02*
X023705D01*
X023233Y074400D02*
X023547D01*
X023075Y074597D02*
Y074991D01*
X023547Y074400D02*
X023705Y074597D01*
X023075D02*
X023233Y074400D01*
X023705Y074597D02*
Y074991D01*
X017795Y075267D02*
Y075739D01*
X018425Y075267D02*
Y075739D01*
X017795D02*
X018425D01*
X017953Y074400D02*
X018267D01*
X017795Y074597D02*
Y074991D01*
X018267Y074400D02*
X018425Y074597D01*
X017795D02*
X017953Y074400D01*
X018425Y074597D02*
Y074991D01*
X023705Y076394D02*
Y076867D01*
X023075Y076394D02*
Y076867D01*
Y076394D02*
X023705D01*
X023233Y077733D02*
X023547D01*
X023705Y077143D02*
Y077536D01*
X023075D02*
X023233Y077733D01*
X023547D02*
X023705Y077536D01*
X023075Y077143D02*
Y077536D01*
X018425Y076394D02*
Y076867D01*
X017795Y076394D02*
Y076867D01*
Y076394D02*
X018425D01*
X017953Y077733D02*
X018267D01*
X018425Y077143D02*
Y077536D01*
X017795D02*
X017953Y077733D01*
X018267D02*
X018425Y077536D01*
X017795Y077143D02*
Y077536D01*
X017450Y033700D02*
X026450D01*
X017450Y032700D02*
Y033700D01*
Y032700D02*
X026450D01*
Y033700*
X020400Y019750D02*
X029400D01*
Y020750*
X020400D02*
X029400D01*
X020400Y019750D02*
Y020750D01*
X015217Y030891D02*
Y031009D01*
X016043Y029181D02*
X016357D01*
X014543Y029231D02*
X014857D01*
X015194Y029102D02*
X015706D01*
X012935Y032454D02*
X014904D01*
X012935Y031746D02*
X014904D01*
Y032454*
X012935Y031746D02*
Y032454D01*
X012481Y029443D02*
Y029757D01*
Y030093D02*
Y030407D01*
X023248Y029544D02*
Y030056D01*
X024981Y023893D02*
Y024207D01*
X023169Y028943D02*
Y029257D01*
X028098Y027144D02*
Y027656D01*
X028019Y027943D02*
Y028257D01*
X032569Y037843D02*
Y038157D01*
X017843Y026131D02*
X018157D01*
X011378Y022144D02*
Y022656D01*
X011431Y022943D02*
Y023257D01*
Y023543D02*
Y023857D01*
X015335Y022943D02*
Y023257D01*
X015369Y023543D02*
Y023857D01*
X014228Y062751D02*
Y064680D01*
X010172Y062751D02*
Y064680D01*
X014228*
X010172Y062751D02*
X014228D01*
X010172Y062948D02*
X014228D01*
Y065151D02*
Y067080D01*
X010172Y065151D02*
Y067080D01*
X014228*
X010172Y065151D02*
X014228D01*
X010172Y065348D02*
X014228D01*
X018418Y065151D02*
Y067080D01*
X014363Y065151D02*
Y067080D01*
X018418*
X014363Y065151D02*
X018418D01*
X014363Y065348D02*
X018418D01*
X022609Y065151D02*
Y067080D01*
X018554Y065151D02*
Y067080D01*
X022609*
X018554Y065151D02*
X022609D01*
X018554Y065348D02*
X022609D01*
X022991Y065151D02*
Y067080D01*
X027046Y065151D02*
Y067080D01*
X022991Y065151D02*
X027046D01*
X022991Y067080D02*
X027046D01*
X022991Y066883D02*
X027046D01*
X027182Y065151D02*
Y067080D01*
X031237Y065151D02*
Y067080D01*
X027182Y065151D02*
X031237D01*
X027182Y067080D02*
X031237D01*
X027182Y066883D02*
X031237D01*
X031372Y065151D02*
Y067080D01*
X035428Y065151D02*
Y067080D01*
X031372Y065151D02*
X035428D01*
X031372Y067080D02*
X035428D01*
X031372Y066883D02*
X035428D01*
X019745Y076394D02*
Y076867D01*
X019115Y076394D02*
Y076867D01*
Y076394D02*
X019745D01*
X019273Y077733D02*
X019587D01*
X019745Y077143D02*
Y077536D01*
X019115D02*
X019273Y077733D01*
X019587D02*
X019745Y077536D01*
X019115Y077143D02*
Y077536D01*
X031372Y062751D02*
Y064680D01*
X035428Y062751D02*
Y064680D01*
X031372Y062751D02*
X035428D01*
X031372Y064680D02*
X035428D01*
X031372Y064483D02*
X035428D01*
X022385Y076394D02*
Y076867D01*
X021755Y076394D02*
Y076867D01*
Y076394D02*
X022385D01*
X021913Y077733D02*
X022227D01*
X022385Y077143D02*
Y077536D01*
X021755D02*
X021913Y077733D01*
X022227D02*
X022385Y077536D01*
X021755Y077143D02*
Y077536D01*
X027783Y028541D02*
Y028659D01*
X013041Y022967D02*
X013159D01*
X018850Y023800D02*
X021850D01*
X018850Y022800D02*
Y023800D01*
Y022800D02*
X021850D01*
Y023800*
X017400Y016600D02*
X028650D01*
X029400*
Y017600*
X017400D02*
X029400D01*
X017400Y016600D02*
Y017600D01*
X018150Y036850D02*
X029400D01*
X017400D02*
X018150D01*
X017400Y035850D02*
Y036850D01*
Y035850D02*
X029400D01*
Y036850*
X027450Y031950D02*
X035450D01*
X027450Y029950D02*
X035450D01*
X027450D02*
Y031950D01*
X035450Y029950D02*
Y031950D01*
X017400Y056950D02*
X026400D01*
X017400Y055950D02*
Y056950D01*
Y055950D02*
X026400D01*
Y056950*
X018150Y064400D02*
X029400D01*
X017400D02*
X018150D01*
X017400Y063400D02*
Y064400D01*
Y063400D02*
X029400D01*
Y064400*
X018150Y052200D02*
X029400D01*
X017400D02*
X018150D01*
X017400Y051200D02*
Y052200D01*
Y051200D02*
X029400D01*
Y052200*
X026450Y077250D02*
X034450D01*
X026450Y075250D02*
X034450D01*
X026450D02*
Y077250D01*
X034450Y075250D02*
Y077250D01*
X028131Y072093D02*
X034761D01*
X028131Y070007D02*
X034761D01*
Y072093*
X028131Y071300D02*
Y072093D01*
Y070007D02*
Y070800D01*
X022967Y027633D02*
X025133D01*
X022967Y025467D02*
X025133D01*
X022967D02*
Y027633D01*
X025133Y025467D02*
Y027633D01*
X032716Y036646D02*
X034684D01*
X032716Y037354D02*
X034684D01*
X032716Y036646D02*
Y037354D01*
X034684Y036646D02*
Y037354D01*
X019074Y026164D02*
X019271D01*
X019074Y027384D02*
X019271D01*
Y026164D02*
Y027384D01*
X019074Y026164D02*
Y027384D01*
X029079Y027591D02*
X029276D01*
Y027276D02*
Y027591D01*
X029079Y026409D02*
X029276D01*
Y026724*
X014984Y020946D02*
Y021654D01*
X013016Y020946D02*
Y021654D01*
X014984*
X013016Y020946D02*
X014984D01*
X028053Y022275D02*
X032147D01*
Y022078D02*
Y023889D01*
X028053D02*
X032147D01*
X028053Y022078D02*
Y023889D01*
Y022078D02*
X032147D01*
X010200Y059221D02*
Y059650D01*
Y060150D02*
Y060579D01*
X013200*
Y059221D02*
Y060579D01*
X010200Y059221D02*
X013200D01*
X013371D02*
Y059650D01*
Y060150D02*
Y060579D01*
X016371*
Y059221D02*
Y060579D01*
X013371Y059221D02*
X016371D01*
X016543D02*
Y059650D01*
Y060150D02*
Y060579D01*
X019543*
Y059221D02*
Y060579D01*
X016543Y059221D02*
X019543D01*
X019714D02*
Y059650D01*
Y060150D02*
Y060579D01*
X022714*
Y059221D02*
Y060579D01*
X019714Y059221D02*
X022714D01*
X022886D02*
Y059650D01*
Y060150D02*
Y060579D01*
X025886*
Y059221D02*
Y060579D01*
X022886Y059221D02*
X025886D01*
X026057D02*
Y059650D01*
Y060150D02*
Y060579D01*
X029057*
Y059221D02*
Y060579D01*
X026057Y059221D02*
X029057D01*
X029229D02*
Y059650D01*
Y060150D02*
Y060579D01*
X032229*
Y059221D02*
Y060579D01*
X029229Y059221D02*
X032229D01*
X032400D02*
Y059650D01*
Y060150D02*
Y060579D01*
X035400*
Y059221D02*
Y060579D01*
X032400Y059221D02*
X035400D01*
G54D53*
X014533Y051450D02*
D01*
X014532Y051453*
X014532Y051456*
X014531Y051460*
X014531Y051463*
X014530Y051466*
X014528Y051469*
X014527Y051473*
X014525Y051475*
X014523Y051478*
X014521Y051481*
X014519Y051484*
X014516Y051486*
X014514Y051488*
X014511Y051490*
X014508Y051492*
X014505Y051494*
X014502Y051495*
X014499Y051496*
X014495Y051497*
X014492Y051498*
X014489Y051498*
X014485Y051498*
X014482*
X014478Y051498*
X014475Y051498*
X014472Y051497*
X014468Y051496*
X014465Y051495*
X014462Y051494*
X014459Y051492*
X014456Y051490*
X014453Y051488*
X014451Y051486*
X014448Y051484*
X014446Y051481*
X014444Y051478*
X014442Y051475*
X014440Y051473*
X014439Y051469*
X014437Y051466*
X014436Y051463*
X014436Y051460*
X014435Y051456*
X014435Y051453*
X014435Y051450*
X014435Y051446*
X014435Y051443*
X014436Y051439*
X014436Y051436*
X014437Y051433*
X014439Y051430*
X014440Y051426*
X014442Y051424*
X014444Y051421*
X014446Y051418*
X014448Y051415*
X014451Y051413*
X014453Y051411*
X014456Y051409*
X014459Y051407*
X014462Y051405*
X014465Y051404*
X014468Y051403*
X014472Y051402*
X014475Y051401*
X014478Y051401*
X014482Y051401*
X014485*
X014489Y051401*
X014492Y051401*
X014495Y051402*
X014499Y051403*
X014502Y051404*
X014505Y051405*
X014508Y051407*
X014511Y051409*
X014514Y051411*
X014516Y051413*
X014519Y051415*
X014521Y051418*
X014523Y051421*
X014525Y051424*
X014527Y051426*
X014528Y051430*
X014530Y051433*
X014531Y051436*
X014531Y051439*
X014532Y051443*
X014532Y051446*
X014533Y051450*
Y054000D02*
D01*
X014532Y054003*
X014532Y054006*
X014531Y054010*
X014531Y054013*
X014530Y054016*
X014528Y054019*
X014527Y054023*
X014525Y054025*
X014523Y054028*
X014521Y054031*
X014519Y054034*
X014516Y054036*
X014514Y054038*
X014511Y054040*
X014508Y054042*
X014505Y054044*
X014502Y054045*
X014499Y054046*
X014495Y054047*
X014492Y054048*
X014489Y054048*
X014485Y054048*
X014482*
X014478Y054048*
X014475Y054048*
X014472Y054047*
X014468Y054046*
X014465Y054045*
X014462Y054044*
X014459Y054042*
X014456Y054040*
X014453Y054038*
X014451Y054036*
X014448Y054034*
X014446Y054031*
X014444Y054028*
X014442Y054025*
X014440Y054023*
X014439Y054019*
X014437Y054016*
X014436Y054013*
X014436Y054010*
X014435Y054006*
X014435Y054003*
X014435Y054000*
X014435Y053996*
X014435Y053993*
X014436Y053989*
X014436Y053986*
X014437Y053983*
X014439Y053980*
X014440Y053976*
X014442Y053974*
X014444Y053971*
X014446Y053968*
X014448Y053965*
X014451Y053963*
X014453Y053961*
X014456Y053959*
X014459Y053957*
X014462Y053955*
X014465Y053954*
X014468Y053953*
X014472Y053952*
X014475Y053951*
X014478Y053951*
X014482Y053951*
X014485*
X014489Y053951*
X014492Y053951*
X014495Y053952*
X014499Y053953*
X014502Y053954*
X014505Y053955*
X014508Y053957*
X014511Y053959*
X014514Y053961*
X014516Y053963*
X014519Y053965*
X014521Y053968*
X014523Y053971*
X014525Y053974*
X014527Y053976*
X014528Y053980*
X014530Y053983*
X014531Y053986*
X014531Y053989*
X014532Y053993*
X014532Y053996*
X014533Y054000*
X018723D02*
D01*
X018722Y054003*
X018722Y054006*
X018721Y054010*
X018721Y054013*
X018720Y054016*
X018718Y054019*
X018717Y054023*
X018715Y054025*
X018713Y054028*
X018711Y054031*
X018709Y054034*
X018706Y054036*
X018704Y054038*
X018701Y054040*
X018698Y054042*
X018695Y054044*
X018692Y054045*
X018689Y054046*
X018685Y054047*
X018682Y054048*
X018679Y054048*
X018675Y054048*
X018672*
X018668Y054048*
X018665Y054048*
X018662Y054047*
X018658Y054046*
X018655Y054045*
X018652Y054044*
X018649Y054042*
X018646Y054040*
X018643Y054038*
X018641Y054036*
X018638Y054034*
X018636Y054031*
X018634Y054028*
X018632Y054025*
X018630Y054023*
X018629Y054019*
X018627Y054016*
X018626Y054013*
X018626Y054010*
X018625Y054006*
X018625Y054003*
X018625Y054000*
X018625Y053996*
X018625Y053993*
X018626Y053989*
X018626Y053986*
X018627Y053983*
X018629Y053980*
X018630Y053976*
X018632Y053974*
X018634Y053971*
X018636Y053968*
X018638Y053965*
X018641Y053963*
X018643Y053961*
X018646Y053959*
X018649Y053957*
X018652Y053955*
X018655Y053954*
X018658Y053953*
X018662Y053952*
X018665Y053951*
X018668Y053951*
X018672Y053951*
X018675*
X018679Y053951*
X018682Y053951*
X018685Y053952*
X018689Y053953*
X018692Y053954*
X018695Y053955*
X018698Y053957*
X018701Y053959*
X018704Y053961*
X018706Y053963*
X018709Y053965*
X018711Y053968*
X018713Y053971*
X018715Y053974*
X018717Y053976*
X018718Y053980*
X018720Y053983*
X018721Y053986*
X018721Y053989*
X018722Y053993*
X018722Y053996*
X018723Y054000*
X022914D02*
D01*
X022913Y054003*
X022913Y054006*
X022912Y054010*
X022912Y054013*
X022911Y054016*
X022909Y054019*
X022908Y054023*
X022906Y054025*
X022904Y054028*
X022902Y054031*
X022900Y054034*
X022897Y054036*
X022895Y054038*
X022892Y054040*
X022889Y054042*
X022886Y054044*
X022883Y054045*
X022880Y054046*
X022876Y054047*
X022873Y054048*
X022870Y054048*
X022866Y054048*
X022863*
X022859Y054048*
X022856Y054048*
X022853Y054047*
X022849Y054046*
X022846Y054045*
X022843Y054044*
X022840Y054042*
X022837Y054040*
X022834Y054038*
X022832Y054036*
X022829Y054034*
X022827Y054031*
X022825Y054028*
X022823Y054025*
X022821Y054023*
X022820Y054019*
X022818Y054016*
X022817Y054013*
X022817Y054010*
X022816Y054006*
X022816Y054003*
X022816Y054000*
X022816Y053996*
X022816Y053993*
X022817Y053989*
X022817Y053986*
X022818Y053983*
X022820Y053980*
X022821Y053976*
X022823Y053974*
X022825Y053971*
X022827Y053968*
X022829Y053965*
X022832Y053963*
X022834Y053961*
X022837Y053959*
X022840Y053957*
X022843Y053955*
X022846Y053954*
X022849Y053953*
X022853Y053952*
X022856Y053951*
X022859Y053951*
X022863Y053951*
X022866*
X022870Y053951*
X022873Y053951*
X022876Y053952*
X022880Y053953*
X022883Y053954*
X022886Y053955*
X022889Y053957*
X022892Y053959*
X022895Y053961*
X022897Y053963*
X022900Y053965*
X022902Y053968*
X022904Y053971*
X022906Y053974*
X022908Y053976*
X022909Y053980*
X022911Y053983*
X022912Y053986*
X022912Y053989*
X022913Y053993*
X022913Y053996*
X022914Y054000*
X022784Y053831D02*
D01*
X022783Y053834*
X022783Y053837*
X022782Y053841*
X022782Y053844*
X022781Y053847*
X022779Y053850*
X022778Y053854*
X022776Y053856*
X022774Y053859*
X022772Y053862*
X022770Y053865*
X022767Y053867*
X022765Y053869*
X022762Y053871*
X022759Y053873*
X022756Y053875*
X022753Y053876*
X022750Y053877*
X022746Y053878*
X022743Y053879*
X022740Y053879*
X022736Y053879*
X022733*
X022729Y053879*
X022726Y053879*
X022723Y053878*
X022719Y053877*
X022716Y053876*
X022713Y053875*
X022710Y053873*
X022707Y053871*
X022704Y053869*
X022702Y053867*
X022699Y053865*
X022697Y053862*
X022695Y053859*
X022693Y053856*
X022691Y053854*
X022690Y053850*
X022688Y053847*
X022687Y053844*
X022687Y053841*
X022686Y053837*
X022686Y053834*
X022686Y053831*
X022686Y053827*
X022686Y053824*
X022687Y053820*
X022687Y053817*
X022688Y053814*
X022690Y053811*
X022691Y053807*
X022693Y053805*
X022695Y053802*
X022697Y053799*
X022699Y053796*
X022702Y053794*
X022704Y053792*
X022707Y053790*
X022710Y053788*
X022713Y053786*
X022716Y053785*
X022719Y053784*
X022723Y053783*
X022726Y053782*
X022729Y053782*
X022733Y053782*
X022736*
X022740Y053782*
X022743Y053782*
X022746Y053783*
X022750Y053784*
X022753Y053785*
X022756Y053786*
X022759Y053788*
X022762Y053790*
X022765Y053792*
X022767Y053794*
X022770Y053796*
X022772Y053799*
X022774Y053802*
X022776Y053805*
X022778Y053807*
X022779Y053811*
X022781Y053814*
X022782Y053817*
X022782Y053820*
X022783Y053824*
X022783Y053827*
X022784Y053831*
X026975D02*
D01*
X026974Y053834*
X026974Y053837*
X026973Y053841*
X026973Y053844*
X026972Y053847*
X026970Y053850*
X026969Y053854*
X026967Y053856*
X026965Y053859*
X026963Y053862*
X026961Y053865*
X026958Y053867*
X026956Y053869*
X026953Y053871*
X026950Y053873*
X026947Y053875*
X026944Y053876*
X026941Y053877*
X026937Y053878*
X026934Y053879*
X026931Y053879*
X026927Y053879*
X026924*
X026920Y053879*
X026917Y053879*
X026914Y053878*
X026910Y053877*
X026907Y053876*
X026904Y053875*
X026901Y053873*
X026898Y053871*
X026895Y053869*
X026893Y053867*
X026890Y053865*
X026888Y053862*
X026886Y053859*
X026884Y053856*
X026882Y053854*
X026881Y053850*
X026879Y053847*
X026878Y053844*
X026878Y053841*
X026877Y053837*
X026877Y053834*
X026877Y053831*
X026877Y053827*
X026877Y053824*
X026878Y053820*
X026878Y053817*
X026879Y053814*
X026881Y053811*
X026882Y053807*
X026884Y053805*
X026886Y053802*
X026888Y053799*
X026890Y053796*
X026893Y053794*
X026895Y053792*
X026898Y053790*
X026901Y053788*
X026904Y053786*
X026907Y053785*
X026910Y053784*
X026914Y053783*
X026917Y053782*
X026920Y053782*
X026924Y053782*
X026927*
X026931Y053782*
X026934Y053782*
X026937Y053783*
X026941Y053784*
X026944Y053785*
X026947Y053786*
X026950Y053788*
X026953Y053790*
X026956Y053792*
X026958Y053794*
X026961Y053796*
X026963Y053799*
X026965Y053802*
X026967Y053805*
X026969Y053807*
X026970Y053811*
X026972Y053814*
X026973Y053817*
X026973Y053820*
X026974Y053824*
X026974Y053827*
X026975Y053831*
X031166D02*
D01*
X031165Y053834*
X031165Y053837*
X031164Y053841*
X031164Y053844*
X031163Y053847*
X031161Y053850*
X031160Y053854*
X031158Y053856*
X031156Y053859*
X031154Y053862*
X031152Y053865*
X031149Y053867*
X031147Y053869*
X031144Y053871*
X031141Y053873*
X031138Y053875*
X031135Y053876*
X031132Y053877*
X031128Y053878*
X031125Y053879*
X031122Y053879*
X031118Y053879*
X031115*
X031111Y053879*
X031108Y053879*
X031105Y053878*
X031101Y053877*
X031098Y053876*
X031095Y053875*
X031092Y053873*
X031089Y053871*
X031086Y053869*
X031084Y053867*
X031081Y053865*
X031079Y053862*
X031077Y053859*
X031075Y053856*
X031073Y053854*
X031072Y053850*
X031070Y053847*
X031069Y053844*
X031069Y053841*
X031068Y053837*
X031068Y053834*
X031068Y053831*
X031068Y053827*
X031068Y053824*
X031069Y053820*
X031069Y053817*
X031070Y053814*
X031072Y053811*
X031073Y053807*
X031075Y053805*
X031077Y053802*
X031079Y053799*
X031081Y053796*
X031084Y053794*
X031086Y053792*
X031089Y053790*
X031092Y053788*
X031095Y053786*
X031098Y053785*
X031101Y053784*
X031105Y053783*
X031108Y053782*
X031111Y053782*
X031115Y053782*
X031118*
X031122Y053782*
X031125Y053782*
X031128Y053783*
X031132Y053784*
X031135Y053785*
X031138Y053786*
X031141Y053788*
X031144Y053790*
X031147Y053792*
X031149Y053794*
X031152Y053796*
X031154Y053799*
X031156Y053802*
X031158Y053805*
X031160Y053807*
X031161Y053811*
X031163Y053814*
X031164Y053817*
X031164Y053820*
X031165Y053824*
X031165Y053827*
X031166Y053831*
Y051550D02*
D01*
X031165Y051553*
X031165Y051556*
X031164Y051560*
X031164Y051563*
X031163Y051566*
X031161Y051569*
X031160Y051573*
X031158Y051575*
X031156Y051578*
X031154Y051581*
X031152Y051584*
X031149Y051586*
X031147Y051588*
X031144Y051590*
X031141Y051592*
X031138Y051594*
X031135Y051595*
X031132Y051596*
X031128Y051597*
X031125Y051598*
X031122Y051598*
X031118Y051598*
X031115*
X031111Y051598*
X031108Y051598*
X031105Y051597*
X031101Y051596*
X031098Y051595*
X031095Y051594*
X031092Y051592*
X031089Y051590*
X031086Y051588*
X031084Y051586*
X031081Y051584*
X031079Y051581*
X031077Y051578*
X031075Y051575*
X031073Y051573*
X031072Y051569*
X031070Y051566*
X031069Y051563*
X031069Y051560*
X031068Y051556*
X031068Y051553*
X031068Y051550*
X031068Y051546*
X031068Y051543*
X031069Y051539*
X031069Y051536*
X031070Y051533*
X031072Y051530*
X031073Y051526*
X031075Y051524*
X031077Y051521*
X031079Y051518*
X031081Y051515*
X031084Y051513*
X031086Y051511*
X031089Y051509*
X031092Y051507*
X031095Y051505*
X031098Y051504*
X031101Y051503*
X031105Y051502*
X031108Y051501*
X031111Y051501*
X031115Y051501*
X031118*
X031122Y051501*
X031125Y051501*
X031128Y051502*
X031132Y051503*
X031135Y051504*
X031138Y051505*
X031141Y051507*
X031144Y051509*
X031147Y051511*
X031149Y051513*
X031152Y051515*
X031154Y051518*
X031156Y051521*
X031158Y051524*
X031160Y051526*
X031161Y051530*
X031163Y051533*
X031164Y051536*
X031164Y051539*
X031165Y051543*
X031165Y051546*
X031166Y051550*
X015053Y033045D02*
D01*
X015052Y033048*
X015052Y033051*
X015051Y033055*
X015051Y033058*
X015050Y033061*
X015048Y033064*
X015047Y033068*
X015045Y033070*
X015043Y033073*
X015041Y033076*
X015039Y033079*
X015036Y033081*
X015034Y033083*
X015031Y033085*
X015028Y033087*
X015025Y033089*
X015022Y033090*
X015019Y033091*
X015015Y033092*
X015012Y033093*
X015009Y033093*
X015005Y033093*
X015002*
X014998Y033093*
X014995Y033093*
X014992Y033092*
X014988Y033091*
X014985Y033090*
X014982Y033089*
X014979Y033087*
X014976Y033085*
X014973Y033083*
X014971Y033081*
X014968Y033079*
X014966Y033076*
X014964Y033073*
X014962Y033070*
X014960Y033068*
X014959Y033064*
X014957Y033061*
X014956Y033058*
X014956Y033055*
X014955Y033051*
X014955Y033048*
X014955Y033045*
X014955Y033041*
X014955Y033038*
X014956Y033034*
X014956Y033031*
X014957Y033028*
X014959Y033025*
X014960Y033021*
X014962Y033019*
X014964Y033016*
X014966Y033013*
X014968Y033010*
X014971Y033008*
X014973Y033006*
X014976Y033004*
X014979Y033002*
X014982Y033000*
X014985Y032999*
X014988Y032998*
X014992Y032997*
X014995Y032996*
X014998Y032996*
X015002Y032996*
X015005*
X015009Y032996*
X015012Y032996*
X015015Y032997*
X015019Y032998*
X015022Y032999*
X015025Y033000*
X015028Y033002*
X015031Y033004*
X015034Y033006*
X015036Y033008*
X015039Y033010*
X015041Y033013*
X015043Y033016*
X015045Y033019*
X015047Y033021*
X015048Y033025*
X015050Y033028*
X015051Y033031*
X015051Y033034*
X015052Y033038*
X015052Y033041*
X015053Y033045*
X014533Y063800D02*
D01*
X014532Y063803*
X014532Y063806*
X014531Y063810*
X014531Y063813*
X014530Y063816*
X014528Y063819*
X014527Y063823*
X014525Y063825*
X014523Y063828*
X014521Y063831*
X014519Y063834*
X014516Y063836*
X014514Y063838*
X014511Y063840*
X014508Y063842*
X014505Y063844*
X014502Y063845*
X014499Y063846*
X014495Y063847*
X014492Y063848*
X014489Y063848*
X014485Y063848*
X014482*
X014478Y063848*
X014475Y063848*
X014472Y063847*
X014468Y063846*
X014465Y063845*
X014462Y063844*
X014459Y063842*
X014456Y063840*
X014453Y063838*
X014451Y063836*
X014448Y063834*
X014446Y063831*
X014444Y063828*
X014442Y063825*
X014440Y063823*
X014439Y063819*
X014437Y063816*
X014436Y063813*
X014436Y063810*
X014435Y063806*
X014435Y063803*
X014435Y063800*
X014435Y063796*
X014435Y063793*
X014436Y063789*
X014436Y063786*
X014437Y063783*
X014439Y063780*
X014440Y063776*
X014442Y063774*
X014444Y063771*
X014446Y063768*
X014448Y063765*
X014451Y063763*
X014453Y063761*
X014456Y063759*
X014459Y063757*
X014462Y063755*
X014465Y063754*
X014468Y063753*
X014472Y063752*
X014475Y063751*
X014478Y063751*
X014482Y063751*
X014485*
X014489Y063751*
X014492Y063751*
X014495Y063752*
X014499Y063753*
X014502Y063754*
X014505Y063755*
X014508Y063757*
X014511Y063759*
X014514Y063761*
X014516Y063763*
X014519Y063765*
X014521Y063768*
X014523Y063771*
X014525Y063774*
X014527Y063776*
X014528Y063780*
X014530Y063783*
X014531Y063786*
X014531Y063789*
X014532Y063793*
X014532Y063796*
X014533Y063800*
Y066200D02*
D01*
X014532Y066203*
X014532Y066206*
X014531Y066210*
X014531Y066213*
X014530Y066216*
X014528Y066219*
X014527Y066223*
X014525Y066225*
X014523Y066228*
X014521Y066231*
X014519Y066234*
X014516Y066236*
X014514Y066238*
X014511Y066240*
X014508Y066242*
X014505Y066244*
X014502Y066245*
X014499Y066246*
X014495Y066247*
X014492Y066248*
X014489Y066248*
X014485Y066248*
X014482*
X014478Y066248*
X014475Y066248*
X014472Y066247*
X014468Y066246*
X014465Y066245*
X014462Y066244*
X014459Y066242*
X014456Y066240*
X014453Y066238*
X014451Y066236*
X014448Y066234*
X014446Y066231*
X014444Y066228*
X014442Y066225*
X014440Y066223*
X014439Y066219*
X014437Y066216*
X014436Y066213*
X014436Y066210*
X014435Y066206*
X014435Y066203*
X014435Y066200*
X014435Y066196*
X014435Y066193*
X014436Y066189*
X014436Y066186*
X014437Y066183*
X014439Y066180*
X014440Y066176*
X014442Y066174*
X014444Y066171*
X014446Y066168*
X014448Y066165*
X014451Y066163*
X014453Y066161*
X014456Y066159*
X014459Y066157*
X014462Y066155*
X014465Y066154*
X014468Y066153*
X014472Y066152*
X014475Y066151*
X014478Y066151*
X014482Y066151*
X014485*
X014489Y066151*
X014492Y066151*
X014495Y066152*
X014499Y066153*
X014502Y066154*
X014505Y066155*
X014508Y066157*
X014511Y066159*
X014514Y066161*
X014516Y066163*
X014519Y066165*
X014521Y066168*
X014523Y066171*
X014525Y066174*
X014527Y066176*
X014528Y066180*
X014530Y066183*
X014531Y066186*
X014531Y066189*
X014532Y066193*
X014532Y066196*
X014533Y066200*
X018723D02*
D01*
X018722Y066203*
X018722Y066206*
X018721Y066210*
X018721Y066213*
X018720Y066216*
X018718Y066219*
X018717Y066223*
X018715Y066225*
X018713Y066228*
X018711Y066231*
X018709Y066234*
X018706Y066236*
X018704Y066238*
X018701Y066240*
X018698Y066242*
X018695Y066244*
X018692Y066245*
X018689Y066246*
X018685Y066247*
X018682Y066248*
X018679Y066248*
X018675Y066248*
X018672*
X018668Y066248*
X018665Y066248*
X018662Y066247*
X018658Y066246*
X018655Y066245*
X018652Y066244*
X018649Y066242*
X018646Y066240*
X018643Y066238*
X018641Y066236*
X018638Y066234*
X018636Y066231*
X018634Y066228*
X018632Y066225*
X018630Y066223*
X018629Y066219*
X018627Y066216*
X018626Y066213*
X018626Y066210*
X018625Y066206*
X018625Y066203*
X018625Y066200*
X018625Y066196*
X018625Y066193*
X018626Y066189*
X018626Y066186*
X018627Y066183*
X018629Y066180*
X018630Y066176*
X018632Y066174*
X018634Y066171*
X018636Y066168*
X018638Y066165*
X018641Y066163*
X018643Y066161*
X018646Y066159*
X018649Y066157*
X018652Y066155*
X018655Y066154*
X018658Y066153*
X018662Y066152*
X018665Y066151*
X018668Y066151*
X018672Y066151*
X018675*
X018679Y066151*
X018682Y066151*
X018685Y066152*
X018689Y066153*
X018692Y066154*
X018695Y066155*
X018698Y066157*
X018701Y066159*
X018704Y066161*
X018706Y066163*
X018709Y066165*
X018711Y066168*
X018713Y066171*
X018715Y066174*
X018717Y066176*
X018718Y066180*
X018720Y066183*
X018721Y066186*
X018721Y066189*
X018722Y066193*
X018722Y066196*
X018723Y066200*
X022914D02*
D01*
X022913Y066203*
X022913Y066206*
X022912Y066210*
X022912Y066213*
X022911Y066216*
X022909Y066219*
X022908Y066223*
X022906Y066225*
X022904Y066228*
X022902Y066231*
X022900Y066234*
X022897Y066236*
X022895Y066238*
X022892Y066240*
X022889Y066242*
X022886Y066244*
X022883Y066245*
X022880Y066246*
X022876Y066247*
X022873Y066248*
X022870Y066248*
X022866Y066248*
X022863*
X022859Y066248*
X022856Y066248*
X022853Y066247*
X022849Y066246*
X022846Y066245*
X022843Y066244*
X022840Y066242*
X022837Y066240*
X022834Y066238*
X022832Y066236*
X022829Y066234*
X022827Y066231*
X022825Y066228*
X022823Y066225*
X022821Y066223*
X022820Y066219*
X022818Y066216*
X022817Y066213*
X022817Y066210*
X022816Y066206*
X022816Y066203*
X022816Y066200*
X022816Y066196*
X022816Y066193*
X022817Y066189*
X022817Y066186*
X022818Y066183*
X022820Y066180*
X022821Y066176*
X022823Y066174*
X022825Y066171*
X022827Y066168*
X022829Y066165*
X022832Y066163*
X022834Y066161*
X022837Y066159*
X022840Y066157*
X022843Y066155*
X022846Y066154*
X022849Y066153*
X022853Y066152*
X022856Y066151*
X022859Y066151*
X022863Y066151*
X022866*
X022870Y066151*
X022873Y066151*
X022876Y066152*
X022880Y066153*
X022883Y066154*
X022886Y066155*
X022889Y066157*
X022892Y066159*
X022895Y066161*
X022897Y066163*
X022900Y066165*
X022902Y066168*
X022904Y066171*
X022906Y066174*
X022908Y066176*
X022909Y066180*
X022911Y066183*
X022912Y066186*
X022912Y066189*
X022913Y066193*
X022913Y066196*
X022914Y066200*
X022784Y066031D02*
D01*
X022783Y066034*
X022783Y066037*
X022782Y066041*
X022782Y066044*
X022781Y066047*
X022779Y066050*
X022778Y066054*
X022776Y066056*
X022774Y066059*
X022772Y066062*
X022770Y066065*
X022767Y066067*
X022765Y066069*
X022762Y066071*
X022759Y066073*
X022756Y066075*
X022753Y066076*
X022750Y066077*
X022746Y066078*
X022743Y066079*
X022740Y066079*
X022736Y066079*
X022733*
X022729Y066079*
X022726Y066079*
X022723Y066078*
X022719Y066077*
X022716Y066076*
X022713Y066075*
X022710Y066073*
X022707Y066071*
X022704Y066069*
X022702Y066067*
X022699Y066065*
X022697Y066062*
X022695Y066059*
X022693Y066056*
X022691Y066054*
X022690Y066050*
X022688Y066047*
X022687Y066044*
X022687Y066041*
X022686Y066037*
X022686Y066034*
X022686Y066031*
X022686Y066027*
X022686Y066024*
X022687Y066020*
X022687Y066017*
X022688Y066014*
X022690Y066011*
X022691Y066007*
X022693Y066005*
X022695Y066002*
X022697Y065999*
X022699Y065996*
X022702Y065994*
X022704Y065992*
X022707Y065990*
X022710Y065988*
X022713Y065986*
X022716Y065985*
X022719Y065984*
X022723Y065983*
X022726Y065982*
X022729Y065982*
X022733Y065982*
X022736*
X022740Y065982*
X022743Y065982*
X022746Y065983*
X022750Y065984*
X022753Y065985*
X022756Y065986*
X022759Y065988*
X022762Y065990*
X022765Y065992*
X022767Y065994*
X022770Y065996*
X022772Y065999*
X022774Y066002*
X022776Y066005*
X022778Y066007*
X022779Y066011*
X022781Y066014*
X022782Y066017*
X022782Y066020*
X022783Y066024*
X022783Y066027*
X022784Y066031*
X026975D02*
D01*
X026974Y066034*
X026974Y066037*
X026973Y066041*
X026973Y066044*
X026972Y066047*
X026970Y066050*
X026969Y066054*
X026967Y066056*
X026965Y066059*
X026963Y066062*
X026961Y066065*
X026958Y066067*
X026956Y066069*
X026953Y066071*
X026950Y066073*
X026947Y066075*
X026944Y066076*
X026941Y066077*
X026937Y066078*
X026934Y066079*
X026931Y066079*
X026927Y066079*
X026924*
X026920Y066079*
X026917Y066079*
X026914Y066078*
X026910Y066077*
X026907Y066076*
X026904Y066075*
X026901Y066073*
X026898Y066071*
X026895Y066069*
X026893Y066067*
X026890Y066065*
X026888Y066062*
X026886Y066059*
X026884Y066056*
X026882Y066054*
X026881Y066050*
X026879Y066047*
X026878Y066044*
X026878Y066041*
X026877Y066037*
X026877Y066034*
X026877Y066031*
X026877Y066027*
X026877Y066024*
X026878Y066020*
X026878Y066017*
X026879Y066014*
X026881Y066011*
X026882Y066007*
X026884Y066005*
X026886Y066002*
X026888Y065999*
X026890Y065996*
X026893Y065994*
X026895Y065992*
X026898Y065990*
X026901Y065988*
X026904Y065986*
X026907Y065985*
X026910Y065984*
X026914Y065983*
X026917Y065982*
X026920Y065982*
X026924Y065982*
X026927*
X026931Y065982*
X026934Y065982*
X026937Y065983*
X026941Y065984*
X026944Y065985*
X026947Y065986*
X026950Y065988*
X026953Y065990*
X026956Y065992*
X026958Y065994*
X026961Y065996*
X026963Y065999*
X026965Y066002*
X026967Y066005*
X026969Y066007*
X026970Y066011*
X026972Y066014*
X026973Y066017*
X026973Y066020*
X026974Y066024*
X026974Y066027*
X026975Y066031*
X031166D02*
D01*
X031165Y066034*
X031165Y066037*
X031164Y066041*
X031164Y066044*
X031163Y066047*
X031161Y066050*
X031160Y066054*
X031158Y066056*
X031156Y066059*
X031154Y066062*
X031152Y066065*
X031149Y066067*
X031147Y066069*
X031144Y066071*
X031141Y066073*
X031138Y066075*
X031135Y066076*
X031132Y066077*
X031128Y066078*
X031125Y066079*
X031122Y066079*
X031118Y066079*
X031115*
X031111Y066079*
X031108Y066079*
X031105Y066078*
X031101Y066077*
X031098Y066076*
X031095Y066075*
X031092Y066073*
X031089Y066071*
X031086Y066069*
X031084Y066067*
X031081Y066065*
X031079Y066062*
X031077Y066059*
X031075Y066056*
X031073Y066054*
X031072Y066050*
X031070Y066047*
X031069Y066044*
X031069Y066041*
X031068Y066037*
X031068Y066034*
X031068Y066031*
X031068Y066027*
X031068Y066024*
X031069Y066020*
X031069Y066017*
X031070Y066014*
X031072Y066011*
X031073Y066007*
X031075Y066005*
X031077Y066002*
X031079Y065999*
X031081Y065996*
X031084Y065994*
X031086Y065992*
X031089Y065990*
X031092Y065988*
X031095Y065986*
X031098Y065985*
X031101Y065984*
X031105Y065983*
X031108Y065982*
X031111Y065982*
X031115Y065982*
X031118*
X031122Y065982*
X031125Y065982*
X031128Y065983*
X031132Y065984*
X031135Y065985*
X031138Y065986*
X031141Y065988*
X031144Y065990*
X031147Y065992*
X031149Y065994*
X031152Y065996*
X031154Y065999*
X031156Y066002*
X031158Y066005*
X031160Y066007*
X031161Y066011*
X031163Y066014*
X031164Y066017*
X031164Y066020*
X031165Y066024*
X031165Y066027*
X031166Y066031*
Y063631D02*
D01*
X031165Y063634*
X031165Y063637*
X031164Y063641*
X031164Y063644*
X031163Y063647*
X031161Y063650*
X031160Y063654*
X031158Y063656*
X031156Y063659*
X031154Y063662*
X031152Y063665*
X031149Y063667*
X031147Y063669*
X031144Y063671*
X031141Y063673*
X031138Y063675*
X031135Y063676*
X031132Y063677*
X031128Y063678*
X031125Y063679*
X031122Y063679*
X031118Y063679*
X031115*
X031111Y063679*
X031108Y063679*
X031105Y063678*
X031101Y063677*
X031098Y063676*
X031095Y063675*
X031092Y063673*
X031089Y063671*
X031086Y063669*
X031084Y063667*
X031081Y063665*
X031079Y063662*
X031077Y063659*
X031075Y063656*
X031073Y063654*
X031072Y063650*
X031070Y063647*
X031069Y063644*
X031069Y063641*
X031068Y063637*
X031068Y063634*
X031068Y063631*
X031068Y063627*
X031068Y063624*
X031069Y063620*
X031069Y063617*
X031070Y063614*
X031072Y063611*
X031073Y063607*
X031075Y063605*
X031077Y063602*
X031079Y063599*
X031081Y063596*
X031084Y063594*
X031086Y063592*
X031089Y063590*
X031092Y063588*
X031095Y063586*
X031098Y063585*
X031101Y063584*
X031105Y063583*
X031108Y063582*
X031111Y063582*
X031115Y063582*
X031118*
X031122Y063582*
X031125Y063582*
X031128Y063583*
X031132Y063584*
X031135Y063585*
X031138Y063586*
X031141Y063588*
X031144Y063590*
X031147Y063592*
X031149Y063594*
X031152Y063596*
X031154Y063599*
X031156Y063602*
X031158Y063605*
X031160Y063607*
X031161Y063611*
X031163Y063614*
X031164Y063617*
X031164Y063620*
X031165Y063624*
X031165Y063627*
X031166Y063631*
X025694Y025192D02*
D01*
X025693Y025195*
X025693Y025198*
X025692Y025202*
X025692Y025205*
X025691Y025208*
X025689Y025211*
X025688Y025215*
X025686Y025217*
X025684Y025220*
X025682Y025223*
X025680Y025226*
X025677Y025228*
X025675Y025230*
X025672Y025232*
X025669Y025234*
X025666Y025236*
X025663Y025237*
X025660Y025238*
X025656Y025239*
X025653Y025240*
X025650Y025240*
X025646Y025240*
X025643*
X025639Y025240*
X025636Y025240*
X025633Y025239*
X025629Y025238*
X025626Y025237*
X025623Y025236*
X025620Y025234*
X025617Y025232*
X025614Y025230*
X025612Y025228*
X025609Y025226*
X025607Y025223*
X025605Y025220*
X025603Y025217*
X025601Y025215*
X025600Y025211*
X025598Y025208*
X025597Y025205*
X025597Y025202*
X025596Y025198*
X025596Y025195*
X025596Y025192*
X025596Y025188*
X025596Y025185*
X025597Y025181*
X025597Y025178*
X025598Y025175*
X025600Y025172*
X025601Y025168*
X025603Y025166*
X025605Y025163*
X025607Y025160*
X025609Y025157*
X025612Y025155*
X025614Y025153*
X025617Y025151*
X025620Y025149*
X025623Y025147*
X025626Y025146*
X025629Y025145*
X025633Y025144*
X025636Y025143*
X025639Y025143*
X025643Y025143*
X025646*
X025650Y025143*
X025653Y025143*
X025656Y025144*
X025660Y025145*
X025663Y025146*
X025666Y025147*
X025669Y025149*
X025672Y025151*
X025675Y025153*
X025677Y025155*
X025680Y025157*
X025682Y025160*
X025684Y025163*
X025686Y025166*
X025688Y025168*
X025689Y025172*
X025691Y025175*
X025692Y025178*
X025692Y025181*
X025693Y025185*
X025693Y025188*
X025694Y025192*
X032665Y036055D02*
D01*
X032664Y036058*
X032664Y036061*
X032663Y036065*
X032663Y036068*
X032662Y036071*
X032660Y036074*
X032659Y036078*
X032657Y036080*
X032655Y036083*
X032653Y036086*
X032651Y036089*
X032648Y036091*
X032646Y036093*
X032643Y036095*
X032640Y036097*
X032637Y036099*
X032634Y036100*
X032631Y036101*
X032627Y036102*
X032624Y036103*
X032621Y036103*
X032617Y036103*
X032614*
X032610Y036103*
X032607Y036103*
X032604Y036102*
X032600Y036101*
X032597Y036100*
X032594Y036099*
X032591Y036097*
X032588Y036095*
X032585Y036093*
X032583Y036091*
X032580Y036089*
X032578Y036086*
X032576Y036083*
X032574Y036080*
X032572Y036078*
X032571Y036074*
X032569Y036071*
X032568Y036068*
X032568Y036065*
X032567Y036061*
X032567Y036058*
X032567Y036055*
X032567Y036051*
X032567Y036048*
X032568Y036044*
X032568Y036041*
X032569Y036038*
X032571Y036035*
X032572Y036031*
X032574Y036029*
X032576Y036026*
X032578Y036023*
X032580Y036020*
X032583Y036018*
X032585Y036016*
X032588Y036014*
X032591Y036012*
X032594Y036010*
X032597Y036009*
X032600Y036008*
X032604Y036007*
X032607Y036006*
X032610Y036006*
X032614Y036006*
X032617*
X032621Y036006*
X032624Y036006*
X032627Y036007*
X032631Y036008*
X032634Y036009*
X032637Y036010*
X032640Y036012*
X032643Y036014*
X032646Y036016*
X032648Y036018*
X032651Y036020*
X032653Y036023*
X032655Y036026*
X032657Y036029*
X032659Y036031*
X032660Y036035*
X032662Y036038*
X032663Y036041*
X032663Y036044*
X032664Y036048*
X032664Y036051*
X032665Y036055*
X019694Y026056D02*
D01*
X019693Y026059*
X019693Y026062*
X019692Y026066*
X019692Y026069*
X019691Y026072*
X019689Y026075*
X019688Y026079*
X019686Y026081*
X019684Y026084*
X019682Y026087*
X019680Y026090*
X019677Y026092*
X019675Y026094*
X019672Y026096*
X019669Y026098*
X019666Y026100*
X019663Y026101*
X019660Y026102*
X019656Y026103*
X019653Y026104*
X019650Y026104*
X019646Y026104*
X019643*
X019639Y026104*
X019636Y026104*
X019633Y026103*
X019629Y026102*
X019626Y026101*
X019623Y026100*
X019620Y026098*
X019617Y026096*
X019614Y026094*
X019612Y026092*
X019609Y026090*
X019607Y026087*
X019605Y026084*
X019603Y026081*
X019601Y026079*
X019600Y026075*
X019598Y026072*
X019597Y026069*
X019597Y026066*
X019596Y026062*
X019596Y026059*
X019596Y026056*
X019596Y026052*
X019596Y026049*
X019597Y026045*
X019597Y026042*
X019598Y026039*
X019600Y026036*
X019601Y026032*
X019603Y026030*
X019605Y026027*
X019607Y026024*
X019609Y026021*
X019612Y026019*
X019614Y026017*
X019617Y026015*
X019620Y026013*
X019623Y026011*
X019626Y026010*
X019629Y026009*
X019633Y026008*
X019636Y026007*
X019639Y026007*
X019643Y026007*
X019646*
X019650Y026007*
X019653Y026007*
X019656Y026008*
X019660Y026009*
X019663Y026010*
X019666Y026011*
X019669Y026013*
X019672Y026015*
X019675Y026017*
X019677Y026019*
X019680Y026021*
X019682Y026024*
X019684Y026027*
X019686Y026030*
X019688Y026032*
X019689Y026036*
X019691Y026039*
X019692Y026042*
X019692Y026045*
X019693Y026049*
X019693Y026052*
X019694Y026056*
X028675Y027709D02*
D01*
X028674Y027712*
X028674Y027715*
X028673Y027719*
X028673Y027722*
X028672Y027725*
X028670Y027728*
X028669Y027732*
X028667Y027734*
X028665Y027737*
X028663Y027740*
X028661Y027743*
X028658Y027745*
X028656Y027747*
X028653Y027749*
X028650Y027751*
X028647Y027753*
X028644Y027754*
X028641Y027755*
X028637Y027756*
X028634Y027757*
X028631Y027757*
X028627Y027757*
X028624*
X028620Y027757*
X028617Y027757*
X028614Y027756*
X028610Y027755*
X028607Y027754*
X028604Y027753*
X028601Y027751*
X028598Y027749*
X028595Y027747*
X028593Y027745*
X028590Y027743*
X028588Y027740*
X028586Y027737*
X028584Y027734*
X028582Y027732*
X028581Y027728*
X028579Y027725*
X028578Y027722*
X028578Y027719*
X028577Y027715*
X028577Y027712*
X028577Y027709*
X028577Y027705*
X028577Y027702*
X028578Y027698*
X028578Y027695*
X028579Y027692*
X028581Y027689*
X028582Y027685*
X028584Y027683*
X028586Y027680*
X028588Y027677*
X028590Y027674*
X028593Y027672*
X028595Y027670*
X028598Y027668*
X028601Y027666*
X028604Y027664*
X028607Y027663*
X028610Y027662*
X028614Y027661*
X028617Y027660*
X028620Y027660*
X028624Y027660*
X028627*
X028631Y027660*
X028634Y027660*
X028637Y027661*
X028641Y027662*
X028644Y027663*
X028647Y027664*
X028650Y027666*
X028653Y027668*
X028656Y027670*
X028658Y027672*
X028661Y027674*
X028663Y027677*
X028665Y027680*
X028667Y027683*
X028669Y027685*
X028670Y027689*
X028672Y027692*
X028673Y027695*
X028673Y027698*
X028674Y027702*
X028674Y027705*
X028675Y027709*
X012965Y020355D02*
D01*
X012964Y020358*
X012964Y020361*
X012963Y020365*
X012963Y020368*
X012962Y020371*
X012960Y020374*
X012959Y020378*
X012957Y020380*
X012955Y020383*
X012953Y020386*
X012951Y020389*
X012948Y020391*
X012946Y020393*
X012943Y020395*
X012940Y020397*
X012937Y020399*
X012934Y020400*
X012931Y020401*
X012927Y020402*
X012924Y020403*
X012921Y020403*
X012917Y020403*
X012914*
X012910Y020403*
X012907Y020403*
X012904Y020402*
X012900Y020401*
X012897Y020400*
X012894Y020399*
X012891Y020397*
X012888Y020395*
X012885Y020393*
X012883Y020391*
X012880Y020389*
X012878Y020386*
X012876Y020383*
X012874Y020380*
X012872Y020378*
X012871Y020374*
X012869Y020371*
X012868Y020368*
X012868Y020365*
X012867Y020361*
X012867Y020358*
X012867Y020355*
X012867Y020351*
X012867Y020348*
X012868Y020344*
X012868Y020341*
X012869Y020338*
X012871Y020335*
X012872Y020331*
X012874Y020329*
X012876Y020326*
X012878Y020323*
X012880Y020320*
X012883Y020318*
X012885Y020316*
X012888Y020314*
X012891Y020312*
X012894Y020310*
X012897Y020309*
X012900Y020308*
X012904Y020307*
X012907Y020306*
X012910Y020306*
X012914Y020306*
X012917*
X012921Y020306*
X012924Y020306*
X012927Y020307*
X012931Y020308*
X012934Y020309*
X012937Y020310*
X012940Y020312*
X012943Y020314*
X012946Y020316*
X012948Y020318*
X012951Y020320*
X012953Y020323*
X012955Y020326*
X012957Y020329*
X012959Y020331*
X012960Y020335*
X012962Y020338*
X012963Y020341*
X012963Y020344*
X012964Y020348*
X012964Y020351*
X012965Y020355*
X031941Y023633D02*
D01*
X031940Y023636*
X031940Y023639*
X031939Y023643*
X031939Y023646*
X031938Y023649*
X031936Y023652*
X031935Y023656*
X031933Y023658*
X031931Y023661*
X031929Y023664*
X031927Y023667*
X031924Y023669*
X031922Y023671*
X031919Y023673*
X031916Y023675*
X031913Y023677*
X031910Y023678*
X031907Y023679*
X031903Y023680*
X031900Y023681*
X031897Y023681*
X031893Y023681*
X031890*
X031886Y023681*
X031883Y023681*
X031880Y023680*
X031876Y023679*
X031873Y023678*
X031870Y023677*
X031867Y023675*
X031864Y023673*
X031861Y023671*
X031859Y023669*
X031856Y023667*
X031854Y023664*
X031852Y023661*
X031850Y023658*
X031848Y023656*
X031847Y023652*
X031845Y023649*
X031844Y023646*
X031844Y023643*
X031843Y023639*
X031843Y023636*
X031843Y023633*
X031843Y023629*
X031843Y023626*
X031844Y023622*
X031844Y023619*
X031845Y023616*
X031847Y023613*
X031848Y023609*
X031850Y023607*
X031852Y023604*
X031854Y023601*
X031856Y023598*
X031859Y023596*
X031861Y023594*
X031864Y023592*
X031867Y023590*
X031870Y023588*
X031873Y023587*
X031876Y023586*
X031880Y023585*
X031883Y023584*
X031886Y023584*
X031890Y023584*
X031893*
X031897Y023584*
X031900Y023584*
X031903Y023585*
X031907Y023586*
X031910Y023587*
X031913Y023588*
X031916Y023590*
X031919Y023592*
X031922Y023594*
X031924Y023596*
X031927Y023598*
X031929Y023601*
X031931Y023604*
X031933Y023607*
X031935Y023609*
X031936Y023613*
X031938Y023616*
X031939Y023619*
X031939Y023622*
X031940Y023626*
X031940Y023629*
X031941Y023633*
G54D54*
X024857Y025861D02*
D01*
X024856Y025869*
X024855Y025877*
X024854Y025885*
X024852Y025893*
X024849Y025901*
X024846Y025908*
X024843Y025916*
X024839Y025923*
X024834Y025930*
X024829Y025936*
X024823Y025942*
X024817Y025948*
X024811Y025953*
X024804Y025958*
X024798Y025963*
X024790Y025967*
X024783Y025970*
X024775Y025973*
X024767Y025975*
X024759Y025977*
X024751Y025978*
X024743Y025978*
X024734*
X024726Y025978*
X024718Y025977*
X024710Y025975*
X024702Y025973*
X024694Y025970*
X024687Y025967*
X024680Y025963*
X024673Y025958*
X024666Y025953*
X024660Y025948*
X024654Y025942*
X024648Y025936*
X024643Y025930*
X024638Y025923*
X024634Y025916*
X024631Y025908*
X024628Y025901*
X024625Y025893*
X024623Y025885*
X024622Y025877*
X024621Y025869*
X024621Y025861*
X024621Y025852*
X024622Y025844*
X024623Y025836*
X024625Y025828*
X024628Y025820*
X024631Y025813*
X024634Y025805*
X024638Y025798*
X024643Y025791*
X024648Y025785*
X024654Y025779*
X024660Y025773*
X024666Y025768*
X024673Y025763*
X024680Y025758*
X024687Y025754*
X024694Y025751*
X024702Y025748*
X024710Y025746*
X024718Y025744*
X024726Y025743*
X024734Y025743*
X024743*
X024751Y025743*
X024759Y025744*
X024767Y025746*
X024775Y025748*
X024783Y025751*
X024790Y025754*
X024798Y025758*
X024804Y025763*
X024811Y025768*
X024817Y025773*
X024823Y025779*
X024829Y025785*
X024834Y025791*
X024839Y025798*
X024843Y025805*
X024846Y025813*
X024849Y025820*
X024852Y025828*
X024854Y025836*
X024855Y025844*
X024856Y025852*
X024857Y025861*
G54D55*
X035250Y043250D02*
Y042983D01*
X035117Y042850*
X034983Y042983*
Y043250*
Y043050*
X035250*
X034450Y043250D02*
Y042850D01*
X034250*
X034184Y042917*
Y043050*
X034250Y043117*
X034450*
X034317D02*
X034184Y043250D01*
X033784Y042917D02*
X033850Y042850D01*
X033984*
X034050Y042917*
Y042983*
X033984Y043050*
X033850*
X033784Y043117*
Y043183*
X033850Y043250*
X033984*
X034050Y043183*
X033451Y043250D02*
Y042850D01*
X033651Y043050*
X033384*
X033251Y042917D02*
X033184Y042850D01*
X033051*
X032984Y042917*
Y042983*
X033051Y043050*
X032984Y043117*
Y043183*
X033051Y043250*
X033184*
X033251Y043183*
Y043117*
X033184Y043050*
X033251Y042983*
Y042917*
X033184Y043050D02*
X033051D01*
X032584Y042850D02*
X032851D01*
Y043050*
X032717Y042983*
X032651*
X032584Y043050*
Y043183*
X032651Y043250*
X032784*
X032851Y043183*
X032051Y042850D02*
Y043250D01*
X031851*
X031784Y043183*
Y043117*
X031851Y043050*
X032051*
X031851*
X031784Y042983*
Y042917*
X031851Y042850*
X032051*
X031600Y010425D02*
X031900D01*
X031750Y010575D02*
Y010275D01*
X032050Y010200D02*
X032200D01*
X032125*
Y010650*
X032050Y010575*
X032725Y010200D02*
X032425D01*
X032725Y010500*
Y010575*
X032650Y010650*
X032500*
X032425Y010575*
X032875Y010650D02*
Y010350D01*
X033025Y010200*
X033174Y010350*
Y010650*
X034524Y010575D02*
X034449Y010650D01*
X034299*
X034224Y010575*
Y010275*
X034299Y010200*
X034449*
X034524Y010275*
Y010425*
X034374*
X034674Y010200D02*
Y010650D01*
X034974Y010200*
Y010650*
X035124D02*
Y010200D01*
X035349*
X035424Y010275*
Y010575*
X035349Y010650*
X035124*
X012167Y010533D02*
X012100Y010600D01*
X011967*
X011900Y010533*
Y010267*
X011967Y010200*
X012100*
X012167Y010267*
X012300Y010600D02*
Y010200D01*
Y010400*
X012566*
Y010600*
Y010200*
X012700Y010600D02*
X012966D01*
Y010533*
X012700Y010267*
Y010200*
X014166Y010533D02*
X014099Y010600D01*
X013966*
X013899Y010533*
Y010267*
X013966Y010200*
X014099*
X014166Y010267*
X014299Y010600D02*
Y010200D01*
Y010400*
X014566*
Y010600*
Y010200*
X014966Y010600D02*
X014832Y010533D01*
X014699Y010400*
Y010267*
X014766Y010200*
X014899*
X014966Y010267*
Y010333*
X014899Y010400*
X014699*
X016165Y010533D02*
X016099Y010600D01*
X015965*
X015899Y010533*
Y010267*
X015965Y010200*
X016099*
X016165Y010267*
X016299Y010600D02*
Y010200D01*
Y010400*
X016565*
Y010600*
Y010200*
X016965Y010600D02*
X016698D01*
Y010400*
X016832Y010467*
X016898*
X016965Y010400*
Y010267*
X016898Y010200*
X016765*
X016698Y010267*
X018165Y010533D02*
X018098Y010600D01*
X017965*
X017898Y010533*
Y010267*
X017965Y010200*
X018098*
X018165Y010267*
X018298Y010600D02*
Y010200D01*
Y010400*
X018565*
Y010600*
Y010200*
X018898D02*
Y010600D01*
X018698Y010400*
X018964*
X020164Y010533D02*
X020097Y010600D01*
X019964*
X019897Y010533*
Y010267*
X019964Y010200*
X020097*
X020164Y010267*
X020297Y010600D02*
Y010200D01*
Y010400*
X020564*
Y010600*
Y010200*
X020697Y010533D02*
X020764Y010600D01*
X020897*
X020964Y010533*
Y010467*
X020897Y010400*
X020830*
X020897*
X020964Y010333*
Y010267*
X020897Y010200*
X020764*
X020697Y010267*
X022163Y010533D02*
X022097Y010600D01*
X021963*
X021897Y010533*
Y010267*
X021963Y010200*
X022097*
X022163Y010267*
X022297Y010600D02*
Y010200D01*
Y010400*
X022563*
Y010600*
Y010200*
X022963D02*
X022697D01*
X022963Y010467*
Y010533*
X022896Y010600*
X022763*
X022697Y010533*
X024163D02*
X024096Y010600D01*
X023963*
X023896Y010533*
Y010267*
X023963Y010200*
X024096*
X024163Y010267*
X024296Y010600D02*
Y010200D01*
Y010400*
X024563*
Y010600*
Y010200*
X024696D02*
X024829D01*
X024763*
Y010600*
X024696Y010533*
X026095D02*
X026029Y010600D01*
X025895*
X025829Y010533*
Y010267*
X025895Y010200*
X026029*
X026095Y010267*
X026229Y010600D02*
Y010200D01*
Y010400*
X026495*
Y010600*
Y010200*
X026629Y010533D02*
X026695Y010600D01*
X026829*
X026895Y010533*
Y010267*
X026829Y010200*
X026695*
X026629Y010267*
Y010533*
X027828Y010600D02*
Y010200D01*
X028095*
X028228D02*
X028361D01*
X028295*
Y010600*
X028228Y010533*
X027000Y030050D02*
X027200D01*
X027100*
Y030650*
X027000Y030550*
X025950Y075400D02*
X026150D01*
X026050*
Y076000*
X025950Y075900*
X028383Y042867D02*
X028450Y042800D01*
X028583*
X028650Y042867*
Y043133*
X028583Y043200*
X028450*
X028383Y043133*
X028250Y042800D02*
Y043200D01*
Y043000*
X027984*
Y042800*
Y043200*
X027850D02*
X027717D01*
X027784*
Y042800*
X027850Y042867*
X027250Y042800D02*
X027517D01*
Y043000*
X027384Y042933*
X027317*
X027250Y043000*
Y043133*
X027317Y043200*
X027450*
X027517Y043133*
X026451Y042867D02*
X026517Y042800D01*
X026651*
X026717Y042867*
Y043133*
X026651Y043200*
X026517*
X026451Y043133*
X026317Y042800D02*
Y043200D01*
Y043000*
X026051*
Y042800*
Y043200*
X025918D02*
X025784D01*
X025851*
Y042800*
X025918Y042867*
X025384Y043200D02*
Y042800D01*
X025584Y043000*
X025318*
X024518Y042867D02*
X024585Y042800D01*
X024718*
X024785Y042867*
Y043133*
X024718Y043200*
X024585*
X024518Y043133*
X024385Y042800D02*
Y043200D01*
Y043000*
X024118*
Y042800*
Y043200*
X023985D02*
X023852D01*
X023918*
Y042800*
X023985Y042867*
X023652D02*
X023585Y042800D01*
X023452*
X023385Y042867*
Y042933*
X023452Y043000*
X023518*
X023452*
X023385Y043067*
Y043133*
X023452Y043200*
X023585*
X023652Y043133*
X022585Y042867D02*
X022652Y042800D01*
X022785*
X022852Y042867*
Y043133*
X022785Y043200*
X022652*
X022585Y043133*
X022452Y042800D02*
Y043200D01*
Y043000*
X022185*
Y042800*
Y043200*
X022052D02*
X021919D01*
X021985*
Y042800*
X022052Y042867*
X021452Y043200D02*
X021719D01*
X021452Y042933*
Y042867*
X021519Y042800*
X021652*
X021719Y042867*
X020653D02*
X020719Y042800D01*
X020853*
X020919Y042867*
Y043133*
X020853Y043200*
X020719*
X020653Y043133*
X020519Y042800D02*
Y043200D01*
Y043000*
X020253*
Y042800*
Y043200*
X020119D02*
X019986D01*
X020053*
Y042800*
X020119Y042867*
X019786Y043200D02*
X019653D01*
X019720*
Y042800*
X019786Y042867*
X018787D02*
X018853Y042800D01*
X018986*
X019053Y042867*
Y043133*
X018986Y043200*
X018853*
X018787Y043133*
X018653Y042800D02*
Y043200D01*
Y043000*
X018387*
Y042800*
Y043200*
X018253D02*
X018120D01*
X018187*
Y042800*
X018253Y042867*
X017920D02*
X017853Y042800D01*
X017720*
X017654Y042867*
Y043133*
X017720Y043200*
X017853*
X017920Y043133*
Y042867*
X016854D02*
X016920Y042800D01*
X017054*
X017120Y042867*
Y043133*
X017054Y043200*
X016920*
X016854Y043133*
X016721Y042800D02*
Y043200D01*
Y043000*
X016454*
Y042800*
Y043200*
X016321Y043133D02*
X016254Y043200D01*
X016121*
X016054Y043133*
Y042867*
X016121Y042800*
X016254*
X016321Y042867*
Y042933*
X016254Y043000*
X016054*
X014854Y042867D02*
X014921Y042800D01*
X015054*
X015121Y042867*
Y043133*
X015054Y043200*
X014921*
X014854Y043133*
X014721Y042800D02*
Y043200D01*
Y043000*
X014455*
Y042800*
Y043200*
X014321Y042867D02*
X014255Y042800D01*
X014121*
X014055Y042867*
Y042933*
X014121Y043000*
X014055Y043067*
Y043133*
X014121Y043200*
X014255*
X014321Y043133*
Y043067*
X014255Y043000*
X014321Y042933*
Y042867*
X014255Y043000D02*
X014121D01*
X012722Y042800D02*
Y043200D01*
X012455*
X012055D02*
X012322D01*
X012055Y042933*
Y042867*
X012122Y042800*
X012255*
X012322Y042867*
X014020Y078275D02*
X013965Y078330D01*
X013855*
X013800Y078275*
Y078055*
X013855Y078000*
X013965*
X014020Y078055*
X014130Y078330D02*
Y078000D01*
Y078165*
X014350*
Y078330*
Y078000*
X014460Y078275D02*
X014515Y078330D01*
X014625*
X014680Y078275*
Y078055*
X014625Y078000*
X014515*
X014460Y078055*
Y078275*
X015339D02*
X015285Y078330D01*
X015175*
X015120Y078275*
Y078055*
X015175Y078000*
X015285*
X015339Y078055*
X015449Y078330D02*
Y078000D01*
Y078165*
X015669*
Y078330*
Y078000*
X015779D02*
X015889D01*
X015834*
Y078330*
X015779Y078275*
X016604D02*
X016549Y078330D01*
X016439*
X016384Y078275*
Y078055*
X016439Y078000*
X016549*
X016604Y078055*
X016714Y078330D02*
Y078000D01*
Y078165*
X016934*
Y078330*
Y078000*
X017264D02*
X017044D01*
X017264Y078220*
Y078275*
X017209Y078330*
X017099*
X017044Y078275*
X017924D02*
X017869Y078330D01*
X017759*
X017704Y078275*
Y078055*
X017759Y078000*
X017869*
X017924Y078055*
X018034Y078330D02*
Y078000D01*
Y078165*
X018254*
Y078330*
Y078000*
X018364Y078275D02*
X018419Y078330D01*
X018528*
X018583Y078275*
Y078220*
X018528Y078165*
X018473*
X018528*
X018583Y078110*
Y078055*
X018528Y078000*
X018419*
X018364Y078055*
X019243Y078275D02*
X019188Y078330D01*
X019078*
X019023Y078275*
Y078055*
X019078Y078000*
X019188*
X019243Y078055*
X019353Y078330D02*
Y078000D01*
Y078165*
X019573*
Y078330*
Y078000*
X019848D02*
Y078330D01*
X019683Y078165*
X019903*
X020563Y078275D02*
X020508Y078330D01*
X020398*
X020343Y078275*
Y078055*
X020398Y078000*
X020508*
X020563Y078055*
X020673Y078330D02*
Y078000D01*
Y078165*
X020893*
Y078330*
Y078000*
X021223Y078330D02*
X021003D01*
Y078165*
X021113Y078220*
X021168*
X021223Y078165*
Y078055*
X021168Y078000*
X021058*
X021003Y078055*
X021882Y078275D02*
X021827Y078330D01*
X021717*
X021662Y078275*
Y078055*
X021717Y078000*
X021827*
X021882Y078055*
X021992Y078330D02*
Y078000D01*
Y078165*
X022212*
Y078330*
Y078000*
X022542Y078330D02*
X022432Y078275D01*
X022322Y078165*
Y078055*
X022377Y078000*
X022487*
X022542Y078055*
Y078110*
X022487Y078165*
X022322*
X023202Y078275D02*
X023147Y078330D01*
X023037*
X022982Y078275*
Y078055*
X023037Y078000*
X023147*
X023202Y078055*
X023312Y078330D02*
Y078000D01*
Y078165*
X023532*
Y078330*
Y078000*
X023642Y078330D02*
X023862D01*
Y078275*
X023642Y078055*
Y078000*
X013900Y074150D02*
X013850Y074200D01*
X013750*
X013700Y074150*
Y073950*
X013750Y073900*
X013850*
X013900Y073950*
X014000Y074200D02*
Y073900D01*
Y074050*
X014200*
Y074200*
Y073900*
X014300Y074150D02*
X014350Y074200D01*
X014450*
X014500Y074150*
Y074100*
X014450Y074050*
X014500Y074000*
Y073950*
X014450Y073900*
X014350*
X014300Y073950*
Y074000*
X014350Y074050*
X014300Y074100*
Y074150*
X014350Y074050D02*
X014450D01*
X015100Y074150D02*
X015050Y074200D01*
X014950*
X014900Y074150*
Y073950*
X014950Y073900*
X015050*
X015100Y073950*
X015200Y074200D02*
Y073900D01*
Y074050*
X015399*
Y074200*
Y073900*
X015499Y073950D02*
X015549Y073900D01*
X015649*
X015699Y073950*
Y074150*
X015649Y074200*
X015549*
X015499Y074150*
Y074100*
X015549Y074050*
X015699*
X016299Y074150D02*
X016249Y074200D01*
X016149*
X016099Y074150*
Y073950*
X016149Y073900*
X016249*
X016299Y073950*
X016399Y074200D02*
Y073900D01*
Y074050*
X016599*
Y074200*
Y073900*
X016699D02*
X016799D01*
X016749*
Y074200*
X016699Y074150*
X016949D02*
X016999Y074200D01*
X017099*
X017149Y074150*
Y073950*
X017099Y073900*
X016999*
X016949Y073950*
Y074150*
X017749D02*
X017699Y074200D01*
X017599*
X017549Y074150*
Y073950*
X017599Y073900*
X017699*
X017749Y073950*
X017849Y074200D02*
Y073900D01*
Y074050*
X018049*
Y074200*
Y073900*
X018149D02*
X018249D01*
X018199*
Y074200*
X018149Y074150*
X018398Y073900D02*
X018498D01*
X018448*
Y074200*
X018398Y074150*
X019148D02*
X019098Y074200D01*
X018998*
X018948Y074150*
Y073950*
X018998Y073900*
X019098*
X019148Y073950*
X019248Y074200D02*
Y073900D01*
Y074050*
X019448*
Y074200*
Y073900*
X019548D02*
X019648D01*
X019598*
Y074200*
X019548Y074150*
X019998Y073900D02*
X019798D01*
X019998Y074100*
Y074150*
X019948Y074200*
X019848*
X019798Y074150*
X020598D02*
X020548Y074200D01*
X020448*
X020398Y074150*
Y073950*
X020448Y073900*
X020548*
X020598Y073950*
X020698Y074200D02*
Y073900D01*
Y074050*
X020898*
Y074200*
Y073900*
X020998D02*
X021098D01*
X021048*
Y074200*
X020998Y074150*
X021248D02*
X021298Y074200D01*
X021398*
X021447Y074150*
Y074100*
X021398Y074050*
X021348*
X021398*
X021447Y074000*
Y073950*
X021398Y073900*
X021298*
X021248Y073950*
X022047Y074150D02*
X021997Y074200D01*
X021897*
X021847Y074150*
Y073950*
X021897Y073900*
X021997*
X022047Y073950*
X022147Y074200D02*
Y073900D01*
Y074050*
X022347*
Y074200*
Y073900*
X022447D02*
X022547D01*
X022497*
Y074200*
X022447Y074150*
X022847Y073900D02*
Y074200D01*
X022697Y074050*
X022897*
X023497Y074150D02*
X023447Y074200D01*
X023347*
X023297Y074150*
Y073950*
X023347Y073900*
X023447*
X023497Y073950*
X023597Y074200D02*
Y073900D01*
Y074050*
X023797*
Y074200*
Y073900*
X023897D02*
X023997D01*
X023947*
Y074200*
X023897Y074150*
X024347Y074200D02*
X024147D01*
Y074050*
X024247Y074100*
X024297*
X024347Y074050*
Y073950*
X024297Y073900*
X024197*
X024147Y073950*
X016720Y071230D02*
X016500D01*
Y071065*
X016610*
X016500*
Y070900*
X016830Y071230D02*
Y070955D01*
X016885Y070900*
X016995*
X017050Y070955*
Y071230*
X017160Y070900D02*
Y071230D01*
X017380Y070900*
Y071230*
X017710Y071175D02*
X017655Y071230D01*
X017545*
X017490Y071175*
Y070955*
X017545Y070900*
X017655*
X017710Y070955*
X017820Y070900D02*
Y070955D01*
X017875*
Y070900*
X017820*
X023600D02*
Y071230D01*
X023820Y070900*
Y071230*
X024150D02*
X023930D01*
Y070900*
X024150*
X023930Y071065D02*
X024040D01*
X024260Y071230D02*
X024480Y070900D01*
Y071230D02*
X024260Y070900D01*
X024590Y071230D02*
X024810D01*
X024700*
Y070900*
X030150Y073150D02*
Y073370D01*
X030260Y073480*
X030370Y073370*
Y073150*
Y073315*
X030150*
X030480Y073480D02*
Y073150D01*
X030645*
X030700Y073205*
Y073425*
X030645Y073480*
X030480*
X030810D02*
Y073150D01*
X030975*
X031030Y073205*
Y073425*
X030975Y073480*
X030810*
X031140Y073150D02*
Y073480D01*
X031305*
X031360Y073425*
Y073315*
X031305Y073260*
X031140*
X031250D02*
X031360Y073150D01*
X031690Y073480D02*
X031470D01*
Y073150*
X031690*
X031470Y073315D02*
X031580D01*
X032019Y073425D02*
X031964Y073480D01*
X031854*
X031799Y073425*
Y073370*
X031854Y073315*
X031964*
X032019Y073260*
Y073205*
X031964Y073150*
X031854*
X031799Y073205*
X032349Y073425D02*
X032294Y073480D01*
X032184*
X032129Y073425*
Y073370*
X032184Y073315*
X032294*
X032349Y073260*
Y073205*
X032294Y073150*
X032184*
X032129Y073205*
X027850Y068600D02*
Y068930D01*
X028015*
X028070Y068875*
Y068765*
X028015Y068710*
X027850*
X028180Y068600D02*
Y068930D01*
X028345*
X028400Y068875*
Y068765*
X028345Y068710*
X028180*
X028290D02*
X028400Y068600D01*
X028675Y068930D02*
X028565D01*
X028510Y068875*
Y068655*
X028565Y068600*
X028675*
X028730Y068655*
Y068875*
X028675Y068930*
X028840D02*
X029060D01*
X028950*
Y068600*
X029170D02*
Y068655D01*
X029225*
Y068600*
X029170*
X029774D02*
Y068820D01*
X029884Y068930*
X029994Y068820*
Y068600*
Y068765*
X029774*
X030269Y068600D02*
Y068930D01*
X030104Y068765*
X030324*
X030764Y068600D02*
Y068820D01*
X030874Y068930*
X030984Y068820*
Y068600*
Y068765*
X030764*
X031094Y068875D02*
X031149Y068930D01*
X031259*
X031314Y068875*
Y068820*
X031259Y068765*
X031204*
X031259*
X031314Y068710*
Y068655*
X031259Y068600*
X031149*
X031094Y068655*
X031754Y068600D02*
Y068820D01*
X031864Y068930*
X031974Y068820*
Y068600*
Y068765*
X031754*
X032304Y068600D02*
X032084D01*
X032304Y068820*
Y068875*
X032249Y068930*
X032139*
X032084Y068875*
X032743Y068600D02*
Y068820D01*
X032853Y068930*
X032963Y068820*
Y068600*
Y068765*
X032743*
X033073Y068600D02*
X033183D01*
X033128*
Y068930*
X033073Y068875*
X033678Y068600D02*
Y068820D01*
X033788Y068930*
X033898Y068820*
Y068600*
Y068765*
X033678*
X034008Y068875D02*
X034063Y068930D01*
X034173*
X034228Y068875*
Y068655*
X034173Y068600*
X034063*
X034008Y068655*
Y068875*
X027950Y056625D02*
X028005Y056680D01*
X028115*
X028170Y056625*
Y056570*
X028115Y056515*
X028170Y056460*
Y056405*
X028115Y056350*
X028005*
X027950Y056405*
Y056460*
X028005Y056515*
X027950Y056570*
Y056625*
X028005Y056515D02*
X028115D01*
X028500Y056625D02*
X028445Y056680D01*
X028335*
X028280Y056625*
Y056405*
X028335Y056350*
X028445*
X028500Y056405*
X028610Y056680D02*
Y056350D01*
Y056515*
X028830*
Y056680*
Y056350*
X029490Y056625D02*
X029435Y056680D01*
X029325*
X029270Y056625*
Y056570*
X029325Y056515*
X029435*
X029490Y056460*
Y056405*
X029435Y056350*
X029325*
X029270Y056405*
X029599Y056680D02*
X029709D01*
X029654*
Y056350*
X029599*
X029709*
X029874D02*
Y056680D01*
X030094Y056350*
Y056680*
X030424Y056625D02*
X030369Y056680D01*
X030259*
X030204Y056625*
Y056405*
X030259Y056350*
X030369*
X030424Y056405*
Y056515*
X030314*
X030534Y056680D02*
Y056350D01*
X030754*
X031084Y056680D02*
X030864D01*
Y056350*
X031084*
X030864Y056515D02*
X030974D01*
X031524Y056680D02*
X031744D01*
X031634*
Y056350*
X031854D02*
Y056680D01*
X032019*
X032074Y056625*
Y056515*
X032019Y056460*
X031854*
X031964D02*
X032074Y056350D01*
X032184Y056680D02*
X032294D01*
X032239*
Y056350*
X032184*
X032294*
X032459D02*
Y056570D01*
X032569Y056680*
X032678Y056570*
Y056350*
Y056515*
X032459*
X033008Y056625D02*
X032953Y056680D01*
X032843*
X032788Y056625*
Y056405*
X032843Y056350*
X032953*
X033008Y056405*
X033448Y056680D02*
Y056350D01*
X033613*
X033668Y056405*
Y056460*
X033613Y056515*
X033448*
X033613*
X033668Y056570*
Y056625*
X033613Y056680*
X033448*
X033943D02*
X033833D01*
X033778Y056625*
Y056405*
X033833Y056350*
X033943*
X033998Y056405*
Y056625*
X033943Y056680*
X034108Y056350D02*
Y056570D01*
X034218Y056680*
X034328Y056570*
Y056350*
Y056515*
X034108*
X034438Y056350D02*
Y056680D01*
X034603*
X034658Y056625*
Y056515*
X034603Y056460*
X034438*
X034548D02*
X034658Y056350D01*
X034768Y056680D02*
Y056350D01*
X034933*
X034988Y056405*
Y056625*
X034933Y056680*
X034768*
X027950Y044275D02*
X028005Y044330D01*
X028115*
X028170Y044275*
Y044220*
X028115Y044165*
X028170Y044110*
Y044055*
X028115Y044000*
X028005*
X027950Y044055*
Y044110*
X028005Y044165*
X027950Y044220*
Y044275*
X028005Y044165D02*
X028115D01*
X028500Y044275D02*
X028445Y044330D01*
X028335*
X028280Y044275*
Y044055*
X028335Y044000*
X028445*
X028500Y044055*
X028610Y044330D02*
Y044000D01*
Y044165*
X028830*
Y044330*
Y044000*
X029490Y044275D02*
X029435Y044330D01*
X029325*
X029270Y044275*
Y044220*
X029325Y044165*
X029435*
X029490Y044110*
Y044055*
X029435Y044000*
X029325*
X029270Y044055*
X029599Y044330D02*
X029709D01*
X029654*
Y044000*
X029599*
X029709*
X029874D02*
Y044330D01*
X030094Y044000*
Y044330*
X030424Y044275D02*
X030369Y044330D01*
X030259*
X030204Y044275*
Y044055*
X030259Y044000*
X030369*
X030424Y044055*
Y044165*
X030314*
X030534Y044330D02*
Y044000D01*
X030754*
X031084Y044330D02*
X030864D01*
Y044000*
X031084*
X030864Y044165D02*
X030974D01*
X031524Y044330D02*
X031744D01*
X031634*
Y044000*
X031854D02*
Y044330D01*
X032019*
X032074Y044275*
Y044165*
X032019Y044110*
X031854*
X031964D02*
X032074Y044000D01*
X032184Y044330D02*
X032294D01*
X032239*
Y044000*
X032184*
X032294*
X032459D02*
Y044220D01*
X032569Y044330*
X032678Y044220*
Y044000*
Y044165*
X032459*
X033008Y044275D02*
X032953Y044330D01*
X032843*
X032788Y044275*
Y044055*
X032843Y044000*
X032953*
X033008Y044055*
X033448Y044330D02*
Y044000D01*
X033613*
X033668Y044055*
Y044110*
X033613Y044165*
X033448*
X033613*
X033668Y044220*
Y044275*
X033613Y044330*
X033448*
X033943D02*
X033833D01*
X033778Y044275*
Y044055*
X033833Y044000*
X033943*
X033998Y044055*
Y044275*
X033943Y044330*
X034108Y044000D02*
Y044220D01*
X034218Y044330*
X034328Y044220*
Y044000*
Y044165*
X034108*
X034438Y044000D02*
Y044330D01*
X034603*
X034658Y044275*
Y044165*
X034603Y044110*
X034438*
X034548D02*
X034658Y044000D01*
X034768Y044330D02*
Y044000D01*
X034933*
X034988Y044055*
Y044275*
X034933Y044330*
X034768*
G54D56*
X032365Y020795D02*
X031965D01*
X032165Y020595D02*
Y020995D01*
X032005Y021905D02*
X032405D01*
X032205Y022105D02*
Y021705D01*
X031989Y026205D02*
X032389D01*
X032189Y026405D02*
Y026005D01*
M02*