%FSDAX24Y24*%
%MOIN*%
%SFA1B1*%

%IPPOS*%
%ADD10R,0.043300X0.039400*%
%ADD11R,0.051200X0.059100*%
%ADD14R,0.039400X0.043300*%
%ADD22C,0.010000*%
%ADD23C,0.020000*%
%ADD24C,0.050000*%
%ADD25C,0.030000*%
%ADD26R,0.335000X0.435000*%
%ADD29C,0.019700*%
%ADD30O,0.047200X0.098400*%
%ADD31R,0.047200X0.098400*%
%ADD32C,0.063000*%
%ADD33R,0.063000X0.063000*%
%ADD34C,0.059100*%
%ADD35R,0.059100X0.059100*%
%ADD36C,0.060000*%
%ADD37C,0.098400*%
%ADD38C,0.053100*%
%ADD39R,0.053100X0.053100*%
%ADD40C,0.059100*%
%ADD41R,0.059100X0.059100*%
%ADD42C,0.066900*%
%ADD43R,0.066900X0.066900*%
%ADD44C,0.030000*%
%ADD45C,0.050000*%
%ADD49R,0.061000X0.135800*%
%ADD50R,0.061000X0.043300*%
%ADD51R,0.061000X0.043300*%
%LNde-140824-1*%
%LPD*%
G54D10*
X027885Y045150D03*
X027215D03*
X023585D03*
X022915D03*
X016465D03*
X017135D03*
X018215Y057400D03*
X018885D03*
X024585D03*
X023915D03*
X020215D03*
X020885D03*
X033165Y013400D03*
X033835D03*
X034065Y026200D03*
X034735D03*
X019315Y024300D03*
X019985D03*
X021365Y022400D03*
X022035D03*
X020215Y045150D03*
X020885D03*
X031735Y057400D03*
X031065D03*
X021865Y071050D03*
X022535D03*
X014665Y071000D03*
X015335D03*
G54D11*
X017724Y050350D03*
X016976D03*
X019224D03*
X018476D03*
X020774D03*
X020026D03*
X030474D03*
X029726D03*
X031974D03*
X031226D03*
X033424D03*
X032676D03*
X011424D03*
X010676D03*
X012176D03*
X012924D03*
X013726D03*
X014474D03*
X033774Y052750D03*
X033026D03*
X033824Y055000D03*
X033076D03*
X029624D03*
X028876D03*
X020998D03*
X020250D03*
X016076D03*
X016824D03*
X011826D03*
X012574D03*
X011826Y052450D03*
X012574D03*
X011474Y062650D03*
X010726D03*
X012974D03*
X012226D03*
X014474D03*
X013726D03*
X024124D03*
X023376D03*
X025674D03*
X024926D03*
X027174D03*
X026426D03*
X017824D03*
X017076D03*
X020824D03*
X020076D03*
X030474D03*
X029726D03*
X031974D03*
X031226D03*
X033474D03*
X032726D03*
X012574Y064700D03*
X011826D03*
X012574Y067200D03*
X011826D03*
X016774D03*
X016026D03*
X020974D03*
X020226D03*
X024626D03*
X025374D03*
X018526Y062650D03*
X019274D03*
X028826Y067200D03*
X029574D03*
X033126D03*
X033874D03*
X033026Y064800D03*
X033774D03*
X024676Y055000D03*
X025424D03*
X027274Y050350D03*
X026526D03*
X025774D03*
X025026D03*
X024174D03*
X023426D03*
G54D14*
X035300Y017631D03*
Y018300D03*
X026950Y074015D03*
Y074685D03*
X027950Y074015D03*
Y074685D03*
X028950Y074015D03*
Y074685D03*
X029950Y074015D03*
Y074685D03*
G54D22*
X018900Y044250D02*
Y044900D01*
X018650Y045150D02*
X018900Y044900D01*
X017135Y045150D02*
X018650D01*
X020215D02*
Y046099D01*
X020214Y046100D02*
X020215Y046099D01*
X020885Y044265D02*
Y045150D01*
Y044265D02*
X020900Y044250D01*
X022900D02*
Y045135D01*
X022915Y045150*
X026650D02*
X027215D01*
X027885D02*
X032700D01*
X032900Y045350*
Y046100*
X023585Y045150D02*
X023900D01*
X024000Y045250*
X025707*
X026557Y046100*
X024900Y044250D02*
X025600Y044950D01*
X026450*
X026650Y045150*
X014150D02*
X016465D01*
X013871Y045429D02*
X014150Y045150D01*
X013871Y045429D02*
Y046100D01*
X019274Y062650D02*
X020076D01*
X032550Y057400D02*
X032900Y057750D01*
Y058400*
X020215Y057400D02*
Y058399D01*
X020214Y058400D02*
X020215Y058399D01*
X020885Y057400D02*
X020900Y057385D01*
Y056450D02*
Y057385D01*
X023900Y056450D02*
Y057385D01*
X023915Y057400*
X024900Y056450D02*
X025550Y057100D01*
X031735Y057400D02*
X032550D01*
X024585D02*
X029350D01*
X029729Y057779*
Y058400*
X025550Y057100D02*
X029550D01*
X029850Y057400*
X031065*
X014150D02*
X018215D01*
X013871Y057679D02*
X014150Y057400D01*
X013871Y057679D02*
Y058400D01*
X018885Y056465D02*
Y057400D01*
Y056465D02*
X018900Y056450D01*
X014150Y076067D02*
Y076300D01*
X014600Y076750*
X015470Y076220D02*
X015820Y076570D01*
X015470Y076067D02*
Y076220D01*
X016790Y076050D02*
Y076290D01*
X016890Y076390*
X018355*
X015820Y076570D02*
X018430D01*
X014600Y076750D02*
X018747D01*
X019430Y076067*
X018430Y076570D02*
X019350Y075650D01*
X020333*
X020750Y076067*
X018355Y076390D02*
X019275Y075470D01*
X021470*
X022050Y076050*
X018110Y076067D02*
X018887Y075290D01*
X022630*
X023390Y076050*
X026950Y074685D02*
Y075750D01*
X027950Y074685D02*
Y075750D01*
X028950Y074685D02*
Y075750D01*
X029950Y074685D02*
Y075750D01*
X026935Y074000D02*
X026950Y074015D01*
X027950Y073750D02*
Y074015D01*
X029950Y073550D02*
Y074015D01*
X027800Y073600D02*
X027950Y073750D01*
X023390Y076050D02*
X024360Y075080D01*
Y075076D02*
Y075080D01*
X026400Y074000D02*
X026935D01*
X022250Y076400D02*
X023491D01*
X022050Y076200D02*
X022250Y076400D01*
X022050Y076050D02*
Y076200D01*
X020750Y076067D02*
X021263Y076580D01*
X023640Y076760D02*
X026400Y074000D01*
X019430Y076067D02*
X020123Y076760D01*
X023640*
X023565Y076580D02*
X026545Y073600D01*
X021263Y076580D02*
X023565D01*
X026545Y073600D02*
X027800D01*
X023491Y076400D02*
X026471Y073420D01*
X024360Y075076D02*
X026196Y073240D01*
X029640*
X029950Y073550*
X026471Y073420D02*
X028670D01*
X028950Y073700*
Y074015*
X033950Y076750D02*
X034700Y076000D01*
Y070300D02*
Y076000D01*
X033950Y069550D02*
X034700Y070300D01*
X032950Y076750D02*
X033450Y076250D01*
Y070050D02*
Y076250D01*
X032950Y069550D02*
X033450Y070050D01*
X031950Y076750D02*
X032500Y076200D01*
Y070100D02*
Y076200D01*
X031950Y069550D02*
X032500Y070100D01*
X030950Y076750D02*
X031450Y076250D01*
Y070050D02*
Y076250D01*
X030950Y069550D02*
X031450Y070050D01*
X029950Y076750D02*
X030450Y076250D01*
Y070050D02*
Y076250D01*
X029950Y069550D02*
X030450Y070050D01*
X028950Y076750D02*
Y076850D01*
X029600Y077500*
X034450*
X035200Y076750*
Y069650D02*
Y076750D01*
X034350Y068800D02*
X035200Y069650D01*
X029250Y068800D02*
X034350D01*
X028950Y069100D02*
X029250Y068800D01*
X028950Y069100D02*
Y069550D01*
X025650Y078050D02*
X026950Y076750D01*
X014450Y073050D02*
X020750D01*
X013100Y074400D02*
X014450Y073050D01*
X013100Y074400D02*
Y077500D01*
X013650Y078050*
X025650*
X012800Y077600D02*
X013500Y078300D01*
X026550*
X027950Y076900*
Y076750D02*
Y076900D01*
X020200Y026100D02*
Y027150D01*
X029225Y032300D02*
X032175Y035250D01*
X033450*
X028350Y032450D02*
X028600Y032700D01*
X029370*
X031550Y034880*
Y035250*
X030100Y032300D02*
Y032920D01*
X032080Y034900*
X034100*
X034450Y035250*
X021050Y027350D02*
X024450D01*
X019350Y029050D02*
X021050Y027350D01*
X014100Y029050D02*
X019350D01*
X021000Y027050D02*
X024850D01*
X020400Y027650D02*
X021000Y027050D01*
X015450Y027650D02*
X020400D01*
X013700Y025900D02*
X015450Y027650D01*
X013700Y024300D02*
Y025900D01*
X021350Y022415D02*
Y023300D01*
Y022415D02*
X021365Y022400D01*
X022035D02*
X026200D01*
X029450Y025650*
Y030950*
X028950Y031450D02*
X029450Y030950D01*
X027950Y031450D02*
X028450Y030950D01*
Y024950D02*
Y030950D01*
X019350Y023300D02*
Y024265D01*
X019315Y024300D02*
X019350Y024265D01*
X019985Y024300D02*
X021450D01*
X023170Y022580*
X026080*
X028450Y024950*
X020750Y073050D02*
X021284Y072516D01*
X012800Y073250D02*
Y077600D01*
Y073250D02*
X014114Y071936D01*
Y071000D02*
X014665D01*
X014114Y070164D02*
Y071000D01*
Y071936*
X021284Y071050D02*
X021865D01*
X021284Y070450D02*
Y071050D01*
Y072516*
G54D23*
X032900Y049100D02*
Y049450D01*
X033424Y049974*
Y050350*
X031974D02*
X032676D01*
X030474D02*
X031226D01*
X032400Y054324D02*
X033076Y055000D01*
X032400Y053831D02*
Y054324D01*
X033824Y055000D02*
X034400Y054424D01*
Y053831D02*
Y054424D01*
X032400Y052124D02*
X033026Y052750D01*
X032400Y051550D02*
Y052124D01*
X033774Y052750D02*
X034400Y052124D01*
Y051550D02*
Y052124D01*
X028209Y054333D02*
X028876Y055000D01*
X028209Y053831D02*
Y054333D01*
X029624Y055000D02*
X030209Y054415D01*
Y053831D02*
Y054415D01*
X025424Y055000D02*
X026018Y054406D01*
Y053831D02*
Y054406D01*
X024018Y054342D02*
X024676Y055000D01*
X024018Y053831D02*
Y054342D01*
X020998Y055000D02*
X021582Y054416D01*
Y054000D02*
Y054416D01*
X019582Y054332D02*
X020250Y055000D01*
X019582Y054000D02*
Y054332D01*
X016824Y055000D02*
X017391Y054433D01*
Y054000D02*
Y054433D01*
X015391Y054315D02*
X016076Y055000D01*
X015391Y054000D02*
Y054315D01*
X012574Y054900D02*
X013200Y054274D01*
Y054000D02*
Y054274D01*
X011200D02*
X011826Y054900D01*
X011200Y054000D02*
Y054274D01*
Y051824D02*
X011826Y052450D01*
X011200Y051450D02*
Y051824D01*
X012574Y052450D02*
X013200Y051824D01*
Y051450D02*
Y051824D01*
X011424Y050350D02*
X012176D01*
X012924D02*
X013726D01*
X014474Y049974D02*
Y050350D01*
X013871Y049371D02*
X014474Y049974D01*
X013871Y049100D02*
Y049371D01*
X017724Y050350D02*
X018476D01*
X019224D02*
X020026D01*
X020774Y049974D02*
Y050350D01*
X020214Y049414D02*
X020774Y049974D01*
X020214Y049100D02*
Y049414D01*
X017824Y062650D02*
X018526D01*
X020824Y062324D02*
Y062650D01*
X020214Y061714D02*
X020824Y062324D01*
X020214Y061400D02*
Y061714D01*
X011474Y062650D02*
X012226D01*
X012974D02*
X013726D01*
X014474Y062374D02*
Y062650D01*
X013871Y061771D02*
X014474Y062374D01*
X013871Y061400D02*
Y061771D01*
X011200Y063800D02*
Y064148D01*
X013200Y063800D02*
Y064200D01*
X011200Y066574D02*
X011826Y067200D01*
X011200Y066200D02*
Y066574D01*
X012574Y067200D02*
X013200Y066574D01*
Y066200D02*
Y066574D01*
X015391Y066565D02*
X016026Y067200D01*
X015391Y066200D02*
Y066565D01*
X016774Y067200D02*
X017391Y066583D01*
Y066200D02*
Y066583D01*
X019582Y066556D02*
X020226Y067200D01*
X019582Y066200D02*
Y066556D01*
X020974Y067200D02*
X021582Y066592D01*
Y066200D02*
Y066592D01*
X024018D02*
X024626Y067200D01*
X024018Y066031D02*
Y066592D01*
X025374Y067200D02*
X026018Y066556D01*
Y066031D02*
Y066556D01*
X028209Y066583D02*
X028826Y067200D01*
X028209Y066031D02*
Y066583D01*
X029574Y067200D02*
X030209Y066565D01*
Y066031D02*
Y066565D01*
X032400Y066474D02*
X033126Y067200D01*
X032400Y066031D02*
Y066474D01*
X033874Y067200D02*
X034400Y066674D01*
Y066031D02*
Y066674D01*
X032400Y064174D02*
X033026Y064800D01*
X032400Y063631D02*
Y064174D01*
X033774Y064800D02*
X034400Y064174D01*
Y063631D02*
Y064174D01*
X032900Y061400D02*
Y061600D01*
X033474Y062174*
Y062650*
X031974D02*
X032726D01*
X030474D02*
X031226D01*
X029350D02*
X029726D01*
X028900Y063100D02*
X029350Y062650D01*
X028900Y063100D02*
Y063900D01*
X026557Y061400D02*
Y061607D01*
X027174Y062224*
Y062650*
X025674D02*
X026426D01*
X024124D02*
X024926D01*
X017076D02*
Y063376D01*
X017600Y063900*
X017900*
X013200Y063800D02*
X014750D01*
X017391Y066200D02*
X018041Y065550D01*
X020250*
X021900Y063900*
X014750Y063800D02*
X015550Y064600D01*
X019200*
X019900Y063900*
X013200Y066200D02*
X014350Y065050D01*
X019750*
X020900Y063900*
X021582Y066200D02*
X022900Y064882D01*
Y063900D02*
Y064882D01*
X023900Y065912D02*
X024018Y066031D01*
X023900Y063900D02*
Y065912D01*
X027229Y065050D02*
X028209Y066031D01*
X026050Y065050D02*
X027229D01*
X024900Y063900D02*
X026050Y065050D01*
X025900Y063900D02*
X026600Y064600D01*
X030969*
X032400Y066031*
X022400Y062650D02*
X023376D01*
X010726D02*
Y062924D01*
X010400Y063250D02*
X010726Y062924D01*
X012050Y065500D02*
X012200Y065650D01*
Y066200*
X012600Y064800D02*
X013200Y064200D01*
X011200Y064148D02*
X011852Y064800D01*
X010750Y065500D02*
X012050D01*
X010400Y063250D02*
Y065150D01*
X010750Y065500*
X026557Y049100D02*
Y049307D01*
X027274Y050024*
Y050350*
X025774D02*
X026526D01*
X024174D02*
X025026D01*
X029450D02*
X029726D01*
X028900Y050900D02*
X029450Y050350D01*
X028900Y050900D02*
Y051700D01*
X019200Y052400D02*
X019900Y051700D01*
X016300Y052400D02*
X019200D01*
X015300Y051400D02*
X016300Y052400D01*
X013250Y051400D02*
X015300D01*
X013200Y051450D02*
X013250Y051400D01*
X019750Y052850D02*
X020900Y051700D01*
X014350Y052850D02*
X019750D01*
X013200Y054000D02*
X014350Y052850D01*
X021900Y051700D02*
Y052300D01*
X020950Y053250D02*
X021900Y052300D01*
X018141Y053250D02*
X020950D01*
X017391Y054000D02*
X018141Y053250D01*
X021582Y054000D02*
X022900Y052682D01*
Y051700D02*
Y052682D01*
X023900Y053712D02*
X024018Y053831D01*
X023900Y051700D02*
Y053712D01*
X025900Y051700D02*
X026650Y052450D01*
X031019*
X032400Y053831*
X024900Y051700D02*
X026200Y053000D01*
X027378*
X028209Y053831*
X022400Y050350D02*
X023426D01*
X016976D02*
Y051126D01*
X017550Y051700*
X017900*
X010450Y050576D02*
X010676Y050350D01*
X010450Y050576D02*
Y052650D01*
X012200Y053350D02*
Y054000D01*
X010450Y052650D02*
X011050Y053250D01*
X012100*
X012200Y053350*
X015335Y071000D02*
X015886D01*
Y070164D02*
Y071000D01*
Y071936*
X022535Y071050D02*
X022986D01*
X023036Y071000*
Y070164D02*
Y071000D01*
Y071936*
G54D24*
X026900Y036350D02*
Y039800D01*
X028200Y041100*
X024900Y036350D02*
Y040400D01*
X024200Y041100D02*
X024900Y040400D01*
X022900Y036350D02*
Y038500D01*
X020300Y041100D02*
X022900Y038500D01*
X020900Y036350D02*
Y036600D01*
X016400Y041100D02*
X020900Y036600D01*
X012400Y012400D02*
X015000Y015000D01*
X018500*
X019900Y016400*
Y017100*
X016400Y012400D02*
X017850Y013850D01*
X019400*
X021900Y016350*
Y017100*
X020300Y012400D02*
X023900Y016000D01*
Y017100*
X024200Y012400D02*
X025900Y014100D01*
Y017100*
X030806Y018444D02*
X030900Y018350D01*
X031194Y020800D02*
X031625Y020369D01*
X035534Y018834D02*
Y021900D01*
X031625Y018350D02*
Y020369D01*
Y017500D02*
Y018350D01*
X035106Y018406D02*
X035534Y018834D01*
G54D25*
X032500Y012735D02*
X033165Y013400D01*
X032500Y012400D02*
Y012735D01*
X033835Y013400D02*
X034469Y012766D01*
Y012400D02*
Y012766D01*
X033400Y017500D02*
X034329D01*
X035169*
X035300Y017631*
X034329Y016594D02*
X034373Y016550D01*
X034423Y016600D02*
X035350D01*
X034735Y026200D02*
X035519D01*
X033550D02*
X034065D01*
X034329Y018406D02*
X035106D01*
X034373Y016550D02*
X034423Y016600D01*
G54D26*
X032025Y017275D03*
G54D29*
X035591Y068803D03*
Y069406D03*
Y069104D03*
X035600Y069707D03*
Y070309D03*
Y070008D03*
Y070610D03*
Y071212D03*
Y070911D03*
X035591Y071513D03*
Y072115D03*
Y071814D03*
X035600Y072416D03*
Y073018D03*
Y072717D03*
X035591Y073320D03*
Y073922D03*
Y073621D03*
X035600Y074223D03*
Y074825D03*
Y074524D03*
Y075126D03*
Y075728D03*
Y075427D03*
Y076029D03*
Y076631D03*
Y076330D03*
Y076932D03*
Y077535D03*
Y077234D03*
Y077836D03*
Y078438D03*
Y078137D03*
X035510Y043465D03*
X035856D03*
X036203D03*
X036550D03*
X034816D03*
X034470D03*
X034123D03*
X023722D03*
X024762D03*
X024415D03*
X024068D03*
X025108D03*
X032389D03*
X032736D03*
X033083D03*
X033776D03*
X033430D03*
X031003D03*
X030656D03*
X030309D03*
X032043D03*
X031696D03*
X031349D03*
X019908D03*
X020255D03*
X020601D03*
X019214D03*
X019561D03*
X010200D03*
X010547D03*
X010893D03*
X011934D03*
X011587D03*
X011240D03*
X012974D03*
X012627D03*
X012280D03*
X014707D03*
X015054D03*
X014361D03*
X014014D03*
X013667D03*
X013320D03*
X017481D03*
X017828D03*
X016441D03*
X016787D03*
X017134D03*
X016094D03*
X015747D03*
X015401D03*
X023028D03*
X023375D03*
X025802D03*
X025455D03*
X021641D03*
X021295D03*
X020948D03*
X022682D03*
X022335D03*
X021988D03*
X018868D03*
X018174D03*
X018521D03*
X029269D03*
X029616D03*
X029962D03*
X028229D03*
X028576D03*
X028922D03*
X027189D03*
X027535D03*
X027882D03*
X026842D03*
X026495D03*
X026149D03*
X034884Y055669D03*
X035200D03*
X036550D03*
X036240D03*
X035930D03*
X027289D03*
X027605D03*
X027922D03*
X028871D03*
X028554D03*
X028238D03*
X029820D03*
X029504D03*
X029187D03*
X032035D03*
X032352D03*
X032668D03*
X031086D03*
X031403D03*
X031719D03*
X030770D03*
X030453D03*
X030137D03*
X033934D03*
X034251D03*
X034567D03*
X033618D03*
X033301D03*
X032985D03*
X018744D03*
X019061D03*
X019377D03*
X020327D03*
X020010D03*
X019694D03*
X021276D03*
X020959D03*
X020643D03*
X023491D03*
X023808D03*
X024124D03*
X022542D03*
X022858D03*
X023175D03*
X022225D03*
X021909D03*
X021592D03*
X026339D03*
X026656D03*
X026972D03*
X025390D03*
X025706D03*
X026023D03*
X025073D03*
X024757D03*
X024441D03*
X015896D03*
X016213D03*
X016529D03*
X017478D03*
X017162D03*
X016846D03*
X018428D03*
X018111D03*
X017795D03*
X013048D03*
X013365D03*
X013681D03*
X014630D03*
X014314D03*
X013997D03*
X015580D03*
X015263D03*
X014947D03*
X012099D03*
X012415D03*
X012732D03*
X011149D03*
X011466D03*
X011782D03*
X010833D03*
X010516D03*
X010200D03*
X035250Y067874D03*
X036550D03*
X036250D03*
X035950D03*
X026900D03*
X027209D03*
X027518D03*
X028446D03*
X028137D03*
X027828D03*
X029374D03*
X029065D03*
X028756D03*
X031539D03*
X031848D03*
X032157D03*
X030611D03*
X030920D03*
X031230D03*
X030302D03*
X029993D03*
X029683D03*
X034322D03*
X034631D03*
X034941D03*
X033394D03*
X033704D03*
X034013D03*
X033085D03*
X032776D03*
X032467D03*
X018550D03*
X018859D03*
X019169D03*
X020096D03*
X019787D03*
X019478D03*
X021024D03*
X020715D03*
X020406D03*
X023189D03*
X023498D03*
X023807D03*
X022261D03*
X022570D03*
X022880D03*
X021952D03*
X021643D03*
X021333D03*
X025972D03*
X026281D03*
X026591D03*
X025044D03*
X025354D03*
X025663D03*
X024735D03*
X024426D03*
X024117D03*
X015767D03*
X016076D03*
X016385D03*
X017313D03*
X017004D03*
X016694D03*
X018241D03*
X017931D03*
X017622D03*
X012983D03*
X013293D03*
X013602D03*
X014530D03*
X014220D03*
X013911D03*
X015457D03*
X015148D03*
X014839D03*
X012056D03*
X012365D03*
X012674D03*
X011128D03*
X011437D03*
X011746D03*
X010819D03*
X010509D03*
X010200D03*
X035591Y068201D03*
Y068502D03*
Y060072D03*
Y060373D03*
Y060674D03*
Y061578D03*
Y061276D03*
Y060975D03*
Y062481D03*
Y062180D03*
Y061879D03*
Y064588D03*
Y064889D03*
Y065190D03*
Y063685D03*
Y063986D03*
Y064287D03*
Y063384D03*
Y063083D03*
Y062782D03*
Y067298D03*
Y067599D03*
Y067900D03*
Y066395D03*
Y066696D03*
Y066997D03*
Y066094D03*
Y065793D03*
Y065492D03*
Y057362D03*
Y057664D03*
Y057965D03*
Y058868D03*
Y058567D03*
Y058266D03*
Y059771D03*
Y059470D03*
Y059169D03*
Y055255D03*
Y056158D03*
Y055857D03*
Y055556D03*
Y057061D03*
Y056760D03*
Y056459D03*
Y053750D03*
Y054051D03*
Y054352D03*
Y052846D03*
Y053147D03*
Y053449D03*
Y052545D03*
Y052244D03*
Y051943D03*
Y045319D03*
Y045621D03*
Y045922D03*
Y046825D03*
Y046524D03*
Y046223D03*
Y047728D03*
Y047427D03*
Y047126D03*
Y049836D03*
Y050137D03*
Y050438D03*
Y048932D03*
Y049233D03*
Y049535D03*
Y048631D03*
Y048330D03*
Y048029D03*
Y051642D03*
Y051341D03*
Y051040D03*
Y050739D03*
Y044416D03*
Y044717D03*
Y045018D03*
X035200Y043465D03*
X035591Y043814D03*
Y044115D03*
Y079040D03*
Y079341D03*
Y078739D03*
Y054653D03*
Y054954D03*
G54D30*
X012700Y049100D03*
X011700D03*
X010700D03*
X012700Y046100D03*
X011700D03*
X015871Y049100D03*
X014871D03*
X013871D03*
X015871Y046100D03*
X014871D03*
X019043Y049100D03*
X018043D03*
X017043D03*
X019043Y046100D03*
X018043D03*
X022214Y049100D03*
X021214D03*
X020214D03*
X022214Y046100D03*
X021214D03*
X025386Y049100D03*
X024386D03*
X023386D03*
X025386Y046100D03*
X024386D03*
X028557Y049100D03*
X027557D03*
X026557D03*
X028557Y046100D03*
X027557D03*
X031729Y049100D03*
X030729D03*
X029729D03*
X031729Y046100D03*
X030729D03*
X034900Y049100D03*
X033900D03*
X032900D03*
X034900Y046100D03*
X033900D03*
X011700Y058400D03*
X012700D03*
X010700Y061400D03*
X011700D03*
X012700D03*
X014871Y058400D03*
X015871D03*
X013871Y061400D03*
X014871D03*
X015871D03*
X018043Y058400D03*
X019043D03*
X017043Y061400D03*
X018043D03*
X019043D03*
X021214Y058400D03*
X022214D03*
X020214Y061400D03*
X021214D03*
X022214D03*
X024386Y058400D03*
X025386D03*
X023386Y061400D03*
X024386D03*
X025386D03*
X027557Y058400D03*
X028557D03*
X026557Y061400D03*
X027557D03*
X028557D03*
X030729Y058400D03*
X031729D03*
X029729Y061400D03*
X030729D03*
X031729D03*
X033900Y058400D03*
X034900D03*
X032900Y061400D03*
X033900D03*
X034900D03*
G54D31*
X010700Y046100D03*
X013871D03*
X017043D03*
X020214D03*
X023386D03*
X026557D03*
X029729D03*
X032900D03*
X010700Y058400D03*
X013871D03*
X017043D03*
X020214D03*
X023386D03*
X026557D03*
X029729D03*
X032900D03*
G54D32*
X011200Y051450D03*
X012200D03*
X011200Y054000D03*
X012200D03*
X015391D03*
X016391D03*
X019582D03*
X020582D03*
X026018Y053831D03*
X025018D03*
X030209D03*
X029209D03*
X034400D03*
X033400D03*
X034400Y051550D03*
X033400D03*
X012200Y063800D03*
X011200D03*
X012200Y066200D03*
X011200D03*
X016391D03*
X015391D03*
X020582D03*
X019582D03*
X025018Y066031D03*
X026018D03*
X029209D03*
X030209D03*
X033400D03*
X034400D03*
X033400Y063631D03*
X034400D03*
G54D33*
X013200Y051450D03*
Y054000D03*
X017391D03*
X021582D03*
X024018Y053831D03*
X028209D03*
X032400D03*
Y051550D03*
X013200Y063800D03*
Y066200D03*
X017391D03*
X021582D03*
X024018Y066031D03*
X028209D03*
X032400D03*
Y063631D03*
G54D34*
X018900Y044250D03*
X025900D03*
X024900D03*
X023900D03*
X022900D03*
X021900D03*
X020900D03*
X019900D03*
X018950Y033200D03*
X025950D03*
X024950D03*
X023950D03*
X022950D03*
X021950D03*
X020950D03*
X019950D03*
X027900Y020250D03*
X020900D03*
X021900D03*
X022900D03*
X023900D03*
X024900D03*
X025900D03*
X026900D03*
X035534Y021900D03*
X035519Y026200D03*
X020350Y023300D03*
X019350D03*
X017900Y017100D03*
X018900D03*
X019900D03*
X020900D03*
X021900D03*
X022900D03*
X023900D03*
X024900D03*
X025900D03*
X026900D03*
X027900D03*
X028900Y036350D03*
X027900D03*
X026900D03*
X025900D03*
X024900D03*
X023900D03*
X022900D03*
X021900D03*
X020900D03*
X019900D03*
X018900D03*
X034950Y031450D03*
Y030450D03*
X033950Y031450D03*
Y030450D03*
X032950Y031450D03*
Y030450D03*
X031950Y031450D03*
Y030450D03*
X030950Y031450D03*
Y030450D03*
X029950Y031450D03*
Y030450D03*
X028950Y031450D03*
Y030450D03*
X027950Y031450D03*
X018900Y056450D03*
X025900D03*
X024900D03*
X023900D03*
X022900D03*
X021900D03*
X020900D03*
X019900D03*
X028900Y063900D03*
X027900D03*
X026900D03*
X025900D03*
X024900D03*
X023900D03*
X022900D03*
X021900D03*
X020900D03*
X019900D03*
X018900D03*
X028900Y051700D03*
X027900D03*
X026900D03*
X025900D03*
X024900D03*
X023900D03*
X022900D03*
X021900D03*
X020900D03*
X019900D03*
X018900D03*
X033950Y076750D03*
Y075750D03*
X032950Y076750D03*
Y075750D03*
X031950Y076750D03*
Y075750D03*
X030950Y076750D03*
Y075750D03*
X029950Y076750D03*
Y075750D03*
X028950Y076750D03*
Y075750D03*
X027950Y076750D03*
Y075750D03*
X026950Y076750D03*
X033950Y072550D03*
X032950D03*
X031950D03*
X030950D03*
X029950D03*
X028950D03*
X033950Y069550D03*
G54D35*
X017900Y044250D03*
X017950Y033200D03*
X028900Y020250D03*
X033566Y021900D03*
X033550Y026200D03*
X021350Y023300D03*
X028900Y017100D03*
X017900Y036350D03*
X027950Y030450D03*
X017900Y056450D03*
Y063900D03*
Y051700D03*
X026950Y075750D03*
G54D36*
X023036Y070164D03*
X021264D03*
X023036Y071936D03*
X021264D03*
X015886Y070164D03*
X014114D03*
X015886Y071936D03*
X014114D03*
G54D37*
X016400Y041100D03*
X014400D03*
X012400D03*
X022300D03*
X020300D03*
X018300D03*
X028200D03*
X026200D03*
X024200D03*
X034484D03*
X032516D03*
X028200Y012400D03*
X026200D03*
X024200D03*
X022300D03*
X020300D03*
X018300D03*
X016400D03*
X014400D03*
X012400D03*
X032500D03*
X034469D03*
G54D38*
X030406Y020800D03*
G54D39*
X031194Y020800D03*
G54D40*
X032950Y069550D03*
X031950D03*
X030950D03*
X029950D03*
G54D41*
X028950Y069550D03*
G54D42*
X029100Y023200D03*
X030100D03*
G54D43*
X031100Y023200D03*
G54D44*
X014150Y076067D03*
X015470D03*
X016790Y076050D03*
X018110Y076067D03*
X019430D03*
X020750D03*
X022050Y076050D03*
X023390D03*
X020200Y027150D03*
Y026100D03*
X028350Y032450D03*
X029225Y032300D03*
X031550Y035250D03*
X034450D03*
X033450D03*
X030100Y032300D03*
X024450Y027350D03*
X024850Y027050D03*
X014100Y029050D03*
X022126Y030450D03*
X022874D03*
X017400Y027150D03*
Y026400D03*
X016200Y030700D03*
X016685Y029565D03*
X012450Y024250D03*
X011750D03*
X013700Y024300D03*
X026500Y024050D03*
X028150Y028600D03*
X032235Y038485D03*
X031565D03*
G54D45*
X031625Y017500D03*
Y016650D03*
X030900Y018350D03*
Y017500D03*
Y016650D03*
X013500Y019350D03*
X013000D03*
X012450D03*
X035350Y016600D03*
X032350Y018350D03*
Y017500D03*
Y016650D03*
X022400Y062650D03*
Y050350D03*
X023400Y025800D03*
X024000D03*
X031625Y018350D03*
G54D49*
X031671Y017500D03*
G54D50*
X034329Y016594D03*
Y017500D03*
G54D51*
X034329Y018406D03*
M02*