%FSDAX24Y24*%
%MOIN*%
%SFA1B1*%

%IPPOS*%
%ADD88C,0.003900*%
%LNde-140824-1*%
%LPD*%
G54D88*
X014746Y032533D02*
D01*
X014745Y032546*
X014744Y032560*
X014741Y032573*
X014738Y032587*
X014734Y032600*
X014728Y032613*
X014722Y032625*
X014716Y032637*
X014708Y032648*
X014699Y032659*
X014690Y032669*
X014680Y032679*
X014670Y032688*
X014659Y032696*
X014647Y032703*
X014635Y032710*
X014622Y032715*
X014609Y032720*
X014596Y032724*
X014583Y032727*
X014569Y032728*
X014555Y032729*
X014542*
X014528Y032728*
X014514Y032727*
X014501Y032724*
X014488Y032720*
X014475Y032715*
X014462Y032710*
X014450Y032703*
X014438Y032696*
X014427Y032688*
X014417Y032679*
X014407Y032669*
X014398Y032659*
X014389Y032648*
X014381Y032637*
X014375Y032625*
X014369Y032613*
X014363Y032600*
X014359Y032587*
X014356Y032573*
X014353Y032560*
X014352Y032546*
X014352Y032533*
X014352Y032519*
X014353Y032505*
X014356Y032492*
X014359Y032478*
X014363Y032465*
X014369Y032452*
X014375Y032440*
X014381Y032428*
X014389Y032417*
X014398Y032406*
X014407Y032396*
X014417Y032386*
X014427Y032377*
X014438Y032369*
X014450Y032362*
X014462Y032355*
X014475Y032350*
X014488Y032345*
X014501Y032341*
X014514Y032338*
X014528Y032337*
X014542Y032336*
X014555*
X014569Y032337*
X014583Y032338*
X014596Y032341*
X014609Y032345*
X014622Y032350*
X014635Y032355*
X014647Y032362*
X014659Y032369*
X014670Y032377*
X014680Y032386*
X014690Y032396*
X014699Y032406*
X014708Y032417*
X014716Y032428*
X014722Y032440*
X014728Y032452*
X014734Y032465*
X014738Y032478*
X014741Y032492*
X014744Y032505*
X014745Y032519*
X014746Y032533*
X025270Y025526D02*
D01*
X025269Y025539*
X025268Y025553*
X025265Y025566*
X025262Y025580*
X025258Y025593*
X025252Y025606*
X025246Y025618*
X025240Y025630*
X025232Y025641*
X025223Y025652*
X025214Y025662*
X025204Y025672*
X025194Y025681*
X025183Y025689*
X025171Y025696*
X025159Y025703*
X025146Y025708*
X025133Y025713*
X025120Y025717*
X025107Y025720*
X025093Y025721*
X025079Y025722*
X025066*
X025052Y025721*
X025038Y025720*
X025025Y025717*
X025012Y025713*
X024999Y025708*
X024986Y025703*
X024974Y025696*
X024962Y025689*
X024951Y025681*
X024941Y025672*
X024931Y025662*
X024922Y025652*
X024913Y025641*
X024905Y025630*
X024899Y025618*
X024893Y025606*
X024887Y025593*
X024883Y025580*
X024880Y025566*
X024877Y025553*
X024876Y025539*
X024876Y025526*
X024876Y025512*
X024877Y025498*
X024880Y025485*
X024883Y025471*
X024887Y025458*
X024893Y025445*
X024899Y025433*
X024905Y025421*
X024913Y025410*
X024922Y025399*
X024931Y025389*
X024941Y025379*
X024951Y025370*
X024962Y025362*
X024974Y025355*
X024986Y025348*
X024999Y025343*
X025012Y025338*
X025025Y025334*
X025038Y025331*
X025052Y025330*
X025066Y025329*
X025079*
X025093Y025330*
X025107Y025331*
X025120Y025334*
X025133Y025338*
X025146Y025343*
X025159Y025348*
X025171Y025355*
X025183Y025362*
X025194Y025370*
X025204Y025379*
X025214Y025389*
X025223Y025399*
X025232Y025410*
X025240Y025421*
X025246Y025433*
X025252Y025445*
X025258Y025458*
X025262Y025471*
X025265Y025485*
X025268Y025498*
X025269Y025512*
X025270Y025526*
X033287Y036587D02*
D01*
X033286Y036600*
X033285Y036614*
X033282Y036627*
X033279Y036641*
X033275Y036654*
X033269Y036667*
X033263Y036679*
X033257Y036691*
X033249Y036702*
X033240Y036713*
X033231Y036723*
X033221Y036733*
X033211Y036742*
X033200Y036750*
X033188Y036757*
X033176Y036764*
X033163Y036769*
X033150Y036774*
X033137Y036778*
X033124Y036781*
X033110Y036782*
X033096Y036783*
X033083*
X033069Y036782*
X033055Y036781*
X033042Y036778*
X033029Y036774*
X033016Y036769*
X033003Y036764*
X032991Y036757*
X032979Y036750*
X032968Y036742*
X032958Y036733*
X032948Y036723*
X032939Y036713*
X032930Y036702*
X032922Y036691*
X032916Y036679*
X032910Y036667*
X032904Y036654*
X032900Y036641*
X032897Y036627*
X032894Y036614*
X032893Y036600*
X032893Y036587*
X032893Y036573*
X032894Y036559*
X032897Y036546*
X032900Y036532*
X032904Y036519*
X032910Y036506*
X032916Y036494*
X032922Y036482*
X032930Y036471*
X032939Y036460*
X032948Y036450*
X032958Y036440*
X032968Y036431*
X032979Y036423*
X032991Y036416*
X033003Y036409*
X033016Y036404*
X033029Y036399*
X033042Y036395*
X033055Y036392*
X033069Y036391*
X033083Y036390*
X033096*
X033110Y036391*
X033124Y036392*
X033137Y036395*
X033150Y036399*
X033163Y036404*
X033176Y036409*
X033188Y036416*
X033200Y036423*
X033211Y036431*
X033221Y036440*
X033231Y036450*
X033240Y036460*
X033249Y036471*
X033257Y036482*
X033263Y036494*
X033269Y036506*
X033275Y036519*
X033279Y036532*
X033282Y036546*
X033285Y036559*
X033286Y036573*
X033287Y036587*
X013567Y020867D02*
D01*
X013566Y020880*
X013565Y020894*
X013562Y020907*
X013559Y020921*
X013555Y020934*
X013549Y020947*
X013543Y020959*
X013537Y020971*
X013529Y020982*
X013520Y020993*
X013511Y021003*
X013501Y021013*
X013491Y021022*
X013480Y021030*
X013468Y021037*
X013456Y021044*
X013443Y021049*
X013430Y021054*
X013417Y021058*
X013404Y021061*
X013390Y021062*
X013376Y021063*
X013363*
X013349Y021062*
X013335Y021061*
X013322Y021058*
X013309Y021054*
X013296Y021049*
X013283Y021044*
X013271Y021037*
X013259Y021030*
X013248Y021022*
X013238Y021013*
X013228Y021003*
X013219Y020993*
X013210Y020982*
X013202Y020971*
X013196Y020959*
X013190Y020947*
X013184Y020934*
X013180Y020921*
X013177Y020907*
X013174Y020894*
X013173Y020880*
X013173Y020867*
X013173Y020853*
X013174Y020839*
X013177Y020826*
X013180Y020812*
X013184Y020799*
X013190Y020786*
X013196Y020774*
X013202Y020762*
X013210Y020751*
X013219Y020740*
X013228Y020730*
X013238Y020720*
X013248Y020711*
X013259Y020703*
X013271Y020696*
X013283Y020689*
X013296Y020684*
X013309Y020679*
X013322Y020675*
X013335Y020672*
X013349Y020671*
X013363Y020670*
X013376*
X013390Y020671*
X013404Y020672*
X013417Y020675*
X013430Y020679*
X013443Y020684*
X013456Y020689*
X013468Y020696*
X013480Y020703*
X013491Y020711*
X013501Y020720*
X013511Y020730*
X013520Y020740*
X013529Y020751*
X013537Y020762*
X013543Y020774*
X013549Y020786*
X013555Y020799*
X013559Y020812*
X013562Y020826*
X013565Y020839*
X013566Y020853*
X013567Y020867*
X010172Y050903D02*
X014228D01*
X010172Y050411D02*
Y052320D01*
X014228Y050411D02*
Y052320D01*
X010172Y050411D02*
X014228D01*
X010172Y052320D02*
X014228D01*
X010172Y053453D02*
X014228D01*
X010172Y052961D02*
Y054870D01*
X014228Y052961D02*
Y054870D01*
X010172Y052961D02*
X014228D01*
X010172Y054870D02*
X014228D01*
X014363Y053453D02*
X018418D01*
X014363Y052961D02*
Y054870D01*
X018418Y052961D02*
Y054870D01*
X014363Y052961D02*
X018418D01*
X014363Y054870D02*
X018418D01*
X018554Y053453D02*
X022609D01*
X018554Y052961D02*
Y054870D01*
X022609Y052961D02*
Y054870D01*
X018554Y052961D02*
X022609D01*
X018554Y054870D02*
X022609D01*
X022991Y054378D02*
X027046D01*
Y052961D02*
Y054870D01*
X022991Y052961D02*
Y054870D01*
X027046*
X022991Y052961D02*
X027046D01*
X027182Y054378D02*
X031237D01*
Y052961D02*
Y054870D01*
X027182Y052961D02*
Y054870D01*
X031237*
X027182Y052961D02*
X031237D01*
X031372Y054378D02*
X035428D01*
Y052961D02*
Y054870D01*
X031372Y052961D02*
Y054870D01*
X035428*
X031372Y052961D02*
X035428D01*
X031372Y052097D02*
X035428D01*
Y050680D02*
Y052589D01*
X031372Y050680D02*
Y052589D01*
X035428*
X031372Y050680D02*
X035428D01*
X015433Y030832D02*
Y031068D01*
X015867Y030832D02*
Y031068D01*
X015433D02*
X015867D01*
X015433Y030832D02*
X015867D01*
X012935Y032887D02*
X014904D01*
X012935Y031313D02*
X014904D01*
Y032887*
X012935Y031313D02*
Y032887D01*
X010172Y064670D02*
X014228D01*
X010172Y062761D02*
X014228D01*
Y064670*
X010172Y062761D02*
Y064670D01*
Y063253D02*
X014228D01*
X010172Y067070D02*
X014228D01*
X010172Y065161D02*
X014228D01*
Y067070*
X010172Y065161D02*
Y067070D01*
Y065653D02*
X014228D01*
X014363Y067070D02*
X018418D01*
X014363Y065161D02*
X018418D01*
Y067070*
X014363Y065161D02*
Y067070D01*
Y065653D02*
X018418D01*
X018554Y067070D02*
X022609D01*
X018554Y065161D02*
X022609D01*
Y067070*
X018554Y065161D02*
Y067070D01*
Y065653D02*
X022609D01*
X022991Y065161D02*
X027046D01*
X022991Y067070D02*
X027046D01*
X022991Y065161D02*
Y067070D01*
X027046Y065161D02*
Y067070D01*
X022991Y066578D02*
X027046D01*
X027182Y065161D02*
X031237D01*
X027182Y067070D02*
X031237D01*
X027182Y065161D02*
Y067070D01*
X031237Y065161D02*
Y067070D01*
X027182Y066578D02*
X031237D01*
X031372Y065161D02*
X035428D01*
X031372Y067070D02*
X035428D01*
X031372Y065161D02*
Y067070D01*
X035428Y065161D02*
Y067070D01*
X031372Y066578D02*
X035428D01*
X031372Y062761D02*
X035428D01*
X031372Y064670D02*
X035428D01*
X031372Y062761D02*
Y064670D01*
X035428Y062761D02*
Y064670D01*
X031372Y064178D02*
X035428D01*
X027133Y028718D02*
X027567D01*
X027133Y028482D02*
X027567D01*
X027133D02*
Y028718D01*
X027567Y028482D02*
Y028718D01*
X013218Y023183D02*
Y023617D01*
X012982Y023183D02*
Y023617D01*
X013218*
X012982Y023183D02*
X013218D01*
X022672Y027928D02*
X025428D01*
X022672Y025172D02*
X025428D01*
X022672D02*
Y027928D01*
X025428Y025172D02*
Y027928D01*
X032735Y036232D02*
X034665D01*
X032735Y037768D02*
X034665D01*
X032735Y036232D02*
Y037768D01*
X034665Y036232D02*
Y037768D01*
X019527Y026164D02*
Y027384D01*
X018818Y026164D02*
Y027384D01*
Y026164D02*
X019527D01*
X018818Y027384D02*
X019527D01*
X028724Y026402D02*
Y027598D01*
X029276Y026402D02*
Y027598D01*
X028724D02*
X029276D01*
X028724Y026402D02*
X029276D01*
X014984Y020513D02*
Y022087D01*
X013016Y020513D02*
Y022087D01*
X014984*
X013016Y020513D02*
X014984D01*
X028053Y023889D02*
X032147D01*
Y022078D02*
Y023889D01*
X028053Y022078D02*
X032147D01*
X028053D02*
Y023889D01*
Y022590D02*
X032147D01*
M02*