%FSDAX24Y24*%
%MOIN*%
%SFA1B1*%

%IPPOS*%
%ADD9500C,0.010000*%
%ADD9501C,0.023600*%
%ADD9502C,0.028000*%
%ADD9503C,0.030000*%
%ADD9504C,0.031500*%
%ADD9505C,0.035400*%
%ADD9506C,0.039400*%
%ADD9507C,0.043300*%
%ADD9508C,0.019700*%
%LNde-140824-1*%
%LPD*%
G54D9500*
X017400Y026400D03*
Y027150D03*
X020200D03*
Y026100D03*
X024450Y027350D03*
X024850Y027050D03*
X026500Y024050D03*
X028150Y028600D03*
X022874Y030450D03*
X022126D03*
X016200Y030700D03*
X016685Y029565D03*
X014100Y029050D03*
X013700Y024300D03*
X012450Y024250D03*
X011750D03*
X028350Y032450D03*
X029225Y032300D03*
X030100D03*
X031550Y035250D03*
X033450D03*
X034450D03*
X032235Y038485D03*
X031565D03*
X015470Y076067D03*
X014150D03*
X016790Y076050D03*
X018110Y076067D03*
X019430D03*
X020750D03*
X022050Y076050D03*
X023390D03*
G54D9501*
X010700Y046100D03*
X011700D03*
X012700D03*
X013871D03*
X014871D03*
X015871D03*
X017043D03*
X018043D03*
X019043D03*
X020214D03*
X021214D03*
X022214D03*
X023386D03*
X024386D03*
X025386D03*
X026557D03*
X027557D03*
X028557D03*
X029729D03*
X030729D03*
X031729D03*
X032900D03*
X033900D03*
X034900D03*
Y049100D03*
X033900D03*
X032900D03*
X031729D03*
Y058400D03*
X032900D03*
X033900D03*
X034900D03*
Y061400D03*
X033900D03*
X032900D03*
X031729D03*
X030729D03*
X029729D03*
X028557D03*
X027557D03*
X026557D03*
X025386D03*
X024386D03*
X023386D03*
X022214D03*
X021214D03*
X020214D03*
X019043D03*
X018043D03*
X017043D03*
X015871D03*
Y058400D03*
X017043D03*
X018043D03*
X019043D03*
X020214D03*
X021214D03*
X022214D03*
X023386D03*
X024386D03*
X025386D03*
X026557D03*
X027557D03*
X028557D03*
X029729D03*
X030729D03*
Y049100D03*
X029729D03*
X028557D03*
X027557D03*
X026557D03*
X025386D03*
X024386D03*
X023386D03*
X022214D03*
X021214D03*
X020214D03*
X019043D03*
X018043D03*
X017043D03*
X015871D03*
X014871D03*
X013871D03*
X012700D03*
X011700D03*
X010700D03*
Y058400D03*
X011700D03*
X012700D03*
X013871D03*
X014871D03*
Y061400D03*
X013871D03*
X012700D03*
X011700D03*
X010700D03*
G54D9502*
X031625Y016650D03*
X032350D03*
Y017500D03*
X031625D03*
Y018350D03*
X032350D03*
X035350Y016600D03*
X030900Y016650D03*
Y017500D03*
Y018350D03*
X024000Y025800D03*
X023400D03*
X013500Y019350D03*
X013000D03*
X012450D03*
X022400Y050350D03*
Y062650D03*
G54D9503*
X014114Y070164D03*
Y071936D03*
X015886D03*
Y070164D03*
X021264D03*
X023036D03*
Y071936D03*
X021264D03*
G54D9504*
X030406Y020800D03*
X031194D03*
G54D9505*
X033566Y021900D03*
X035534D03*
X035519Y026200D03*
X033550D03*
X033950Y030450D03*
X034950D03*
X032950D03*
X031950D03*
X030950D03*
X029950D03*
X028950D03*
X027950D03*
X027900Y020250D03*
X026900D03*
X025900D03*
X024900D03*
X023900D03*
X022900D03*
X021900D03*
X020900D03*
Y017100D03*
X019900D03*
X018900D03*
X017900D03*
X021900D03*
X022900D03*
X023900D03*
X024900D03*
X025900D03*
X026900D03*
X027900D03*
X028900D03*
Y020250D03*
X021350Y023300D03*
X020350D03*
X019350D03*
X018950Y033200D03*
X019950D03*
X020950D03*
X021950D03*
X022950D03*
X023950D03*
X024950D03*
X025950D03*
X025900Y036350D03*
X026900D03*
X027900D03*
X028900D03*
X024900D03*
X023900D03*
X022900D03*
X021900D03*
X020900D03*
X019900D03*
X018900D03*
X017900D03*
X017950Y033200D03*
X017900Y044250D03*
X018900D03*
X019900D03*
X020900D03*
X021900D03*
X022900D03*
X023900D03*
X024900D03*
X025900D03*
X027950Y031450D03*
X028950D03*
X029950D03*
X030950D03*
X031950D03*
X032950D03*
X033950D03*
X034950D03*
X028900Y051700D03*
X027900D03*
X026900D03*
X025900D03*
X024900D03*
X023900D03*
X022900D03*
X021900D03*
X020900D03*
X019900D03*
X018900D03*
X017900D03*
Y056450D03*
X018900D03*
X019900D03*
X020900D03*
X021900D03*
X022900D03*
X023900D03*
X024900D03*
X025900D03*
Y063900D03*
X026900D03*
X027900D03*
X028900D03*
X024900D03*
X023900D03*
X022900D03*
X021900D03*
X020900D03*
X019900D03*
X018900D03*
X017900D03*
X028950Y069550D03*
X029950D03*
X030950D03*
Y072550D03*
X029950D03*
X028950D03*
Y075750D03*
X029950D03*
X030950D03*
Y076750D03*
X029950D03*
X028950D03*
X027950D03*
Y075750D03*
X026950D03*
Y076750D03*
X031950D03*
X032950D03*
X033950D03*
Y075750D03*
X032950D03*
X031950D03*
Y072550D03*
X032950D03*
X033950D03*
Y069550D03*
X032950D03*
X031950D03*
G54D9506*
X012400Y012400D03*
X014400D03*
X016400D03*
X018300D03*
X020300D03*
X022300D03*
X024200D03*
X026200D03*
X028200D03*
X032500D03*
X034469D03*
X014400Y041100D03*
X012400D03*
X016400D03*
X018300D03*
X020300D03*
X022300D03*
X024200D03*
X026200D03*
X028200D03*
X032516D03*
X034484D03*
X034400Y051550D03*
X033400D03*
X032400D03*
Y053831D03*
X033400D03*
X034400D03*
X030209D03*
X029209D03*
X028209D03*
X026018D03*
X025018D03*
X024018D03*
X021582Y054000D03*
X020582D03*
X019582D03*
X017391D03*
X016391D03*
X015391D03*
X013200D03*
X012200D03*
X011200D03*
Y051450D03*
X012200D03*
X013200D03*
Y063800D03*
X012200D03*
X011200D03*
Y066200D03*
X012200D03*
X013200D03*
X015391D03*
X016391D03*
X017391D03*
X019582D03*
X020582D03*
X021582D03*
X024018Y066031D03*
X025018D03*
X026018D03*
X028209D03*
X029209D03*
X030209D03*
X032400D03*
X033400D03*
X034400D03*
Y063631D03*
X033400D03*
X032400D03*
G54D9507*
X029100Y023200D03*
X030100D03*
X031100D03*
G54D9508*
X010200Y043465D03*
X010547D03*
X010893D03*
X011240D03*
X011587D03*
X011934D03*
X012280D03*
X012627D03*
X012974D03*
X013320D03*
X013667D03*
X014014D03*
X014361D03*
X014707D03*
X015054D03*
X015401D03*
X015747D03*
X016094D03*
X016441D03*
X016787D03*
X017134D03*
X017481D03*
X017828D03*
X018174D03*
X018521D03*
X018868D03*
X019214D03*
X019561D03*
X019908D03*
X020255D03*
X020601D03*
X020948D03*
X021295D03*
X021641D03*
X021988D03*
X022335D03*
X022682D03*
X023028D03*
X023375D03*
X023722D03*
X024068D03*
X024415D03*
X024762D03*
X025108D03*
X025455D03*
X025802D03*
X026149D03*
X026495D03*
X026842D03*
X027189D03*
X027535D03*
X027882D03*
X028229D03*
X028576D03*
X028922D03*
X029269D03*
X029616D03*
X029962D03*
X030309D03*
X030656D03*
X031003D03*
X031349D03*
X031696D03*
X032043D03*
X032389D03*
X032736D03*
X033083D03*
X033430D03*
X033776D03*
X034123D03*
X034470D03*
X034816D03*
X035200D03*
X035510D03*
X035856D03*
X036203D03*
X036550D03*
X035591Y043814D03*
Y044115D03*
Y044416D03*
Y044717D03*
Y045018D03*
Y045319D03*
Y045621D03*
Y045922D03*
Y046223D03*
Y046524D03*
Y046825D03*
Y047126D03*
Y047427D03*
Y047728D03*
Y048029D03*
Y048330D03*
Y048631D03*
Y048932D03*
Y049233D03*
Y049535D03*
Y049836D03*
Y050137D03*
Y050438D03*
Y050739D03*
Y051040D03*
Y051341D03*
Y051642D03*
Y051943D03*
Y052244D03*
Y052545D03*
Y052846D03*
Y053147D03*
Y053449D03*
Y053750D03*
Y054051D03*
Y054352D03*
Y054653D03*
Y054954D03*
Y055255D03*
Y055556D03*
Y055857D03*
Y056158D03*
Y056459D03*
Y056760D03*
Y057061D03*
Y057362D03*
Y057664D03*
Y057965D03*
Y058266D03*
Y058567D03*
Y058868D03*
Y059169D03*
Y059470D03*
Y059771D03*
Y060072D03*
Y060373D03*
Y060674D03*
Y060975D03*
Y061276D03*
Y061578D03*
Y061879D03*
Y062180D03*
Y062481D03*
X035930Y055669D03*
X036240D03*
X036550D03*
X035200D03*
X034884D03*
X034567D03*
X034251D03*
X033934D03*
X033618D03*
X033301D03*
X032985D03*
X032668D03*
X032352D03*
X032035D03*
X031719D03*
X031403D03*
X031086D03*
X030770D03*
X030453D03*
X030137D03*
X029820D03*
X029504D03*
X029187D03*
X028871D03*
X028554D03*
X028238D03*
X027922D03*
X027605D03*
X027289D03*
X026972D03*
X026656D03*
X026339D03*
X026023D03*
X025706D03*
X025390D03*
X025073D03*
X024757D03*
X024441D03*
X024124D03*
X023808D03*
X023491D03*
X023175D03*
X022858D03*
X022542D03*
X022225D03*
X021909D03*
X021592D03*
X021276D03*
X020959D03*
X020643D03*
X020327D03*
X020010D03*
X019694D03*
X019377D03*
X019061D03*
X018744D03*
X018428D03*
X018111D03*
X017795D03*
X017478D03*
X017162D03*
X016846D03*
X016529D03*
X016213D03*
X015896D03*
X015580D03*
X015263D03*
X014947D03*
X014630D03*
X014314D03*
X013997D03*
X013681D03*
X013365D03*
X013048D03*
X012732D03*
X012415D03*
X012099D03*
X011782D03*
X011466D03*
X011149D03*
X010833D03*
X010516D03*
X010200D03*
Y067874D03*
X010509D03*
X010819D03*
X011128D03*
X011437D03*
X011746D03*
X012056D03*
X012365D03*
X012674D03*
X012983D03*
X013293D03*
X013602D03*
X013911D03*
X014220D03*
X014530D03*
X014839D03*
X015148D03*
X015457D03*
X015767D03*
X016076D03*
X016385D03*
X016694D03*
X017004D03*
X017313D03*
X017622D03*
X017931D03*
X018241D03*
X018550D03*
X018859D03*
X019169D03*
X019478D03*
X019787D03*
X020096D03*
X020406D03*
X020715D03*
X021024D03*
X021333D03*
X021643D03*
X021952D03*
X022261D03*
X022570D03*
X022880D03*
X023189D03*
X023498D03*
X023807D03*
X024117D03*
X024426D03*
X024735D03*
X025044D03*
X025354D03*
X025663D03*
X025972D03*
X026281D03*
X026591D03*
X026900D03*
X027209D03*
X027518D03*
X027828D03*
X028137D03*
X028446D03*
X028756D03*
X029065D03*
X029374D03*
X029683D03*
X029993D03*
X030302D03*
X030611D03*
X030920D03*
X031230D03*
X031539D03*
X031848D03*
X032157D03*
X032467D03*
X032776D03*
X033085D03*
X033394D03*
X033704D03*
X034013D03*
X034322D03*
X034631D03*
X034941D03*
X035250D03*
X035591Y067900D03*
Y068201D03*
Y068502D03*
Y068803D03*
Y069104D03*
Y069406D03*
X035600Y069707D03*
Y070008D03*
Y070309D03*
Y070610D03*
Y070911D03*
Y071212D03*
X035591Y071513D03*
Y071814D03*
Y072115D03*
X035600Y072416D03*
Y072717D03*
Y073018D03*
X035591Y073320D03*
Y073621D03*
Y073922D03*
X035600Y074223D03*
Y074524D03*
Y074825D03*
Y075126D03*
Y075427D03*
Y075728D03*
Y076029D03*
Y076330D03*
Y076631D03*
Y076932D03*
Y077234D03*
Y077535D03*
Y077836D03*
X035591Y067599D03*
Y067298D03*
Y066997D03*
Y066696D03*
Y066395D03*
Y066094D03*
Y065793D03*
Y065492D03*
Y065190D03*
Y064889D03*
Y064588D03*
Y064287D03*
Y063986D03*
Y063685D03*
Y063384D03*
Y063083D03*
Y062782D03*
X035950Y067874D03*
X036250D03*
X036550D03*
X035600Y078137D03*
Y078438D03*
X035591Y078739D03*
Y079040D03*
Y079341D03*
M02*