%FSDAX24Y24*%
%MOIN*%
%SFA1B1*%

%IPPOS*%
%ADD10R,0.043300X0.039400*%
%ADD11R,0.051200X0.059100*%
%ADD12R,0.031500X0.031500*%
%ADD13R,0.023600X0.019700*%
%ADD14R,0.039400X0.043300*%
%ADD15R,0.059100X0.051200*%
%ADD16O,0.023600X0.086600*%
%ADD17R,0.019700X0.023600*%
%ADD18O,0.011800X0.070900*%
%ADD19O,0.070900X0.011800*%
%ADD20R,0.043300X0.025600*%
%ADD21R,0.059100X0.023600*%
%ADD22C,0.010000*%
%ADD23C,0.020000*%
%ADD24C,0.050000*%
%ADD25C,0.030000*%
%ADD26R,0.335000X0.435000*%
%ADD27R,0.210000X0.125000*%
%ADD28R,0.100000X0.105000*%
%ADD29C,0.019700*%
%ADD30O,0.047200X0.098400*%
%ADD31R,0.047200X0.098400*%
%ADD32C,0.063000*%
%ADD33R,0.063000X0.063000*%
%ADD34C,0.059100*%
%ADD35R,0.059100X0.059100*%
%ADD36C,0.060000*%
%ADD37C,0.098400*%
%ADD38C,0.053100*%
%ADD39R,0.053100X0.053100*%
%ADD40C,0.059100*%
%ADD41R,0.059100X0.059100*%
%ADD42C,0.066900*%
%ADD43R,0.066900X0.066900*%
%ADD44C,0.030000*%
%ADD45C,0.050000*%
%LNde-140824-1*%
%LPD*%
G54D10*
X024235Y057400D03*
X023565D03*
X021965D03*
X022635D03*
X019165D03*
X019835D03*
X016415D03*
X017085D03*
X019215Y045150D03*
X019885D03*
X024585D03*
X023915D03*
X012815Y029600D03*
X013485D03*
X012815Y030250D03*
X013485D03*
X025985Y024050D03*
X025315D03*
X022165Y029100D03*
X022835D03*
X027015Y028100D03*
X027685D03*
X031565Y038000D03*
X032235D03*
X012435Y023100D03*
X011765D03*
X012435Y023700D03*
X011765D03*
X014331Y023100D03*
X015000D03*
X014365Y023700D03*
X015035D03*
X034835Y039050D03*
X034165D03*
X032515D03*
X033185D03*
X031565Y036000D03*
X032235D03*
X019635Y028400D03*
X018965D03*
X019635Y027800D03*
X018965D03*
X028565Y026000D03*
X029235D03*
X016465Y045150D03*
X017135D03*
X021915D03*
X022585D03*
G54D11*
X012176Y050350D03*
X012924D03*
X016976D03*
X017724D03*
X032676D03*
X033424D03*
X031226D03*
X031974D03*
X029726D03*
X030474D03*
X022126Y029800D03*
X022874D03*
X026976Y027400D03*
X027724D03*
X012500Y022400D03*
X011752D03*
X011474Y062650D03*
X010726D03*
X012974D03*
X012226D03*
X014474D03*
X013726D03*
X010676Y050350D03*
X011424D03*
X013726D03*
X014474D03*
X017824Y062650D03*
X017076D03*
X019274D03*
X018526D03*
X020824D03*
X020076D03*
X024124D03*
X023376D03*
X025674D03*
X024926D03*
X027174D03*
X026426D03*
X019224Y050350D03*
X018476D03*
X020774D03*
X020026D03*
X030474Y062650D03*
X029726D03*
X031974D03*
X031226D03*
X033474D03*
X032726D03*
X026526Y050350D03*
X027274D03*
X025774D03*
X025026D03*
X023426D03*
X024174D03*
G54D12*
X019430Y074833D03*
Y075424D03*
X014150Y074833D03*
Y075424D03*
Y077300D03*
Y076709D03*
X020750Y074833D03*
Y075424D03*
X015470Y074833D03*
Y075424D03*
X020750Y077300D03*
Y076709D03*
X015470Y077300D03*
Y076709D03*
X022070Y074833D03*
Y075424D03*
X016790Y074833D03*
Y075424D03*
Y077300D03*
Y076709D03*
X023390Y074833D03*
Y075424D03*
X018110Y074833D03*
Y075424D03*
X023390Y077300D03*
Y076709D03*
X018110Y077300D03*
Y076709D03*
X019430Y077300D03*
Y076709D03*
X022070Y077300D03*
Y076709D03*
G54D13*
X015453Y030950D03*
X015847D03*
X027153Y028600D03*
X027547D03*
G54D14*
X016200Y029515D03*
Y030185D03*
X014700Y029565D03*
Y030235D03*
X014100Y030250D03*
Y029581D03*
X018000Y027135D03*
Y026465D03*
X032200Y037335D03*
Y036665D03*
X031546D03*
Y037335D03*
X013700Y023800D03*
Y023131D03*
G54D15*
X015450Y029476D03*
Y030224D03*
G54D16*
X014669Y033045D03*
X014169D03*
X013669D03*
X013169D03*
X014669Y031155D03*
X014169D03*
X013669D03*
X013169D03*
X032950Y036055D03*
X033450D03*
X033950D03*
X034450D03*
X032950Y037945D03*
X033450D03*
X033950D03*
X034450D03*
X014750Y022245D03*
X014250D03*
X013750D03*
X013250D03*
X014750Y020355D03*
X014250D03*
X013750D03*
X013250D03*
G54D17*
X013100Y023597D03*
Y023203D03*
G54D18*
X025133Y024956D03*
X024936D03*
X024739D03*
X024542D03*
X024345D03*
X024148D03*
X023952D03*
X023755D03*
X023558D03*
X023361D03*
X023164D03*
X022967D03*
Y028144D03*
X023164D03*
X023361D03*
X023558D03*
X023755D03*
X023952D03*
X024148D03*
X024345D03*
X024542D03*
X024739D03*
X024936D03*
X025133D03*
G54D19*
X022456Y025467D03*
Y025664D03*
Y025861D03*
Y026058D03*
Y026255D03*
Y026452D03*
Y026648D03*
Y026845D03*
Y027042D03*
Y027239D03*
Y027436D03*
Y027633D03*
X025644D03*
Y027436D03*
Y027239D03*
Y027042D03*
Y026845D03*
Y026648D03*
Y026452D03*
Y026255D03*
Y026058D03*
Y025861D03*
Y025664D03*
Y025467D03*
G54D20*
X019645Y026400D03*
Y026774D03*
Y027148D03*
X018700D03*
Y026400D03*
G54D21*
X028626Y027374D03*
Y026626D03*
X029374Y027000D03*
G54D22*
X017135Y045150D02*
X017500D01*
X017900Y044250D02*
Y044750D01*
X017043Y046100D02*
X017993Y045150D01*
X019215*
X019900Y044250D02*
Y045135D01*
X019885Y045150D02*
X019900Y045135D01*
X021900Y044250D02*
Y045135D01*
X021915Y045150*
X022585D02*
X023150D01*
X023386Y045386*
Y046100*
X023900Y044250D02*
Y045135D01*
X023915Y045150*
X024585D02*
X029400D01*
X029729Y045479*
Y046100*
X017500Y045150D02*
X017900Y044750D01*
X010700Y045450D02*
Y046100D01*
Y045450D02*
X011000Y045150D01*
X016465*
X011100Y057400D02*
X016415D01*
X010700Y057800D02*
X011100Y057400D01*
X010700Y057800D02*
Y058400D01*
X017085Y057400D02*
X017817Y056667D01*
X017043Y058400D02*
X018043Y057400D01*
X019165*
X019900Y056450D02*
Y057335D01*
X019835Y057400D02*
X019900Y057335D01*
X021900D02*
X021965Y057400D01*
X021900Y056450D02*
Y057335D01*
X023565Y057115D02*
Y057400D01*
X022900Y056450D02*
X023565Y057115D01*
X022635Y057400D02*
Y057649D01*
X023386Y058400*
X024235Y057400D02*
X025900D01*
X026557Y058057*
Y058400*
X031450Y076250D02*
X031950Y075750D01*
X030950D02*
X031500Y075200D01*
X032300*
X032500Y075400*
X031450Y076250D02*
Y077050D01*
X032500Y075400D02*
Y077050D01*
X018110Y077300D02*
X018660Y077850D01*
X031700*
X032500Y077050*
X023390Y077300D02*
X031200D01*
X031450Y077050*
X032950Y075750D02*
X033450Y076250D01*
X034400*
X034650Y076000*
X033950Y075050D02*
Y075750D01*
X023390Y074833D02*
X033733D01*
X033950Y075050*
X018110Y074833D02*
X018643Y074300D01*
X034350*
X034650Y074600*
Y076000*
X024936Y024264D02*
Y024956D01*
Y024264D02*
X025150Y024050D01*
X025315*
X025133Y024956D02*
X025644D01*
Y025467*
Y024956D02*
X025985Y024615D01*
X022706Y028144D02*
X022967D01*
X022126Y028724D02*
X022706Y028144D01*
X023164D02*
Y028636D01*
X022874Y028926D02*
X023164Y028636D01*
X019635Y027158D02*
Y027800D01*
Y027158D02*
X019645Y027148D01*
X018687Y027135D02*
X018700Y027148D01*
X019024Y026774D02*
X019645D01*
X018700Y026450D02*
X019024Y026774D01*
X018700Y026400D02*
Y026450D01*
X029374Y026139D02*
Y027000D01*
X029235Y026000D02*
X029374Y026139D01*
X028565Y026000D02*
Y026610D01*
X028604Y026648*
X027724Y027400D02*
X027750Y027374D01*
X027685Y028100D02*
X027724Y028061D01*
X026976Y027400D02*
X027015Y027439D01*
X025644Y027042D02*
X026692D01*
X026876Y027226*
X014100Y030250D02*
X014169Y030319D01*
X014669Y030265D02*
X014700Y030235D01*
X014081Y029600D02*
X014100Y029581D01*
X013169Y031019D02*
Y031155D01*
X031546Y036665D02*
X031565Y036646D01*
X021455Y026845D02*
X022456D01*
X021512Y027042D02*
X022456D01*
X021570Y027239D02*
X022456D01*
X020750Y027550D02*
X021455Y026845D01*
X019645Y027148D02*
X019647Y027150D01*
X019635Y028400D02*
X019950D01*
X020100Y028250*
Y027800D02*
Y028250D01*
Y027800D02*
X020550Y027350D01*
Y026648D02*
X022456D01*
X020550Y026650D02*
Y027350D01*
X019645Y026400D02*
X019950D01*
X020200Y026650*
X020550*
X019647Y027150D02*
X020200D01*
Y026100D02*
X020552Y026452D01*
X022456*
X020930Y027625D02*
X021512Y027042D01*
X021110Y027699D02*
X021570Y027239D01*
X021628Y027436D02*
X022456D01*
X021290Y027774D02*
X021628Y027436D01*
X021470Y027880D02*
X021717Y027633D01*
X022456*
X021110Y027699D02*
Y032040D01*
X022950Y033200D02*
X023361Y032789D01*
Y028144D02*
Y032789D01*
X023558Y028144D02*
Y032808D01*
X023950Y033200*
X023755Y028144D02*
Y031905D01*
X024950Y033100*
Y033200*
X018950D02*
X020930Y031220D01*
X019950Y033200D02*
X021110Y032040D01*
X017950Y033200D02*
X020750Y030400D01*
X026136Y027436D02*
X026250Y027550D01*
X023952Y030397D02*
X027105Y033550D01*
X024148Y030339D02*
X027179Y033370D01*
X024345Y030282D02*
X027254Y033190D01*
X024542Y030224D02*
X027328Y033010D01*
X024739Y030166D02*
X027403Y032830D01*
X029850Y032650D02*
X030100Y032400D01*
Y032300D02*
Y032400D01*
X028600Y032150D02*
X029100Y032650D01*
X029850*
X025644Y025861D02*
X027125D01*
X030450Y025536D02*
Y030950D01*
X029950Y031450D02*
X030450Y030950D01*
X025644Y025664D02*
X027068D01*
X025644Y026648D02*
X028604D01*
X025644Y026452D02*
X027298D01*
X025644Y026255D02*
X027241D01*
X025644Y026058D02*
X027183D01*
X027068Y025664D02*
X028032Y024700D01*
X029868*
X030630Y025462*
X030810Y025387D02*
Y029255D01*
X031950Y030395D02*
Y030450D01*
X030810Y029255D02*
X031950Y030395D01*
X029943Y024520D02*
X030810Y025387D01*
X024542Y023653D02*
Y024956D01*
X024739Y023711D02*
Y024956D01*
X028190Y024340D02*
X030017D01*
X030990Y025313*
X028265Y024160D02*
X030092D01*
X031170Y025238*
Y027670D02*
X033950Y030450D01*
X031350Y026850D02*
X034950Y030450D01*
X023952Y024956D02*
X023959Y024948D01*
X024542Y023653D02*
X025145Y023050D01*
X026900*
X028190Y024340*
X026975Y022870D02*
X028265Y024160D01*
X025071Y022870D02*
X026975D01*
X024148Y023792D02*
Y024956D01*
Y023792D02*
X025071Y022870D01*
X023959Y023727D02*
Y024948D01*
Y023727D02*
X024996Y022690D01*
X027049*
X028339Y023980*
X030166*
X031350Y025164*
X027125Y025861D02*
X028106Y024880D01*
X029794*
X030450Y025536*
X027183Y026058D02*
X028181Y025060D01*
X029719*
X030270Y025611*
X027241Y026255D02*
X028255Y025240D01*
X029645*
X030090Y025685*
X027298Y026452D02*
X028330Y025420D01*
X029570*
X029910Y025760*
X020850Y022750D02*
X021100Y022500D01*
X019850Y022700D02*
X020250Y022300D01*
X018900Y022650D02*
X019450Y022100D01*
X020850Y022750D02*
Y024405D01*
X021913Y025467*
X022456*
X019850Y022700D02*
Y023850D01*
X021664Y025664*
X022456*
X019350Y023300D02*
Y023850D01*
X021361Y025861*
X022456*
X021350Y023300D02*
Y024300D01*
X022006Y024956*
X022967*
X021100Y022500D02*
X023200D01*
X024900Y020800*
Y020250D02*
Y020800D01*
X020750Y021900D02*
X021900Y020750D01*
Y020250D02*
Y020750D01*
X019450Y022100D02*
X021600D01*
X022900Y020800*
Y020250D02*
Y020800D01*
X020250Y022300D02*
X022400D01*
X023900Y020800*
Y020250D02*
Y020800D01*
X026900Y020250D02*
Y020750D01*
X027900Y020250D02*
Y020750D01*
X028900Y020250D02*
Y020800D01*
X027190Y022510D02*
X028900Y020800D01*
X026320Y022330D02*
X027900Y020750D01*
X025500Y022150D02*
X026900Y020750D01*
X024739Y023711D02*
X025220Y023230D01*
X026825*
X028115Y024520*
X029943*
X024922Y022510D02*
X027190D01*
X023755Y023677D02*
Y024956D01*
Y023677D02*
X024922Y022510D01*
X024847Y022330D02*
X026320D01*
X023558Y023619D02*
Y024956D01*
Y023619D02*
X024847Y022330D01*
X024773Y022150D02*
X025500D01*
X023361Y023562D02*
Y024956D01*
Y023562D02*
X024773Y022150D01*
X023164Y023504D02*
Y024956D01*
Y023504D02*
X025900Y020768D01*
Y020250D02*
Y020768D01*
X031170Y025238D02*
Y027670D01*
X030630Y025462D02*
Y030130D01*
X030950Y030450*
X029950Y030350D02*
Y030450D01*
Y030350D02*
X030270Y030030D01*
Y025611D02*
Y030030D01*
X028950Y030350D02*
Y030450D01*
Y030350D02*
X030090Y029210D01*
Y025685D02*
Y029210D01*
X027950Y030450D02*
X029910Y028490D01*
Y025760D02*
Y028490D01*
X030990Y025313D02*
Y028490D01*
X032950Y030450*
X031350Y025164D02*
Y026850D01*
X027403Y032830D02*
X030170D01*
X030950Y032050*
Y031450D02*
Y032050D01*
X027328Y033010D02*
X030940D01*
X031950Y032000*
Y031450D02*
Y032000D01*
X027254Y033190D02*
X031760D01*
X032950Y032000*
Y031450D02*
Y032000D01*
X027179Y033370D02*
X032530D01*
X033950Y031950*
Y031450D02*
Y031950D01*
X027105Y033550D02*
X033400D01*
X034950Y032000*
Y031450D02*
Y032000D01*
X024739Y028144D02*
Y030166D01*
X024542Y028144D02*
Y030224D01*
X024345Y028144D02*
Y030282D01*
X024148Y028144D02*
Y030339D01*
X023952Y028144D02*
Y030397D01*
X025133Y028144D02*
Y030305D01*
X027277Y032450*
X028350*
X025644Y027633D02*
Y030563D01*
X027232Y032150*
X028600*
X026250Y027550D02*
Y030914D01*
X027306Y031970*
X028895*
X029225Y032300*
X021290Y027774D02*
Y032860D01*
X020950Y033200D02*
X021290Y032860D01*
X021470Y027880D02*
Y032820D01*
X021850Y033200*
X021950*
X020750Y027550D02*
Y030400D01*
X020930Y027625D02*
Y031220D01*
X018900Y022650D02*
Y023850D01*
X021108Y026058*
X022456*
X020855Y026255D02*
X022456D01*
X018600Y024000D02*
X020855Y026255D01*
X018600Y022550D02*
Y024000D01*
Y022550D02*
X019250Y021900D01*
X020750*
X025644Y027436D02*
X026136D01*
X025039Y027239D02*
X025644D01*
X024850Y027050D02*
X025039Y027239D01*
X024936Y027586D02*
Y028144D01*
X024700Y027350D02*
X024936Y027586D01*
X024450Y027350D02*
X024700D01*
X026876Y027226D02*
Y027400D01*
X025644Y026845D02*
X027545D01*
X027750Y027050*
Y027374*
X025195Y026845D02*
X025644D01*
X024936Y024956D02*
Y026586D01*
X025195Y026845*
X024345Y024956D02*
Y025695D01*
X023164Y026586D02*
Y028144D01*
Y026586D02*
X023200Y026550D01*
X015439Y030235D02*
X015450Y030245D01*
X025985Y024050D02*
Y024615D01*
G54D23*
X010700Y049100D02*
Y050326D01*
X010676Y050350D02*
X010700Y050326D01*
X011424Y050350D02*
X012176D01*
X012924D02*
X013726D01*
X017043Y049100D02*
Y050283D01*
X016976Y050350D02*
X017043Y050283D01*
X017724Y050350D02*
X018476D01*
X019224D02*
X020026D01*
X026557Y049100D02*
Y049257D01*
X029729Y049100D02*
Y050347D01*
X029726Y050350D02*
X029729Y050347D01*
X030474Y050350D02*
X031226D01*
X031974D02*
X032676D01*
X033424D02*
Y051526D01*
X033400Y051550D02*
X033424Y051526D01*
X010700Y062624D02*
X010726Y062650D01*
X010700Y061400D02*
Y062624D01*
X017043Y061400D02*
Y062617D01*
X017076Y062650*
X017824D02*
X018526D01*
X019274D02*
X020076D01*
X023386Y061400D02*
Y062640D01*
X023376Y062650D02*
X023386Y062640D01*
X024124Y062650D02*
X024926D01*
X025674D02*
X026426D01*
X027174D02*
X027550D01*
X027900Y063000*
Y063900*
X029729Y061400D02*
Y062647D01*
X029726Y062650D02*
X029729Y062647D01*
X030474Y062650D02*
X031226D01*
X031974D02*
X032726D01*
X033474D02*
Y063557D01*
X033400Y063631D02*
X033474Y063557D01*
X034400Y063631D02*
X034900Y063131D01*
Y061400D02*
Y063131D01*
X011474Y062650D02*
X012226D01*
X012974D02*
X013726D01*
X014474D02*
X015350D01*
X016600Y063900*
X017900*
X020824Y062650D02*
X022400D01*
X014150Y074833D02*
X015470D01*
X016790*
X018110*
X019430D02*
X020750D01*
X022070*
X023390*
X022070Y077300D02*
X023390D01*
X020750D02*
X022070D01*
X019430D02*
X020750D01*
X016790D02*
X018110D01*
X015470D02*
X016790D01*
X014150D02*
X015470D01*
X014150Y075424D02*
Y076067D01*
Y076709*
X015470Y075424D02*
Y076067D01*
Y076709*
X016790Y075424D02*
Y076050D01*
Y076709*
X018110Y075424D02*
Y076067D01*
Y076709*
X019430Y075424D02*
Y076067D01*
Y076709*
X020750Y075424D02*
Y076067D01*
Y076709*
X023390Y075424D02*
Y076050D01*
Y076709*
X022070Y075424D02*
Y076709D01*
X034400Y051550D02*
X034900Y051050D01*
Y049100D02*
Y051050D01*
X023386Y049100D02*
Y050310D01*
X023426Y050350*
X024174D02*
X025026D01*
X025774D02*
X026526D01*
X027274D02*
X027450D01*
X027900Y050800*
Y051700*
X020774Y050350D02*
X022400D01*
X014474D02*
X015350D01*
X016700Y051700*
X017900*
X018700Y027148D02*
Y027535D01*
X018965Y027800*
Y028400*
X027724Y027400D02*
Y028061D01*
X027015Y028462D02*
X027153Y028600D01*
X027015Y028100D02*
Y028462D01*
Y027439D02*
Y028100D01*
X027750Y027374D02*
X028626D01*
X013669Y030669D02*
Y031155D01*
X013485Y030485D02*
X013669Y030669D01*
X013485Y030250D02*
Y030485D01*
X014169Y030319D02*
Y031155D01*
X014669Y030265D02*
Y031155D01*
X014700Y030235D02*
X015439D01*
X013485Y029600D02*
X014081D01*
X012815D02*
Y030250D01*
Y030665D02*
X013169Y031019D01*
X012815Y030250D02*
Y030665D01*
X012500Y022400D02*
X013095D01*
X013250Y022245*
X012500Y022400D02*
Y023035D01*
X012435Y023100D02*
X012500Y023035D01*
X012435Y023100D02*
X012538Y023203D01*
X013100*
X013750Y022245D02*
Y023081D01*
X013700Y023131D02*
X013750Y023081D01*
X014250Y022245D02*
Y022750D01*
X014331Y022831*
Y023100*
X013800Y023700D02*
X014365D01*
X013700Y023800D02*
X013800Y023700D01*
X012435D02*
X012997D01*
X013100Y023597*
X014750Y022550D02*
X015035Y022835D01*
X014750Y022245D02*
Y022550D01*
X011752Y022400D02*
X011765Y022413D01*
Y023100*
Y023700*
X032516Y041100D02*
X032531Y041085D01*
X034484Y040266D02*
X034835Y039915D01*
X034484Y040266D02*
Y041100D01*
X033450Y037945D02*
Y038450D01*
X033200Y038700D02*
X033450Y038450D01*
X033200Y038700D02*
Y039000D01*
X033950Y037945D02*
Y038400D01*
X034165Y038615*
Y039000*
X032290Y037945D02*
X032950D01*
X032235Y038000D02*
X032290Y037945D01*
X032200Y036665D02*
X032565D01*
X032700Y036800*
X033550*
X033700Y036650*
Y036055D02*
Y036650D01*
X033450Y036055D02*
X033700D01*
X033950*
X032290D02*
X032950D01*
X032235Y036000D02*
X032290Y036055D01*
X031565Y036000D02*
Y036646D01*
Y035265D02*
Y036000D01*
X031550Y035250D02*
X031565Y035265D01*
X033450Y035250D02*
Y036055D01*
X034450Y035250D02*
Y036055D01*
X032531Y039000D02*
Y041085D01*
X034835Y039000D02*
Y039050D01*
Y039915*
X014100Y029050D02*
Y029581D01*
X022126Y029800D02*
Y030426D01*
X022874Y029800D02*
Y030450D01*
X017400Y027150D02*
X017415Y027135D01*
X018000*
X018687*
X015450Y030245D02*
Y030953D01*
X016200Y030185D02*
Y030700D01*
Y030750*
X016000Y030950D02*
X016200Y030750D01*
X015847Y030950D02*
X016000D01*
X012815Y029085D02*
Y029600D01*
Y029085D02*
X013250Y028650D01*
X015300*
X015450Y028800*
Y029476*
X012435Y023700D02*
Y024235D01*
X012450Y024250*
X011765Y023700D02*
Y024235D01*
X011750Y024250D02*
X011765Y024235D01*
X015035Y023700D02*
Y024315D01*
X011750Y024250D02*
Y024600D01*
X013700Y023800D02*
Y024300D01*
X011750Y024600D02*
X011850Y024700D01*
X014650*
X015035Y024315*
X025985Y024050D02*
X026500D01*
X027547Y028600D02*
X028150D01*
X028800*
X029374Y028026*
Y027000D02*
Y028026D01*
X032235Y038000D02*
Y038485D01*
X022126Y028724D02*
Y029800D01*
X015035Y022835D02*
Y023700D01*
X017400Y026400D02*
X018700D01*
X014700Y029565D02*
X016685D01*
X022874Y028926D02*
Y029800D01*
G54D24*
X019900Y036350D02*
Y036750D01*
X021900Y036350D02*
Y037500D01*
X022300Y041100D02*
X023900Y039500D01*
Y036350D02*
Y039500D01*
X025900Y040800D02*
X026200Y041100D01*
X025900Y036350D02*
Y040800D01*
X018300Y041100D02*
X021900Y037500D01*
X016400Y040800D02*
Y041100D01*
X026200Y012400D02*
X026900Y013100D01*
Y017100*
X022300Y012400D02*
X024900Y015000D01*
Y017100*
X014400Y041100D02*
X016050Y039450D01*
X017200*
X019900Y036750*
X014400Y012400D02*
Y012800D01*
X016900Y015300*
X019900*
X020900Y016300*
Y017100*
X022900Y016450D02*
Y017100D01*
X020350Y013900D02*
X022900Y016450D01*
X018950Y013900D02*
X020350D01*
X018300Y013250D02*
X018950Y013900D01*
X018300Y012400D02*
Y013250D01*
X014500Y018350D02*
X015750Y017100D01*
X017900*
X018900*
X014450Y035900D02*
X014900Y036350D01*
X017900*
X018900*
X012400Y037500D02*
Y041100D01*
Y037500D02*
X013400Y036500D01*
Y032850D02*
Y036500D01*
X014450Y032850D02*
Y035900D01*
X014500Y018350D02*
Y020550D01*
X013000Y019350D02*
X013500D01*
X012450D02*
X013000D01*
X013500D02*
Y020450D01*
G54D25*
X031565Y037354D02*
Y038000D01*
X031546Y037335D02*
X031565Y037354D01*
X034450Y037350D02*
Y037945D01*
X034300Y037200D02*
X034450Y037350D01*
X032700Y037200D02*
X034300D01*
X032565Y037335D02*
X032700Y037200D01*
X031565Y038000D02*
Y038485D01*
X031546Y037335D02*
X032565D01*
G54D26*
X032025Y017275D03*
G54D27*
X024050Y026125D03*
G54D28*
X023500Y027075D03*
G54D29*
X035591Y068803D03*
Y069406D03*
Y069104D03*
X035600Y069707D03*
Y070309D03*
Y070008D03*
Y070610D03*
Y071212D03*
Y070911D03*
X035591Y071513D03*
Y072115D03*
Y071814D03*
X035600Y072416D03*
Y073018D03*
Y072717D03*
X035591Y073320D03*
Y073922D03*
Y073621D03*
X035600Y074223D03*
Y074825D03*
Y074524D03*
Y075126D03*
Y075728D03*
Y075427D03*
Y076029D03*
Y076631D03*
Y076330D03*
Y076932D03*
Y077535D03*
Y077234D03*
Y077836D03*
Y078438D03*
Y078137D03*
X035510Y043465D03*
X035856D03*
X036203D03*
X036550D03*
X034816D03*
X034470D03*
X034123D03*
X023722D03*
X024762D03*
X024415D03*
X024068D03*
X025108D03*
X032389D03*
X032736D03*
X033083D03*
X033776D03*
X033430D03*
X031003D03*
X030656D03*
X030309D03*
X032043D03*
X031696D03*
X031349D03*
X019908D03*
X020255D03*
X020601D03*
X019214D03*
X019561D03*
X010200D03*
X010547D03*
X010893D03*
X011934D03*
X011587D03*
X011240D03*
X012974D03*
X012627D03*
X012280D03*
X014707D03*
X015054D03*
X014361D03*
X014014D03*
X013667D03*
X013320D03*
X017481D03*
X017828D03*
X016441D03*
X016787D03*
X017134D03*
X016094D03*
X015747D03*
X015401D03*
X023028D03*
X023375D03*
X025802D03*
X025455D03*
X021641D03*
X021295D03*
X020948D03*
X022682D03*
X022335D03*
X021988D03*
X018868D03*
X018174D03*
X018521D03*
X029269D03*
X029616D03*
X029962D03*
X028229D03*
X028576D03*
X028922D03*
X027189D03*
X027535D03*
X027882D03*
X026842D03*
X026495D03*
X026149D03*
X034884Y055669D03*
X035200D03*
X036550D03*
X036240D03*
X035930D03*
X027289D03*
X027605D03*
X027922D03*
X028871D03*
X028554D03*
X028238D03*
X029820D03*
X029504D03*
X029187D03*
X032035D03*
X032352D03*
X032668D03*
X031086D03*
X031403D03*
X031719D03*
X030770D03*
X030453D03*
X030137D03*
X033934D03*
X034251D03*
X034567D03*
X033618D03*
X033301D03*
X032985D03*
X018744D03*
X019061D03*
X019377D03*
X020327D03*
X020010D03*
X019694D03*
X021276D03*
X020959D03*
X020643D03*
X023491D03*
X023808D03*
X024124D03*
X022542D03*
X022858D03*
X023175D03*
X022225D03*
X021909D03*
X021592D03*
X026339D03*
X026656D03*
X026972D03*
X025390D03*
X025706D03*
X026023D03*
X025073D03*
X024757D03*
X024441D03*
X015896D03*
X016213D03*
X016529D03*
X017478D03*
X017162D03*
X016846D03*
X018428D03*
X018111D03*
X017795D03*
X013048D03*
X013365D03*
X013681D03*
X014630D03*
X014314D03*
X013997D03*
X015580D03*
X015263D03*
X014947D03*
X012099D03*
X012415D03*
X012732D03*
X011149D03*
X011466D03*
X011782D03*
X010833D03*
X010516D03*
X010200D03*
X035250Y067874D03*
X036550D03*
X036250D03*
X035950D03*
X026900D03*
X027209D03*
X027518D03*
X028446D03*
X028137D03*
X027828D03*
X029374D03*
X029065D03*
X028756D03*
X031539D03*
X031848D03*
X032157D03*
X030611D03*
X030920D03*
X031230D03*
X030302D03*
X029993D03*
X029683D03*
X034322D03*
X034631D03*
X034941D03*
X033394D03*
X033704D03*
X034013D03*
X033085D03*
X032776D03*
X032467D03*
X018550D03*
X018859D03*
X019169D03*
X020096D03*
X019787D03*
X019478D03*
X021024D03*
X020715D03*
X020406D03*
X023189D03*
X023498D03*
X023807D03*
X022261D03*
X022570D03*
X022880D03*
X021952D03*
X021643D03*
X021333D03*
X025972D03*
X026281D03*
X026591D03*
X025044D03*
X025354D03*
X025663D03*
X024735D03*
X024426D03*
X024117D03*
X015767D03*
X016076D03*
X016385D03*
X017313D03*
X017004D03*
X016694D03*
X018241D03*
X017931D03*
X017622D03*
X012983D03*
X013293D03*
X013602D03*
X014530D03*
X014220D03*
X013911D03*
X015457D03*
X015148D03*
X014839D03*
X012056D03*
X012365D03*
X012674D03*
X011128D03*
X011437D03*
X011746D03*
X010819D03*
X010509D03*
X010200D03*
X035591Y068201D03*
Y068502D03*
Y060072D03*
Y060373D03*
Y060674D03*
Y061578D03*
Y061276D03*
Y060975D03*
Y062481D03*
Y062180D03*
Y061879D03*
Y064588D03*
Y064889D03*
Y065190D03*
Y063685D03*
Y063986D03*
Y064287D03*
Y063384D03*
Y063083D03*
Y062782D03*
Y067298D03*
Y067599D03*
Y067900D03*
Y066395D03*
Y066696D03*
Y066997D03*
Y066094D03*
Y065793D03*
Y065492D03*
Y057362D03*
Y057664D03*
Y057965D03*
Y058868D03*
Y058567D03*
Y058266D03*
Y059771D03*
Y059470D03*
Y059169D03*
Y055255D03*
Y056158D03*
Y055857D03*
Y055556D03*
Y057061D03*
Y056760D03*
Y056459D03*
Y053750D03*
Y054051D03*
Y054352D03*
Y052846D03*
Y053147D03*
Y053449D03*
Y052545D03*
Y052244D03*
Y051943D03*
Y045319D03*
Y045621D03*
Y045922D03*
Y046825D03*
Y046524D03*
Y046223D03*
Y047728D03*
Y047427D03*
Y047126D03*
Y049836D03*
Y050137D03*
Y050438D03*
Y048932D03*
Y049233D03*
Y049535D03*
Y048631D03*
Y048330D03*
Y048029D03*
Y051642D03*
Y051341D03*
Y051040D03*
Y050739D03*
Y044416D03*
Y044717D03*
Y045018D03*
X035200Y043465D03*
X035591Y043814D03*
Y044115D03*
Y079040D03*
Y079341D03*
Y078739D03*
Y054653D03*
Y054954D03*
G54D30*
X012700Y049100D03*
X011700D03*
X010700D03*
X012700Y046100D03*
X011700D03*
X015871Y049100D03*
X014871D03*
X013871D03*
X015871Y046100D03*
X014871D03*
X019043Y049100D03*
X018043D03*
X017043D03*
X019043Y046100D03*
X018043D03*
X022214Y049100D03*
X021214D03*
X020214D03*
X022214Y046100D03*
X021214D03*
X025386Y049100D03*
X024386D03*
X023386D03*
X025386Y046100D03*
X024386D03*
X028557Y049100D03*
X027557D03*
X026557D03*
X028557Y046100D03*
X027557D03*
X031729Y049100D03*
X030729D03*
X029729D03*
X031729Y046100D03*
X030729D03*
X034900Y049100D03*
X033900D03*
X032900D03*
X034900Y046100D03*
X033900D03*
X011700Y058400D03*
X012700D03*
X010700Y061400D03*
X011700D03*
X012700D03*
X014871Y058400D03*
X015871D03*
X013871Y061400D03*
X014871D03*
X015871D03*
X018043Y058400D03*
X019043D03*
X017043Y061400D03*
X018043D03*
X019043D03*
X021214Y058400D03*
X022214D03*
X020214Y061400D03*
X021214D03*
X022214D03*
X024386Y058400D03*
X025386D03*
X023386Y061400D03*
X024386D03*
X025386D03*
X027557Y058400D03*
X028557D03*
X026557Y061400D03*
X027557D03*
X028557D03*
X030729Y058400D03*
X031729D03*
X029729Y061400D03*
X030729D03*
X031729D03*
X033900Y058400D03*
X034900D03*
X032900Y061400D03*
X033900D03*
X034900D03*
G54D31*
X010700Y046100D03*
X013871D03*
X017043D03*
X020214D03*
X023386D03*
X026557D03*
X029729D03*
X032900D03*
X010700Y058400D03*
X013871D03*
X017043D03*
X020214D03*
X023386D03*
X026557D03*
X029729D03*
X032900D03*
G54D32*
X011200Y051450D03*
X012200D03*
X011200Y054000D03*
X012200D03*
X015391D03*
X016391D03*
X019582D03*
X020582D03*
X026018Y053831D03*
X025018D03*
X030209D03*
X029209D03*
X034400D03*
X033400D03*
X034400Y051550D03*
X033400D03*
X012200Y063800D03*
X011200D03*
X012200Y066200D03*
X011200D03*
X016391D03*
X015391D03*
X020582D03*
X019582D03*
X025018Y066031D03*
X026018D03*
X029209D03*
X030209D03*
X033400D03*
X034400D03*
X033400Y063631D03*
X034400D03*
G54D33*
X013200Y051450D03*
Y054000D03*
X017391D03*
X021582D03*
X024018Y053831D03*
X028209D03*
X032400D03*
Y051550D03*
X013200Y063800D03*
Y066200D03*
X017391D03*
X021582D03*
X024018Y066031D03*
X028209D03*
X032400D03*
Y063631D03*
G54D34*
X018900Y044250D03*
X025900D03*
X024900D03*
X023900D03*
X022900D03*
X021900D03*
X020900D03*
X019900D03*
X018950Y033200D03*
X025950D03*
X024950D03*
X023950D03*
X022950D03*
X021950D03*
X020950D03*
X019950D03*
X027900Y020250D03*
X020900D03*
X021900D03*
X022900D03*
X023900D03*
X024900D03*
X025900D03*
X026900D03*
X035534Y021900D03*
X035519Y026200D03*
X020350Y023300D03*
X019350D03*
X017900Y017100D03*
X018900D03*
X019900D03*
X020900D03*
X021900D03*
X022900D03*
X023900D03*
X024900D03*
X025900D03*
X026900D03*
X027900D03*
X028900Y036350D03*
X027900D03*
X026900D03*
X025900D03*
X024900D03*
X023900D03*
X022900D03*
X021900D03*
X020900D03*
X019900D03*
X018900D03*
X034950Y031450D03*
Y030450D03*
X033950Y031450D03*
Y030450D03*
X032950Y031450D03*
Y030450D03*
X031950Y031450D03*
Y030450D03*
X030950Y031450D03*
Y030450D03*
X029950Y031450D03*
Y030450D03*
X028950Y031450D03*
Y030450D03*
X027950Y031450D03*
X018900Y056450D03*
X025900D03*
X024900D03*
X023900D03*
X022900D03*
X021900D03*
X020900D03*
X019900D03*
X028900Y063900D03*
X027900D03*
X026900D03*
X025900D03*
X024900D03*
X023900D03*
X022900D03*
X021900D03*
X020900D03*
X019900D03*
X018900D03*
X028900Y051700D03*
X027900D03*
X026900D03*
X025900D03*
X024900D03*
X023900D03*
X022900D03*
X021900D03*
X020900D03*
X019900D03*
X018900D03*
X033950Y076750D03*
Y075750D03*
X032950Y076750D03*
Y075750D03*
X031950Y076750D03*
Y075750D03*
X030950Y076750D03*
Y075750D03*
X029950Y076750D03*
Y075750D03*
X028950Y076750D03*
Y075750D03*
X027950Y076750D03*
Y075750D03*
X026950Y076750D03*
X033950Y072550D03*
X032950D03*
X031950D03*
X030950D03*
X029950D03*
X028950D03*
X033950Y069550D03*
G54D35*
X017900Y044250D03*
X017950Y033200D03*
X028900Y020250D03*
X033566Y021900D03*
X033550Y026200D03*
X021350Y023300D03*
X028900Y017100D03*
X017900Y036350D03*
X027950Y030450D03*
X017900Y056450D03*
Y063900D03*
Y051700D03*
X026950Y075750D03*
G54D36*
X023036Y070164D03*
X021264D03*
X023036Y071936D03*
X021264D03*
X015886Y070164D03*
X014114D03*
X015886Y071936D03*
X014114D03*
G54D37*
X016400Y041100D03*
X014400D03*
X012400D03*
X022300D03*
X020300D03*
X018300D03*
X028200D03*
X026200D03*
X024200D03*
X034484D03*
X032516D03*
X028200Y012400D03*
X026200D03*
X024200D03*
X022300D03*
X020300D03*
X018300D03*
X016400D03*
X014400D03*
X012400D03*
X032500D03*
X034469D03*
G54D38*
X030406Y020800D03*
G54D39*
X031194Y020800D03*
G54D40*
X032950Y069550D03*
X031950D03*
X030950D03*
X029950D03*
G54D41*
X028950Y069550D03*
G54D42*
X029100Y023200D03*
X030100D03*
G54D43*
X031100Y023200D03*
G54D44*
X014150Y076067D03*
X015470D03*
X016790Y076050D03*
X018110Y076067D03*
X019430D03*
X020750D03*
X022050Y076050D03*
X023390D03*
X020200Y027150D03*
Y026100D03*
X028350Y032450D03*
X029225Y032300D03*
X031550Y035250D03*
X034450D03*
X033450D03*
X030100Y032300D03*
X024450Y027350D03*
X024850Y027050D03*
X014100Y029050D03*
X022126Y030450D03*
X022874D03*
X017400Y027150D03*
Y026400D03*
X016200Y030700D03*
X016685Y029565D03*
X012450Y024250D03*
X011750D03*
X013700Y024300D03*
X026500Y024050D03*
X028150Y028600D03*
X032235Y038485D03*
X031565D03*
G54D45*
X031625Y017500D03*
Y016650D03*
X030900Y018350D03*
Y017500D03*
Y016650D03*
X013500Y019350D03*
X013000D03*
X012450D03*
X035350Y016600D03*
X032350Y018350D03*
Y017500D03*
Y016650D03*
X022400Y062650D03*
Y050350D03*
X023400Y025800D03*
X024000D03*
X031625Y018350D03*
M02*