%FSDAX24Y24*%
%MOIN*%
%SFA1B1*%

%IPPOS*%
%ADD10C,0.010000*%
%ADD13R,0.031500X0.031500*%
%ADD21C,0.020000*%
%ADD22C,0.060000*%
%ADD23C,0.059060*%
%ADD24R,0.059060X0.059060*%
%ADD25C,0.059060*%
%ADD26R,0.059060X0.059060*%
%ADD27C,0.030000*%
%LNde-140824_1-1*%
%LPD*%
G54D10*
X023387Y006897D02*
Y008297D01*
X023087Y006597D02*
X023387Y006897D01*
X007380Y006597D02*
X023087D01*
X006847Y007130D02*
X007380Y006597D01*
X022470Y007130D02*
X022687Y007347D01*
X012127Y007130D02*
X022470D01*
X022687Y007347D02*
Y008047D01*
X023137Y008547D02*
X023387Y008297D01*
X022187Y008547D02*
X023137D01*
X021687Y008047D02*
X022187Y008547D01*
X019937Y009597D02*
X020187Y009347D01*
X012127Y009597D02*
X019937D01*
X020437Y010147D02*
X021237Y009347D01*
X007397Y010147D02*
X020437D01*
X006847Y009597D02*
X007397Y010147D01*
X021237Y007697D02*
Y009347D01*
X020187Y008547D02*
Y009347D01*
X021037Y007497D02*
X021237Y007697D01*
X020237Y007497D02*
X021037D01*
X019687Y008047D02*
X020237Y007497D01*
X020187Y008547D02*
X020687Y008047D01*
G54D13*
X012127Y007130D03*
Y007721D03*
X006847Y007130D03*
Y007721D03*
X012127Y009597D03*
Y009006D03*
X006847Y009597D03*
Y009006D03*
X010807Y007130D03*
Y007721D03*
X005527Y007130D03*
Y007721D03*
Y009597D03*
Y009006D03*
X009487Y007130D03*
Y007721D03*
X004207Y007130D03*
Y007721D03*
X009487Y009597D03*
Y009006D03*
X004207Y009597D03*
Y009006D03*
X008167Y007130D03*
Y007721D03*
X002887Y007130D03*
Y007721D03*
Y009597D03*
Y009006D03*
X008167Y009597D03*
Y009006D03*
X010807Y009597D03*
Y009006D03*
G54D21*
X010807Y007721D02*
Y009006D01*
X012127Y008347D02*
Y009006D01*
Y007721D02*
Y008347D01*
X009487Y008363D02*
Y009006D01*
Y007721D02*
Y008363D01*
X008167D02*
Y009006D01*
Y007721D02*
Y008363D01*
X006847D02*
Y009006D01*
Y007721D02*
Y008363D01*
X005527Y008347D02*
Y009006D01*
Y007721D02*
Y008347D01*
X004207Y008363D02*
Y009006D01*
Y007721D02*
Y008363D01*
X002887Y007721D02*
Y008363D01*
Y009597D02*
X004207D01*
X005527*
X006847*
X008167D02*
X009487D01*
X010807*
X012127*
X010807Y007130D02*
X012127D01*
X009487D02*
X010807D01*
X008167D02*
X009487D01*
X005527D02*
X006847D01*
X004207D02*
X005527D01*
X002887D02*
X004207D01*
X012901Y002461D02*
X015287Y004847D01*
X011773Y002461D02*
X012901D01*
X015287Y004847D02*
X017687D01*
X018687*
X019687*
X020687*
X021687*
X022687*
X011763Y002451D02*
X011773Y002461D01*
X011763Y002022D02*
Y002451D01*
X004623Y002461D02*
X004697Y002387D01*
Y002087D02*
Y002387D01*
Y002087D02*
X005237Y001547D01*
X011287D02*
X011763Y002022D01*
X005237Y001547D02*
X011287D01*
G54D22*
X004623Y002461D03*
X002851D03*
X004623Y004232D03*
X002851D03*
X011773Y002461D03*
X010001D03*
X011773Y004232D03*
X010001D03*
G54D23*
X022687Y009047D03*
Y008047D03*
X021687Y009047D03*
Y008047D03*
X020687Y009047D03*
Y008047D03*
X019687Y009047D03*
Y008047D03*
X018687Y009047D03*
Y008047D03*
X017687Y009047D03*
Y008047D03*
X016687Y009047D03*
Y008047D03*
X015687Y009047D03*
X022687Y004847D03*
X021687D03*
X020687D03*
X019687D03*
X018687D03*
X017687D03*
X022687Y001847D03*
G54D24*
X015687Y008047D03*
G54D25*
X021687Y001847D03*
X020687D03*
X019687D03*
X018687D03*
G54D26*
X017687Y001847D03*
G54D27*
X012127Y008347D03*
X010787D03*
X009487Y008363D03*
X008167D03*
X006847D03*
X005527Y008347D03*
X004207Y008363D03*
X002887D03*
M02*