%FSDAX24Y24*%
%MOIN*%
%SFA1B1*%

%IPPOS*%
%ADD14R,0.039500X0.039500*%
%ADD15C,0.068000*%
%ADD16C,0.067060*%
%ADD17R,0.067060X0.067060*%
%ADD18C,0.067060*%
%ADD19R,0.067060X0.067060*%
%ADD20C,0.038000*%
%LNde-140824_1-1*%
%LPD*%
G54D14*
X012127Y007130D03*
Y007721D03*
X006847Y007130D03*
Y007721D03*
X012127Y009597D03*
Y009006D03*
X006847Y009597D03*
Y009006D03*
X010807Y007130D03*
Y007721D03*
X005527Y007130D03*
Y007721D03*
Y009597D03*
Y009006D03*
X009487Y007130D03*
Y007721D03*
X004207Y007130D03*
Y007721D03*
X009487Y009597D03*
Y009006D03*
X004207Y009597D03*
Y009006D03*
X008167Y007130D03*
Y007721D03*
X002887Y007130D03*
Y007721D03*
Y009597D03*
Y009006D03*
X008167Y009597D03*
Y009006D03*
X010807Y009597D03*
Y009006D03*
G54D15*
X004623Y002461D03*
X002851D03*
X004623Y004232D03*
X002851D03*
X011773Y002461D03*
X010001D03*
X011773Y004232D03*
X010001D03*
G54D16*
X022687Y009047D03*
Y008047D03*
X021687Y009047D03*
Y008047D03*
X020687Y009047D03*
Y008047D03*
X019687Y009047D03*
Y008047D03*
X018687Y009047D03*
Y008047D03*
X017687Y009047D03*
Y008047D03*
X016687Y009047D03*
Y008047D03*
X015687Y009047D03*
X022687Y004847D03*
X021687D03*
X020687D03*
X019687D03*
X018687D03*
X017687D03*
X022687Y001847D03*
G54D17*
X015687Y008047D03*
G54D18*
X021687Y001847D03*
X020687D03*
X019687D03*
X018687D03*
G54D19*
X017687Y001847D03*
G54D20*
X012127Y008347D03*
X010787D03*
X009487Y008363D03*
X008167D03*
X006847D03*
X005527Y008347D03*
X004207Y008363D03*
X002887D03*
M02*