%FSDAX24Y24*%
%MOIN*%
%SFA1B1*%

%IPPOS*%
%ADD10C,0.010000*%
%ADD21C,0.020000*%
%ADD22C,0.060000*%
%ADD23C,0.059060*%
%ADD24R,0.059060X0.059060*%
%ADD25C,0.059060*%
%ADD26R,0.059060X0.059060*%
%ADD27C,0.030000*%
%ADD28R,0.039370X0.043310*%
%ADD29R,0.043310X0.039370*%
%LNde-140824_1-1*%
%LPD*%
G54D10*
X010021Y003347D02*
Y004813D01*
Y002747D02*
Y003347D01*
X010602*
X002851Y003297D02*
Y004232D01*
Y002461D02*
Y003297D01*
X003402*
X001537Y005547D02*
X002851Y004232D01*
X001537Y005547D02*
Y009897D01*
X009487Y005347D02*
X010021Y004813D01*
X016687Y009047D02*
Y009197D01*
X015287Y010597D02*
X016687Y009197D01*
X002237Y010597D02*
X015287D01*
X001537Y009897D02*
X002237Y010597D01*
X002387Y010347D02*
X014387D01*
X001837Y009797D02*
X002387Y010347D01*
X001837Y006697D02*
Y009797D01*
Y006697D02*
X003187Y005347D01*
X009487*
X014387Y010347D02*
X015687Y009047D01*
X017687Y001397D02*
Y001847D01*
Y001397D02*
X017987Y001097D01*
X023087*
X023937Y001947*
Y009047*
X023187Y009797D02*
X023937Y009047D01*
X018337Y009797D02*
X023187D01*
X017687Y009147D02*
X018337Y009797D01*
X017687Y009047D02*
Y009147D01*
X018687Y001847D02*
X019187Y002347D01*
Y008547*
X018687Y009047D02*
X019187Y008547D01*
X019687Y001847D02*
X020187Y002347D01*
Y008547*
X019687Y009047D02*
X020187Y008547D01*
X020687Y001847D02*
X021237Y002397D01*
Y008497*
X020687Y009047D02*
X021237Y008497D01*
X021687Y001847D02*
X022187Y002347D01*
Y008547*
X021687Y009047D02*
X022187Y008547D01*
X022687Y001847D02*
X023437Y002597D01*
Y008297*
X022687Y009047D02*
X023437Y008297D01*
X017687Y005997D02*
Y006312D01*
X010787Y008347D02*
Y008497D01*
X010987Y008697*
X012228*
X018687Y005847D02*
Y006312D01*
X015672Y006297D02*
X015687Y006312D01*
X018687Y006981D02*
Y008047D01*
X017687Y006981D02*
Y008047D01*
X016687Y006981D02*
Y008047D01*
X015687Y006981D02*
Y008047D01*
X010207Y007767D02*
X010787Y008347D01*
X004557Y008867D02*
X007167D01*
X004207Y008363D02*
Y008517D01*
X004557Y008867*
X002887Y008363D02*
Y008597D01*
X018337Y005497D02*
X018687Y005847D01*
X012394Y009097D02*
X015194Y006297D01*
X015672*
X016687Y006292D02*
Y006312D01*
X015228Y005697D02*
X017387D01*
X017687Y005997*
X010020Y008897D02*
X012311D01*
X012228Y008697D02*
X015228Y005697D01*
X008900Y009097D02*
X012394D01*
X009487Y008363D02*
X010020Y008897D01*
X008167Y008363D02*
X008900Y009097D01*
X016291Y005897D02*
X016687Y006292D01*
X015311Y005897D02*
X016291D01*
X012311Y008897D02*
X015311Y005897D01*
X012127Y008347D02*
X012165Y008308D01*
X012275D02*
X015087Y005497D01*
X018337*
X012165Y008308D02*
X012275D01*
X003357Y009067D02*
X007464D01*
X005844Y008663D02*
X006971D01*
X007868Y007767*
X007167Y008867D02*
X008037Y007997D01*
X007868Y007767D02*
X010207D01*
X005527Y008347D02*
X005844Y008663D01*
X007464Y009067D02*
X008167Y008363D01*
X008037Y007997D02*
X009120D01*
X009487Y008363*
X002887Y008597D02*
X003357Y009067D01*
X007664Y007547D02*
X011327D01*
X006847Y008363D02*
X007664Y007547D01*
X011327D02*
X012127Y008347D01*
G54D21*
X011773Y003297D02*
Y004232D01*
Y002461D02*
Y003297D01*
X011723Y003347D02*
X011773Y003297D01*
X011272Y003347D02*
X011723D01*
X004623Y003297D02*
Y004232D01*
Y002461D02*
Y003297D01*
X004072D02*
X004623D01*
G54D22*
X004623Y002461D03*
X002851D03*
X004623Y004232D03*
X002851D03*
X011773Y002461D03*
X010001D03*
X011773Y004232D03*
X010001D03*
G54D23*
X022687Y009047D03*
Y008047D03*
X021687Y009047D03*
Y008047D03*
X020687Y009047D03*
Y008047D03*
X019687Y009047D03*
Y008047D03*
X018687Y009047D03*
Y008047D03*
X017687Y009047D03*
Y008047D03*
X016687Y009047D03*
Y008047D03*
X015687Y009047D03*
X022687Y004847D03*
X021687D03*
X020687D03*
X019687D03*
X018687D03*
X017687D03*
X022687Y001847D03*
G54D24*
X015687Y008047D03*
G54D25*
X021687Y001847D03*
X020687D03*
X019687D03*
X018687D03*
G54D26*
X017687Y001847D03*
G54D27*
X012127Y008347D03*
X010787D03*
X009487Y008363D03*
X008167D03*
X006847D03*
X005527Y008347D03*
X004207Y008363D03*
X002887D03*
G54D28*
X018687Y006312D03*
Y006981D03*
X017687Y006312D03*
Y006981D03*
X016687Y006312D03*
Y006981D03*
X015687Y006312D03*
Y006981D03*
G54D29*
X003402Y003297D03*
X004072D03*
X010602Y003347D03*
X011272D03*
M02*