%FSDAX24Y24*%
%MOIN*%
%SFA1B1*%

%IPPOS*%
%ADD15C,0.068000*%
%ADD16C,0.067060*%
%ADD17R,0.067060X0.067060*%
%ADD18C,0.067060*%
%ADD19R,0.067060X0.067060*%
%ADD20C,0.038000*%
%ADD30R,0.047370X0.051310*%
%ADD31R,0.051310X0.047370*%
%LNde-140824_1-1*%
%LPD*%
G54D15*
X004623Y002461D03*
X002851D03*
X004623Y004232D03*
X002851D03*
X011773Y002461D03*
X010001D03*
X011773Y004232D03*
X010001D03*
G54D16*
X022687Y009047D03*
Y008047D03*
X021687Y009047D03*
Y008047D03*
X020687Y009047D03*
Y008047D03*
X019687Y009047D03*
Y008047D03*
X018687Y009047D03*
Y008047D03*
X017687Y009047D03*
Y008047D03*
X016687Y009047D03*
Y008047D03*
X015687Y009047D03*
X022687Y004847D03*
X021687D03*
X020687D03*
X019687D03*
X018687D03*
X017687D03*
X022687Y001847D03*
G54D17*
X015687Y008047D03*
G54D18*
X021687Y001847D03*
X020687D03*
X019687D03*
X018687D03*
G54D19*
X017687Y001847D03*
G54D20*
X012127Y008347D03*
X010787D03*
X009487Y008363D03*
X008167D03*
X006847D03*
X005527Y008347D03*
X004207Y008363D03*
X002887D03*
G54D30*
X018687Y006312D03*
Y006981D03*
X017687Y006312D03*
Y006981D03*
X016687Y006312D03*
Y006981D03*
X015687Y006312D03*
Y006981D03*
G54D31*
X003402Y003297D03*
X004072D03*
X010602Y003347D03*
X011272D03*
M02*