%FSDAX24Y24*%
%MOIN*%
%SFA1B1*%

%IPPOS*%
%ADD32C,0.003940*%
%LNde-140824_1-1*%
%LPD*%
G54D32*
X012048Y007425D02*
X012206D01*
X012127Y007347D02*
Y007504D01*
X006768Y007425D02*
X006926D01*
X006847Y007347D02*
Y007504D01*
X012048Y009301D02*
X012206D01*
X012127Y009223D02*
Y009380D01*
X006768Y009301D02*
X006926D01*
X006847Y009223D02*
Y009380D01*
X010728Y007425D02*
X010886D01*
X010807Y007347D02*
Y007504D01*
X005448Y007425D02*
X005606D01*
X005527Y007347D02*
Y007504D01*
X005448Y009301D02*
X005606D01*
X005527Y009223D02*
Y009380D01*
X009408Y007425D02*
X009566D01*
X009487Y007347D02*
Y007504D01*
X004128Y007425D02*
X004286D01*
X004207Y007347D02*
Y007504D01*
X009408Y009301D02*
X009566D01*
X009487Y009223D02*
Y009380D01*
X004128Y009301D02*
X004286D01*
X004207Y009223D02*
Y009380D01*
X008088Y007425D02*
X008246D01*
X008167Y007347D02*
Y007504D01*
X002808Y007425D02*
X002966D01*
X002887Y007347D02*
Y007504D01*
X002808Y009301D02*
X002966D01*
X002887Y009223D02*
Y009380D01*
X008088Y009301D02*
X008246D01*
X008167Y009223D02*
Y009380D01*
X010728Y009301D02*
X010886D01*
X010807Y009223D02*
Y009380D01*
M02*