%FSDAX24Y24*%
%MOIN*%
%SFA1B1*%

%IPPOS*%
%ADD33C,0.005000*%
%ADD34C,0.006670*%
%LNde-140824_1-1*%
%LPD*%
G54D33*
X004423Y002261D02*
Y002661D01*
X004823*
Y002261*
X004423*
X002651D02*
Y002661D01*
X003051*
Y002261*
X002651*
X004423Y004032D02*
Y004432D01*
X004823*
Y004032*
X004423*
X002651D02*
Y004432D01*
X003051*
Y004032*
X002651*
X011573Y002261D02*
Y002661D01*
X011973*
Y002261*
X011573*
X009801D02*
Y002661D01*
X010201*
Y002261*
X009801*
X011573Y004032D02*
Y004432D01*
X011973*
Y004032*
X011573*
X009801D02*
Y004432D01*
X010201*
Y004032*
X009801*
X012127Y008147D02*
X011927Y008547D01*
X012327*
X012127Y008147*
X010787D02*
X010587Y008547D01*
X010987*
X010787Y008147*
X009487Y008163D02*
X009287Y008563D01*
X009687*
X009487Y008163*
X008167D02*
X007967Y008563D01*
X008367*
X008167Y008163*
X006847D02*
X006647Y008563D01*
X007047*
X006847Y008163*
X005527Y008147D02*
X005327Y008547D01*
X005727*
X005527Y008147*
X004207Y008163D02*
X004007Y008563D01*
X004407*
X004207Y008163*
X002887D02*
X002687Y008563D01*
X003087*
X002887Y008163*
G54D34*
X022887Y009047D02*
D01*
X022886Y009060*
X022885Y009074*
X022883Y009088*
X022879Y009102*
X022875Y009115*
X022870Y009128*
X022863Y009140*
X022857Y009152*
X022849Y009164*
X022840Y009175*
X022831Y009185*
X022821Y009195*
X022810Y009204*
X022799Y009212*
X022787Y009220*
X022775Y009226*
X022762Y009232*
X022749Y009237*
X022735Y009241*
X022722Y009243*
X022708Y009245*
X022694Y009246*
X022680*
X022666Y009245*
X022652Y009243*
X022639Y009241*
X022625Y009237*
X022612Y009232*
X022599Y009226*
X022587Y009220*
X022575Y009212*
X022564Y009204*
X022553Y009195*
X022543Y009185*
X022534Y009175*
X022525Y009164*
X022517Y009152*
X022510Y009140*
X022504Y009128*
X022499Y009115*
X022495Y009102*
X022491Y009088*
X022489Y009074*
X022487Y009060*
X022487Y009047*
X022487Y009033*
X022489Y009019*
X022491Y009005*
X022495Y008991*
X022499Y008978*
X022504Y008965*
X022510Y008953*
X022517Y008941*
X022525Y008929*
X022534Y008918*
X022543Y008908*
X022553Y008898*
X022564Y008889*
X022575Y008881*
X022587Y008873*
X022599Y008867*
X022612Y008861*
X022625Y008856*
X022639Y008852*
X022652Y008850*
X022666Y008848*
X022680Y008847*
X022694*
X022708Y008848*
X022722Y008850*
X022735Y008852*
X022749Y008856*
X022762Y008861*
X022775Y008867*
X022787Y008873*
X022799Y008881*
X022810Y008889*
X022821Y008898*
X022831Y008908*
X022840Y008918*
X022849Y008929*
X022857Y008941*
X022863Y008953*
X022870Y008965*
X022875Y008978*
X022879Y008991*
X022883Y009005*
X022885Y009019*
X022886Y009033*
X022887Y009047*
Y008047D02*
D01*
X022886Y008061*
X022885Y008074*
X022883Y008088*
X022879Y008102*
X022875Y008115*
X022870Y008128*
X022863Y008140*
X022857Y008153*
X022849Y008164*
X022840Y008175*
X022831Y008186*
X022821Y008195*
X022810Y008204*
X022799Y008212*
X022787Y008220*
X022775Y008226*
X022762Y008232*
X022749Y008237*
X022735Y008241*
X022722Y008244*
X022708Y008246*
X022694Y008246*
X022680*
X022666Y008246*
X022652Y008244*
X022639Y008241*
X022625Y008237*
X022612Y008232*
X022599Y008226*
X022587Y008220*
X022575Y008212*
X022564Y008204*
X022553Y008195*
X022543Y008186*
X022534Y008175*
X022525Y008164*
X022517Y008153*
X022510Y008140*
X022504Y008128*
X022499Y008115*
X022495Y008102*
X022491Y008088*
X022489Y008074*
X022487Y008061*
X022487Y008047*
X022487Y008033*
X022489Y008019*
X022491Y008005*
X022495Y007991*
X022499Y007978*
X022504Y007965*
X022510Y007953*
X022517Y007941*
X022525Y007929*
X022534Y007918*
X022543Y007908*
X022553Y007898*
X022564Y007889*
X022575Y007881*
X022587Y007873*
X022599Y007867*
X022612Y007861*
X022625Y007856*
X022639Y007853*
X022652Y007850*
X022666Y007848*
X022680Y007847*
X022694*
X022708Y007848*
X022722Y007850*
X022735Y007853*
X022749Y007856*
X022762Y007861*
X022775Y007867*
X022787Y007873*
X022799Y007881*
X022810Y007889*
X022821Y007898*
X022831Y007908*
X022840Y007918*
X022849Y007929*
X022857Y007941*
X022863Y007953*
X022870Y007965*
X022875Y007978*
X022879Y007991*
X022883Y008005*
X022885Y008019*
X022886Y008033*
X022887Y008047*
X021887Y009047D02*
D01*
X021886Y009060*
X021885Y009074*
X021883Y009088*
X021879Y009102*
X021875Y009115*
X021870Y009128*
X021863Y009140*
X021857Y009152*
X021849Y009164*
X021840Y009175*
X021831Y009185*
X021821Y009195*
X021810Y009204*
X021799Y009212*
X021787Y009220*
X021775Y009226*
X021762Y009232*
X021749Y009237*
X021735Y009241*
X021722Y009243*
X021708Y009245*
X021694Y009246*
X021680*
X021666Y009245*
X021652Y009243*
X021639Y009241*
X021625Y009237*
X021612Y009232*
X021599Y009226*
X021587Y009220*
X021575Y009212*
X021564Y009204*
X021553Y009195*
X021543Y009185*
X021534Y009175*
X021525Y009164*
X021517Y009152*
X021510Y009140*
X021504Y009128*
X021499Y009115*
X021495Y009102*
X021491Y009088*
X021489Y009074*
X021487Y009060*
X021487Y009047*
X021487Y009033*
X021489Y009019*
X021491Y009005*
X021495Y008991*
X021499Y008978*
X021504Y008965*
X021510Y008953*
X021517Y008941*
X021525Y008929*
X021534Y008918*
X021543Y008908*
X021553Y008898*
X021564Y008889*
X021575Y008881*
X021587Y008873*
X021599Y008867*
X021612Y008861*
X021625Y008856*
X021639Y008852*
X021652Y008850*
X021666Y008848*
X021680Y008847*
X021694*
X021708Y008848*
X021722Y008850*
X021735Y008852*
X021749Y008856*
X021762Y008861*
X021775Y008867*
X021787Y008873*
X021799Y008881*
X021810Y008889*
X021821Y008898*
X021831Y008908*
X021840Y008918*
X021849Y008929*
X021857Y008941*
X021863Y008953*
X021870Y008965*
X021875Y008978*
X021879Y008991*
X021883Y009005*
X021885Y009019*
X021886Y009033*
X021887Y009047*
Y008047D02*
D01*
X021886Y008061*
X021885Y008074*
X021883Y008088*
X021879Y008102*
X021875Y008115*
X021870Y008128*
X021863Y008140*
X021857Y008153*
X021849Y008164*
X021840Y008175*
X021831Y008186*
X021821Y008195*
X021810Y008204*
X021799Y008212*
X021787Y008220*
X021775Y008226*
X021762Y008232*
X021749Y008237*
X021735Y008241*
X021722Y008244*
X021708Y008246*
X021694Y008246*
X021680*
X021666Y008246*
X021652Y008244*
X021639Y008241*
X021625Y008237*
X021612Y008232*
X021599Y008226*
X021587Y008220*
X021575Y008212*
X021564Y008204*
X021553Y008195*
X021543Y008186*
X021534Y008175*
X021525Y008164*
X021517Y008153*
X021510Y008140*
X021504Y008128*
X021499Y008115*
X021495Y008102*
X021491Y008088*
X021489Y008074*
X021487Y008061*
X021487Y008047*
X021487Y008033*
X021489Y008019*
X021491Y008005*
X021495Y007991*
X021499Y007978*
X021504Y007965*
X021510Y007953*
X021517Y007941*
X021525Y007929*
X021534Y007918*
X021543Y007908*
X021553Y007898*
X021564Y007889*
X021575Y007881*
X021587Y007873*
X021599Y007867*
X021612Y007861*
X021625Y007856*
X021639Y007853*
X021652Y007850*
X021666Y007848*
X021680Y007847*
X021694*
X021708Y007848*
X021722Y007850*
X021735Y007853*
X021749Y007856*
X021762Y007861*
X021775Y007867*
X021787Y007873*
X021799Y007881*
X021810Y007889*
X021821Y007898*
X021831Y007908*
X021840Y007918*
X021849Y007929*
X021857Y007941*
X021863Y007953*
X021870Y007965*
X021875Y007978*
X021879Y007991*
X021883Y008005*
X021885Y008019*
X021886Y008033*
X021887Y008047*
X020887Y009047D02*
D01*
X020886Y009060*
X020885Y009074*
X020883Y009088*
X020879Y009102*
X020875Y009115*
X020870Y009128*
X020863Y009140*
X020857Y009152*
X020849Y009164*
X020840Y009175*
X020831Y009185*
X020821Y009195*
X020810Y009204*
X020799Y009212*
X020787Y009220*
X020775Y009226*
X020762Y009232*
X020749Y009237*
X020735Y009241*
X020722Y009243*
X020708Y009245*
X020694Y009246*
X020680*
X020666Y009245*
X020652Y009243*
X020639Y009241*
X020625Y009237*
X020612Y009232*
X020599Y009226*
X020587Y009220*
X020575Y009212*
X020564Y009204*
X020553Y009195*
X020543Y009185*
X020534Y009175*
X020525Y009164*
X020517Y009152*
X020510Y009140*
X020504Y009128*
X020499Y009115*
X020495Y009102*
X020491Y009088*
X020489Y009074*
X020487Y009060*
X020487Y009047*
X020487Y009033*
X020489Y009019*
X020491Y009005*
X020495Y008991*
X020499Y008978*
X020504Y008965*
X020510Y008953*
X020517Y008941*
X020525Y008929*
X020534Y008918*
X020543Y008908*
X020553Y008898*
X020564Y008889*
X020575Y008881*
X020587Y008873*
X020599Y008867*
X020612Y008861*
X020625Y008856*
X020639Y008852*
X020652Y008850*
X020666Y008848*
X020680Y008847*
X020694*
X020708Y008848*
X020722Y008850*
X020735Y008852*
X020749Y008856*
X020762Y008861*
X020775Y008867*
X020787Y008873*
X020799Y008881*
X020810Y008889*
X020821Y008898*
X020831Y008908*
X020840Y008918*
X020849Y008929*
X020857Y008941*
X020863Y008953*
X020870Y008965*
X020875Y008978*
X020879Y008991*
X020883Y009005*
X020885Y009019*
X020886Y009033*
X020887Y009047*
Y008047D02*
D01*
X020886Y008061*
X020885Y008074*
X020883Y008088*
X020879Y008102*
X020875Y008115*
X020870Y008128*
X020863Y008140*
X020857Y008153*
X020849Y008164*
X020840Y008175*
X020831Y008186*
X020821Y008195*
X020810Y008204*
X020799Y008212*
X020787Y008220*
X020775Y008226*
X020762Y008232*
X020749Y008237*
X020735Y008241*
X020722Y008244*
X020708Y008246*
X020694Y008246*
X020680*
X020666Y008246*
X020652Y008244*
X020639Y008241*
X020625Y008237*
X020612Y008232*
X020599Y008226*
X020587Y008220*
X020575Y008212*
X020564Y008204*
X020553Y008195*
X020543Y008186*
X020534Y008175*
X020525Y008164*
X020517Y008153*
X020510Y008140*
X020504Y008128*
X020499Y008115*
X020495Y008102*
X020491Y008088*
X020489Y008074*
X020487Y008061*
X020487Y008047*
X020487Y008033*
X020489Y008019*
X020491Y008005*
X020495Y007991*
X020499Y007978*
X020504Y007965*
X020510Y007953*
X020517Y007941*
X020525Y007929*
X020534Y007918*
X020543Y007908*
X020553Y007898*
X020564Y007889*
X020575Y007881*
X020587Y007873*
X020599Y007867*
X020612Y007861*
X020625Y007856*
X020639Y007853*
X020652Y007850*
X020666Y007848*
X020680Y007847*
X020694*
X020708Y007848*
X020722Y007850*
X020735Y007853*
X020749Y007856*
X020762Y007861*
X020775Y007867*
X020787Y007873*
X020799Y007881*
X020810Y007889*
X020821Y007898*
X020831Y007908*
X020840Y007918*
X020849Y007929*
X020857Y007941*
X020863Y007953*
X020870Y007965*
X020875Y007978*
X020879Y007991*
X020883Y008005*
X020885Y008019*
X020886Y008033*
X020887Y008047*
X019887Y009047D02*
D01*
X019886Y009060*
X019885Y009074*
X019883Y009088*
X019879Y009102*
X019875Y009115*
X019870Y009128*
X019863Y009140*
X019857Y009152*
X019849Y009164*
X019840Y009175*
X019831Y009185*
X019821Y009195*
X019810Y009204*
X019799Y009212*
X019787Y009220*
X019775Y009226*
X019762Y009232*
X019749Y009237*
X019735Y009241*
X019722Y009243*
X019708Y009245*
X019694Y009246*
X019680*
X019666Y009245*
X019652Y009243*
X019639Y009241*
X019625Y009237*
X019612Y009232*
X019599Y009226*
X019587Y009220*
X019575Y009212*
X019564Y009204*
X019553Y009195*
X019543Y009185*
X019534Y009175*
X019525Y009164*
X019517Y009152*
X019510Y009140*
X019504Y009128*
X019499Y009115*
X019495Y009102*
X019491Y009088*
X019489Y009074*
X019487Y009060*
X019487Y009047*
X019487Y009033*
X019489Y009019*
X019491Y009005*
X019495Y008991*
X019499Y008978*
X019504Y008965*
X019510Y008953*
X019517Y008941*
X019525Y008929*
X019534Y008918*
X019543Y008908*
X019553Y008898*
X019564Y008889*
X019575Y008881*
X019587Y008873*
X019599Y008867*
X019612Y008861*
X019625Y008856*
X019639Y008852*
X019652Y008850*
X019666Y008848*
X019680Y008847*
X019694*
X019708Y008848*
X019722Y008850*
X019735Y008852*
X019749Y008856*
X019762Y008861*
X019775Y008867*
X019787Y008873*
X019799Y008881*
X019810Y008889*
X019821Y008898*
X019831Y008908*
X019840Y008918*
X019849Y008929*
X019857Y008941*
X019863Y008953*
X019870Y008965*
X019875Y008978*
X019879Y008991*
X019883Y009005*
X019885Y009019*
X019886Y009033*
X019887Y009047*
Y008047D02*
D01*
X019886Y008061*
X019885Y008074*
X019883Y008088*
X019879Y008102*
X019875Y008115*
X019870Y008128*
X019863Y008140*
X019857Y008153*
X019849Y008164*
X019840Y008175*
X019831Y008186*
X019821Y008195*
X019810Y008204*
X019799Y008212*
X019787Y008220*
X019775Y008226*
X019762Y008232*
X019749Y008237*
X019735Y008241*
X019722Y008244*
X019708Y008246*
X019694Y008246*
X019680*
X019666Y008246*
X019652Y008244*
X019639Y008241*
X019625Y008237*
X019612Y008232*
X019599Y008226*
X019587Y008220*
X019575Y008212*
X019564Y008204*
X019553Y008195*
X019543Y008186*
X019534Y008175*
X019525Y008164*
X019517Y008153*
X019510Y008140*
X019504Y008128*
X019499Y008115*
X019495Y008102*
X019491Y008088*
X019489Y008074*
X019487Y008061*
X019487Y008047*
X019487Y008033*
X019489Y008019*
X019491Y008005*
X019495Y007991*
X019499Y007978*
X019504Y007965*
X019510Y007953*
X019517Y007941*
X019525Y007929*
X019534Y007918*
X019543Y007908*
X019553Y007898*
X019564Y007889*
X019575Y007881*
X019587Y007873*
X019599Y007867*
X019612Y007861*
X019625Y007856*
X019639Y007853*
X019652Y007850*
X019666Y007848*
X019680Y007847*
X019694*
X019708Y007848*
X019722Y007850*
X019735Y007853*
X019749Y007856*
X019762Y007861*
X019775Y007867*
X019787Y007873*
X019799Y007881*
X019810Y007889*
X019821Y007898*
X019831Y007908*
X019840Y007918*
X019849Y007929*
X019857Y007941*
X019863Y007953*
X019870Y007965*
X019875Y007978*
X019879Y007991*
X019883Y008005*
X019885Y008019*
X019886Y008033*
X019887Y008047*
X018887Y009047D02*
D01*
X018886Y009060*
X018885Y009074*
X018883Y009088*
X018879Y009102*
X018875Y009115*
X018870Y009128*
X018863Y009140*
X018857Y009152*
X018849Y009164*
X018840Y009175*
X018831Y009185*
X018821Y009195*
X018810Y009204*
X018799Y009212*
X018787Y009220*
X018775Y009226*
X018762Y009232*
X018749Y009237*
X018735Y009241*
X018722Y009243*
X018708Y009245*
X018694Y009246*
X018680*
X018666Y009245*
X018652Y009243*
X018639Y009241*
X018625Y009237*
X018612Y009232*
X018599Y009226*
X018587Y009220*
X018575Y009212*
X018564Y009204*
X018553Y009195*
X018543Y009185*
X018534Y009175*
X018525Y009164*
X018517Y009152*
X018510Y009140*
X018504Y009128*
X018499Y009115*
X018495Y009102*
X018491Y009088*
X018489Y009074*
X018487Y009060*
X018487Y009047*
X018487Y009033*
X018489Y009019*
X018491Y009005*
X018495Y008991*
X018499Y008978*
X018504Y008965*
X018510Y008953*
X018517Y008941*
X018525Y008929*
X018534Y008918*
X018543Y008908*
X018553Y008898*
X018564Y008889*
X018575Y008881*
X018587Y008873*
X018599Y008867*
X018612Y008861*
X018625Y008856*
X018639Y008852*
X018652Y008850*
X018666Y008848*
X018680Y008847*
X018694*
X018708Y008848*
X018722Y008850*
X018735Y008852*
X018749Y008856*
X018762Y008861*
X018775Y008867*
X018787Y008873*
X018799Y008881*
X018810Y008889*
X018821Y008898*
X018831Y008908*
X018840Y008918*
X018849Y008929*
X018857Y008941*
X018863Y008953*
X018870Y008965*
X018875Y008978*
X018879Y008991*
X018883Y009005*
X018885Y009019*
X018886Y009033*
X018887Y009047*
Y008047D02*
D01*
X018886Y008061*
X018885Y008074*
X018883Y008088*
X018879Y008102*
X018875Y008115*
X018870Y008128*
X018863Y008140*
X018857Y008153*
X018849Y008164*
X018840Y008175*
X018831Y008186*
X018821Y008195*
X018810Y008204*
X018799Y008212*
X018787Y008220*
X018775Y008226*
X018762Y008232*
X018749Y008237*
X018735Y008241*
X018722Y008244*
X018708Y008246*
X018694Y008246*
X018680*
X018666Y008246*
X018652Y008244*
X018639Y008241*
X018625Y008237*
X018612Y008232*
X018599Y008226*
X018587Y008220*
X018575Y008212*
X018564Y008204*
X018553Y008195*
X018543Y008186*
X018534Y008175*
X018525Y008164*
X018517Y008153*
X018510Y008140*
X018504Y008128*
X018499Y008115*
X018495Y008102*
X018491Y008088*
X018489Y008074*
X018487Y008061*
X018487Y008047*
X018487Y008033*
X018489Y008019*
X018491Y008005*
X018495Y007991*
X018499Y007978*
X018504Y007965*
X018510Y007953*
X018517Y007941*
X018525Y007929*
X018534Y007918*
X018543Y007908*
X018553Y007898*
X018564Y007889*
X018575Y007881*
X018587Y007873*
X018599Y007867*
X018612Y007861*
X018625Y007856*
X018639Y007853*
X018652Y007850*
X018666Y007848*
X018680Y007847*
X018694*
X018708Y007848*
X018722Y007850*
X018735Y007853*
X018749Y007856*
X018762Y007861*
X018775Y007867*
X018787Y007873*
X018799Y007881*
X018810Y007889*
X018821Y007898*
X018831Y007908*
X018840Y007918*
X018849Y007929*
X018857Y007941*
X018863Y007953*
X018870Y007965*
X018875Y007978*
X018879Y007991*
X018883Y008005*
X018885Y008019*
X018886Y008033*
X018887Y008047*
X017887Y009047D02*
D01*
X017886Y009060*
X017885Y009074*
X017883Y009088*
X017879Y009102*
X017875Y009115*
X017870Y009128*
X017863Y009140*
X017857Y009152*
X017849Y009164*
X017840Y009175*
X017831Y009185*
X017821Y009195*
X017810Y009204*
X017799Y009212*
X017787Y009220*
X017775Y009226*
X017762Y009232*
X017749Y009237*
X017735Y009241*
X017722Y009243*
X017708Y009245*
X017694Y009246*
X017680*
X017666Y009245*
X017652Y009243*
X017639Y009241*
X017625Y009237*
X017612Y009232*
X017599Y009226*
X017587Y009220*
X017575Y009212*
X017564Y009204*
X017553Y009195*
X017543Y009185*
X017534Y009175*
X017525Y009164*
X017517Y009152*
X017510Y009140*
X017504Y009128*
X017499Y009115*
X017495Y009102*
X017491Y009088*
X017489Y009074*
X017487Y009060*
X017487Y009047*
X017487Y009033*
X017489Y009019*
X017491Y009005*
X017495Y008991*
X017499Y008978*
X017504Y008965*
X017510Y008953*
X017517Y008941*
X017525Y008929*
X017534Y008918*
X017543Y008908*
X017553Y008898*
X017564Y008889*
X017575Y008881*
X017587Y008873*
X017599Y008867*
X017612Y008861*
X017625Y008856*
X017639Y008852*
X017652Y008850*
X017666Y008848*
X017680Y008847*
X017694*
X017708Y008848*
X017722Y008850*
X017735Y008852*
X017749Y008856*
X017762Y008861*
X017775Y008867*
X017787Y008873*
X017799Y008881*
X017810Y008889*
X017821Y008898*
X017831Y008908*
X017840Y008918*
X017849Y008929*
X017857Y008941*
X017863Y008953*
X017870Y008965*
X017875Y008978*
X017879Y008991*
X017883Y009005*
X017885Y009019*
X017886Y009033*
X017887Y009047*
Y008047D02*
D01*
X017886Y008061*
X017885Y008074*
X017883Y008088*
X017879Y008102*
X017875Y008115*
X017870Y008128*
X017863Y008140*
X017857Y008153*
X017849Y008164*
X017840Y008175*
X017831Y008186*
X017821Y008195*
X017810Y008204*
X017799Y008212*
X017787Y008220*
X017775Y008226*
X017762Y008232*
X017749Y008237*
X017735Y008241*
X017722Y008244*
X017708Y008246*
X017694Y008246*
X017680*
X017666Y008246*
X017652Y008244*
X017639Y008241*
X017625Y008237*
X017612Y008232*
X017599Y008226*
X017587Y008220*
X017575Y008212*
X017564Y008204*
X017553Y008195*
X017543Y008186*
X017534Y008175*
X017525Y008164*
X017517Y008153*
X017510Y008140*
X017504Y008128*
X017499Y008115*
X017495Y008102*
X017491Y008088*
X017489Y008074*
X017487Y008061*
X017487Y008047*
X017487Y008033*
X017489Y008019*
X017491Y008005*
X017495Y007991*
X017499Y007978*
X017504Y007965*
X017510Y007953*
X017517Y007941*
X017525Y007929*
X017534Y007918*
X017543Y007908*
X017553Y007898*
X017564Y007889*
X017575Y007881*
X017587Y007873*
X017599Y007867*
X017612Y007861*
X017625Y007856*
X017639Y007853*
X017652Y007850*
X017666Y007848*
X017680Y007847*
X017694*
X017708Y007848*
X017722Y007850*
X017735Y007853*
X017749Y007856*
X017762Y007861*
X017775Y007867*
X017787Y007873*
X017799Y007881*
X017810Y007889*
X017821Y007898*
X017831Y007908*
X017840Y007918*
X017849Y007929*
X017857Y007941*
X017863Y007953*
X017870Y007965*
X017875Y007978*
X017879Y007991*
X017883Y008005*
X017885Y008019*
X017886Y008033*
X017887Y008047*
X016887Y009047D02*
D01*
X016886Y009060*
X016885Y009074*
X016883Y009088*
X016879Y009102*
X016875Y009115*
X016870Y009128*
X016863Y009140*
X016857Y009152*
X016849Y009164*
X016840Y009175*
X016831Y009185*
X016821Y009195*
X016810Y009204*
X016799Y009212*
X016787Y009220*
X016775Y009226*
X016762Y009232*
X016749Y009237*
X016735Y009241*
X016722Y009243*
X016708Y009245*
X016694Y009246*
X016680*
X016666Y009245*
X016652Y009243*
X016639Y009241*
X016625Y009237*
X016612Y009232*
X016599Y009226*
X016587Y009220*
X016575Y009212*
X016564Y009204*
X016553Y009195*
X016543Y009185*
X016534Y009175*
X016525Y009164*
X016517Y009152*
X016510Y009140*
X016504Y009128*
X016499Y009115*
X016495Y009102*
X016491Y009088*
X016489Y009074*
X016487Y009060*
X016487Y009047*
X016487Y009033*
X016489Y009019*
X016491Y009005*
X016495Y008991*
X016499Y008978*
X016504Y008965*
X016510Y008953*
X016517Y008941*
X016525Y008929*
X016534Y008918*
X016543Y008908*
X016553Y008898*
X016564Y008889*
X016575Y008881*
X016587Y008873*
X016599Y008867*
X016612Y008861*
X016625Y008856*
X016639Y008852*
X016652Y008850*
X016666Y008848*
X016680Y008847*
X016694*
X016708Y008848*
X016722Y008850*
X016735Y008852*
X016749Y008856*
X016762Y008861*
X016775Y008867*
X016787Y008873*
X016799Y008881*
X016810Y008889*
X016821Y008898*
X016831Y008908*
X016840Y008918*
X016849Y008929*
X016857Y008941*
X016863Y008953*
X016870Y008965*
X016875Y008978*
X016879Y008991*
X016883Y009005*
X016885Y009019*
X016886Y009033*
X016887Y009047*
Y008047D02*
D01*
X016886Y008061*
X016885Y008074*
X016883Y008088*
X016879Y008102*
X016875Y008115*
X016870Y008128*
X016863Y008140*
X016857Y008153*
X016849Y008164*
X016840Y008175*
X016831Y008186*
X016821Y008195*
X016810Y008204*
X016799Y008212*
X016787Y008220*
X016775Y008226*
X016762Y008232*
X016749Y008237*
X016735Y008241*
X016722Y008244*
X016708Y008246*
X016694Y008246*
X016680*
X016666Y008246*
X016652Y008244*
X016639Y008241*
X016625Y008237*
X016612Y008232*
X016599Y008226*
X016587Y008220*
X016575Y008212*
X016564Y008204*
X016553Y008195*
X016543Y008186*
X016534Y008175*
X016525Y008164*
X016517Y008153*
X016510Y008140*
X016504Y008128*
X016499Y008115*
X016495Y008102*
X016491Y008088*
X016489Y008074*
X016487Y008061*
X016487Y008047*
X016487Y008033*
X016489Y008019*
X016491Y008005*
X016495Y007991*
X016499Y007978*
X016504Y007965*
X016510Y007953*
X016517Y007941*
X016525Y007929*
X016534Y007918*
X016543Y007908*
X016553Y007898*
X016564Y007889*
X016575Y007881*
X016587Y007873*
X016599Y007867*
X016612Y007861*
X016625Y007856*
X016639Y007853*
X016652Y007850*
X016666Y007848*
X016680Y007847*
X016694*
X016708Y007848*
X016722Y007850*
X016735Y007853*
X016749Y007856*
X016762Y007861*
X016775Y007867*
X016787Y007873*
X016799Y007881*
X016810Y007889*
X016821Y007898*
X016831Y007908*
X016840Y007918*
X016849Y007929*
X016857Y007941*
X016863Y007953*
X016870Y007965*
X016875Y007978*
X016879Y007991*
X016883Y008005*
X016885Y008019*
X016886Y008033*
X016887Y008047*
X015887Y009047D02*
D01*
X015886Y009060*
X015885Y009074*
X015883Y009088*
X015879Y009102*
X015875Y009115*
X015870Y009128*
X015863Y009140*
X015857Y009152*
X015849Y009164*
X015840Y009175*
X015831Y009185*
X015821Y009195*
X015810Y009204*
X015799Y009212*
X015787Y009220*
X015775Y009226*
X015762Y009232*
X015749Y009237*
X015735Y009241*
X015722Y009243*
X015708Y009245*
X015694Y009246*
X015680*
X015666Y009245*
X015652Y009243*
X015639Y009241*
X015625Y009237*
X015612Y009232*
X015599Y009226*
X015587Y009220*
X015575Y009212*
X015564Y009204*
X015553Y009195*
X015543Y009185*
X015534Y009175*
X015525Y009164*
X015517Y009152*
X015510Y009140*
X015504Y009128*
X015499Y009115*
X015495Y009102*
X015491Y009088*
X015489Y009074*
X015487Y009060*
X015487Y009047*
X015487Y009033*
X015489Y009019*
X015491Y009005*
X015495Y008991*
X015499Y008978*
X015504Y008965*
X015510Y008953*
X015517Y008941*
X015525Y008929*
X015534Y008918*
X015543Y008908*
X015553Y008898*
X015564Y008889*
X015575Y008881*
X015587Y008873*
X015599Y008867*
X015612Y008861*
X015625Y008856*
X015639Y008852*
X015652Y008850*
X015666Y008848*
X015680Y008847*
X015694*
X015708Y008848*
X015722Y008850*
X015735Y008852*
X015749Y008856*
X015762Y008861*
X015775Y008867*
X015787Y008873*
X015799Y008881*
X015810Y008889*
X015821Y008898*
X015831Y008908*
X015840Y008918*
X015849Y008929*
X015857Y008941*
X015863Y008953*
X015870Y008965*
X015875Y008978*
X015879Y008991*
X015883Y009005*
X015885Y009019*
X015886Y009033*
X015887Y009047*
Y008047D02*
D01*
X015886Y008061*
X015885Y008074*
X015883Y008088*
X015879Y008102*
X015875Y008115*
X015870Y008128*
X015863Y008140*
X015857Y008153*
X015849Y008164*
X015840Y008175*
X015831Y008186*
X015821Y008195*
X015810Y008204*
X015799Y008212*
X015787Y008220*
X015775Y008226*
X015762Y008232*
X015749Y008237*
X015735Y008241*
X015722Y008244*
X015708Y008246*
X015694Y008246*
X015680*
X015666Y008246*
X015652Y008244*
X015639Y008241*
X015625Y008237*
X015612Y008232*
X015599Y008226*
X015587Y008220*
X015575Y008212*
X015564Y008204*
X015553Y008195*
X015543Y008186*
X015534Y008175*
X015525Y008164*
X015517Y008153*
X015510Y008140*
X015504Y008128*
X015499Y008115*
X015495Y008102*
X015491Y008088*
X015489Y008074*
X015487Y008061*
X015487Y008047*
X015487Y008033*
X015489Y008019*
X015491Y008005*
X015495Y007991*
X015499Y007978*
X015504Y007965*
X015510Y007953*
X015517Y007941*
X015525Y007929*
X015534Y007918*
X015543Y007908*
X015553Y007898*
X015564Y007889*
X015575Y007881*
X015587Y007873*
X015599Y007867*
X015612Y007861*
X015625Y007856*
X015639Y007853*
X015652Y007850*
X015666Y007848*
X015680Y007847*
X015694*
X015708Y007848*
X015722Y007850*
X015735Y007853*
X015749Y007856*
X015762Y007861*
X015775Y007867*
X015787Y007873*
X015799Y007881*
X015810Y007889*
X015821Y007898*
X015831Y007908*
X015840Y007918*
X015849Y007929*
X015857Y007941*
X015863Y007953*
X015870Y007965*
X015875Y007978*
X015879Y007991*
X015883Y008005*
X015885Y008019*
X015886Y008033*
X015887Y008047*
X022887Y004847D02*
D01*
X022886Y004861*
X022885Y004874*
X022883Y004888*
X022879Y004902*
X022875Y004915*
X022870Y004928*
X022863Y004940*
X022857Y004953*
X022849Y004964*
X022840Y004975*
X022831Y004986*
X022821Y004995*
X022810Y005004*
X022799Y005012*
X022787Y005020*
X022775Y005026*
X022762Y005032*
X022749Y005037*
X022735Y005041*
X022722Y005044*
X022708Y005046*
X022694Y005046*
X022680*
X022666Y005046*
X022652Y005044*
X022639Y005041*
X022625Y005037*
X022612Y005032*
X022599Y005026*
X022587Y005020*
X022575Y005012*
X022564Y005004*
X022553Y004995*
X022543Y004986*
X022534Y004975*
X022525Y004964*
X022517Y004953*
X022510Y004940*
X022504Y004928*
X022499Y004915*
X022495Y004902*
X022491Y004888*
X022489Y004874*
X022487Y004861*
X022487Y004847*
X022487Y004833*
X022489Y004819*
X022491Y004805*
X022495Y004791*
X022499Y004778*
X022504Y004765*
X022510Y004753*
X022517Y004741*
X022525Y004729*
X022534Y004718*
X022543Y004708*
X022553Y004698*
X022564Y004689*
X022575Y004681*
X022587Y004673*
X022599Y004667*
X022612Y004661*
X022625Y004656*
X022639Y004653*
X022652Y004650*
X022666Y004648*
X022680Y004647*
X022694*
X022708Y004648*
X022722Y004650*
X022735Y004653*
X022749Y004656*
X022762Y004661*
X022775Y004667*
X022787Y004673*
X022799Y004681*
X022810Y004689*
X022821Y004698*
X022831Y004708*
X022840Y004718*
X022849Y004729*
X022857Y004741*
X022863Y004753*
X022870Y004765*
X022875Y004778*
X022879Y004791*
X022883Y004805*
X022885Y004819*
X022886Y004833*
X022887Y004847*
X021887D02*
D01*
X021886Y004861*
X021885Y004874*
X021883Y004888*
X021879Y004902*
X021875Y004915*
X021870Y004928*
X021863Y004940*
X021857Y004953*
X021849Y004964*
X021840Y004975*
X021831Y004986*
X021821Y004995*
X021810Y005004*
X021799Y005012*
X021787Y005020*
X021775Y005026*
X021762Y005032*
X021749Y005037*
X021735Y005041*
X021722Y005044*
X021708Y005046*
X021694Y005046*
X021680*
X021666Y005046*
X021652Y005044*
X021639Y005041*
X021625Y005037*
X021612Y005032*
X021599Y005026*
X021587Y005020*
X021575Y005012*
X021564Y005004*
X021553Y004995*
X021543Y004986*
X021534Y004975*
X021525Y004964*
X021517Y004953*
X021510Y004940*
X021504Y004928*
X021499Y004915*
X021495Y004902*
X021491Y004888*
X021489Y004874*
X021487Y004861*
X021487Y004847*
X021487Y004833*
X021489Y004819*
X021491Y004805*
X021495Y004791*
X021499Y004778*
X021504Y004765*
X021510Y004753*
X021517Y004741*
X021525Y004729*
X021534Y004718*
X021543Y004708*
X021553Y004698*
X021564Y004689*
X021575Y004681*
X021587Y004673*
X021599Y004667*
X021612Y004661*
X021625Y004656*
X021639Y004653*
X021652Y004650*
X021666Y004648*
X021680Y004647*
X021694*
X021708Y004648*
X021722Y004650*
X021735Y004653*
X021749Y004656*
X021762Y004661*
X021775Y004667*
X021787Y004673*
X021799Y004681*
X021810Y004689*
X021821Y004698*
X021831Y004708*
X021840Y004718*
X021849Y004729*
X021857Y004741*
X021863Y004753*
X021870Y004765*
X021875Y004778*
X021879Y004791*
X021883Y004805*
X021885Y004819*
X021886Y004833*
X021887Y004847*
X020887D02*
D01*
X020886Y004861*
X020885Y004874*
X020883Y004888*
X020879Y004902*
X020875Y004915*
X020870Y004928*
X020863Y004940*
X020857Y004953*
X020849Y004964*
X020840Y004975*
X020831Y004986*
X020821Y004995*
X020810Y005004*
X020799Y005012*
X020787Y005020*
X020775Y005026*
X020762Y005032*
X020749Y005037*
X020735Y005041*
X020722Y005044*
X020708Y005046*
X020694Y005046*
X020680*
X020666Y005046*
X020652Y005044*
X020639Y005041*
X020625Y005037*
X020612Y005032*
X020599Y005026*
X020587Y005020*
X020575Y005012*
X020564Y005004*
X020553Y004995*
X020543Y004986*
X020534Y004975*
X020525Y004964*
X020517Y004953*
X020510Y004940*
X020504Y004928*
X020499Y004915*
X020495Y004902*
X020491Y004888*
X020489Y004874*
X020487Y004861*
X020487Y004847*
X020487Y004833*
X020489Y004819*
X020491Y004805*
X020495Y004791*
X020499Y004778*
X020504Y004765*
X020510Y004753*
X020517Y004741*
X020525Y004729*
X020534Y004718*
X020543Y004708*
X020553Y004698*
X020564Y004689*
X020575Y004681*
X020587Y004673*
X020599Y004667*
X020612Y004661*
X020625Y004656*
X020639Y004653*
X020652Y004650*
X020666Y004648*
X020680Y004647*
X020694*
X020708Y004648*
X020722Y004650*
X020735Y004653*
X020749Y004656*
X020762Y004661*
X020775Y004667*
X020787Y004673*
X020799Y004681*
X020810Y004689*
X020821Y004698*
X020831Y004708*
X020840Y004718*
X020849Y004729*
X020857Y004741*
X020863Y004753*
X020870Y004765*
X020875Y004778*
X020879Y004791*
X020883Y004805*
X020885Y004819*
X020886Y004833*
X020887Y004847*
X019887D02*
D01*
X019886Y004861*
X019885Y004874*
X019883Y004888*
X019879Y004902*
X019875Y004915*
X019870Y004928*
X019863Y004940*
X019857Y004953*
X019849Y004964*
X019840Y004975*
X019831Y004986*
X019821Y004995*
X019810Y005004*
X019799Y005012*
X019787Y005020*
X019775Y005026*
X019762Y005032*
X019749Y005037*
X019735Y005041*
X019722Y005044*
X019708Y005046*
X019694Y005046*
X019680*
X019666Y005046*
X019652Y005044*
X019639Y005041*
X019625Y005037*
X019612Y005032*
X019599Y005026*
X019587Y005020*
X019575Y005012*
X019564Y005004*
X019553Y004995*
X019543Y004986*
X019534Y004975*
X019525Y004964*
X019517Y004953*
X019510Y004940*
X019504Y004928*
X019499Y004915*
X019495Y004902*
X019491Y004888*
X019489Y004874*
X019487Y004861*
X019487Y004847*
X019487Y004833*
X019489Y004819*
X019491Y004805*
X019495Y004791*
X019499Y004778*
X019504Y004765*
X019510Y004753*
X019517Y004741*
X019525Y004729*
X019534Y004718*
X019543Y004708*
X019553Y004698*
X019564Y004689*
X019575Y004681*
X019587Y004673*
X019599Y004667*
X019612Y004661*
X019625Y004656*
X019639Y004653*
X019652Y004650*
X019666Y004648*
X019680Y004647*
X019694*
X019708Y004648*
X019722Y004650*
X019735Y004653*
X019749Y004656*
X019762Y004661*
X019775Y004667*
X019787Y004673*
X019799Y004681*
X019810Y004689*
X019821Y004698*
X019831Y004708*
X019840Y004718*
X019849Y004729*
X019857Y004741*
X019863Y004753*
X019870Y004765*
X019875Y004778*
X019879Y004791*
X019883Y004805*
X019885Y004819*
X019886Y004833*
X019887Y004847*
X018887D02*
D01*
X018886Y004861*
X018885Y004874*
X018883Y004888*
X018879Y004902*
X018875Y004915*
X018870Y004928*
X018863Y004940*
X018857Y004953*
X018849Y004964*
X018840Y004975*
X018831Y004986*
X018821Y004995*
X018810Y005004*
X018799Y005012*
X018787Y005020*
X018775Y005026*
X018762Y005032*
X018749Y005037*
X018735Y005041*
X018722Y005044*
X018708Y005046*
X018694Y005046*
X018680*
X018666Y005046*
X018652Y005044*
X018639Y005041*
X018625Y005037*
X018612Y005032*
X018599Y005026*
X018587Y005020*
X018575Y005012*
X018564Y005004*
X018553Y004995*
X018543Y004986*
X018534Y004975*
X018525Y004964*
X018517Y004953*
X018510Y004940*
X018504Y004928*
X018499Y004915*
X018495Y004902*
X018491Y004888*
X018489Y004874*
X018487Y004861*
X018487Y004847*
X018487Y004833*
X018489Y004819*
X018491Y004805*
X018495Y004791*
X018499Y004778*
X018504Y004765*
X018510Y004753*
X018517Y004741*
X018525Y004729*
X018534Y004718*
X018543Y004708*
X018553Y004698*
X018564Y004689*
X018575Y004681*
X018587Y004673*
X018599Y004667*
X018612Y004661*
X018625Y004656*
X018639Y004653*
X018652Y004650*
X018666Y004648*
X018680Y004647*
X018694*
X018708Y004648*
X018722Y004650*
X018735Y004653*
X018749Y004656*
X018762Y004661*
X018775Y004667*
X018787Y004673*
X018799Y004681*
X018810Y004689*
X018821Y004698*
X018831Y004708*
X018840Y004718*
X018849Y004729*
X018857Y004741*
X018863Y004753*
X018870Y004765*
X018875Y004778*
X018879Y004791*
X018883Y004805*
X018885Y004819*
X018886Y004833*
X018887Y004847*
X017887D02*
D01*
X017886Y004861*
X017885Y004874*
X017883Y004888*
X017879Y004902*
X017875Y004915*
X017870Y004928*
X017863Y004940*
X017857Y004953*
X017849Y004964*
X017840Y004975*
X017831Y004986*
X017821Y004995*
X017810Y005004*
X017799Y005012*
X017787Y005020*
X017775Y005026*
X017762Y005032*
X017749Y005037*
X017735Y005041*
X017722Y005044*
X017708Y005046*
X017694Y005046*
X017680*
X017666Y005046*
X017652Y005044*
X017639Y005041*
X017625Y005037*
X017612Y005032*
X017599Y005026*
X017587Y005020*
X017575Y005012*
X017564Y005004*
X017553Y004995*
X017543Y004986*
X017534Y004975*
X017525Y004964*
X017517Y004953*
X017510Y004940*
X017504Y004928*
X017499Y004915*
X017495Y004902*
X017491Y004888*
X017489Y004874*
X017487Y004861*
X017487Y004847*
X017487Y004833*
X017489Y004819*
X017491Y004805*
X017495Y004791*
X017499Y004778*
X017504Y004765*
X017510Y004753*
X017517Y004741*
X017525Y004729*
X017534Y004718*
X017543Y004708*
X017553Y004698*
X017564Y004689*
X017575Y004681*
X017587Y004673*
X017599Y004667*
X017612Y004661*
X017625Y004656*
X017639Y004653*
X017652Y004650*
X017666Y004648*
X017680Y004647*
X017694*
X017708Y004648*
X017722Y004650*
X017735Y004653*
X017749Y004656*
X017762Y004661*
X017775Y004667*
X017787Y004673*
X017799Y004681*
X017810Y004689*
X017821Y004698*
X017831Y004708*
X017840Y004718*
X017849Y004729*
X017857Y004741*
X017863Y004753*
X017870Y004765*
X017875Y004778*
X017879Y004791*
X017883Y004805*
X017885Y004819*
X017886Y004833*
X017887Y004847*
X022887Y001847D02*
D01*
X022886Y001861*
X022885Y001874*
X022883Y001888*
X022879Y001902*
X022875Y001915*
X022870Y001928*
X022863Y001940*
X022857Y001953*
X022849Y001964*
X022840Y001975*
X022831Y001986*
X022821Y001995*
X022810Y002004*
X022799Y002012*
X022787Y002020*
X022775Y002026*
X022762Y002032*
X022749Y002037*
X022735Y002041*
X022722Y002044*
X022708Y002046*
X022694Y002046*
X022680*
X022666Y002046*
X022652Y002044*
X022639Y002041*
X022625Y002037*
X022612Y002032*
X022599Y002026*
X022587Y002020*
X022575Y002012*
X022564Y002004*
X022553Y001995*
X022543Y001986*
X022534Y001975*
X022525Y001964*
X022517Y001953*
X022510Y001940*
X022504Y001928*
X022499Y001915*
X022495Y001902*
X022491Y001888*
X022489Y001874*
X022487Y001861*
X022487Y001847*
X022487Y001833*
X022489Y001819*
X022491Y001805*
X022495Y001791*
X022499Y001778*
X022504Y001765*
X022510Y001753*
X022517Y001741*
X022525Y001729*
X022534Y001718*
X022543Y001708*
X022553Y001698*
X022564Y001689*
X022575Y001681*
X022587Y001673*
X022599Y001667*
X022612Y001661*
X022625Y001656*
X022639Y001653*
X022652Y001650*
X022666Y001648*
X022680Y001647*
X022694*
X022708Y001648*
X022722Y001650*
X022735Y001653*
X022749Y001656*
X022762Y001661*
X022775Y001667*
X022787Y001673*
X022799Y001681*
X022810Y001689*
X022821Y001698*
X022831Y001708*
X022840Y001718*
X022849Y001729*
X022857Y001741*
X022863Y001753*
X022870Y001765*
X022875Y001778*
X022879Y001791*
X022883Y001805*
X022885Y001819*
X022886Y001833*
X022887Y001847*
X021887D02*
D01*
X021886Y001861*
X021885Y001874*
X021883Y001888*
X021879Y001902*
X021875Y001915*
X021870Y001928*
X021863Y001940*
X021857Y001953*
X021849Y001964*
X021840Y001975*
X021831Y001986*
X021821Y001995*
X021810Y002004*
X021799Y002012*
X021787Y002020*
X021775Y002026*
X021762Y002032*
X021749Y002037*
X021735Y002041*
X021722Y002044*
X021708Y002046*
X021694Y002046*
X021680*
X021666Y002046*
X021652Y002044*
X021639Y002041*
X021625Y002037*
X021612Y002032*
X021599Y002026*
X021587Y002020*
X021575Y002012*
X021564Y002004*
X021553Y001995*
X021543Y001986*
X021534Y001975*
X021525Y001964*
X021517Y001953*
X021510Y001940*
X021504Y001928*
X021499Y001915*
X021495Y001902*
X021491Y001888*
X021489Y001874*
X021487Y001861*
X021487Y001847*
X021487Y001833*
X021489Y001819*
X021491Y001805*
X021495Y001791*
X021499Y001778*
X021504Y001765*
X021510Y001753*
X021517Y001741*
X021525Y001729*
X021534Y001718*
X021543Y001708*
X021553Y001698*
X021564Y001689*
X021575Y001681*
X021587Y001673*
X021599Y001667*
X021612Y001661*
X021625Y001656*
X021639Y001653*
X021652Y001650*
X021666Y001648*
X021680Y001647*
X021694*
X021708Y001648*
X021722Y001650*
X021735Y001653*
X021749Y001656*
X021762Y001661*
X021775Y001667*
X021787Y001673*
X021799Y001681*
X021810Y001689*
X021821Y001698*
X021831Y001708*
X021840Y001718*
X021849Y001729*
X021857Y001741*
X021863Y001753*
X021870Y001765*
X021875Y001778*
X021879Y001791*
X021883Y001805*
X021885Y001819*
X021886Y001833*
X021887Y001847*
X020887D02*
D01*
X020886Y001861*
X020885Y001874*
X020883Y001888*
X020879Y001902*
X020875Y001915*
X020870Y001928*
X020863Y001940*
X020857Y001953*
X020849Y001964*
X020840Y001975*
X020831Y001986*
X020821Y001995*
X020810Y002004*
X020799Y002012*
X020787Y002020*
X020775Y002026*
X020762Y002032*
X020749Y002037*
X020735Y002041*
X020722Y002044*
X020708Y002046*
X020694Y002046*
X020680*
X020666Y002046*
X020652Y002044*
X020639Y002041*
X020625Y002037*
X020612Y002032*
X020599Y002026*
X020587Y002020*
X020575Y002012*
X020564Y002004*
X020553Y001995*
X020543Y001986*
X020534Y001975*
X020525Y001964*
X020517Y001953*
X020510Y001940*
X020504Y001928*
X020499Y001915*
X020495Y001902*
X020491Y001888*
X020489Y001874*
X020487Y001861*
X020487Y001847*
X020487Y001833*
X020489Y001819*
X020491Y001805*
X020495Y001791*
X020499Y001778*
X020504Y001765*
X020510Y001753*
X020517Y001741*
X020525Y001729*
X020534Y001718*
X020543Y001708*
X020553Y001698*
X020564Y001689*
X020575Y001681*
X020587Y001673*
X020599Y001667*
X020612Y001661*
X020625Y001656*
X020639Y001653*
X020652Y001650*
X020666Y001648*
X020680Y001647*
X020694*
X020708Y001648*
X020722Y001650*
X020735Y001653*
X020749Y001656*
X020762Y001661*
X020775Y001667*
X020787Y001673*
X020799Y001681*
X020810Y001689*
X020821Y001698*
X020831Y001708*
X020840Y001718*
X020849Y001729*
X020857Y001741*
X020863Y001753*
X020870Y001765*
X020875Y001778*
X020879Y001791*
X020883Y001805*
X020885Y001819*
X020886Y001833*
X020887Y001847*
X019887D02*
D01*
X019886Y001861*
X019885Y001874*
X019883Y001888*
X019879Y001902*
X019875Y001915*
X019870Y001928*
X019863Y001940*
X019857Y001953*
X019849Y001964*
X019840Y001975*
X019831Y001986*
X019821Y001995*
X019810Y002004*
X019799Y002012*
X019787Y002020*
X019775Y002026*
X019762Y002032*
X019749Y002037*
X019735Y002041*
X019722Y002044*
X019708Y002046*
X019694Y002046*
X019680*
X019666Y002046*
X019652Y002044*
X019639Y002041*
X019625Y002037*
X019612Y002032*
X019599Y002026*
X019587Y002020*
X019575Y002012*
X019564Y002004*
X019553Y001995*
X019543Y001986*
X019534Y001975*
X019525Y001964*
X019517Y001953*
X019510Y001940*
X019504Y001928*
X019499Y001915*
X019495Y001902*
X019491Y001888*
X019489Y001874*
X019487Y001861*
X019487Y001847*
X019487Y001833*
X019489Y001819*
X019491Y001805*
X019495Y001791*
X019499Y001778*
X019504Y001765*
X019510Y001753*
X019517Y001741*
X019525Y001729*
X019534Y001718*
X019543Y001708*
X019553Y001698*
X019564Y001689*
X019575Y001681*
X019587Y001673*
X019599Y001667*
X019612Y001661*
X019625Y001656*
X019639Y001653*
X019652Y001650*
X019666Y001648*
X019680Y001647*
X019694*
X019708Y001648*
X019722Y001650*
X019735Y001653*
X019749Y001656*
X019762Y001661*
X019775Y001667*
X019787Y001673*
X019799Y001681*
X019810Y001689*
X019821Y001698*
X019831Y001708*
X019840Y001718*
X019849Y001729*
X019857Y001741*
X019863Y001753*
X019870Y001765*
X019875Y001778*
X019879Y001791*
X019883Y001805*
X019885Y001819*
X019886Y001833*
X019887Y001847*
X018887D02*
D01*
X018886Y001861*
X018885Y001874*
X018883Y001888*
X018879Y001902*
X018875Y001915*
X018870Y001928*
X018863Y001940*
X018857Y001953*
X018849Y001964*
X018840Y001975*
X018831Y001986*
X018821Y001995*
X018810Y002004*
X018799Y002012*
X018787Y002020*
X018775Y002026*
X018762Y002032*
X018749Y002037*
X018735Y002041*
X018722Y002044*
X018708Y002046*
X018694Y002046*
X018680*
X018666Y002046*
X018652Y002044*
X018639Y002041*
X018625Y002037*
X018612Y002032*
X018599Y002026*
X018587Y002020*
X018575Y002012*
X018564Y002004*
X018553Y001995*
X018543Y001986*
X018534Y001975*
X018525Y001964*
X018517Y001953*
X018510Y001940*
X018504Y001928*
X018499Y001915*
X018495Y001902*
X018491Y001888*
X018489Y001874*
X018487Y001861*
X018487Y001847*
X018487Y001833*
X018489Y001819*
X018491Y001805*
X018495Y001791*
X018499Y001778*
X018504Y001765*
X018510Y001753*
X018517Y001741*
X018525Y001729*
X018534Y001718*
X018543Y001708*
X018553Y001698*
X018564Y001689*
X018575Y001681*
X018587Y001673*
X018599Y001667*
X018612Y001661*
X018625Y001656*
X018639Y001653*
X018652Y001650*
X018666Y001648*
X018680Y001647*
X018694*
X018708Y001648*
X018722Y001650*
X018735Y001653*
X018749Y001656*
X018762Y001661*
X018775Y001667*
X018787Y001673*
X018799Y001681*
X018810Y001689*
X018821Y001698*
X018831Y001708*
X018840Y001718*
X018849Y001729*
X018857Y001741*
X018863Y001753*
X018870Y001765*
X018875Y001778*
X018879Y001791*
X018883Y001805*
X018885Y001819*
X018886Y001833*
X018887Y001847*
X017887D02*
D01*
X017886Y001861*
X017885Y001874*
X017883Y001888*
X017879Y001902*
X017875Y001915*
X017870Y001928*
X017863Y001940*
X017857Y001953*
X017849Y001964*
X017840Y001975*
X017831Y001986*
X017821Y001995*
X017810Y002004*
X017799Y002012*
X017787Y002020*
X017775Y002026*
X017762Y002032*
X017749Y002037*
X017735Y002041*
X017722Y002044*
X017708Y002046*
X017694Y002046*
X017680*
X017666Y002046*
X017652Y002044*
X017639Y002041*
X017625Y002037*
X017612Y002032*
X017599Y002026*
X017587Y002020*
X017575Y002012*
X017564Y002004*
X017553Y001995*
X017543Y001986*
X017534Y001975*
X017525Y001964*
X017517Y001953*
X017510Y001940*
X017504Y001928*
X017499Y001915*
X017495Y001902*
X017491Y001888*
X017489Y001874*
X017487Y001861*
X017487Y001847*
X017487Y001833*
X017489Y001819*
X017491Y001805*
X017495Y001791*
X017499Y001778*
X017504Y001765*
X017510Y001753*
X017517Y001741*
X017525Y001729*
X017534Y001718*
X017543Y001708*
X017553Y001698*
X017564Y001689*
X017575Y001681*
X017587Y001673*
X017599Y001667*
X017612Y001661*
X017625Y001656*
X017639Y001653*
X017652Y001650*
X017666Y001648*
X017680Y001647*
X017694*
X017708Y001648*
X017722Y001650*
X017735Y001653*
X017749Y001656*
X017762Y001661*
X017775Y001667*
X017787Y001673*
X017799Y001681*
X017810Y001689*
X017821Y001698*
X017831Y001708*
X017840Y001718*
X017849Y001729*
X017857Y001741*
X017863Y001753*
X017870Y001765*
X017875Y001778*
X017879Y001791*
X017883Y001805*
X017885Y001819*
X017886Y001833*
X017887Y001847*
M02*