%FSDAX24Y24*%
%MOIN*%
%SFA1B1*%

%IPPOS*%
%ADD22C,0.060000*%
%ADD23C,0.059060*%
%ADD24R,0.059060X0.059060*%
%ADD25C,0.059060*%
%ADD26R,0.059060X0.059060*%
%ADD28R,0.039370X0.043310*%
%ADD29R,0.043310X0.039370*%
%LNde-140824_1-1*%
%LPD*%
G54D22*
X004623Y002461D03*
X002851D03*
X004623Y004232D03*
X002851D03*
X011773Y002461D03*
X010001D03*
X011773Y004232D03*
X010001D03*
G54D23*
X022687Y009047D03*
Y008047D03*
X021687Y009047D03*
Y008047D03*
X020687Y009047D03*
Y008047D03*
X019687Y009047D03*
Y008047D03*
X018687Y009047D03*
Y008047D03*
X017687Y009047D03*
Y008047D03*
X016687Y009047D03*
Y008047D03*
X015687Y009047D03*
X022687Y004847D03*
X021687D03*
X020687D03*
X019687D03*
X018687D03*
X017687D03*
X022687Y001847D03*
G54D24*
X015687Y008047D03*
G54D25*
X021687Y001847D03*
X020687D03*
X019687D03*
X018687D03*
G54D26*
X017687Y001847D03*
G54D28*
X018687Y006312D03*
Y006981D03*
X017687Y006312D03*
Y006981D03*
X016687Y006312D03*
Y006981D03*
X015687Y006312D03*
Y006981D03*
G54D29*
X003402Y003297D03*
X004072D03*
X010602Y003347D03*
X011272D03*
M02*