%FSDAX24Y24*%
%MOIN*%
%SFA1B1*%

%IPPOS*%
%ADD33C,0.005000*%
%LNde-140824_1-1*%
%LPD*%
G54D33*
X004473Y002461D02*
X004773D01*
X004623Y002311D02*
Y002611D01*
X002701Y002461D02*
X003001D01*
X002851Y002311D02*
Y002611D01*
X004473Y004232D02*
X004773D01*
X004623Y004082D02*
Y004382D01*
X002701Y004232D02*
X003001D01*
X002851Y004082D02*
Y004382D01*
X011623Y002461D02*
X011923D01*
X011773Y002311D02*
Y002611D01*
X009851Y002461D02*
X010151D01*
X010001Y002311D02*
Y002611D01*
X011623Y004232D02*
X011923D01*
X011773Y004082D02*
Y004382D01*
X009851Y004232D02*
X010151D01*
X010001Y004082D02*
Y004382D01*
X022510Y009047D02*
X022864D01*
X022687Y008869D02*
Y009224D01*
X022510Y008047D02*
X022864D01*
X022687Y007869D02*
Y008224D01*
X021510Y009047D02*
X021864D01*
X021687Y008869D02*
Y009224D01*
X021510Y008047D02*
X021864D01*
X021687Y007869D02*
Y008224D01*
X020510Y009047D02*
X020864D01*
X020687Y008869D02*
Y009224D01*
X020510Y008047D02*
X020864D01*
X020687Y007869D02*
Y008224D01*
X019510Y009047D02*
X019864D01*
X019687Y008869D02*
Y009224D01*
X019510Y008047D02*
X019864D01*
X019687Y007869D02*
Y008224D01*
X018510Y009047D02*
X018864D01*
X018687Y008869D02*
Y009224D01*
X018510Y008047D02*
X018864D01*
X018687Y007869D02*
Y008224D01*
X017510Y009047D02*
X017864D01*
X017687Y008869D02*
Y009224D01*
X017510Y008047D02*
X017864D01*
X017687Y007869D02*
Y008224D01*
X016510Y009047D02*
X016864D01*
X016687Y008869D02*
Y009224D01*
X016510Y008047D02*
X016864D01*
X016687Y007869D02*
Y008224D01*
X015510Y009047D02*
X015864D01*
X015687Y008869D02*
Y009224D01*
X015510Y008047D02*
X015864D01*
X015687Y007869D02*
Y008224D01*
X022510Y004847D02*
X022864D01*
X022687Y004669D02*
Y005024D01*
X021510Y004847D02*
X021864D01*
X021687Y004669D02*
Y005024D01*
X020510Y004847D02*
X020864D01*
X020687Y004669D02*
Y005024D01*
X019510Y004847D02*
X019864D01*
X019687Y004669D02*
Y005024D01*
X018510Y004847D02*
X018864D01*
X018687Y004669D02*
Y005024D01*
X017510Y004847D02*
X017864D01*
X017687Y004669D02*
Y005024D01*
X022510Y001847D02*
X022864D01*
X022687Y001669D02*
Y002024D01*
X021510Y001847D02*
X021864D01*
X021687Y001669D02*
Y002024D01*
X020510Y001847D02*
X020864D01*
X020687Y001669D02*
Y002024D01*
X019510Y001847D02*
X019864D01*
X019687Y001669D02*
Y002024D01*
X018510Y001847D02*
X018864D01*
X018687Y001669D02*
Y002024D01*
X017510Y001847D02*
X017864D01*
X017687Y001669D02*
Y002024D01*
X012077Y008347D02*
X012177D01*
X012127Y008297D02*
Y008397D01*
X010737Y008347D02*
X010837D01*
X010787Y008297D02*
Y008397D01*
X009437Y008363D02*
X009537D01*
X009487Y008313D02*
Y008413D01*
X008117Y008363D02*
X008217D01*
X008167Y008313D02*
Y008413D01*
X006797Y008363D02*
X006897D01*
X006847Y008313D02*
Y008413D01*
X005477Y008347D02*
X005577D01*
X005527Y008297D02*
Y008397D01*
X004157Y008363D02*
X004257D01*
X004207Y008313D02*
Y008413D01*
X002837Y008363D02*
X002937D01*
X002887Y008313D02*
Y008413D01*
M02*